<?xml version="1.0" encoding="UTF-8"?>
<svg width="18px" height="13px" viewBox="0 0 18 13" version="1.1" xmlns="http://www.w3.org/2000/svg" xmlns:xlink="http://www.w3.org/1999/xlink">
    <title>api-definition-icon</title>
    <g id="Portal" stroke="none" stroke-width="1" fill="none" fill-rule="evenodd">
        <g id="Portal-API-Edit" transform="translate(-97.000000, -285.000000)" fill="#CBCEDB" fill-rule="nonzero">
            <g id="Icon/Control/Burger" transform="translate(97.000000, 285.000000)">
                <path d="M6.98207506,0.244077682 C7.2782191,0.539929419 7.30514129,1.00288907 7.06284162,1.32912406 L6.98207506,1.42258898 L1.89903735,6.5 L6.98207506,11.577411 C7.2782191,11.8732628 7.30514129,12.3362224 7.06284162,12.6624574 L6.98207506,12.7559223 C6.68593101,13.0517741 6.22251395,13.0786697 5.89595663,12.8366092 L5.80239935,12.7559223 L0.327110444,7.2869007 C-0.107482814,6.8528049 -0.107886083,6.14859328 0.326209717,5.71400002 C0.326509788,5.71369961 0.32681003,5.71339937 0.327110444,5.7130993 L5.80239935,0.244077682 C6.12815781,-0.0813592274 6.65631661,-0.0813592274 6.98207506,0.244077682 Z M11.0179249,0.244077682 C11.3436834,-0.0813592274 11.8718422,-0.0813592274 12.1976006,0.244077682 L12.1976006,0.244077682 L17.6728896,5.7130993 C17.67319,5.71339937 17.6734902,5.71369961 17.6737903,5.71400002 C18.1078861,6.14859328 18.1074828,6.8528049 17.6728896,7.2869007 L17.6728896,7.2869007 L12.1976006,12.7559223 L12.1040434,12.8366092 C11.7774861,13.0786697 11.314069,13.0517741 11.0179249,12.7559223 L11.0179249,12.7559223 L10.9371584,12.6624574 C10.6948587,12.3362224 10.7217809,11.8732628 11.0179249,11.577411 L11.0179249,11.577411 L16.1009627,6.5 L11.0179249,1.42258898 L10.9371584,1.32912406 C10.6948587,1.00288907 10.7217809,0.539929419 11.0179249,0.244077682 Z" id="Combined-Shape"></path>
            </g>
        </g>
    </g>
</svg>
