<svg width="60" height="60" viewBox="0 0 60 60" fill="none" xmlns="http://www.w3.org/2000/svg">
<rect width="60" height="60" rx="10" fill="#3E6FF2" fill-opacity="0.3"/>
<path d="M24.375 31.125C21.8897 31.125 19.875 33.1397 19.875 35.625C19.875 38.1103 21.8897 40.125 24.375 40.125C26.8603 40.125 28.875 38.1103 28.875 35.625C28.875 35.0037 29.3787 34.5 30 34.5C30.6213 34.5 31.125 35.0037 31.125 35.625C31.125 39.3529 28.1029 42.375 24.375 42.375C20.6471 42.375 17.625 39.3529 17.625 35.625C17.625 31.8971 20.6471 28.875 24.375 28.875C24.9963 28.875 25.5 29.3787 25.5 30C25.5 30.6213 24.9963 31.125 24.375 31.125Z" fill="white"/>
<path fill-rule="evenodd" clip-rule="evenodd" d="M35.7479 22.6611C34.9621 21.5577 34.5 20.2078 34.5 18.75C34.5 15.0221 37.5221 12 41.25 12C44.9779 12 48 15.0221 48 18.75C48 22.4779 44.9779 25.5 41.25 25.5C39.7922 25.5 38.4423 25.0379 37.3389 24.2521L33.8849 27.7061C35.6738 29.852 36.75 32.6128 36.75 35.625C36.75 42.4595 31.2095 48 24.375 48C17.5405 48 12 42.4595 12 35.625C12 28.7905 17.5405 23.25 24.375 23.25C27.3872 23.25 30.148 24.3262 32.2939 26.1151L35.7479 22.6611ZM45.75 18.75C45.75 21.2353 43.7353 23.25 41.25 23.25C40.4155 23.25 39.634 23.0228 38.964 22.627L42.0455 19.5455C42.4848 19.1062 42.4848 18.3938 42.0455 17.9545C41.6062 17.5152 40.8938 17.5152 40.4545 17.9545L37.373 21.036C36.9772 20.366 36.75 19.5845 36.75 18.75C36.75 16.2647 38.7647 14.25 41.25 14.25C43.7353 14.25 45.75 16.2647 45.75 18.75ZM30.6949 27.7141C28.9628 26.3285 26.7656 25.5 24.375 25.5C18.7831 25.5 14.25 30.0331 14.25 35.625C14.25 41.2169 18.7831 45.75 24.375 45.75C29.9669 45.75 34.5 41.2169 34.5 35.625C34.5 33.2344 33.6715 31.0372 32.2859 29.3051L25.1705 36.4205C24.7312 36.8598 24.0188 36.8598 23.5795 36.4205C23.1402 35.9812 23.1402 35.2688 23.5795 34.8295L30.6949 27.7141Z" fill="white"/>
</svg>
