<svg width="60" height="60" viewBox="0 0 60 60" fill="none" xmlns="http://www.w3.org/2000/svg">
<rect width="60" height="60" rx="30" fill="url(#paint0_linear_1977_6011)"/>
<path d="M25.3125 30.9375C23.2414 30.9375 21.5625 32.6164 21.5625 34.6875C21.5625 36.7586 23.2414 38.4375 25.3125 38.4375C27.3836 38.4375 29.0625 36.7586 29.0625 34.6875C29.0625 34.1697 29.4822 33.75 30 33.75C30.5178 33.75 30.9375 34.1697 30.9375 34.6875C30.9375 37.7941 28.4191 40.3125 25.3125 40.3125C22.2059 40.3125 19.6875 37.7941 19.6875 34.6875C19.6875 31.5809 22.2059 29.0625 25.3125 29.0625C25.8303 29.0625 26.25 29.4822 26.25 30C26.25 30.5178 25.8303 30.9375 25.3125 30.9375Z" fill="white"/>
<path fill-rule="evenodd" clip-rule="evenodd" d="M34.7899 23.8843C34.1351 22.9647 33.75 21.8398 33.75 20.625C33.75 17.5184 36.2684 15 39.375 15C42.4816 15 45 17.5184 45 20.625C45 23.7316 42.4816 26.25 39.375 26.25C38.1602 26.25 37.0353 25.8649 36.1157 25.2101L33.2374 28.0884C34.7282 29.8767 35.625 32.1773 35.625 34.6875C35.625 40.3829 31.0079 45 25.3125 45C19.6171 45 15 40.3829 15 34.6875C15 28.9921 19.6171 24.375 25.3125 24.375C27.8227 24.375 30.1233 25.2718 31.9116 26.7626L34.7899 23.8843ZM43.125 20.625C43.125 22.6961 41.4461 24.375 39.375 24.375C38.6796 24.375 38.0283 24.1857 37.47 23.8558L40.0379 21.2879C40.404 20.9218 40.404 20.3282 40.0379 19.9621C39.6718 19.596 39.0782 19.596 38.7121 19.9621L36.1442 22.53C35.8143 21.9717 35.625 21.3204 35.625 20.625C35.625 18.5539 37.3039 16.875 39.375 16.875C41.4461 16.875 43.125 18.5539 43.125 20.625ZM30.5791 28.0951C29.1356 26.9404 27.3047 26.25 25.3125 26.25C20.6526 26.25 16.875 30.0276 16.875 34.6875C16.875 39.3474 20.6526 43.125 25.3125 43.125C29.9724 43.125 33.75 39.3474 33.75 34.6875C33.75 32.6953 33.0596 30.8644 31.9049 29.4209L25.9754 35.3504C25.6093 35.7165 25.0157 35.7165 24.6496 35.3504C24.2835 34.9843 24.2835 34.3907 24.6496 34.0246L30.5791 28.0951Z" fill="white"/>
<defs>
<linearGradient id="paint0_linear_1977_6011" x1="30" y1="-5.51343e-07" x2="11.5" y2="60" gradientUnits="userSpaceOnUse">
<stop stop-color="#49A18E"/>
<stop offset="1" stop-color="#5DC7B1"/>
</linearGradient>
</defs>
</svg>
