<svg width="22" height="23" viewBox="0 0 22 23" fill="none" xmlns="http://www.w3.org/2000/svg">
<path fill-rule="evenodd" clip-rule="evenodd" d="M22 11.5C22 17.5751 17.0751 22.5 11 22.5C4.92487 22.5 0 17.5751 0 11.5C0 5.42487 4.92487 0.5 11 0.5C17.0751 0.5 22 5.42487 22 11.5ZM20.625 11.5C20.625 16.8157 16.3157 21.125 11 21.125C5.68426 21.125 1.375 16.8157 1.375 11.5C1.375 6.18426 5.68426 1.875 11 1.875C16.3157 1.875 20.625 6.18426 20.625 11.5Z" fill="#A8CADC"/>
<path d="M6.7275 13.5025H4.6425L4.2975 14.5H3.195L5.0775 9.2575H6.3L8.1825 14.5H7.0725L6.7275 13.5025ZM6.4425 12.6625L5.685 10.4725L4.9275 12.6625H6.4425ZM12.7037 10.885C12.7037 11.165 12.6362 11.4275 12.5012 11.6725C12.3712 11.9175 12.1637 12.115 11.8787 12.265C11.5987 12.415 11.2437 12.49 10.8137 12.49H9.93615V14.5H8.88615V9.265H10.8137C11.2187 9.265 11.5637 9.335 11.8487 9.475C12.1337 9.615 12.3462 9.8075 12.4862 10.0525C12.6312 10.2975 12.7037 10.575 12.7037 10.885ZM10.7687 11.6425C11.0587 11.6425 11.2737 11.5775 11.4137 11.4475C11.5537 11.3125 11.6237 11.125 11.6237 10.885C11.6237 10.375 11.3387 10.12 10.7687 10.12H9.93615V11.6425H10.7687ZM14.4991 9.265V14.5H13.4491V9.265H14.4991ZM17.1265 14.5675C16.7865 14.5675 16.4815 14.5075 16.2115 14.3875C15.9415 14.2625 15.7265 14.095 15.5665 13.885C15.4115 13.675 15.3265 13.4425 15.3115 13.1875H16.369C16.389 13.3475 16.4665 13.48 16.6015 13.585C16.7415 13.69 16.914 13.7425 17.119 13.7425C17.319 13.7425 17.474 13.7025 17.584 13.6225C17.699 13.5425 17.7565 13.44 17.7565 13.315C17.7565 13.18 17.6865 13.08 17.5465 13.015C17.4115 12.945 17.194 12.87 16.894 12.79C16.584 12.715 16.329 12.6375 16.129 12.5575C15.934 12.4775 15.764 12.355 15.619 12.19C15.479 12.025 15.409 11.8025 15.409 11.5225C15.409 11.2925 15.474 11.0825 15.604 10.8925C15.739 10.7025 15.929 10.5525 16.174 10.4425C16.424 10.3325 16.7165 10.2775 17.0515 10.2775C17.5465 10.2775 17.9415 10.4025 18.2365 10.6525C18.5315 10.8975 18.694 11.23 18.724 11.65H17.719C17.704 11.485 17.634 11.355 17.509 11.26C17.389 11.16 17.2265 11.11 17.0215 11.11C16.8315 11.11 16.684 11.145 16.579 11.215C16.479 11.285 16.429 11.3825 16.429 11.5075C16.429 11.6475 16.499 11.755 16.639 11.83C16.779 11.9 16.9965 11.9725 17.2915 12.0475C17.5915 12.1225 17.839 12.2 18.034 12.28C18.229 12.36 18.3965 12.485 18.5365 12.655C18.6815 12.82 18.7565 13.04 18.7615 13.315C18.7615 13.555 18.694 13.77 18.559 13.96C18.429 14.15 18.239 14.3 17.989 14.41C17.744 14.515 17.4565 14.5675 17.1265 14.5675Z" fill="#A8CADC"/>
</svg>
