<svg width="22" height="22" viewBox="0 0 22 22" fill="none" xmlns="http://www.w3.org/2000/svg">
<path fill-rule="evenodd" clip-rule="evenodd" d="M14.9923 2.21029C15.2727 1.9299 15.7273 1.9299 16.0077 2.21029L19.7897 5.99233C20.0701 6.27271 20.0701 6.72729 19.7897 7.00767L16.0077 10.7897C15.7273 11.0701 15.2727 11.0701 14.9923 10.7897L11.2103 7.00767C10.9299 6.72729 10.9299 6.27271 11.2103 5.99233L14.9923 2.21029ZM12.2256 6.5L15.5 3.22563L18.7744 6.5L15.5 9.77437L12.2256 6.5Z" fill="#A8CADC"/>
<path fill-rule="evenodd" clip-rule="evenodd" d="M2 3.125C2 2.71079 2.33579 2.375 2.75 2.375H9.5C9.91421 2.375 10.25 2.71079 10.25 3.125V9.875C10.25 10.2892 9.91421 10.625 9.5 10.625H2.75C2.33579 10.625 2 10.2892 2 9.875V3.125ZM3.125 9.5V3.5H9.125V9.5H3.125Z" fill="#A8CADC"/>
<path fill-rule="evenodd" clip-rule="evenodd" d="M2 12.5C2 12.0858 2.33579 11.75 2.75 11.75H9.5C9.91421 11.75 10.25 12.0858 10.25 12.5V19.25C10.25 19.6642 9.91421 20 9.5 20H2.75C2.33579 20 2 19.6642 2 19.25V12.5ZM3.125 18.875V12.875H9.125V18.875H3.125Z" fill="#A8CADC"/>
<path fill-rule="evenodd" clip-rule="evenodd" d="M12.125 11.75C11.7108 11.75 11.375 12.0858 11.375 12.5V19.25C11.375 19.6642 11.7108 20 12.125 20H18.875C19.2892 20 19.625 19.6642 19.625 19.25V12.5C19.625 12.0858 19.2892 11.75 18.875 11.75H12.125ZM12.5 12.875V18.875H18.5V12.875H12.5Z" fill="#A8CADC"/>
</svg>
