<svg width="19" height="19" viewBox="0 0 19 19" fill="none" xmlns="http://www.w3.org/2000/svg">
<g clip-path="url(#clip0_1183_3887)">
<path d="M9.35631 3.5625C9.84819 3.5625 10.2469 3.96125 10.2469 4.45312V4.45312C10.2469 4.945 9.84819 5.34375 9.35631 5.34375H3.8721V13.0625H16.1844V13.0898L17.8779 16.3216C18.3442 17.1215 18.1172 18.1346 17.3803 18.6641L17.2362 18.7576C16.9639 18.9163 16.6543 19 16.3391 19H1.78125C0.797493 19 0 18.2025 0 17.2188C0 16.9034 0.0837337 16.5936 0.242644 16.3212L1.93444 13.0779L1.93495 4.56244C1.93498 4.01018 2.38269 3.5625 2.93495 3.5625H9.35631ZM15.2777 14.8452H3.04522L2.3574 17.2188H15.9733L15.2777 14.8452ZM16.185 0C17.4967 0 18.56 1.06332 18.56 2.375V8.3125C18.56 9.62418 17.4967 10.6875 16.185 10.6875H13.81C12.4983 10.6875 11.435 9.62418 11.435 8.3125V2.375C11.435 1.06332 12.4983 0 13.81 0H16.185ZM16.185 1.78125H13.81C13.5185 1.78125 13.2761 1.99129 13.2258 2.26827L13.2163 2.375V8.3125C13.2163 8.60398 13.4263 8.84641 13.7033 8.89668L13.81 8.90625H16.185C16.4765 8.90625 16.7189 8.69621 16.7692 8.41923L16.7788 8.3125V2.375C16.7788 2.08352 16.5687 1.84109 16.2917 1.79082L16.185 1.78125Z" fill="#A8CADC"/>
</g>
<defs>
<clipPath id="clip0_1183_3887">
<rect width="19" height="19" fill="white"/>
</clipPath>
</defs>
</svg>
