<svg width="275" height="177" viewBox="0 0 275 177" fill="none" xmlns="http://www.w3.org/2000/svg">
<path d="M238.756 158.464H36.1818C35.1458 158.464 34.3066 157.625 34.3066 156.59V21.186C34.3066 18.226 36.7057 15.827 39.6657 15.827H235.272C238.231 15.827 240.63 18.226 240.63 21.186V156.59C240.63 157.625 239.791 158.464 238.756 158.464Z" fill="#171E3C"/>
<path d="M39.6652 16.3705C37.0107 16.3705 34.8508 18.5305 34.8508 21.185V156.59C34.8508 157.324 35.4476 157.922 36.1813 157.922H238.756C239.488 157.922 240.086 157.324 240.086 156.59V21.185C240.086 18.5305 237.926 16.3705 235.271 16.3705H39.6652ZM238.756 159.009H36.1813C34.8486 159.009 33.7627 157.924 33.7627 156.59V21.185C33.7627 17.9304 36.4107 15.2835 39.6652 15.2835H235.271C238.526 15.2835 241.173 17.9304 241.173 21.185V156.59C241.173 157.924 240.088 159.009 238.756 159.009Z" fill="#F0EDF3"/>
<path d="M49.3945 144.779H225.542V29.5116H49.3945V144.779Z" fill="white"/>
<path d="M49.9376 144.236H224.998V30.0562H49.9376V144.236ZM225.542 145.323H49.3941C49.0941 145.323 48.8506 145.08 48.8506 144.779V29.5127C48.8506 29.2116 49.0941 28.9692 49.3941 28.9692H225.542C225.843 28.9692 226.085 29.2116 226.085 29.5127V144.779C226.085 145.08 225.843 145.323 225.542 145.323Z" fill="#171E3C"/>
<path d="M137.469 21.7904C136.898 21.7904 136.434 22.2546 136.434 22.8253C136.434 23.3971 136.898 23.8612 137.469 23.8612C138.039 23.8612 138.505 23.3971 138.505 22.8253C138.505 22.2546 138.039 21.7904 137.469 21.7904ZM137.469 24.9482C136.299 24.9482 135.347 23.996 135.347 22.8253C135.347 21.6556 136.299 20.7034 137.469 20.7034C138.639 20.7034 139.592 21.6556 139.592 22.8253C139.592 23.996 138.639 24.9482 137.469 24.9482Z" fill="white"/>
<path d="M267.198 175.85H7.74003C3.76587 175.85 0.543945 172.628 0.543945 168.654V157.384H274.394V168.654C274.394 172.628 271.172 175.85 267.198 175.85Z" fill="#A8CADC"/>
<path d="M1.08702 157.927V168.654C1.08702 172.322 4.07089 175.306 7.73959 175.306H267.198C270.866 175.306 273.85 172.322 273.85 168.654V157.927H1.08702ZM267.198 176.393H7.73959C3.47194 176.393 0 172.92 0 168.654V157.383C0 157.083 0.243493 156.84 0.543511 156.84H274.394C274.694 156.84 274.937 157.083 274.937 157.383V168.654C274.937 172.92 271.464 176.393 267.198 176.393Z" fill="#171E3C"/>
<path d="M271.781 172.065H3.15582C2.8558 172.065 2.6123 171.822 2.6123 171.521C2.6123 171.221 2.8558 170.978 3.15582 170.978H271.781C272.082 170.978 272.324 171.221 272.324 171.521C272.324 171.822 272.082 172.065 271.781 172.065Z" fill="#171E3C"/>
<path d="M163.603 164.309H111.334V158.538H163.603V164.309Z" fill="white"/>
<path d="M111.877 163.765H163.06V159.081H111.877V163.765ZM163.603 164.852H111.334C111.034 164.852 110.79 164.609 110.79 164.309V158.538C110.79 158.238 111.034 157.994 111.334 157.994H163.603C163.903 157.994 164.147 158.238 164.147 158.538V164.309C164.147 164.609 163.903 164.852 163.603 164.852Z" fill="#171E3C"/>
<path d="M78.806 129.692H185.065C186.207 129.692 187.133 128.765 187.133 127.622V51.2053C187.133 50.0617 186.207 49.1356 185.065 49.1356H78.806C77.6625 49.1356 76.7363 50.0617 76.7363 51.2053V127.622C76.7363 128.765 77.6625 129.692 78.806 129.692Z" fill="#A8CADC"/>
<path d="M82.9238 56.6067H193.308V46.2245C193.308 44.4625 191.879 43.0341 190.117 43.0341H85.3914C84.0282 43.0341 82.9238 44.1396 82.9238 45.5028V56.6067Z" id="secondaryColor" id="secondaryColor" fill="#FE8C3A"/>
<path d="M83.4669 56.062H192.764V46.2256C192.764 44.7657 191.577 43.5776 190.117 43.5776H85.3909C84.33 43.5776 83.4669 44.4407 83.4669 45.5027V56.062ZM193.851 57.149H82.3799V45.5027C82.3799 43.8417 83.73 42.4906 85.3909 42.4906H190.117C192.176 42.4906 193.851 44.1657 193.851 46.2256V57.149Z" fill="#171E3C"/>
<path d="M83.2368 123.033H192.914C193.113 123.033 193.275 122.873 193.275 122.674V56.9708C193.275 56.7718 193.113 56.611 192.914 56.611H83.2368C83.0378 56.611 82.877 56.7718 82.877 56.9708V122.674C82.877 122.873 83.0378 123.033 83.2368 123.033Z" fill="white"/>
<path d="M83.42 122.491H192.731V57.1535H83.42V122.491ZM192.915 123.578H83.2363C82.7385 123.578 82.333 123.173 82.333 122.675V56.9697C82.333 56.4719 82.7385 56.0664 83.2363 56.0664H192.915C193.413 56.0664 193.818 56.4719 193.818 56.9697V122.675C193.818 123.173 193.413 123.578 192.915 123.578Z" fill="#171E3C"/>
<path d="M182.725 107.692H158.687C158.588 107.692 158.508 107.612 158.508 107.513V70.201C158.508 70.1021 158.588 70.0216 158.687 70.0216H182.725C182.823 70.0216 182.904 70.1021 182.904 70.201V107.513C182.904 107.612 182.823 107.692 182.725 107.692Z" fill="white"/>
<path d="M159.05 107.149H182.36V70.5651H159.05V107.149ZM182.724 108.236H158.686C158.287 108.236 157.963 107.912 157.963 107.513V70.2009C157.963 69.802 158.287 69.4781 158.686 69.4781H182.724C183.123 69.4781 183.447 69.802 183.447 70.2009V107.513C183.447 107.912 183.123 108.236 182.724 108.236Z" fill="#A8CADC"/>
<path d="M159.105 70.7391L182.665 107.214Z" fill="white"/>
<path d="M182.664 107.758C182.486 107.758 182.312 107.67 182.208 107.51L158.649 71.0347C158.486 70.7814 158.558 70.4455 158.81 70.2825C159.062 70.1205 159.399 70.1922 159.562 70.4444L183.121 106.919C183.284 107.172 183.211 107.509 182.96 107.671C182.868 107.73 182.766 107.758 182.664 107.758Z" fill="#A8CADC"/>
<path d="M182.186 70.6195L158.687 107.692Z" fill="white"/>
<path d="M158.686 108.236C158.587 108.236 158.486 108.208 158.395 108.15C158.141 107.99 158.066 107.654 158.228 107.401L181.727 70.3281C181.887 70.0748 182.225 70.0009 182.476 70.1607C182.731 70.3216 182.806 70.6564 182.644 70.9108L159.144 107.983C159.042 108.147 158.865 108.236 158.686 108.236Z" fill="#A8CADC"/>
<path d="M148.323 73.2588H97.5103C97.2103 73.2588 96.9668 73.0153 96.9668 72.7153C96.9668 72.4142 97.2103 72.1718 97.5103 72.1718H148.323C148.624 72.1718 148.867 72.4142 148.867 72.7153C148.867 73.0153 148.624 73.2588 148.323 73.2588Z" id="secondaryColor" id="secondaryColor" fill="#FE8C3A"/>
<path d="M115.359 80.9657H97.5103C97.2103 80.9657 96.9668 80.7222 96.9668 80.4222C96.9668 80.1211 97.2103 79.8787 97.5103 79.8787H115.359C115.659 79.8787 115.903 80.1211 115.903 80.4222C115.903 80.7222 115.659 80.9657 115.359 80.9657Z" fill="#1A4C6D"/>
<path d="M144.377 80.9657H122.702C122.402 80.9657 122.158 80.7222 122.158 80.4222C122.158 80.1211 122.402 79.8787 122.702 79.8787H144.377C144.678 79.8787 144.92 80.1211 144.92 80.4222C144.92 80.7222 144.678 80.9657 144.377 80.9657Z" id="secondaryColor" id="secondaryColor" fill="#FE8C3A"/>
<path d="M130.08 104.362H97.5103C97.2103 104.362 96.9668 104.118 96.9668 103.818C96.9668 103.518 97.2103 103.275 97.5103 103.275H130.08C130.38 103.275 130.623 103.518 130.623 103.818C130.623 104.118 130.38 104.362 130.08 104.362Z" fill="#1A4C6D"/>
<path d="M148.771 89.0707H97.5103C97.2103 89.0707 96.9668 88.8272 96.9668 88.5272C96.9668 88.2261 97.2103 87.9837 97.5103 87.9837H148.771C149.072 87.9837 149.315 88.2261 149.315 88.5272C149.315 88.8272 149.072 89.0707 148.771 89.0707Z" fill="#1A4C6D"/>
<path d="M113.753 96.7776H97.5103C97.2103 96.7776 96.9668 96.5341 96.9668 96.2341C96.9668 95.933 97.2103 95.6906 97.5103 95.6906H113.753C114.053 95.6906 114.296 95.933 114.296 96.2341C114.296 96.5341 114.053 96.7776 113.753 96.7776Z" id="secondaryColor" id="secondaryColor" fill="#FE8C3A"/>
<path d="M148.323 96.7776H118.749C118.449 96.7776 118.205 96.5341 118.205 96.2341C118.205 95.933 118.449 95.6906 118.749 95.6906H148.323C148.624 95.6906 148.867 95.933 148.867 96.2341C148.867 96.5341 148.624 96.7776 148.323 96.7776Z" fill="#1A4C6D"/>
<path d="M264.455 15.3041C243.901 14.5291 237.377 2.50119 236.449 0.544549H236.308C235.38 2.50119 228.856 14.5291 208.302 15.3041C208.302 15.3041 203.943 57.6295 235.751 65.2311H237.006C268.814 57.6295 264.455 15.3041 264.455 15.3041Z" fill="#407893"/>
<path d="M235.816 64.6876H236.942C266.066 57.6753 264.291 20.4469 263.953 15.8271C245.42 14.964 238.324 5.09817 236.379 1.59144C234.432 5.09709 227.333 14.964 208.805 15.8271C208.467 20.4469 206.693 57.6753 235.816 64.6876ZM237.006 65.7747H235.752L235.626 65.7595C203.723 58.1373 207.718 15.6771 207.762 15.2499C207.789 14.9803 208.011 14.7716 208.282 14.7607C228.323 14.0052 234.736 2.5915 235.817 0.310922C235.907 0.12178 236.099 2.20802e-05 236.31 2.20802e-05H236.45C236.66 2.20802e-05 236.851 0.12178 236.941 0.310922C238.022 2.5915 244.428 14.0041 264.475 14.7607C264.746 14.7716 264.968 14.9803 264.995 15.2499C265.04 15.6771 269.034 58.1373 237.132 65.7595L237.006 65.7747Z" fill="#171E3C"/>
<path d="M217.113 42.7526C220.2 50.0226 225.802 56.7187 235.87 59.1243H236.888C262.69 52.9587 259.154 18.624 259.154 18.624C242.481 17.9957 237.19 8.23856 236.436 6.65151H236.323C235.855 7.63744 233.635 11.7768 228.023 14.9205" fill="#407893"/>
<path d="M236.888 59.6677H235.869L235.743 59.6525C226.848 57.5274 220.413 51.9129 216.613 42.9656C216.495 42.6895 216.625 42.3699 216.901 42.2525C217.176 42.1351 217.495 42.2645 217.613 42.5406C221.262 51.1324 227.425 56.5284 235.935 58.5807H236.823C260.174 52.9456 258.937 23.246 258.65 19.1468C243.906 18.4294 238.082 10.6897 236.378 7.70913C235.39 9.43206 233.014 12.7464 228.288 15.3955C228.028 15.5411 227.696 15.4498 227.548 15.1868C227.401 14.9259 227.495 14.5943 227.757 14.4465C233.288 11.3474 235.453 7.21455 235.83 6.41885C235.92 6.22862 236.112 6.10686 236.321 6.10686H236.436C236.645 6.10686 236.837 6.22862 236.927 6.41885C237.799 8.25809 242.971 17.4706 259.174 18.0804C259.445 18.0913 259.666 18.2989 259.694 18.5685C259.731 18.9163 262.979 53.4478 237.014 59.6525L236.888 59.6677Z" fill="white"/>
<path d="M219.088 18.0402C217.414 18.3446 215.59 18.5489 213.604 18.6239C213.604 18.6239 213.061 23.8993 213.954 30.6844" fill="#407893"/>
<path d="M213.953 31.2279C213.684 31.2279 213.45 31.029 213.415 30.755C212.523 23.9851 213.058 18.6217 213.063 18.5684C213.091 18.2989 213.312 18.0912 213.583 18.0804C215.458 18.0108 217.278 17.8173 218.99 17.5053C219.278 17.4564 219.568 17.6466 219.623 17.9423C219.676 18.2391 219.48 18.5206 219.186 18.575C217.568 18.8696 215.863 19.0609 214.106 19.1467C214.002 20.574 213.768 25.1167 214.493 30.6127C214.532 30.9105 214.322 31.1844 214.025 31.2236L213.953 31.2279Z" fill="white"/>
<path d="M249.484 35.7858C249.484 43.0232 243.617 48.8899 236.38 48.8899C229.142 48.8899 223.274 43.0232 223.274 35.7858C223.274 28.5484 229.142 22.6818 236.38 22.6818C243.617 22.6818 249.484 28.5484 249.484 35.7858Z" fill="#407893"/>
<path d="M236.38 23.0883C229.38 23.0883 223.682 28.7854 223.682 35.7858C223.682 42.7873 229.38 48.4822 236.38 48.4822C243.38 48.4822 249.076 42.7873 249.076 35.7858C249.076 28.7854 243.38 23.0883 236.38 23.0883ZM236.38 49.2975C228.93 49.2975 222.867 43.2362 222.867 35.7858C222.867 28.3353 228.93 22.273 236.38 22.273C243.83 22.273 249.892 28.3353 249.892 35.7858C249.892 43.2362 243.83 49.2975 236.38 49.2975Z" fill="white"/>
<path d="M245.922 35.7858C245.922 41.0556 241.65 45.3276 236.38 45.3276C231.11 45.3276 226.838 41.0556 226.838 35.7858C226.838 30.5159 231.11 26.2439 236.38 26.2439C241.65 26.2439 245.922 30.5159 245.922 35.7858Z" fill="white"/>
<path d="M236.379 26.7874C231.418 26.7874 227.381 30.8246 227.381 35.7858C227.381 40.7481 231.418 44.7842 236.379 44.7842C241.342 44.7842 245.377 40.7481 245.377 35.7858C245.377 30.8246 241.342 26.7874 236.379 26.7874ZM236.379 45.8712C230.818 45.8712 226.294 41.347 226.294 35.7858C226.294 30.2246 230.818 25.7004 236.379 25.7004C241.939 25.7004 246.464 30.2246 246.464 35.7858C246.464 41.347 241.939 45.8712 236.379 45.8712Z" fill="#171E3C"/>
<path d="M236.566 39.8579C236.173 39.8579 235.778 39.7079 235.478 39.4068L231.441 35.3707C230.84 34.7696 230.84 33.7945 231.441 33.1934C232.043 32.5912 233.017 32.5912 233.619 33.1934L236.566 36.1403L245.256 27.4506C245.858 26.8495 246.832 26.8495 247.434 27.4506C248.036 28.0528 248.036 29.0268 247.434 29.629L237.656 39.4068C237.354 39.7079 236.961 39.8579 236.566 39.8579Z" fill="#171E3C"/>
</svg>
