<svg width="106" height="110" viewBox="0 0 106 110" fill="none" xmlns="http://www.w3.org/2000/svg">
<path d="M96.4256 44.5308C100.428 46.836 100.434 52.6095 96.4367 54.9231L39.8955 87.6477C35.898 89.9614 30.8949 87.08 30.89 82.4612L30.8203 17.1328C30.8153 12.514 35.8122 9.62189 39.8147 11.927L96.4256 44.5308Z" fill="#3E6FF2"/>
<path d="M90.4823 54.9899C94.4847 57.2951 94.4909 63.0686 90.4934 65.3822L33.9522 98.1069C29.9547 100.421 24.9516 97.5391 24.9466 92.9203L24.8769 27.5919C24.872 22.9731 29.8689 20.081 33.8713 22.3861L90.4823 54.9899Z" fill="#3E6FF2" fill-opacity="0.3"/>
<path fill-rule="evenodd" clip-rule="evenodd" d="M42.7755 49.3687C42.7755 42.1516 48.6262 36.3009 55.8434 36.3009C63.0605 36.3009 68.9112 42.1516 68.9112 49.3687C68.9112 56.5859 63.0605 62.4366 55.8434 62.4366C48.6262 62.4366 42.7755 56.5859 42.7755 49.3687ZM55.8434 34.8009C47.7978 34.8009 41.2755 41.3231 41.2755 49.3687C41.2755 57.4143 47.7978 63.9366 55.8434 63.9366C63.889 63.9366 70.4112 57.4143 70.4112 49.3687C70.4112 41.3231 63.889 34.8009 55.8434 34.8009ZM58.3871 43.8162L58.2509 43.6987L58.0857 43.5957C57.6288 43.3596 57.0533 43.4331 56.6702 43.8162C56.1961 44.2903 56.1961 45.059 56.6702 45.5331L59.3348 48.1985L50.9874 48.1998L50.8227 48.2109C50.2301 48.2913 49.7734 48.7992 49.7734 49.4138C49.7734 50.0842 50.3169 50.6278 50.9874 50.6278L59.3364 50.6264L56.6702 53.2945L56.5527 53.4306C56.2001 53.9059 56.2392 54.5803 56.6702 55.0113C57.1443 55.4854 57.913 55.4854 58.3871 55.0113L63.1262 50.2722L63.2288 50.1556L63.325 50.0111L63.4008 49.8504L63.456 49.6634L63.4765 49.5279L63.4818 49.4138L63.4793 49.3369L63.4561 49.1646L63.4178 49.0243L63.3582 48.8794L63.2738 48.7339C63.2311 48.6709 63.1819 48.6111 63.1262 48.5554L58.3871 43.8162Z" fill="white"/>
</svg>
