<svg width="106" height="110" viewBox="0 0 106 110" fill="none" xmlns="http://www.w3.org/2000/svg">
<path d="M96.4257 44.5308C100.428 46.836 100.434 52.6095 96.4368 54.9231L39.8956 87.6478C35.898 89.9614 30.8949 87.08 30.89 82.4612L30.8203 17.1328C30.8153 12.514 35.8123 9.62189 39.8147 11.927L96.4257 44.5308Z" fill="#3E6FF2"/>
<path d="M90.4823 54.9899C94.4847 57.2951 94.4909 63.0686 90.4934 65.3822L33.9522 98.1069C29.9546 100.421 24.9516 97.5391 24.9466 92.9203L24.8769 27.5919C24.872 22.9731 29.8689 20.081 33.8713 22.3861L90.4823 54.9899Z" fill="#3E6FF2" fill-opacity="0.3"/>
<path d="M51.1898 42.0849C50.687 42.0849 50.2793 42.4926 50.2793 42.9954C50.2793 43.4983 50.687 43.9059 51.1898 43.9059H63.0262C63.529 43.9059 63.9367 43.4983 63.9367 42.9954C63.9367 42.4926 63.529 42.0849 63.0262 42.0849H51.1898Z" fill="white"/>
<path d="M50.2793 49.3689C50.2793 48.866 50.687 48.4584 51.1898 48.4584H63.0262C63.529 48.4584 63.9367 48.866 63.9367 49.3689C63.9367 49.8717 63.529 50.2794 63.0262 50.2794H51.1898C50.687 50.2794 50.2793 49.8717 50.2793 49.3689Z" fill="white"/>
<path d="M51.1898 53.9213C50.687 53.9213 50.2793 54.329 50.2793 54.8318C50.2793 55.3347 50.687 55.7423 51.1898 55.7423H57.5632C58.0661 55.7423 58.4737 55.3347 58.4737 54.8318C58.4737 54.329 58.0661 53.9213 57.5632 53.9213H51.1898Z" fill="white"/>
<path fill-rule="evenodd" clip-rule="evenodd" d="M43.9059 38.443C43.9059 36.4316 45.5364 34.801 47.5478 34.801H65.7577C67.7691 34.801 69.3996 36.4316 69.3996 38.443V60.2948C69.3996 62.3062 67.7691 63.9367 65.7577 63.9367H47.5478C45.5364 63.9367 43.9059 62.3062 43.9059 60.2948V38.443ZM47.5478 36.622H65.7577C66.7634 36.622 67.5786 37.4373 67.5786 38.443V60.2948C67.5786 61.3005 66.7634 62.1157 65.7577 62.1157H47.5478C46.5421 62.1157 45.7269 61.3005 45.7269 60.2948V38.443C45.7269 37.4373 46.5421 36.622 47.5478 36.622Z" fill="white"/>
</svg>
