<svg width="106" height="110" viewBox="0 0 106 110" fill="none" xmlns="http://www.w3.org/2000/svg">
<path d="M96.4257 44.5308C100.428 46.836 100.434 52.6095 96.4368 54.9231L39.8956 87.6477C35.898 89.9614 30.8949 87.08 30.89 82.4612L30.8203 17.1328C30.8153 12.514 35.8123 9.62189 39.8147 11.927L96.4257 44.5308Z" fill="#3E6FF2"/>
<path d="M90.4823 54.9899C94.4847 57.2951 94.4909 63.0686 90.4934 65.3822L33.9522 98.1069C29.9546 100.421 24.9516 97.5391 24.9466 92.9203L24.8769 27.5919C24.872 22.9731 29.8689 20.081 33.8713 22.3861L90.4823 54.9899Z" fill="#3E6FF2" fill-opacity="0.3"/>
<path fill-rule="evenodd" clip-rule="evenodd" d="M62.318 37.6335C62.318 36.9631 61.8065 36.4196 61.1754 36.4196H50.5114L50.3563 36.4306C49.7987 36.511 49.3688 37.0189 49.3688 37.6335C49.3688 38.304 49.8804 38.8475 50.5114 38.8475H61.1754L61.3305 38.8364C61.8882 38.7561 62.318 38.2481 62.318 37.6335ZM64.3899 42.0848C65.0335 42.0848 65.5553 42.6283 65.5553 43.2988C65.5553 43.9134 65.1169 44.4213 64.548 44.5017L64.3899 44.5128H47.2969C46.6533 44.5128 46.1315 43.9693 46.1315 43.2988C46.1315 42.6842 46.5699 42.1763 47.1388 42.0959L47.2969 42.0848H64.3899ZM42.8942 49.2501V47.7501H44.3942H67.2926H68.7926V49.2501V59.3187C68.7926 60.9751 67.3932 62.3179 65.6669 62.3179H46.0199C44.2936 62.3179 42.8942 60.9751 42.8942 59.3187V49.2501ZM67.2926 49.2501H44.3942V59.3187C44.3942 60.0889 45.0631 60.8179 46.0199 60.8179H65.6669C66.6237 60.8179 67.2926 60.0889 67.2926 59.3187V49.2501Z" fill="white"/>
</svg>
