<svg width="207" height="49" viewBox="0 0 207 49" fill="none" xmlns="http://www.w3.org/2000/svg">
<circle cx="9.3578" cy="36.8687" r="9.3578" fill="#5DC7B1"/>
<rect x="11.6268" y="8.49671" width="18.7156" height="44.9174" rx="9.3578" transform="rotate(-27 11.6268 8.49671)" fill="#1A4C6D"/>
<path d="M66.4055 30.2592V19.0592H71.4935C72.7095 19.0592 73.7815 19.2939 74.7095 19.7632C75.6375 20.2219 76.3628 20.8672 76.8855 21.6992C77.4082 22.5312 77.6695 23.5179 77.6695 24.6592C77.6695 25.7899 77.4082 26.7766 76.8855 27.6192C76.3628 28.4512 75.6375 29.1019 74.7095 29.5712C73.7815 30.0299 72.7095 30.2592 71.4935 30.2592H66.4055ZM68.9975 28.1312H71.3655C72.1122 28.1312 72.7575 27.9926 73.3015 27.7152C73.8562 27.4272 74.2828 27.0219 74.5815 26.4992C74.8908 25.9766 75.0455 25.3632 75.0455 24.6592C75.0455 23.9446 74.8908 23.3312 74.5815 22.8192C74.2828 22.2966 73.8562 21.8966 73.3015 21.6192C72.7575 21.3312 72.1122 21.1872 71.3655 21.1872H68.9975V28.1312ZM83.7203 30.3872C82.7389 30.3872 81.8749 30.1952 81.1283 29.8112C80.3923 29.4272 79.8216 28.9046 79.4163 28.2432C79.0109 27.5712 78.8083 26.8086 78.8083 25.9552C78.8083 25.0912 79.0056 24.3286 79.4003 23.6672C79.8056 22.9952 80.3549 22.4726 81.0483 22.0992C81.7416 21.7152 82.5256 21.5232 83.4003 21.5232C84.2429 21.5232 85.0003 21.7046 85.6723 22.0672C86.3549 22.4192 86.8936 22.9312 87.2883 23.6032C87.6829 24.2646 87.8803 25.0592 87.8803 25.9872C87.8803 26.0832 87.8749 26.1952 87.8643 26.3232C87.8536 26.4406 87.8429 26.5526 87.8323 26.6592H80.8403V25.2032H86.5203L85.5603 25.6352C85.5603 25.1872 85.4696 24.7979 85.2883 24.4672C85.1069 24.1366 84.8563 23.8806 84.5363 23.6992C84.2163 23.5072 83.8429 23.4112 83.4163 23.4112C82.9896 23.4112 82.6109 23.5072 82.2803 23.6992C81.9603 23.8806 81.7096 24.1419 81.5283 24.4832C81.3469 24.8139 81.2563 25.2086 81.2563 25.6672V26.0512C81.2563 26.5206 81.3576 26.9366 81.5603 27.2992C81.7736 27.6512 82.0669 27.9232 82.4403 28.1152C82.8243 28.2966 83.2723 28.3872 83.7843 28.3872C84.2429 28.3872 84.6429 28.3179 84.9843 28.1792C85.3363 28.0406 85.6563 27.8326 85.9443 27.5552L87.2723 28.9952C86.8776 29.4432 86.3816 29.7899 85.7843 30.0352C85.1869 30.2699 84.4989 30.3872 83.7203 30.3872ZM91.7218 30.2592L88.1058 21.6512H90.6818L93.6898 29.0592H92.4098L95.5298 21.6512H97.9298L94.2978 30.2592H91.7218ZM102.986 30.3872C102.005 30.3872 101.141 30.1952 100.394 29.8112C99.6579 29.4272 99.0872 28.9046 98.6819 28.2432C98.2766 27.5712 98.0739 26.8086 98.0739 25.9552C98.0739 25.0912 98.2712 24.3286 98.6659 23.6672C99.0712 22.9952 99.6206 22.4726 100.314 22.0992C101.007 21.7152 101.791 21.5232 102.666 21.5232C103.509 21.5232 104.266 21.7046 104.938 22.0672C105.621 22.4192 106.159 22.9312 106.554 23.6032C106.949 24.2646 107.146 25.0592 107.146 25.9872C107.146 26.0832 107.141 26.1952 107.13 26.3232C107.119 26.4406 107.109 26.5526 107.098 26.6592H100.106V25.2032H105.786L104.826 25.6352C104.826 25.1872 104.735 24.7979 104.554 24.4672C104.373 24.1366 104.122 23.8806 103.802 23.6992C103.482 23.5072 103.109 23.4112 102.682 23.4112C102.255 23.4112 101.877 23.5072 101.546 23.6992C101.226 23.8806 100.975 24.1419 100.794 24.4832C100.613 24.8139 100.522 25.2086 100.522 25.6672V26.0512C100.522 26.5206 100.623 26.9366 100.826 27.2992C101.039 27.6512 101.333 27.9232 101.706 28.1152C102.09 28.2966 102.538 28.3872 103.05 28.3872C103.509 28.3872 103.909 28.3179 104.25 28.1792C104.602 28.0406 104.922 27.8326 105.21 27.5552L106.538 28.9952C106.143 29.4432 105.647 29.7899 105.05 30.0352C104.453 30.2699 103.765 30.3872 102.986 30.3872ZM108.808 30.2592V18.3872H111.304V30.2592H108.808ZM117.716 30.3872C116.799 30.3872 115.983 30.1952 115.268 29.8112C114.564 29.4272 114.004 28.9046 113.588 28.2432C113.183 27.5712 112.98 26.8086 112.98 25.9552C112.98 25.0912 113.183 24.3286 113.588 23.6672C114.004 22.9952 114.564 22.4726 115.268 22.0992C115.983 21.7152 116.799 21.5232 117.716 21.5232C118.623 21.5232 119.433 21.7152 120.148 22.0992C120.863 22.4726 121.423 22.9899 121.828 23.6512C122.233 24.3126 122.436 25.0806 122.436 25.9552C122.436 26.8086 122.233 27.5712 121.828 28.2432C121.423 28.9046 120.863 29.4272 120.148 29.8112C119.433 30.1952 118.623 30.3872 117.716 30.3872ZM117.716 28.3392C118.132 28.3392 118.505 28.2432 118.836 28.0512C119.167 27.8592 119.428 27.5872 119.62 27.2352C119.812 26.8726 119.908 26.4459 119.908 25.9552C119.908 25.4539 119.812 25.0272 119.62 24.6752C119.428 24.3232 119.167 24.0512 118.836 23.8592C118.505 23.6672 118.132 23.5712 117.716 23.5712C117.3 23.5712 116.927 23.6672 116.596 23.8592C116.265 24.0512 115.999 24.3232 115.796 24.6752C115.604 25.0272 115.508 25.4539 115.508 25.9552C115.508 26.4459 115.604 26.8726 115.796 27.2352C115.999 27.5872 116.265 27.8592 116.596 28.0512C116.927 28.2432 117.3 28.3392 117.716 28.3392ZM129.193 30.3872C128.467 30.3872 127.833 30.2272 127.289 29.9072C126.745 29.5872 126.318 29.1019 126.009 28.4512C125.71 27.7899 125.561 26.9579 125.561 25.9552C125.561 24.9419 125.705 24.1099 125.993 23.4592C126.281 22.8086 126.697 22.3232 127.241 22.0032C127.785 21.6832 128.435 21.5232 129.193 21.5232C130.003 21.5232 130.729 21.7099 131.369 22.0832C132.019 22.4459 132.531 22.9579 132.905 23.6192C133.289 24.2806 133.481 25.0592 133.481 25.9552C133.481 26.8619 133.289 27.6459 132.905 28.3072C132.531 28.9686 132.019 29.4806 131.369 29.8432C130.729 30.2059 130.003 30.3872 129.193 30.3872ZM124.105 33.3632V21.6512H126.489V23.4112L126.441 25.9712L126.601 28.5152V33.3632H124.105ZM128.761 28.3392C129.177 28.3392 129.545 28.2432 129.865 28.0512C130.195 27.8592 130.457 27.5872 130.649 27.2352C130.851 26.8726 130.953 26.4459 130.953 25.9552C130.953 25.4539 130.851 25.0272 130.649 24.6752C130.457 24.3232 130.195 24.0512 129.865 23.8592C129.545 23.6672 129.177 23.5712 128.761 23.5712C128.345 23.5712 127.971 23.6672 127.641 23.8592C127.31 24.0512 127.049 24.3232 126.857 24.6752C126.665 25.0272 126.569 25.4539 126.569 25.9552C126.569 26.4459 126.665 26.8726 126.857 27.2352C127.049 27.5872 127.31 27.8592 127.641 28.0512C127.971 28.2432 128.345 28.3392 128.761 28.3392ZM139.423 30.3872C138.442 30.3872 137.578 30.1952 136.831 29.8112C136.095 29.4272 135.525 28.9046 135.119 28.2432C134.714 27.5712 134.511 26.8086 134.511 25.9552C134.511 25.0912 134.709 24.3286 135.103 23.6672C135.509 22.9952 136.058 22.4726 136.751 22.0992C137.445 21.7152 138.229 21.5232 139.103 21.5232C139.946 21.5232 140.703 21.7046 141.375 22.0672C142.058 22.4192 142.597 22.9312 142.991 23.6032C143.386 24.2646 143.583 25.0592 143.583 25.9872C143.583 26.0832 143.578 26.1952 143.567 26.3232C143.557 26.4406 143.546 26.5526 143.535 26.6592H136.543V25.2032H142.223L141.263 25.6352C141.263 25.1872 141.173 24.7979 140.991 24.4672C140.81 24.1366 140.559 23.8806 140.239 23.6992C139.919 23.5072 139.546 23.4112 139.119 23.4112C138.693 23.4112 138.314 23.5072 137.983 23.6992C137.663 23.8806 137.413 24.1419 137.231 24.4832C137.05 24.8139 136.959 25.2086 136.959 25.6672V26.0512C136.959 26.5206 137.061 26.9366 137.263 27.2992C137.477 27.6512 137.77 27.9232 138.143 28.1152C138.527 28.2966 138.975 28.3872 139.487 28.3872C139.946 28.3872 140.346 28.3179 140.687 28.1792C141.039 28.0406 141.359 27.8326 141.647 27.5552L142.975 28.9952C142.581 29.4432 142.085 29.7899 141.487 30.0352C140.89 30.2699 140.202 30.3872 139.423 30.3872ZM145.245 30.2592V21.6512H147.629V24.0832L147.293 23.3792C147.549 22.7712 147.96 22.3126 148.525 22.0032C149.09 21.6832 149.778 21.5232 150.589 21.5232V23.8272C150.482 23.8166 150.386 23.8112 150.301 23.8112C150.216 23.8006 150.125 23.7952 150.029 23.7952C149.346 23.7952 148.792 23.9926 148.365 24.3872C147.949 24.7712 147.741 25.3739 147.741 26.1952V30.2592H145.245ZM156.843 30.2592V19.0592H161.691C162.694 19.0592 163.558 19.2246 164.283 19.5552C165.008 19.8752 165.568 20.3392 165.963 20.9472C166.358 21.5552 166.555 22.2806 166.555 23.1232C166.555 23.9552 166.358 24.6752 165.963 25.2832C165.568 25.8912 165.008 26.3606 164.283 26.6912C163.558 27.0112 162.694 27.1712 161.691 27.1712H158.283L159.435 26.0032V30.2592H156.843ZM159.435 26.2912L158.283 25.0592H161.547C162.347 25.0592 162.944 24.8886 163.339 24.5472C163.734 24.2059 163.931 23.7312 163.931 23.1232C163.931 22.5046 163.734 22.0246 163.339 21.6832C162.944 21.3419 162.347 21.1712 161.547 21.1712H158.283L159.435 19.9392V26.2912ZM172.31 30.3872C171.393 30.3872 170.577 30.1952 169.862 29.8112C169.158 29.4272 168.598 28.9046 168.182 28.2432C167.777 27.5712 167.574 26.8086 167.574 25.9552C167.574 25.0912 167.777 24.3286 168.182 23.6672C168.598 22.9952 169.158 22.4726 169.862 22.0992C170.577 21.7152 171.393 21.5232 172.31 21.5232C173.217 21.5232 174.027 21.7152 174.742 22.0992C175.457 22.4726 176.017 22.9899 176.422 23.6512C176.827 24.3126 177.03 25.0806 177.03 25.9552C177.03 26.8086 176.827 27.5712 176.422 28.2432C176.017 28.9046 175.457 29.4272 174.742 29.8112C174.027 30.1952 173.217 30.3872 172.31 30.3872ZM172.31 28.3392C172.726 28.3392 173.099 28.2432 173.43 28.0512C173.761 27.8592 174.022 27.5872 174.214 27.2352C174.406 26.8726 174.502 26.4459 174.502 25.9552C174.502 25.4539 174.406 25.0272 174.214 24.6752C174.022 24.3232 173.761 24.0512 173.43 23.8592C173.099 23.6672 172.726 23.5712 172.31 23.5712C171.894 23.5712 171.521 23.6672 171.19 23.8592C170.859 24.0512 170.593 24.3232 170.39 24.6752C170.198 25.0272 170.102 25.4539 170.102 25.9552C170.102 26.4459 170.198 26.8726 170.39 27.2352C170.593 27.5872 170.859 27.8592 171.19 28.0512C171.521 28.2432 171.894 28.3392 172.31 28.3392ZM178.698 30.2592V21.6512H181.082V24.0832L180.746 23.3792C181.002 22.7712 181.413 22.3126 181.978 22.0032C182.544 21.6832 183.232 21.5232 184.042 21.5232V23.8272C183.936 23.8166 183.84 23.8112 183.754 23.8112C183.669 23.8006 183.578 23.7952 183.482 23.7952C182.8 23.7952 182.245 23.9926 181.818 24.3872C181.402 24.7712 181.194 25.3739 181.194 26.1952V30.2592H178.698ZM189.343 30.3872C188.33 30.3872 187.541 30.1312 186.975 29.6192C186.41 29.0966 186.127 28.3232 186.127 27.2992V19.7472H188.623V27.2672C188.623 27.6299 188.719 27.9126 188.911 28.1152C189.103 28.3072 189.365 28.4032 189.695 28.4032C190.09 28.4032 190.426 28.2966 190.703 28.0832L191.375 29.8432C191.119 30.0246 190.81 30.1632 190.447 30.2592C190.095 30.3446 189.727 30.3872 189.343 30.3872ZM184.799 23.7632V21.8432H190.767V23.7632H184.799ZM198.056 30.2592V28.5792L197.896 28.2112V25.2032C197.896 24.6699 197.731 24.2539 197.4 23.9552C197.08 23.6566 196.584 23.5072 195.912 23.5072C195.454 23.5072 195 23.5819 194.552 23.7312C194.115 23.8699 193.742 24.0619 193.432 24.3072L192.536 22.5632C193.006 22.2326 193.571 21.9766 194.232 21.7952C194.894 21.6139 195.566 21.5232 196.248 21.5232C197.56 21.5232 198.579 21.8326 199.304 22.4512C200.03 23.0699 200.392 24.0352 200.392 25.3472V30.2592H198.056ZM195.432 30.3872C194.76 30.3872 194.184 30.2752 193.704 30.0512C193.224 29.8166 192.856 29.5019 192.6 29.1072C192.344 28.7126 192.216 28.2699 192.216 27.7792C192.216 27.2672 192.339 26.8192 192.584 26.4352C192.84 26.0512 193.24 25.7526 193.784 25.5392C194.328 25.3152 195.038 25.2032 195.912 25.2032H198.2V26.6592H196.184C195.598 26.6592 195.192 26.7552 194.968 26.9472C194.755 27.1392 194.648 27.3792 194.648 27.6672C194.648 27.9872 194.771 28.2432 195.016 28.4352C195.272 28.6166 195.619 28.7072 196.056 28.7072C196.472 28.7072 196.846 28.6112 197.176 28.4192C197.507 28.2166 197.747 27.9232 197.896 27.5392L198.28 28.6912C198.099 29.2459 197.768 29.6672 197.288 29.9552C196.808 30.2432 196.19 30.3872 195.432 30.3872ZM202.651 30.2592V18.3872H205.147V30.2592H202.651Z" fill="#1D2028"/>
</svg>
