<svg width="22" height="22" viewBox="0 0 22 22" fill="none" xmlns="http://www.w3.org/2000/svg">
<path fill-rule="evenodd" clip-rule="evenodd" d="M17.6875 0C19.2063 0 20.4375 1.23122 20.4375 2.75V19.25C20.4375 20.7688 19.2063 22 17.6875 22H5.3125C3.79372 22 2.5625 20.7688 2.5625 19.25V2.75C2.5625 1.23122 3.79372 0 5.3125 0H17.6875ZM17.6875 1.375H5.3125C4.60735 1.375 4.02618 1.90581 3.94675 2.58965L3.9375 2.75V19.25C3.9375 19.9551 4.46831 20.5363 5.15215 20.6157L5.3125 20.625H17.6875C18.3926 20.625 18.9738 20.0942 19.0532 19.4104L19.0625 19.25V2.75C19.0625 2.04485 18.5317 1.46368 17.8479 1.38425L17.6875 1.375ZM7.375 5.50248C6.9953 5.50248 6.6875 5.81028 6.6875 6.18998C6.6875 6.56967 6.9953 6.87748 7.375 6.87748H15.625C16.0047 6.87748 16.3125 6.56967 16.3125 6.18998C16.3125 5.81028 16.0047 5.50248 15.625 5.50248H7.375ZM9.4375 11.0452C9.4375 10.6655 9.7453 10.3577 10.125 10.3577H15.625C16.0047 10.3577 16.3125 10.6655 16.3125 11.0452C16.3125 11.4249 16.0047 11.7327 15.625 11.7327H10.125C9.7453 11.7327 9.4375 11.4249 9.4375 11.0452ZM7.375 10.3577C6.9953 10.3577 6.6875 10.6655 6.6875 11.0452C6.6875 11.4249 6.9953 11.7327 7.375 11.7327C7.7547 11.7327 8.0625 11.4249 8.0625 11.0452C8.0625 10.6655 7.7547 10.3577 7.375 10.3577ZM9.4375 15.8405C9.4375 15.4608 9.7453 15.153 10.125 15.153H15.625C16.0047 15.153 16.3125 15.4608 16.3125 15.8405C16.3125 16.2202 16.0047 16.528 15.625 16.528H10.125C9.7453 16.528 9.4375 16.2202 9.4375 15.8405ZM7.375 15.153C6.9953 15.153 6.6875 15.4608 6.6875 15.8405C6.6875 16.2202 6.9953 16.528 7.375 16.528C7.7547 16.528 8.0625 16.2202 8.0625 15.8405C8.0625 15.4608 7.7547 15.153 7.375 15.153Z" fill="#A8CADC"/>
</svg>
