<svg width="393" height="280" viewBox="0 0 393 280" fill="none" xmlns="http://www.w3.org/2000/svg">
<path fill-rule="evenodd" clip-rule="evenodd" d="M170.892 279.056V143.74H177.557V279.056H170.892ZM41.356 279.056V143.74H48.0207V279.056H41.356Z" fill="#BABEC2"/>
<path fill-rule="evenodd" clip-rule="evenodd" d="M170.892 155.419L177.557 155.562V143.74H170.892V155.419ZM41.356 144.174V152.623L48.0207 152.766V144.151L41.356 144.174Z" fill="black"/>
<path d="M11.5234 140.81H206.84V145.926H11.5234V140.81Z" fill="#BABEC2"/>
<path fill-rule="evenodd" clip-rule="evenodd" d="M204.094 141.002C201.692 130.894 193.322 123.426 183.378 123.426C173.433 123.426 165.063 130.894 162.661 141.002H204.094Z" fill="#7B7E8C"/>
<path fill-rule="evenodd" clip-rule="evenodd" d="M170.069 141.002C173.373 133.284 178.58 131.715 178.58 131.715C179.019 131.587 179.274 131.127 179.148 130.687C179.019 130.247 178.559 129.993 178.119 130.12C178.119 130.12 171.904 131.847 168.27 141.002H170.069Z" fill="#0F2751"/>
<path fill-rule="evenodd" clip-rule="evenodd" d="M163.209 141.002C162.593 153.313 161.126 172.702 157.517 182.951C156.723 185.206 155.837 187.004 154.81 188.139C153.972 189.068 153.051 189.516 151.999 189.22C150.985 188.934 149.937 188.193 148.958 187.21C149.004 187.143 149.048 187.077 149.091 187.009C150.373 185.009 151.051 181.87 150.995 179.12C150.966 177.616 150.715 176.228 150.253 175.193C149.842 174.272 149.255 173.611 148.537 173.281C147.791 172.936 146.878 172.918 145.799 173.44C143.146 174.724 142.57 177.599 143.372 180.746C143.943 182.974 145.198 185.33 146.731 187.21C146.492 187.388 146.235 187.519 145.957 187.589C145.272 187.762 144.499 187.531 143.615 186.865C142.883 186.316 142.265 185.324 141.702 184.028C140.775 181.889 140.049 178.958 139.471 175.623C137.174 162.399 137.239 142.95 137.141 140.639C137.122 140.183 136.735 139.826 136.276 139.845C135.82 139.866 135.463 140.254 135.484 140.71C135.581 143.035 135.525 162.602 137.836 175.907C138.442 179.392 139.211 182.453 140.18 184.687C140.881 186.305 141.705 187.506 142.617 188.193C144.017 189.245 145.279 189.471 146.361 189.199C146.89 189.066 147.388 188.807 147.842 188.44C149.033 189.618 150.323 190.471 151.547 190.817C153.211 191.286 154.717 190.719 156.042 189.251C157.181 187.99 158.199 186.009 159.083 183.503C162.74 173.115 164.246 153.444 164.87 141.002H163.209ZM147.818 185.913C146.523 184.264 145.469 182.248 144.982 180.335C144.395 178.039 144.586 175.872 146.521 174.934C147.046 174.681 147.482 174.621 147.845 174.789C148.234 174.969 148.512 175.365 148.739 175.869C149.124 176.734 149.311 177.896 149.336 179.153C149.384 181.487 148.863 184.146 147.818 185.913ZM163.734 137.592C163.508 137.731 163.35 137.976 163.338 138.262L163.317 138.725C163.447 138.343 163.586 137.964 163.734 137.592Z" fill="#0F2751"/>
<path d="M105.515 225.502C96.2148 225.502 88.6756 215.701 88.6756 203.611C88.6756 191.52 96.2148 181.719 105.515 181.719C114.815 181.719 122.354 191.52 122.354 203.611C122.354 215.701 114.815 225.502 105.515 225.502Z" fill="white"/>
<path fill-rule="evenodd" clip-rule="evenodd" d="M105.404 179.313V183.107C114.336 183.282 121.33 192.506 121.33 203.629C121.33 214.749 114.336 223.973 105.404 224.148V227.944C116.195 227.773 125.125 217.041 125.125 203.629C125.125 190.214 116.195 179.481 105.404 179.313Z" fill="black"/>
<path fill-rule="evenodd" clip-rule="evenodd" d="M105.404 179.313L105.137 179.304C94.2278 179.304 85.1485 190.103 85.1485 203.628C85.1485 217.152 94.2278 227.951 105.137 227.951L105.404 227.943V224.147L105.137 224.157C96.076 224.157 88.9445 214.86 88.9445 203.628C88.9445 192.395 96.076 183.098 105.137 183.098L105.404 183.107V179.313Z" fill="black"/>
<path fill-rule="evenodd" clip-rule="evenodd" d="M104.969 203.124C104.014 203.124 103.239 203.897 103.239 204.854C103.239 205.808 104.014 206.584 104.969 206.584C105.925 206.584 106.701 205.808 106.701 204.854C106.701 203.897 105.925 203.124 104.969 203.124ZM101.996 200.854L96.1714 189.576C95.9619 189.17 96.1216 188.668 96.5281 188.458C96.9368 188.249 97.4367 188.409 97.6462 188.815L103.471 200.093C103.682 200.5 103.523 201.002 103.114 201.211C102.708 201.421 102.208 201.261 101.996 200.854ZM109.719 191.57L107.503 200.311C107.391 200.755 106.941 201.022 106.495 200.91C106.051 200.798 105.784 200.346 105.896 199.902L108.109 191.163C108.221 190.717 108.673 190.45 109.117 190.562C109.561 190.674 109.831 191.126 109.719 191.57Z" fill="black"/>
<path d="M1.05371 192.039L23.8949 180.311L39.3311 210.374L16.4899 222.102L1.05371 192.039Z" fill="#32324D"/>
<path fill-rule="evenodd" clip-rule="evenodd" d="M17.0285 218.15L13.1495 220.139C12.7409 220.349 12.241 220.187 12.0315 219.781C11.822 219.372 11.9838 218.872 12.3924 218.662L16.2714 216.673C16.68 216.466 17.1799 216.625 17.3894 217.034C17.5969 217.441 17.4371 217.943 17.0285 218.15ZM14.6285 213.468L10.7475 215.456C10.3409 215.665 9.83892 215.503 9.63149 215.097C9.42198 214.69 9.58378 214.188 9.99034 213.981L13.8714 211.991C14.2779 211.782 14.7779 211.944 14.9874 212.35C15.1969 212.757 15.0351 213.259 14.6285 213.468ZM12.2265 208.785L8.3475 210.774C7.93887 210.981 7.43898 210.822 7.22947 210.413C7.01997 210.006 7.18176 209.506 7.5904 209.297L11.4693 207.308C11.878 207.098 12.3779 207.26 12.5874 207.667C12.7948 208.075 12.633 208.575 12.2265 208.785ZM9.82439 204.101L5.94544 206.09C5.53887 206.3 5.03692 206.138 4.82948 205.729C4.61998 205.323 4.78177 204.823 5.18834 204.613L9.06936 202.624C9.47592 202.414 9.97586 202.576 10.1854 202.983C10.3949 203.391 10.233 203.891 9.82439 204.101ZM7.42445 199.417L3.54342 201.406C3.13686 201.616 2.63692 201.454 2.42742 201.045C2.21791 200.639 2.37971 200.139 2.78627 199.929L6.66729 197.94C7.07386 197.731 7.57587 197.892 7.7833 198.299C7.9928 198.708 7.83101 199.208 7.42445 199.417ZM5.08877 194.86L1.20775 196.849C0.801186 197.059 0.301252 196.897 0.0917454 196.49C-0.11776 196.084 0.0440331 195.582 0.450598 195.374L4.33162 193.385C4.73818 193.175 5.24019 193.337 5.44763 193.744C5.65713 194.15 5.49534 194.652 5.08877 194.86Z" fill="black"/>
<path fill-rule="evenodd" clip-rule="evenodd" d="M76.0681 185.076L40.8882 193.425L42.7604 198.671L76.0681 185.076Z" fill="white"/>
<path d="M40.1174 197.148L76.8156 184.052L93.4702 230.721L56.772 243.817L40.1174 197.148Z" fill="#F27F71"/>
<path fill-rule="evenodd" clip-rule="evenodd" d="M42.5273 193.776L76.2535 185.964C76.6995 185.86 76.9775 185.414 76.8758 184.966C76.7721 184.52 76.3261 184.242 75.8802 184.346L41.2599 192.365C41.0317 192.419 40.8367 192.567 40.7226 192.77C40.6086 192.975 40.5857 193.218 40.6625 193.442L42.5501 198.997C42.6974 199.431 43.1682 199.663 43.6018 199.516C44.0353 199.368 44.2676 198.895 44.1204 198.462L42.5273 193.776Z" fill="#F27F71"/>
<path d="M12.9501 198.946H59.0414V254.033H12.9501V198.946Z" fill="white"/>
<path fill-rule="evenodd" clip-rule="evenodd" d="M17.132 247.765H55.235V250.229H17.132V247.765ZM17.132 243.249H55.235V245.714H17.132V243.249ZM17.132 238.733H55.235V241.198H17.132V238.733ZM17.132 234.218H55.235V236.682H17.132V234.218ZM17.132 229.702H55.235V232.166H17.132V229.702ZM17.132 225.186H55.235V227.65H17.132V225.186ZM17.132 220.67H55.235V223.135H17.132V220.67ZM17.132 216.155H55.235V218.619H17.132V216.155ZM17.132 211.639H55.235V214.103H17.132V211.639ZM17.132 207.123H55.235V209.587H17.132V207.123ZM17.132 202.601H55.235V205.065H17.132V202.601Z" fill="black"/>
<path fill-rule="evenodd" clip-rule="evenodd" d="M58.2117 253.204H35.834C35.3777 253.204 35.0043 253.575 35.0043 254.034C35.0043 254.492 35.3777 254.863 35.834 254.863H59.0414C59.4998 254.863 59.8711 254.492 59.8711 254.034V198.946C59.8711 198.488 59.4998 198.116 59.0414 198.116H37.006C36.5497 198.116 36.1763 198.488 36.1763 198.946C36.1763 199.405 36.5497 199.776 37.006 199.776H58.2117V253.204Z" fill="black"/>
<path fill-rule="evenodd" clip-rule="evenodd" d="M13.7799 199.776H37.0059C37.4644 199.776 37.8357 199.405 37.8357 198.946C37.8357 198.488 37.4644 198.116 37.0059 198.116H12.9502C12.4918 198.116 12.1205 198.488 12.1205 198.946V254.034C12.1205 254.492 12.4918 254.863 12.9502 254.863H35.834C36.2924 254.863 36.6637 254.492 36.6637 254.034C36.6637 253.575 36.2924 253.204 35.834 253.204H13.7799V199.776Z" fill="black"/>
<path d="M4.7219 206.383H127.912V280H4.7219V206.383Z" fill="#FFD798"/>
<path fill-rule="evenodd" clip-rule="evenodd" d="M52.3993 206.385V239.321L56.2824 236.265L59.9207 239.321L63.613 236.265L67.1393 239.321L70.3815 236.265L73.7792 239.321V206.385H52.3993Z" fill="#F8BB61"/>
<path d="M320.479 48.3348C310.872 48.3348 303.084 40.5467 303.084 30.9396C303.084 21.3325 310.872 13.5444 320.479 13.5444C330.086 13.5444 337.874 21.3325 337.874 30.9396C337.874 40.5467 330.086 48.3348 320.479 48.3348Z" fill="#FFC3BB"/>
<path fill-rule="evenodd" clip-rule="evenodd" d="M330.019 45.4841C334.75 42.3731 337.875 37.018 337.875 30.9389C337.875 21.3383 330.08 13.5437 320.48 13.5437C318.315 13.5437 316.242 13.9401 314.328 14.6645L323.418 32.5184C324.096 31.3672 325.378 30.5902 326.847 30.5902C329.023 30.5902 330.789 32.2955 330.789 34.3961C330.789 36.4965 329.023 38.2021 326.847 38.2021C326.659 38.2021 326.473 38.1892 326.292 38.1645L330.019 45.4841Z" fill="black"/>
<path fill-rule="evenodd" clip-rule="evenodd" d="M324.466 15.5088C324.466 15.5088 326.928 22.0704 326.834 24.8439C326.784 26.3229 325.543 27.4834 324.063 27.4334C322.584 27.3834 321.424 26.1418 321.474 24.6628C321.568 21.8893 324.466 15.5088 324.466 15.5088Z" fill="white"/>
<path fill-rule="evenodd" clip-rule="evenodd" d="M325.171 222.712C334.161 223.487 345.273 223.532 358.334 221.894C367.206 220.782 396.831 211.672 389.348 173.792C387.869 166.304 380.424 147.798 348.777 146.188C339.541 145.718 275 138.451 249.144 166.339C248.638 166.887 247.984 167.618 247.25 168.562C238.469 172.461 213.082 185.923 214.051 210.902C214.051 210.902 216.057 238.882 253.162 250.943C255.904 256.954 259.123 263.368 262.884 270.198C262.884 270.198 254.429 272.411 252.286 277.061H317.526L313.621 264.965L317.679 265.903C317.717 270.109 321.739 274.307 325.171 277.335V222.712Z" fill="url(#paint0_linear_112_1143)"/>
<path fill-rule="evenodd" clip-rule="evenodd" d="M316.581 268.262L312.974 222.594C312.938 222.138 312.538 221.798 312.081 221.833C311.625 221.868 311.283 222.269 311.32 222.725L314.884 267.862L316.581 268.262Z" fill="#F27F71"/>
<path fill-rule="evenodd" clip-rule="evenodd" d="M305.623 220.441L297.652 218.898C297.652 218.898 294.724 209.448 292.715 202.961C292.593 202.567 292.782 202.144 293.156 201.972C293.53 201.8 293.974 201.932 294.193 202.281C298.545 209.197 305.623 220.441 305.623 220.441Z" fill="black"/>
<path fill-rule="evenodd" clip-rule="evenodd" d="M325.205 223.77C327.21 223.947 309.1 220.4 298.549 217.228C297.889 217.029 297.133 216.917 297.133 216.917C297.133 216.917 297.43 217.987 297.525 218.28L310.24 257.206L254.945 256.455C255.204 257.009 255.465 257.565 255.731 258.125L310.651 258.872C310.695 258.872 310.739 258.868 310.781 258.862L313.655 266.949L315.295 267.337L299.591 219.261C307.884 221.667 316.267 223.762 325.205 225.069V223.77ZM253.167 252.61C228.478 200.173 247.745 167.828 247.284 168.434C246.649 168.722 245.925 169.063 245.129 169.455C240.024 179.391 230.439 207.188 250.983 251.85C251.694 252.11 252.424 252.363 253.167 252.61Z" fill="#0F2751"/>
<path fill-rule="evenodd" clip-rule="evenodd" d="M340.279 52.7954C301.898 53.2049 274.509 58.4386 242.495 61.0383C232.822 61.8239 210.66 67.3701 215.844 87.2818C217.81 94.8365 224.66 100.088 232.465 100.028C245.99 99.9233 264.464 99.7804 264.464 99.7804C264.464 99.7804 249.811 112.246 219.304 112.688C219.304 112.688 185.673 115.539 182.52 115.667C176.949 115.892 173.615 115.979 170.558 116.154C169.9 116.193 169.319 116.595 169.052 117.196C168.784 117.798 168.873 118.499 169.284 119.014C169.919 119.803 171.196 120.696 173.596 121.599C177.977 123.248 181.406 123.391 184.775 124.383C184.522 123.82 179.305 128.734 176.249 131.888C175.642 132.524 175.424 133.438 175.677 134.28C175.932 135.122 176.621 135.762 177.48 135.955C178.139 136.105 178.936 136.138 179.888 135.969C178.075 137.736 180.193 140.667 185.897 137.788C187.395 137.033 187.911 136.824 191.763 134.443C191.763 134.443 190.533 136.654 189.811 137.952C189.62 138.297 189.579 138.705 189.701 139.081C189.822 139.456 190.093 139.765 190.45 139.933C191.243 140.302 192.493 140.421 194.352 139.448C197.177 137.973 199.098 137.162 200.861 136.436C202.487 135.767 204.336 135.919 205.829 136.845C211.988 140.647 231.221 149.496 267.641 141.184C267.641 141.184 289.462 138.299 317.993 119.839C318.752 116.832 354.219 158.675 385.68 123.388C398.071 109.489 400.635 52.1516 340.279 52.7954Z" fill="#FFC3BB"/>
<path fill-rule="evenodd" clip-rule="evenodd" d="M191.716 134.526C197.271 127.157 201.189 126.99 201.189 126.99C201.645 126.983 202.012 126.605 202.004 126.147C201.998 125.689 201.62 125.324 201.162 125.331C201.162 125.331 195.866 125.29 188.917 135.597C188.787 135.793 188.749 136.025 188.795 136.239C189.506 135.824 190.438 135.262 191.763 134.443L191.716 134.526ZM179.888 135.969C179.826 136.03 187.486 129.355 188.448 128.308C191.726 124.738 194.124 123.067 195.713 122.301C196.901 121.727 197.652 121.716 197.681 121.715C197.671 121.714 197.66 121.713 197.652 121.711L197.681 121.715C198.121 121.772 198.532 121.469 198.604 121.027C198.679 120.575 198.372 120.148 197.92 120.074C197.92 120.074 194.429 119.344 187.225 127.185C186.154 128.352 180.919 133.311 177.291 135.905C177.353 135.924 177.415 135.941 177.48 135.955C178.139 136.105 178.936 136.138 179.888 135.969ZM195.285 114.689C193.763 114.813 192.294 114.932 190.927 115.042C189.749 115.884 188.542 117.02 187.449 118.553C186.687 119.62 185.2 121.787 182.543 123.828C183.223 123.974 183.895 124.132 184.563 124.322C186.779 122.404 188.088 120.514 188.799 119.516C190.938 116.518 193.564 115.234 195.285 114.689Z" fill="#F27F71"/>
<path fill-rule="evenodd" clip-rule="evenodd" d="M274.74 139.653C283.409 137.369 299.254 131.963 317.993 119.839C318.337 117.296 354.745 159.931 385.68 123.387C397.882 108.972 400.635 52.1514 340.279 52.7952C301.898 53.2047 274.51 58.4384 242.495 61.0381C232.822 61.8237 210.66 67.3699 215.844 87.2816C217.81 94.8363 224.66 100.088 232.465 100.028C245.99 99.9231 264.464 99.7802 264.464 99.7802C264.464 99.7802 254.026 108.66 232.43 111.696L237.276 144.608C242.735 144.725 248.917 144.389 255.855 143.389C261.57 142.254 268.123 140.956 274.74 139.653Z" fill="url(#paint1_linear_112_1143)"/>
<path fill-rule="evenodd" clip-rule="evenodd" d="M323.69 123.932C328.392 118.3 330.843 112.075 331.943 108.628C332.024 108.34 331.896 108.033 331.633 107.888C331.37 107.743 331.042 107.798 330.842 108.021C325.622 113.66 319.148 118.913 318.13 119.729C318.653 119.763 320.624 121.516 323.69 123.932ZM264.435 99.8037L264.433 99.806L264.425 99.8126L264.41 99.8247L264.402 99.8311L264.396 99.8375L264.386 99.8458L264.369 99.8583L264.354 99.8701L264.342 99.8809L264.332 99.8896L264.317 99.9012L264.292 99.9203L264.274 99.9361L264.263 99.9437L264.251 99.9529L264.213 99.9821L264.188 100.002L264.182 100.008L264.174 100.013L264.112 100.063L264.089 100.08L264.087 100.081C264.054 100.107 264.018 100.134 263.981 100.163L263.973 100.168L263.937 100.195L263.873 100.244L263.859 100.255C263.825 100.28 263.788 100.306 263.753 100.334L263.747 100.337L263.74 100.342C263.655 100.405 263.564 100.472 263.467 100.543L263.448 100.555L263.406 100.586L263.384 100.602L263.377 100.607L263.359 100.62L263.321 100.646L263.303 100.66L263.29 100.669L263.263 100.687L263.234 100.709L263.218 100.72L263.201 100.732L263.166 100.756L263.141 100.773L263.131 100.781L263.108 100.797L263.064 100.828L263.046 100.84L263.039 100.845L263.016 100.861L262.958 100.901L262.946 100.91C272.679 94.7968 290.074 81.8485 301.533 72.9555C301.986 72.6046 302.068 71.9524 301.717 71.5002C301.366 71.048 300.714 70.9659 300.262 71.3168C288.411 80.5137 270.175 94.0886 260.791 99.8089L264.464 99.7805L264.442 99.8002L264.435 99.8037ZM259.27 68.5178L230.701 69.3286C230.13 69.3448 229.651 68.8934 229.635 68.3213C229.62 67.749 230.07 67.2713 230.643 67.2551L259.212 66.4443C259.785 66.4279 260.262 66.8793 260.278 67.4516C260.295 68.0236 259.843 68.5014 259.27 68.5178Z" fill="#222228"/>
<path fill-rule="evenodd" clip-rule="evenodd" d="M288.133 71.6834C292.31 62.1113 311.928 53.979 311.928 53.979L303.972 54.622C295.125 58.642 288.594 65.6306 286.026 68.6769C285.046 68.8082 282.61 69.1797 282.57 69.629C282.52 70.1916 282.18 79.6372 282.18 79.6372C282.211 79.6525 282.242 79.6676 282.273 79.6824L281.999 79.7002C277.098 88.7707 278.881 101.628 271.886 109.355C269.67 111.802 266.772 114.101 263.603 115.154C259.921 116.377 256.098 116.321 252.277 116.097C251.267 116.037 248.813 115.859 247.579 115.767C247.12 115.734 246.679 115.939 246.407 116.309C245.349 117.753 242.642 121.45 241.325 123.247C240.897 123.83 240.956 124.636 241.462 125.152C243.277 126.999 247.388 131.185 248.786 132.606C249.089 132.915 249.522 133.057 249.95 132.986C250.759 132.861 252.047 132.652 252.53 132.513C255.341 131.701 258.112 130.749 260.815 129.629C268.548 126.425 276.724 121.376 280.091 113.392C282.058 108.729 282.356 103.752 282.334 98.7594C282.316 94.3581 281.801 89.7268 282.72 85.3822C283.077 83.6924 283.871 82.1099 284.654 80.5841C284.672 80.5488 284.745 80.4314 284.836 80.2781C288.524 80.1458 290.228 75.4369 290.228 75.4369L288.133 71.6834Z" fill="black"/>
<path fill-rule="evenodd" clip-rule="evenodd" d="M250.867 99.8255L258.357 66.4927C258.357 66.4927 265.472 66.0693 269.695 65.3082C269.695 65.3082 280.055 61.9393 287.327 64.3362C288.51 64.726 292.162 66.7242 294.649 71.5249C295.687 73.5291 292.264 74.8306 288.317 71.5249C287.51 70.8491 285.961 70.0652 284.348 69.9306C284.348 69.9306 289.384 73.871 284.348 77.1776C284.348 77.1776 285.382 80.6869 281.017 81.4179C281.017 81.4179 281.666 86.6647 273.657 91.7246C271.363 93.1749 253.551 100.408 250.867 99.8255Z" fill="#FFC3BB"/>
<path fill-rule="evenodd" clip-rule="evenodd" d="M282.438 81.015C281.773 79.0954 280.308 77.9485 278.895 77.2775C277.262 76.5013 275.715 76.3781 275.715 76.3781C275.258 76.3405 274.858 76.6805 274.821 77.1368C274.783 77.5934 275.123 77.9944 275.58 78.0319C275.58 78.0319 276.835 78.1599 278.183 78.7764C280.285 79.7376 281.017 81.4178 281.017 81.4178C281.574 81.3245 282.044 81.1859 282.438 81.015ZM285.549 76.1953C284.647 74.6296 283.246 73.6174 281.827 72.9749C279.499 71.9212 277.146 71.8768 277.146 71.8768C276.688 71.8677 276.309 72.2319 276.3 72.6897C276.291 73.1477 276.655 73.5267 277.113 73.536C277.113 73.536 279.138 73.5792 281.142 74.4867C282.416 75.0632 284.348 77.1775 284.348 77.1775C284.84 76.8547 285.235 76.526 285.549 76.1953ZM287.202 70.7953C287.187 70.6546 287.136 70.5159 287.046 70.3937C284.473 66.8775 278.827 66.6506 278.827 66.6506C278.369 66.6359 277.986 66.9951 277.971 67.4529C277.956 67.9105 278.315 68.2943 278.773 68.3092C278.773 68.3092 280.522 68.3692 282.398 69.0663C283.47 69.4644 284.348 69.9305 284.348 69.9305C285.386 70.017 286.397 70.3725 287.202 70.7953Z" fill="#F27F71"/>
<path fill-rule="evenodd" clip-rule="evenodd" d="M338.901 52.7954C338.901 52.7954 330.689 53.2775 318.913 60.1463C315.249 62.2839 306.288 68.2289 295.411 71.5673C291.28 72.8351 289.276 71.8946 287.882 72.313L289.434 76.0121C289.434 76.0121 296.38 75.2915 298.994 74.3479C298.994 74.3479 331.862 53.6565 338.901 52.7954Z" fill="black"/>
<path d="M307.136 221.744H384.947V277.285H307.136V221.744Z" fill="#FFD798"/>
<path fill-rule="evenodd" clip-rule="evenodd" d="M369.804 277.287H371.463V221.743H369.804V277.287ZM333.371 221.743V250.545L338.172 247.123L342.917 250.545V221.743H333.371ZM374.299 221.743V240.983L378.099 235.193L380.709 237.641V221.743H374.299Z" fill="#F8BB61"/>
<path fill-rule="evenodd" clip-rule="evenodd" d="M105.394 112.718H159.083V25.9839H28.7441V112.718H85.1611V135.051H77.8637V140.998H112.631V135.051H105.394V112.718Z" fill="#A3A8AE"/>
<path fill-rule="evenodd" clip-rule="evenodd" d="M32.1833 25.9839V112.718H88.6003V135.051H81.3029V140.998H112.631V135.051H105.394V112.718H159.083V25.9839H32.1833Z" fill="#E4E4E6"/>
<path d="M38.1842 32.6167H152.589V103.983H38.1842V32.6167Z" fill="#F7F8FB"/>
<path fill-rule="evenodd" clip-rule="evenodd" d="M88.5691 134.871H85.7605C85.9078 135 86.1007 135.079 86.3102 135.079L105.363 134.871V133.419H88.5691V134.871ZM88.5691 114.39H105.363V112.731H88.5691V114.39Z" fill="#A3A8AE"/>
<path d="M72.8329 0H137.842V79.6501H72.8329V0Z" fill="white"/>
<path fill-rule="evenodd" clip-rule="evenodd" d="M81.1992 70.4931H125.963V73.0364H81.1992V70.4931ZM81.1992 65.1094H125.963V67.6527H81.1992V65.1094ZM81.1992 59.8846H125.963V62.4279H81.1992V59.8846ZM82.9623 52.7724H131.354V56.9034H82.9623V52.7724ZM81.1992 45.0969H125.963V47.6402H81.1992V45.0969ZM81.1992 39.7132H125.963V42.2565H81.1992V39.7132ZM81.1992 34.4885H125.963V37.0318H81.1992V34.4885ZM97.0635 25.4555H131.354V29.5865H97.0635V25.4555ZM103.114 17.7766H130.201V19.6227H103.114V17.7766ZM110.061 14.1322H130.201V15.9786H110.061V14.1322ZM104.693 10.224H130.201V12.0702H104.693V10.224ZM101.882 6.43115H130.201V8.27749H101.882V6.43115Z" fill="#32324D"/>
<path fill-rule="evenodd" clip-rule="evenodd" d="M105.978 99.7911L109.849 95.3805L104.949 91.0791L108.544 86.9835L90.4117 82.2226L97.4826 99.5853L101.078 95.4897L105.978 99.7911Z" fill="#32324D"/>
<path d="M59.5417 53.13C60.3283 48.6263 66.7095 48.6263 67.4961 53.13C68.0372 56.2286 71.6864 57.5736 74.0678 55.5522C77.529 52.6142 82.4173 56.7679 80.1612 60.73C78.6089 63.4559 80.5506 66.8616 83.6579 66.8633C88.1742 66.8656 89.2823 73.2296 85.0391 74.796C82.1198 75.8738 81.4454 79.7467 83.8247 81.7706C87.283 84.7122 84.0923 90.3086 79.8476 88.7465C76.9271 87.6718 73.9523 90.1997 74.4903 93.2988C75.2722 97.8033 69.2758 100.014 67.0156 96.0539C65.4606 93.3296 61.5772 93.3296 60.0222 96.0539C57.762 100.014 51.7656 97.8033 52.5475 93.2988C53.0855 90.1997 50.1107 87.6718 47.1902 88.7465C42.9455 90.3086 39.7549 84.7122 43.2131 81.7706C45.5924 79.7467 44.918 75.8738 41.9987 74.796C37.7555 73.2296 38.8636 66.8656 43.3799 66.8633C46.4872 66.8616 48.4289 63.4559 46.8767 60.73C44.6205 56.7679 49.5088 52.6142 52.97 55.5522C55.3514 57.5736 59.0006 56.2286 59.5417 53.13Z" fill="white" stroke="#40404B" stroke-width="3"/>
<path d="M63.4378 84.5513C69.5585 84.5513 74.5203 79.7398 74.5203 73.8046C74.5203 67.8693 69.5585 63.0579 63.4378 63.0579C57.3171 63.0579 52.3553 67.8693 52.3553 73.8046" stroke="#40404B" stroke-width="2" stroke-linecap="round" stroke-linejoin="round"/>
<path d="M60.5138 75.8848H57.7338L57.2738 77.2148H55.8038L58.3138 70.2248H59.9438L62.4538 77.2148H60.9738L60.5138 75.8848ZM60.1338 74.7648L59.1238 71.8448L58.1138 74.7648H60.1338ZM68.482 72.3948C68.482 72.7682 68.392 73.1182 68.212 73.4448C68.0387 73.7715 67.762 74.0348 67.382 74.2348C67.0087 74.4348 66.5354 74.5348 65.962 74.5348H64.792V77.2148H63.392V70.2348H65.962C66.502 70.2348 66.962 70.3282 67.342 70.5148C67.722 70.7015 68.0054 70.9582 68.192 71.2848C68.3854 71.6115 68.482 71.9815 68.482 72.3948ZM65.902 73.4048C66.2887 73.4048 66.5754 73.3182 66.762 73.1448C66.9487 72.9648 67.042 72.7148 67.042 72.3948C67.042 71.7148 66.662 71.3748 65.902 71.3748H64.792V73.4048H65.902ZM70.876 70.2348V77.2148H69.476V70.2348H70.876Z" fill="#1D2028"/>
<defs>
<linearGradient id="paint0_linear_112_1143" x1="309.522" y1="167.323" x2="129.818" y2="232.196" gradientUnits="userSpaceOnUse">
<stop stop-color="white"/>
<stop offset="1" stop-color="#0F2751"/>
</linearGradient>
<linearGradient id="paint1_linear_112_1143" x1="338.713" y1="64.2251" x2="221.699" y2="157.647" gradientUnits="userSpaceOnUse">
<stop stop-color="#0F2751"/>
<stop offset="0.429742" stop-color="#1B3053"/>
<stop offset="0.888421" stop-color="white"/>
</linearGradient>
</defs>
</svg>
