<svg width="12" height="14" viewBox="0 0 12 14" fill="none" xmlns="http://www.w3.org/2000/svg">
<path d="M2.33333 7C2.33333 6.75838 2.52921 6.5625 2.77083 6.5625H8.02083C8.26246 6.5625 8.45833 6.75838 8.45833 7C8.45833 7.24162 8.26246 7.4375 8.02083 7.4375H2.77083C2.52921 7.4375 2.33333 7.24162 2.33333 7Z" fill="#A8CADC"/>
<path d="M2.77083 9.47917C2.52921 9.47917 2.33333 9.67504 2.33333 9.91667C2.33333 10.1583 2.52921 10.3542 2.77083 10.3542H6.27083C6.51246 10.3542 6.70833 10.1583 6.70833 9.91667C6.70833 9.67504 6.51246 9.47917 6.27083 9.47917H2.77083Z" fill="#A8CADC"/>
<path fill-rule="evenodd" clip-rule="evenodd" d="M9.91667 0C10.8832 0 11.6667 0.783502 11.6667 1.75V12.25C11.6667 13.2165 10.8832 14 9.91667 14H1.75C0.783501 14 0 13.2165 0 12.25V1.75C0 0.783502 0.783502 0 1.75 0H9.91667ZM6.41667 0.875H9.91667C10.3999 0.875 10.7917 1.26675 10.7917 1.75V12.25C10.7917 12.7332 10.3999 13.125 9.91667 13.125H1.75C1.26675 13.125 0.875 12.7332 0.875 12.25V1.75C0.875 1.26675 1.26675 0.875 1.75 0.875H2.33333V4.32661C2.33333 4.46895 2.49422 4.55175 2.61005 4.46901L4.375 3.20833L6.13995 4.46901C6.25578 4.55175 6.41667 4.46895 6.41667 4.32661V0.875ZM5.54167 0.875H3.20833V2.96638L4.375 2.13304L5.54167 2.96638V0.875Z" fill="#A8CADC"/>
</svg>
