<svg width="184" height="152" viewBox="0 0 184 152" fill="none" xmlns="http://www.w3.org/2000/svg">
<path d="M83.1111 20.8889H54.6667C39.7319 20.8889 32.2645 20.8889 26.5603 23.7954C21.5426 26.352 17.4631 30.4314 14.9065 35.4491C12 41.1534 12 48.6208 12 63.5555V129.333C12 144.268 12 151.735 14.9065 157.44C17.4631 162.458 21.5426 166.537 26.5603 169.093C32.2645 172 39.7319 172 54.6667 172H120.444C135.38 172 142.846 172 148.551 169.093C153.569 166.537 157.648 162.458 160.204 157.44C163.111 151.735 163.111 144.268 163.111 129.333V100.889M100.889 136.444H47.5556M118.667 100.889H47.5556M164.189 19.8105C174.604 30.2244 174.604 47.1089 164.189 57.5228C153.775 67.9368 136.892 67.9368 126.477 57.5228C116.063 47.1089 116.063 30.2244 126.477 19.8105C136.892 9.39651 153.775 9.39651 164.189 19.8105Z" stroke="#C8CBE8" stroke-opacity="0.15" stroke-width="24" stroke-linecap="round" stroke-linejoin="round"/>
</svg>
