<svg width="531" height="444" viewBox="0 0 531 444" fill="none" xmlns="http://www.w3.org/2000/svg">
<path opacity="0.010101" d="M238.936 230.734L357.53 7.69133C361.293 0.614787 369.184 -3.23414 377.077 -1.8424L625.851 42.0231C633.744 43.4149 639.843 49.7307 640.958 57.6674L676.115 307.82C677.231 315.757 673.109 323.509 665.905 327.023L438.859 437.76C431.656 441.274 423.009 439.749 417.442 433.984L241.963 252.27C236.396 246.505 235.174 237.811 238.936 230.734Z" stroke="url(#paint0_linear_697_16646)" stroke-width="3"/>
<path opacity="0.020202" d="M236.412 227.553L358.632 7.06324C362.517 0.0534135 370.475 -3.65717 378.342 -2.12789L625.808 45.9745C633.675 47.5038 639.663 53.9251 640.64 61.8801L671.363 312.098C672.34 320.053 668.083 327.733 660.819 331.12L432.341 437.661C425.078 441.048 416.459 439.373 410.993 433.511L239.063 249.139C233.597 243.277 232.527 234.562 236.412 227.553Z" stroke="url(#paint1_linear_697_16646)" stroke-width="3"/>
<path opacity="0.030303" d="M233.959 224.382L359.751 6.50389C363.758 -0.437025 371.779 -4.00817 379.618 -2.34181L625.704 49.9653C633.544 51.6317 639.419 58.1565 640.257 66.1273L666.554 316.333C667.392 324.303 663.002 331.907 655.68 335.167L425.847 437.495C418.525 440.755 409.937 438.93 404.574 432.973L236.232 246.01C230.869 240.054 229.952 231.323 233.959 224.382Z" stroke="url(#paint2_linear_697_16646)" stroke-width="3"/>
<path opacity="0.040404" d="M231.579 221.222L360.889 6.01386C365.017 -0.856063 373.099 -4.28671 380.909 -2.48379L625.543 53.9946C633.353 55.7975 639.113 62.4239 639.811 70.408L661.693 320.522C662.392 328.506 657.87 336.032 650.492 339.164L419.382 437.264C412.004 440.396 403.449 438.421 398.191 432.372L233.475 242.888C228.217 236.839 227.451 228.092 231.579 221.222Z" stroke="url(#paint3_linear_697_16646)" stroke-width="3"/>
<path opacity="0.050505" d="M229.266 218.075L362.04 5.59228C366.287 -1.20456 374.428 -4.49363 382.205 -2.55469L625.317 58.0602C633.094 59.9991 638.738 66.725 639.297 74.7201L656.775 324.665C657.334 332.66 652.681 340.106 645.25 343.109L412.939 436.968C405.508 439.971 396.989 437.847 391.837 431.707L230.783 239.77C225.631 233.631 225.019 224.872 229.266 218.075Z" stroke="url(#paint4_linear_697_16646)" stroke-width="3"/>
<path opacity="0.0606061" d="M227.026 214.941L363.208 5.23873C367.573 -1.48294 375.77 -4.62941 383.512 -2.55505L625.033 62.1604C632.775 64.2348 638.3 71.0582 638.72 79.0619L651.806 328.761C652.225 336.764 647.443 344.128 639.961 347L406.527 436.607C399.045 439.479 390.564 437.207 385.52 430.978L228.164 236.659C223.12 230.431 222.661 221.663 227.026 214.941Z" stroke="url(#paint5_linear_697_16646)" stroke-width="3"/>
<path opacity="0.0707071" d="M224.855 211.822L364.389 4.95446C368.871 -1.69001 377.122 -4.69298 384.826 -2.48382L624.687 66.2953C632.391 68.5044 637.797 75.4232 638.077 83.433L646.785 332.808C647.065 340.818 642.155 348.097 634.624 350.838L400.144 436.182C392.613 438.923 384.173 436.503 379.239 430.187L225.614 233.557C220.68 227.241 220.374 218.467 224.855 211.822Z" stroke="url(#paint6_linear_697_16646)" stroke-width="3"/>
<path opacity="0.0808081" d="M222.755 208.72L365.584 4.74013C370.181 -1.82514 378.482 -4.68363 386.147 -2.34035L624.28 70.4642C631.944 72.8074 637.228 79.8195 637.368 87.8329L641.714 336.808C641.854 344.822 636.818 352.014 629.24 354.623L393.793 435.694C386.215 438.304 377.818 435.737 372.995 429.336L223.135 230.465C218.312 224.064 218.158 215.285 222.755 208.72Z" stroke="url(#paint7_linear_697_16646)" stroke-width="3"/>
<path opacity="0.0909091" d="M220.725 205.635L366.79 4.59445C371.5 -1.88956 379.851 -4.60272 387.473 -2.12604L623.81 74.6646C631.433 77.1412 636.593 84.2444 636.593 92.2591V340.759C636.593 348.773 631.433 355.876 623.81 358.353L387.473 435.144C379.851 437.62 371.5 434.907 366.79 428.423L220.725 227.383C216.014 220.899 216.014 212.119 220.725 205.635Z" stroke="url(#paint8_linear_697_16646)" stroke-width="3"/>
<path opacity="0.10101" d="M218.762 202.568L368.003 4.51765C372.827 -1.88315 381.223 -4.4502 388.801 -1.84086L623.276 78.8953C630.854 81.5046 635.89 88.6968 635.75 96.7103L631.422 344.658C631.282 352.671 625.998 359.683 618.334 362.027L381.184 434.531C373.52 436.874 365.218 434.015 360.621 427.45L218.382 224.312C213.785 217.747 213.939 208.968 218.762 202.568Z" stroke="url(#paint9_linear_697_16646)" stroke-width="3"/>
<path opacity="0.111111" d="M216.87 199.521L369.228 4.51118C374.163 -1.8045 382.603 -4.2246 390.134 -1.4834L622.681 83.1568C630.213 85.898 635.122 93.177 634.843 101.187L626.206 348.507C625.926 356.517 620.521 363.436 612.816 365.645L374.932 433.858C367.227 436.067 358.977 433.064 354.495 426.419L216.111 221.256C211.629 214.612 211.936 205.837 216.87 199.521Z" stroke="url(#paint10_linear_697_16646)" stroke-width="3"/>
<path opacity="0.121212" d="M215.043 196.495L370.458 4.57288C375.502 -1.65569 383.983 -3.92811 391.465 -1.0559L622.02 87.4457C629.502 90.318 634.284 97.6815 633.865 105.685L620.94 352.304C620.521 360.308 614.995 367.131 607.254 369.206L368.711 433.123C360.969 435.197 352.772 432.051 348.407 425.329L213.905 218.213C209.54 211.491 209.999 202.723 215.043 196.495Z" stroke="url(#paint11_linear_697_16646)" stroke-width="3"/>
<path opacity="0.131313" d="M213.285 193.492L371.695 4.7049C376.847 -1.4347 385.366 -3.5588 392.797 -0.556432L621.296 91.7629C628.727 94.7652 633.38 102.211 632.821 110.206L615.63 356.049C615.07 364.045 609.427 370.77 601.65 372.709L362.527 432.329C354.751 434.268 346.61 430.979 342.363 424.182L211.768 215.187C207.52 208.39 208.133 199.631 213.285 193.492Z" stroke="url(#paint12_linear_697_16646)" stroke-width="3"/>
<path opacity="0.141414" d="M211.593 190.511L372.937 4.90596C378.195 -1.14282 386.75 -3.11789 394.128 0.0137126L620.507 96.106C627.884 99.2376 632.407 106.764 631.708 114.748L610.274 359.741C609.575 367.726 603.815 374.352 596.006 376.155L356.38 431.477C348.57 433.28 340.488 429.849 336.36 422.979L209.697 212.177C205.569 205.307 206.335 196.56 211.593 190.511Z" stroke="url(#paint13_linear_697_16646)" stroke-width="3"/>
<path opacity="0.151515" d="M209.971 187.555L374.186 5.17556C379.549 -0.780502 388.137 -2.60596 395.459 0.653917L619.657 100.473C626.979 103.733 631.369 111.337 630.531 119.308L604.878 363.379C604.04 371.35 598.165 377.874 590.326 379.541L350.273 430.565C342.434 432.232 334.413 428.661 330.405 421.72L207.698 209.184C203.69 202.243 204.608 193.511 209.971 187.555Z" stroke="url(#paint14_linear_697_16646)" stroke-width="3"/>
<path opacity="0.161616" d="M208.411 184.625L375.434 5.5151C380.9 -0.346465 389.518 -2.02179 396.782 1.36537L618.738 104.865C626.002 108.252 630.259 115.932 629.282 123.886L599.436 366.962C598.459 374.917 592.471 381.339 584.604 382.868L344.202 429.597C336.334 431.127 328.377 427.416 324.491 420.406L205.761 206.211C201.875 199.201 202.945 190.486 208.411 184.625Z" stroke="url(#paint15_linear_697_16646)" stroke-width="3"/>
<path opacity="0.171717" d="M206.917 181.721L376.683 5.92362C382.25 0.158347 390.897 -1.36631 398.101 2.14711L617.755 109.28C624.958 112.793 629.08 120.545 627.965 128.482L593.952 370.491C592.837 378.428 586.738 384.744 578.845 386.135L338.17 428.573C330.277 429.964 322.386 426.116 318.623 419.039L203.89 203.258C200.128 196.181 201.35 187.487 206.917 181.721Z" stroke="url(#paint16_linear_697_16646)" stroke-width="3"/>
<path opacity="0.181818" d="M205.489 178.846L377.934 6.40104C383.601 0.733778 392.273 -0.639709 399.414 2.99889L616.707 113.715C623.848 117.354 627.834 125.177 626.58 133.093L588.43 373.964C587.176 381.88 580.968 388.088 573.052 389.342L332.181 427.492C324.265 428.746 316.442 424.76 312.803 417.619L202.087 200.326C198.449 193.185 199.822 184.513 205.489 178.846Z" stroke="url(#paint17_linear_697_16646)" stroke-width="3"/>
<path opacity="0.191919" d="M204.124 175.999L379.182 6.94718C384.947 1.37972 393.642 0.15776 400.718 3.92044L615.592 118.171C622.668 121.933 626.517 129.825 625.126 137.718L582.867 377.38C581.475 385.273 575.159 391.372 567.222 392.488L326.231 426.357C318.295 427.472 310.542 423.35 307.029 416.147L200.347 197.417C196.834 190.213 198.358 181.566 204.124 175.999Z" stroke="url(#paint18_linear_697_16646)" stroke-width="3"/>
<path opacity="0.20202" d="M202.821 173.181L380.427 7.56072C386.289 2.09473 395.003 1.0247 402.013 4.9103L614.41 122.644C621.42 126.53 625.131 134.487 623.601 142.355L577.264 380.738C575.735 388.606 569.314 394.594 561.359 395.57L320.324 425.166C312.369 426.143 304.689 421.886 301.302 414.622L198.671 194.529C195.284 187.266 196.959 178.647 202.821 173.181Z" stroke="url(#paint19_linear_697_16646)" stroke-width="3"/>
<path opacity="0.212121" d="M201.582 170.396L381.669 8.24467C387.626 2.88181 396.357 1.96406 403.298 5.97141L613.164 127.137C620.104 131.144 623.676 139.165 622.009 147.005L571.626 384.041C569.959 391.88 563.435 397.755 555.464 398.593L314.46 423.924C306.489 424.761 298.885 420.371 295.626 413.05L197.06 191.669C193.801 184.347 195.626 175.759 201.582 170.396Z" stroke="url(#paint20_linear_697_16646)" stroke-width="3"/>
<path opacity="0.222222" d="M200.407 167.642L382.909 8.99518C388.957 3.73708 397.704 2.97183 404.574 7.09971L611.852 131.645C618.722 135.773 622.153 143.855 620.35 151.664L565.953 387.284C564.15 395.093 557.523 400.853 549.539 401.552L308.642 422.628C300.658 423.326 293.132 418.804 290 411.426L195.515 188.832C192.383 181.455 194.358 172.9 200.407 167.642Z" stroke="url(#paint21_linear_697_16646)" stroke-width="3"/>
<path opacity="0.232323" d="M199.291 164.922L384.14 9.81492C390.28 4.66316 399.038 4.05071 405.835 8.29785L610.472 136.169C617.269 140.416 620.558 148.557 618.619 156.334L560.242 390.469C558.303 398.246 551.578 403.89 543.582 404.449L302.867 421.281C294.872 421.84 287.426 417.188 284.423 409.756L194.029 186.024C191.027 178.593 193.151 170.074 199.291 164.922Z" stroke="url(#paint22_linear_697_16646)" stroke-width="3"/>
<path opacity="0.242424" d="M198.235 162.236L385.364 10.7023C391.592 5.65851 400.36 5.19901 407.082 9.56413L609.025 140.707C615.747 145.073 618.893 153.269 616.819 161.011L554.498 393.596C552.424 401.337 545.6 406.863 537.596 407.282L297.137 419.884C289.133 420.304 281.77 415.522 278.898 408.039L192.606 183.243C189.734 175.761 192.007 167.28 198.235 162.236Z" stroke="url(#paint23_linear_697_16646)" stroke-width="3"/>
<path opacity="0.252525" d="M197.241 159.585L386.58 11.6565C392.896 6.7222 401.671 6.41576 408.315 10.8975L607.512 145.258C614.157 149.74 617.16 157.99 614.951 165.694L548.722 396.662C546.513 404.366 539.594 409.772 531.584 410.051L291.455 418.437C283.445 418.716 276.166 413.807 273.425 406.275L191.246 180.49C188.505 172.959 190.925 164.519 197.241 159.585Z" stroke="url(#paint24_linear_697_16646)" stroke-width="3"/>
<path opacity="0.262626" d="M196.305 156.97L387.787 12.6778C394.188 7.85439 402.967 7.70117 409.532 12.2982L605.933 149.82C612.498 154.417 615.357 162.718 613.013 170.383L542.914 399.668C540.571 407.332 533.559 412.616 525.545 412.756L285.82 416.941C277.807 417.08 270.615 412.044 268.005 404.466L189.946 177.768C187.337 170.19 189.904 161.793 196.305 156.97Z" stroke="url(#paint25_linear_697_16646)" stroke-width="3"/>
<path opacity="0.272727" d="M195.427 154.393L388.983 13.7666C395.467 9.05569 404.247 9.0557 410.731 13.7666L604.286 154.393C610.77 159.104 613.483 167.454 611.006 175.076L537.075 402.614C534.598 410.237 527.495 415.397 519.48 415.397L280.233 415.397C272.218 415.397 265.115 410.237 262.638 402.614L188.707 175.076C186.23 167.454 188.943 159.104 195.427 154.393Z" stroke="url(#paint26_linear_697_16646)" stroke-width="3"/>
<path opacity="0.282828" d="M194.607 151.854L390.166 14.9218C396.731 10.3248 405.509 10.478 411.91 15.3013L602.571 158.975C608.972 163.798 611.539 172.194 608.93 179.772L531.206 405.499C528.596 413.077 521.404 418.113 513.391 417.974L274.694 413.807C266.68 413.667 259.668 408.383 257.325 400.719L187.526 172.417C185.183 164.752 188.041 156.451 194.607 151.854Z" stroke="url(#paint27_linear_697_16646)" stroke-width="3"/>
<path opacity="0.292929" d="M193.844 149.354L391.337 16.1436C397.982 11.6618 406.756 11.9683 413.072 16.9026L600.792 163.565C607.107 168.499 609.527 176.939 606.786 184.471L525.31 408.324C522.569 415.855 515.29 420.765 507.28 420.485L269.206 412.171C261.196 411.892 254.277 406.486 252.068 398.782L186.406 169.791C184.197 162.086 187.2 153.836 193.844 149.354Z" stroke="url(#paint28_linear_697_16646)" stroke-width="3"/>
<path opacity="0.30303" d="M193.135 146.894L392.492 17.4302C399.213 13.0651 407.981 13.5246 414.21 18.5684L598.942 168.161C605.17 173.205 607.443 181.686 604.57 189.168L519.384 411.085C516.512 418.568 509.149 423.35 501.145 422.93L263.765 410.49C255.762 410.07 248.938 404.545 246.864 396.803L185.341 167.197C183.267 159.456 186.413 151.259 193.135 146.894Z" stroke="url(#paint29_linear_697_16646)" stroke-width="3"/>
<path opacity="0.313131" d="M192.483 144.476L393.633 18.7836C400.43 14.5364 409.188 15.1489 415.328 20.3006L597.027 172.764C603.167 177.916 605.291 186.435 602.289 193.866L513.435 413.786C510.433 421.218 502.987 425.87 494.992 425.311L258.378 408.766C250.383 408.206 243.657 402.563 241.718 394.786L184.336 164.64C182.397 156.864 185.686 148.723 192.483 144.476Z" stroke="url(#paint30_linear_697_16646)" stroke-width="3"/>
<path opacity="0.323232" d="M191.884 142.098L394.756 20.2004C401.626 16.0725 410.373 16.8378 416.422 22.0959L595.044 177.37C601.093 182.628 603.068 191.183 599.937 198.561L507.459 416.424C504.328 423.801 496.802 428.323 488.818 427.625L253.041 406.997C245.057 406.298 238.43 400.538 236.627 392.729L183.387 162.117C181.584 154.308 185.014 146.226 191.884 142.098Z" stroke="url(#paint31_linear_697_16646)" stroke-width="3"/>
<path opacity="0.333333" d="M191.342 139.765L395.865 21.6829C402.806 17.6756 411.538 18.5933 417.494 23.9562L592.998 181.98C598.954 187.343 600.779 195.931 597.519 203.253L501.463 418.999C498.203 426.321 490.6 430.711 482.629 429.873L247.759 405.187C239.788 404.35 233.263 398.475 231.597 390.635L182.496 159.632C180.83 151.793 184.401 143.772 191.342 139.765Z" stroke="url(#paint32_linear_697_16646)" stroke-width="3"/>
<path opacity="0.343434" d="M190.849 137.474L396.953 23.2289C403.962 19.3433 412.677 20.4133 418.539 25.8793L590.882 186.592C596.743 192.058 598.419 200.677 595.031 207.94L495.442 421.511C492.054 428.775 484.375 433.032 476.42 432.055L242.527 403.336C234.573 402.36 228.151 396.372 226.622 388.504L181.658 157.184C180.129 149.317 183.839 141.36 190.849 137.474Z" stroke="url(#paint33_linear_697_16646)" stroke-width="3"/>
<path opacity="0.353535" d="M190.409 135.229L398.021 24.8395C405.098 21.0769 413.792 22.2988 419.558 27.8663L588.7 191.205C594.465 196.773 595.99 205.419 592.476 212.623L489.4 423.961C485.886 431.165 478.134 435.287 470.197 434.171L237.35 401.447C229.414 400.331 223.098 394.232 221.706 386.339L180.875 154.776C179.484 146.883 183.332 138.992 190.409 135.229Z" stroke="url(#paint34_linear_697_16646)" stroke-width="3"/>
<path opacity="0.363636" d="M190.018 133.028L399.067 26.5124C406.208 22.8738 414.88 24.2473 420.547 29.9146L586.45 195.817C592.117 201.484 593.49 210.156 589.852 217.297L483.336 426.346C479.697 433.488 471.874 437.474 463.958 436.22L232.225 399.517C224.309 398.263 218.101 392.055 216.847 384.139L180.144 152.406C178.891 144.49 182.877 136.667 190.018 133.028Z" stroke="url(#paint35_linear_697_16646)" stroke-width="3"/>
<path opacity="0.373737" d="M189.678 130.875L400.093 28.2489C407.296 24.7355 415.943 26.2601 421.51 32.0254L584.135 200.428C589.703 206.193 590.924 214.888 587.162 221.965L477.255 428.669C473.492 435.746 465.601 439.595 457.708 438.203L227.157 397.551C219.264 396.159 213.165 389.843 212.05 381.906L179.468 150.077C178.353 142.141 182.475 134.388 189.678 130.875Z" stroke="url(#paint36_linear_697_16646)" stroke-width="3"/>
<path opacity="0.383838" d="M189.389 128.767L401.096 30.0464C408.36 26.6592 416.979 28.3346 422.445 34.1961L581.755 205.036C587.221 210.897 588.291 219.612 584.406 226.621L471.157 430.927C467.272 437.937 459.314 441.647 451.447 440.118L222.145 395.546C214.278 394.017 208.29 387.596 207.313 379.641L178.845 147.789C177.868 139.834 182.125 132.154 189.389 128.767Z" stroke="url(#paint37_linear_697_16646)" stroke-width="3"/>
<path opacity="0.393939" d="M189.145 126.708L402.073 31.9063C409.395 28.6465 417.983 30.4719 423.346 36.428L579.307 209.64C584.67 215.596 585.587 224.328 581.58 231.269L465.04 433.121C461.033 440.062 453.012 443.633 445.172 441.967L217.186 393.507C209.347 391.841 203.472 385.316 202.634 377.345L178.271 145.543C177.433 137.572 181.823 129.968 189.145 126.708Z" stroke="url(#paint38_linear_697_16646)" stroke-width="3"/>
<path opacity="0.40404" d="M188.948 124.697L403.025 33.8262C410.403 30.6946 418.958 32.6697 424.216 38.7185L576.792 214.238C582.051 220.287 582.816 229.033 578.688 235.903L458.908 435.251C454.78 442.12 446.698 445.551 438.889 443.748L212.284 391.432C204.475 389.629 198.714 383.003 198.016 375.019L177.746 143.338C177.048 135.354 181.57 127.828 188.948 124.697Z" stroke="url(#paint39_linear_697_16646)" stroke-width="3"/>
<path opacity="0.414141" d="M188.799 122.736L403.953 35.8079C411.384 32.8056 419.903 34.9297 425.055 41.0693L574.215 218.831C579.367 224.97 579.979 233.729 575.732 240.526L452.763 437.317C448.516 444.114 440.376 447.403 432.599 445.464L207.441 389.325C199.664 387.386 194.02 380.661 193.461 372.665L177.274 141.179C176.715 133.184 181.368 125.738 188.799 122.736Z" stroke="url(#paint40_linear_697_16646)" stroke-width="3"/>
<path opacity="0.424242" d="M188.693 120.825L404.851 37.8491C412.334 34.9769 420.815 37.2494 425.858 43.4779L571.57 223.416C576.614 229.645 577.073 238.413 572.708 245.135L446.604 439.318C442.238 446.04 434.042 449.186 426.3 447.112L202.652 387.186C194.91 385.111 189.385 378.288 188.966 370.284L176.848 139.064C176.428 131.06 181.21 123.697 188.693 120.825Z" stroke="url(#paint41_linear_697_16646)" stroke-width="3"/>
<path opacity="0.434343" d="M188.63 118.964L405.721 39.9491C413.253 37.2079 421.693 39.628 426.627 45.9437L568.859 227.993C573.793 234.308 574.1 243.083 569.618 249.727L440.431 441.254C435.95 447.899 427.699 450.902 419.995 448.693L197.921 385.014C190.217 382.805 184.811 375.886 184.532 367.876L176.469 136.994C176.189 128.984 181.099 121.705 188.63 118.964Z" stroke="url(#paint42_linear_697_16646)" stroke-width="3"/>
<path opacity="0.444444" d="M188.613 117.155L406.564 42.1083C414.142 39.4989 422.538 42.066 427.362 48.4668L566.086 232.56C570.909 238.961 571.062 247.739 566.465 254.304L434.251 443.127C429.653 449.692 421.352 452.55 413.687 450.207L193.25 382.813C185.586 380.47 180.302 373.457 180.162 365.444L176.139 134.97C175.999 126.956 181.035 119.764 188.613 117.155Z" stroke="url(#paint43_linear_697_16646)" stroke-width="3"/>
<path opacity="0.454545" d="M188.637 115.398L407.375 44.3258C414.998 41.8491 423.348 44.5623 428.059 51.0463L563.247 237.116C567.958 243.6 567.958 252.38 563.247 258.865L428.059 444.935C423.348 451.419 414.998 454.132 407.376 451.655L188.637 380.583C181.015 378.106 175.854 371.003 175.854 362.988L175.854 132.993C175.854 124.978 181.015 117.875 188.637 115.398Z" stroke="url(#paint44_linear_697_16646)" stroke-width="3"/>
<path opacity="0.464646" d="M188.701 113.694L408.155 46.6C415.82 44.2567 424.122 47.1152 428.719 53.6805L560.344 241.661C564.941 248.226 564.788 257.005 559.964 263.405L421.859 446.677C417.036 453.078 408.639 455.645 401.061 453.036L184.082 378.324C176.504 375.715 171.468 368.523 171.608 360.509L175.613 131.063C175.753 123.049 181.037 116.037 188.701 113.694Z" stroke="url(#paint45_linear_697_16646)" stroke-width="3"/>
<path opacity="0.474747" d="M188.806 112.042L408.903 48.9305C416.607 46.7213 424.858 49.7243 429.34 56.3688L557.377 246.191C561.858 252.836 561.552 261.61 556.618 267.926L415.651 448.355C410.717 454.671 402.277 457.091 394.746 454.349L179.587 376.038C172.055 373.297 167.146 366.018 167.425 358.008L175.416 129.18C175.696 121.17 181.101 114.252 188.806 112.042Z" stroke="url(#paint46_linear_697_16646)" stroke-width="3"/>
<path opacity="0.484848" d="M188.95 110.445L409.619 51.3172C417.361 49.2429 425.557 52.3894 429.923 59.1111L554.347 250.708C558.712 257.43 558.253 266.198 553.209 272.426L409.439 449.968C404.395 456.197 395.914 458.469 388.432 455.597L175.152 373.727C167.67 370.854 162.888 363.491 163.307 355.487L175.263 127.347C175.683 119.343 181.208 112.52 188.95 110.445Z" stroke="url(#paint47_linear_697_16646)" stroke-width="3"/>
<path opacity="0.494949" d="M189.132 108.902L410.3 53.7588C418.077 51.8199 426.218 55.1089 430.465 61.9058L551.254 255.209C555.501 262.006 554.889 270.765 549.737 276.904L403.221 451.516C398.069 457.656 389.55 459.78 382.119 456.777L170.777 371.39C163.346 368.387 158.693 360.942 159.252 352.946L175.152 125.562C175.711 117.567 181.355 110.841 189.132 108.902Z" stroke="url(#paint48_linear_697_16646)" stroke-width="3"/>
<path opacity="0.50505" d="M189.35 107.416L410.947 56.256C418.756 54.4531 426.838 57.8837 430.966 64.7536L548.099 259.695C552.227 266.565 551.461 275.312 546.203 281.36L396.999 453.001C391.741 459.049 383.186 461.024 375.808 457.893L166.462 369.031C159.084 365.899 154.562 358.373 155.261 350.389L175.082 123.829C175.781 115.845 181.541 109.218 189.35 107.416Z" stroke="url(#paint49_linear_697_16646)" stroke-width="3"/>
<path opacity="0.515152" d="M189.604 105.984L411.557 58.8066C419.396 57.1403 427.417 60.7114 431.425 67.6523L544.88 264.163C548.888 271.104 547.97 279.836 542.607 285.792L390.774 454.42C385.411 460.376 376.823 462.202 369.501 458.942L162.207 366.649C154.885 363.389 150.495 355.785 151.333 347.814L175.052 122.146C175.89 114.175 181.765 107.65 189.604 105.984Z" stroke="url(#paint50_linear_697_16646)" stroke-width="3"/>
<path opacity="0.525253" d="M189.893 104.608L412.131 61.4097C419.999 59.8804 427.956 63.591 431.842 70.6008L541.601 268.612C545.487 275.622 544.417 284.337 538.951 290.198L384.548 455.775C379.082 461.637 370.463 463.312 363.2 459.925L158.014 364.245C150.75 360.858 146.494 353.179 147.47 345.224L175.061 120.514C176.038 112.559 182.026 106.138 189.893 104.608Z" stroke="url(#paint51_linear_697_16646)" stroke-width="3"/>
<path opacity="0.535354" d="M190.216 103.29L412.667 64.0654C420.56 62.6737 428.452 66.5226 432.214 73.5992L538.26 273.042C542.023 280.119 540.801 288.813 535.234 294.579L378.322 457.066C372.754 462.831 364.108 464.356 356.904 460.842L153.881 361.821C146.678 358.308 142.556 350.556 143.671 342.619L175.108 118.934C176.224 110.997 182.323 104.681 190.216 103.29Z" stroke="url(#paint52_linear_697_16646)" stroke-width="3"/>
<path opacity="0.545455" d="M190.57 102.028L413.164 66.7726C421.08 65.5188 428.903 69.5048 432.542 76.646L534.857 277.452C538.496 284.593 537.123 293.265 531.455 298.932L372.095 458.292C366.428 463.959 357.756 465.333 350.615 461.694L149.809 359.379C142.668 355.74 138.682 347.917 139.936 340.001L175.191 117.406C176.445 109.49 182.654 103.282 190.57 102.028Z" stroke="url(#paint53_linear_697_16646)" stroke-width="3"/>
<path opacity="0.555556" d="M190.956 100.824L413.623 69.53C421.56 68.4146 429.312 72.5366 432.826 79.7401L531.396 281.839C534.909 289.042 533.385 297.689 527.619 303.256L365.872 459.454C360.107 465.022 351.412 466.243 344.335 462.481L145.8 356.918C138.723 353.155 134.874 345.264 136.266 337.371L175.312 115.931C176.704 108.038 183.02 101.939 190.956 100.824Z" stroke="url(#paint54_linear_697_16646)" stroke-width="3"/>
<path opacity="0.565657" d="M191.371 99.6783L414.04 72.338C421.995 71.3612 429.675 75.6179 433.062 82.8816L527.872 286.204C531.26 293.468 529.584 302.086 523.723 307.552L359.65 460.553C353.788 466.019 345.074 467.089 338.064 463.203L141.851 354.44C134.841 350.555 131.13 342.597 132.659 334.73L175.466 114.51C176.995 106.643 183.416 100.655 191.371 99.6783Z" stroke="url(#paint55_linear_697_16646)" stroke-width="3"/>
<path opacity="0.575758" d="M191.818 98.5906L414.419 75.1943C422.39 74.3565 429.994 78.7465 433.254 86.0683L524.293 290.545C527.552 297.867 525.727 306.455 519.771 311.818L353.435 461.587C347.479 466.95 338.747 467.868 331.806 463.861L137.966 351.947C131.025 347.94 127.454 339.919 129.12 332.079L175.656 113.143C177.323 105.303 183.848 99.4284 191.818 98.5906Z" stroke="url(#paint56_linear_697_16646)" stroke-width="3"/>
<path opacity="0.585859" d="M192.292 97.5625L414.755 78.0995C422.74 77.401 430.265 81.923 433.397 89.3006L520.653 294.862C523.784 302.239 521.809 310.794 515.76 316.052L347.224 462.559C341.175 467.817 332.428 468.582 325.558 464.454L134.141 349.44C127.271 345.312 123.841 337.23 125.644 329.42L175.878 111.831C177.681 104.021 184.308 98.2611 192.292 97.5625Z" stroke="url(#paint57_linear_697_16646)" stroke-width="3"/>
<path opacity="0.59596" d="M192.791 96.5931L415.048 81.0514C423.043 80.4923 430.489 85.145 433.491 92.5761L516.953 299.152C519.956 306.583 517.832 315.102 511.692 320.254L341.018 463.467C334.878 468.619 326.12 469.231 319.323 464.984L130.378 346.918C123.581 342.671 120.292 334.53 122.231 326.754L176.131 110.572C178.07 102.796 184.796 97.1522 192.791 96.5931Z" stroke="url(#paint58_linear_697_16646)" stroke-width="3"/>
<path opacity="0.606061" d="M193.318 95.6837L415.299 84.0502C423.303 83.6308 430.666 88.4127 433.538 95.8951L513.198 303.416C516.071 310.899 513.798 319.38 507.57 324.423L334.821 464.312C328.593 469.356 319.825 469.815 313.103 465.45L126.679 344.385C119.957 340.02 116.811 331.823 118.885 324.081L176.417 109.37C178.491 101.629 185.315 96.1032 193.318 95.6837Z" stroke="url(#paint59_linear_697_16646)" stroke-width="3"/>
<path opacity="0.616162" d="M193.87 94.8342L415.506 87.0945C423.516 86.8148 430.795 91.7245 433.536 99.2559L509.386 307.653C512.127 315.184 509.707 323.624 503.391 328.558L328.633 465.094C322.318 470.029 313.543 470.335 306.898 465.853L123.042 341.84C116.397 337.359 113.394 329.108 115.603 321.404L176.732 108.224C178.941 100.519 185.86 95.1139 193.87 94.8342Z" stroke="url(#paint60_linear_697_16646)" stroke-width="3"/>
<path opacity="0.626263" d="M194.445 94.0454L415.668 90.1839C423.682 90.044 430.874 95.08 433.483 102.658L505.518 311.861C508.127 319.439 505.56 327.835 499.159 332.659L322.455 465.815C316.054 470.638 307.276 470.791 300.71 466.194L119.467 339.286C112.902 334.689 110.043 326.388 112.386 318.723L177.076 107.134C179.419 99.4692 186.431 94.1853 194.445 94.0454Z" stroke="url(#paint61_linear_697_16646)" stroke-width="3"/>
<path opacity="0.636364" d="M195.041 93.3173L415.784 93.3173C423.799 93.3173 430.902 98.4781 433.379 106.101L501.592 316.04C504.069 323.662 501.356 332.013 494.872 336.724L316.287 466.473C309.803 471.184 301.023 471.184 294.539 466.473L115.954 336.724C109.47 332.013 106.756 323.662 109.233 316.04L177.447 106.101C179.923 98.4781 187.026 93.3173 195.041 93.3173Z" stroke="url(#paint62_linear_697_16646)" stroke-width="3"/>
<path opacity="0.646465" d="M195.659 92.6495L415.855 96.4931C423.868 96.6329 430.88 101.917 433.223 109.581L497.612 320.188C499.955 327.852 497.097 336.154 490.532 340.751L310.13 467.069C303.565 471.666 294.786 471.513 288.386 466.69L112.503 334.152C106.102 329.329 103.535 320.933 106.144 313.355L177.844 105.124C180.453 97.5457 187.645 92.5096 195.659 92.6495Z" stroke="url(#paint63_linear_697_16646)" stroke-width="3"/>
<path opacity="0.656566" d="M196.297 92.0432L415.879 99.7112C423.889 99.9909 430.807 105.396 433.017 113.101L493.578 324.305C495.787 332.009 492.785 340.259 486.14 344.741L303.988 467.604C297.343 472.086 288.569 471.78 282.253 466.845L109.115 331.575C102.799 326.641 100.379 318.201 103.12 310.669L178.267 104.205C181.009 96.6732 188.288 91.7635 196.297 92.0432Z" stroke="url(#paint64_linear_697_16646)" stroke-width="3"/>
<path opacity="0.666667" d="M196.955 91.4974L415.856 102.97C423.86 103.389 430.683 108.914 432.758 116.656L489.491 328.388C491.566 336.13 488.419 344.327 481.697 348.692L297.86 468.077C291.138 472.442 282.37 471.983 276.141 466.939L105.79 328.991C99.5614 323.948 97.289 315.467 100.161 307.984L178.716 103.342C181.588 95.8599 188.952 91.078 196.955 91.4974Z" stroke="url(#paint65_linear_697_16646)" stroke-width="3"/>
<path opacity="0.676768" d="M197.631 91.0141L415.785 106.269C423.781 106.828 430.506 112.472 432.445 120.248L485.351 332.44C487.29 340.216 484.001 348.357 477.204 352.604L291.746 468.491C284.949 472.738 276.191 472.125 270.051 466.974L102.527 326.404C96.3874 321.252 94.2634 312.733 97.2657 305.302L179.187 102.539C182.19 95.1077 189.636 90.455 197.631 91.0141Z" stroke="url(#paint66_linear_697_16646)" stroke-width="3"/>
<path opacity="0.686869" d="M198.322 90.592L415.665 109.607C423.65 110.306 430.276 116.066 432.079 123.875L481.157 336.457C482.96 344.266 479.53 352.348 472.66 356.476L285.649 468.843C278.779 472.971 270.032 472.206 263.983 466.948L99.3257 323.813C93.277 318.555 91.3019 310 94.4335 302.623L179.681 101.793C182.812 94.4155 190.338 89.8935 198.322 90.592Z" stroke="url(#paint67_linear_697_16646)" stroke-width="3"/>
<path opacity="0.69697" d="M199.031 90.2318L415.498 112.983C423.468 113.821 429.993 119.696 431.66 127.536L476.914 340.439C478.58 348.278 475.009 356.299 468.068 360.306L279.569 469.136C272.628 473.144 263.896 472.226 257.94 466.863L96.1879 321.22C90.2319 315.857 88.4064 307.269 91.6663 299.948L180.196 101.106C183.456 93.784 191.06 89.394 199.031 90.2318Z" stroke="url(#paint68_linear_697_16646)" stroke-width="3"/>
<path opacity="0.707071" d="M199.752 89.9346L415.278 116.398C423.233 117.375 429.655 123.363 431.184 131.23L472.617 344.386C474.147 352.253 470.436 360.211 463.426 364.096L273.507 469.37C266.497 473.256 257.782 472.186 251.921 466.72L93.1106 318.627C87.249 313.161 85.5737 304.542 88.9609 297.279L180.73 100.478C184.118 93.2144 191.797 88.9578 199.752 89.9346Z" stroke="url(#paint69_linear_697_16646)" stroke-width="3"/>
<path opacity="0.717172" d="M200.486 89.6983L415.009 119.848C422.946 120.963 429.262 127.062 430.654 134.955L468.271 348.295C469.663 356.188 465.814 364.08 458.738 367.842L267.463 469.545C260.387 473.307 251.692 472.085 245.927 466.518L90.0955 316.033C84.3303 310.466 82.8056 301.819 86.319 294.615L181.284 99.9084C184.797 92.7049 192.55 88.5829 200.486 89.6983Z" stroke="url(#paint70_linear_697_16646)" stroke-width="3"/>
<path opacity="0.727273" d="M201.233 89.5254L414.69 123.334C422.606 124.587 428.814 130.796 430.068 138.712L463.876 352.168C465.13 360.084 461.144 367.907 454.003 371.546L261.441 469.661C254.3 473.3 245.628 471.926 239.961 466.259L87.1426 313.441C81.4753 307.774 80.1018 299.102 83.7404 291.961L181.856 99.3988C185.494 92.2577 193.317 88.2716 201.233 89.5254Z" stroke="url(#paint71_linear_697_16646)" stroke-width="3"/>
<path opacity="0.737374" d="M201.993 89.4142L414.32 126.853C422.213 128.245 428.312 134.561 429.428 142.498L459.434 356.003C460.549 363.939 456.427 371.692 449.224 375.205L255.441 469.719C248.237 473.233 239.591 471.708 234.023 465.943L84.2526 310.851C78.6852 305.086 77.4632 296.391 81.2259 289.314L182.446 98.9479C186.208 91.8714 194.1 88.0225 201.993 89.4142Z" stroke="url(#paint72_linear_697_16646)" stroke-width="3"/>
<path opacity="0.747475" d="M202.76 89.3664L413.897 130.407C421.765 131.937 427.753 138.358 428.73 146.313L454.942 359.799C455.919 367.754 451.663 375.433 444.399 378.82L249.462 469.721C242.198 473.108 233.579 471.433 228.113 465.571L81.4226 308.265C75.9566 302.403 74.8866 293.689 78.7721 286.679L183.05 98.5576C186.935 91.5478 194.893 87.8372 202.76 89.3664Z" stroke="url(#paint73_linear_697_16646)" stroke-width="3"/>
<path opacity="0.757576" d="M203.537 89.3797L413.424 133.992C421.263 135.659 427.138 142.184 427.976 150.154L450.405 363.554C451.243 371.525 446.853 379.129 439.531 382.389L243.507 469.664C236.185 472.924 227.597 471.099 222.234 465.143L78.6553 305.682C73.2924 299.726 72.3746 290.994 76.382 284.053L183.67 98.2254C187.677 91.2845 195.698 87.7133 203.537 89.3797Z" stroke="url(#paint74_linear_697_16646)" stroke-width="3"/>
<path opacity="0.767677" d="M204.322 89.4563L412.897 137.61C420.706 139.412 426.467 146.039 427.165 154.023L445.822 367.27C446.52 375.254 441.998 382.78 434.621 385.912L237.576 469.552C230.199 472.684 221.644 470.708 216.386 464.66L75.9486 303.106C70.6905 297.057 69.9253 288.31 74.0532 281.44L184.303 97.9539C188.431 91.084 196.513 87.6534 204.322 89.4563Z" stroke="url(#paint75_linear_697_16646)" stroke-width="3"/>
<path opacity="0.777778" d="M205.112 89.5958L412.316 141.258C420.092 143.197 425.736 149.922 426.295 157.918L441.191 370.945C441.751 378.94 437.098 386.386 429.667 389.388L231.669 469.384C224.238 472.387 215.719 470.263 210.567 464.123L73.3016 300.536C68.1498 294.397 67.5373 285.638 71.7845 278.841L184.947 97.7428C189.194 90.946 197.335 87.6569 205.112 89.5958Z" stroke="url(#paint76_linear_697_16646)" stroke-width="3"/>
<path opacity="0.787879" d="M205.907 89.7979L411.682 144.935C419.423 147.009 424.949 153.833 425.368 161.836L436.518 374.578C436.937 382.581 432.155 389.945 424.673 392.817L225.789 469.162C218.307 472.034 209.826 469.761 204.782 463.533L70.7159 297.975C65.6721 291.746 65.2126 282.978 69.5777 276.257L185.604 97.5917C189.969 90.8701 198.166 87.7236 205.907 89.7979Z" stroke="url(#paint77_linear_697_16646)" stroke-width="3"/>
<path opacity="0.79798" d="M206.705 90.0612L410.992 148.639C418.696 150.849 424.102 157.767 424.381 165.777L431.798 378.167C432.078 386.177 427.168 393.456 419.637 396.197L219.934 468.883C212.403 471.624 203.963 469.204 199.028 462.888L68.1885 295.421C63.2542 289.105 62.9478 280.33 67.4295 273.686L186.269 97.4994C190.751 90.855 199.001 87.852 206.705 90.0612Z" stroke="url(#paint78_linear_697_16646)" stroke-width="3"/>
<path opacity="0.808081" d="M207.509 90.388L410.251 152.372C417.915 154.716 423.199 161.728 423.339 169.741L427.039 381.714C427.179 389.728 422.143 396.92 414.565 399.529L214.11 468.551C206.532 471.161 198.136 468.594 193.312 462.193L65.7243 292.878C60.901 286.477 60.7477 277.698 65.3448 271.133L186.946 97.4685C191.543 90.9032 199.845 88.0447 207.509 90.388Z" stroke="url(#paint79_linear_697_16646)" stroke-width="3"/>
<path opacity="0.818182" d="M208.314 90.7763L409.455 156.131C417.077 158.607 422.238 165.711 422.238 173.725L422.238 385.217C422.238 393.231 417.077 400.334 409.455 402.811L208.314 468.166C200.692 470.642 192.342 467.929 187.631 461.445L63.3192 290.345C58.6083 283.861 58.6083 275.081 63.3192 268.597L187.631 97.4968C192.342 91.0128 200.692 88.2996 208.314 90.7763Z" stroke="url(#paint80_linear_697_16646)" stroke-width="3"/>
<path opacity="0.828283" d="M209.12 91.2273L408.603 159.915C416.181 162.524 421.217 169.716 421.077 177.73L417.395 388.675C417.255 396.688 411.971 403.7 404.306 406.044L202.548 467.728C194.883 470.071 186.582 467.212 181.985 460.647L60.973 287.825C56.376 281.259 56.5292 272.481 61.3526 266.08L188.322 97.5858C193.145 91.185 201.542 88.618 209.12 91.2273Z" stroke="url(#paint81_linear_697_16646)" stroke-width="3"/>
<path opacity="0.838384" d="M209.924 91.7398L407.695 163.722C415.227 166.464 420.136 173.743 419.857 181.752L412.512 392.087C412.232 400.097 406.826 407.016 399.122 409.225L196.812 467.237C189.108 469.446 180.857 466.443 176.375 459.798L58.6857 285.317C54.204 278.672 54.5104 269.897 59.4447 263.582L189.019 97.7344C193.953 91.4187 202.393 88.9986 209.924 91.7398Z" stroke="url(#paint82_linear_697_16646)" stroke-width="3"/>
<path opacity="0.848485" d="M210.727 92.3151L406.731 167.554C414.214 170.426 418.996 177.79 418.576 185.794L407.588 395.455C407.169 403.459 401.643 410.282 393.902 412.357L191.106 466.696C183.365 468.77 175.168 465.623 170.803 458.902L56.4562 282.823C52.0911 276.102 52.5506 267.334 57.5944 261.105L189.72 97.9439C194.764 91.7153 203.244 89.4429 210.727 92.3151Z" stroke="url(#paint83_linear_697_16646)" stroke-width="3"/>
<path opacity="0.858586" d="M211.527 92.9511L405.712 171.407C413.143 174.409 417.796 181.855 417.237 189.85L402.627 398.775C402.068 406.771 396.424 413.496 388.648 415.435L185.434 466.102C177.657 468.041 169.516 464.752 165.269 457.955L54.2853 280.344C50.0382 273.547 50.6506 264.789 55.8024 258.649L190.425 98.2124C195.577 92.0728 204.096 89.9487 211.527 92.9511Z" stroke="url(#paint84_linear_697_16646)" stroke-width="3"/>
<path opacity="0.868687" d="M212.325 93.6492L404.638 175.281C412.015 178.413 416.537 185.939 415.839 193.923L397.63 402.049C396.932 410.033 391.171 416.66 383.362 418.463L179.796 465.46C171.986 467.263 163.904 463.832 159.776 456.962L52.1739 277.882C48.046 271.012 48.8113 262.265 54.0694 256.216L191.134 98.5415C196.392 92.4927 204.947 90.5176 212.325 93.6492Z" stroke="url(#paint85_linear_697_16646)" stroke-width="3"/>
<path opacity="0.878788" d="M213.117 94.4092L403.506 179.176C410.828 182.436 415.218 190.04 414.38 198.01L392.596 405.276C391.758 413.247 385.883 419.772 378.043 421.438L174.19 464.768C166.351 466.435 158.33 462.863 154.323 455.923L50.1189 275.437C46.1116 268.496 47.0293 259.764 52.3922 253.808L191.844 98.9308C197.207 92.9748 205.795 91.1493 213.117 94.4092Z" stroke="url(#paint86_linear_697_16646)" stroke-width="3"/>
<path opacity="0.888889" d="M213.901 95.2296L402.316 183.089C409.58 186.476 413.837 194.155 412.86 202.11L387.524 408.454C386.547 416.409 380.559 422.83 372.692 424.36L168.618 464.027C160.751 465.557 152.794 461.846 148.908 454.836L48.1193 273.009C44.2337 265.999 45.3037 257.284 50.7697 251.423L192.553 99.3793C198.019 93.5177 206.637 91.8424 213.901 95.2296Z" stroke="url(#paint87_linear_697_16646)" stroke-width="3"/>
<path opacity="0.89899" d="M214.682 96.1111L401.073 187.02C408.277 190.534 412.399 198.286 411.283 206.223L382.422 411.584C381.306 419.52 375.207 425.836 367.314 427.228L163.085 463.239C155.193 464.631 147.301 460.782 143.538 453.705L46.1797 270.6C42.4171 263.524 43.639 254.829 49.2065 249.064L193.264 99.8876C198.832 94.1223 207.478 92.5977 214.682 96.1111Z" stroke="url(#paint88_linear_697_16646)" stroke-width="3"/>
<path opacity="0.909091" d="M215.453 97.0542L399.771 190.969C406.912 194.608 410.898 202.431 409.644 210.347L377.283 414.665C376.03 422.581 369.821 428.79 361.905 430.043L157.587 462.404C149.671 463.658 141.848 459.672 138.209 452.531L44.2943 268.213C40.6557 261.071 42.0292 252.399 47.6964 246.732L193.972 100.456C199.639 94.7891 208.311 93.4156 215.453 97.0542Z" stroke="url(#paint89_linear_697_16646)" stroke-width="3"/>
<path opacity="0.919192" d="M216.213 98.056L398.411 194.932C405.487 198.695 409.336 206.586 407.945 214.479L372.112 417.696C370.72 425.588 364.404 431.688 356.468 432.803L152.125 461.522C144.188 462.637 136.436 458.515 132.922 451.311L42.4638 265.844C38.9504 258.641 40.475 249.994 46.2403 244.426L194.677 101.083C200.442 95.5153 209.137 94.2934 216.213 98.056Z" stroke="url(#paint90_linear_697_16646)" stroke-width="3"/>
<path opacity="0.929293" d="M216.964 99.1186L396.993 198.91C404.003 202.796 407.713 210.753 406.184 218.621L366.909 420.676C365.379 428.544 358.958 434.532 351.003 435.509L146.7 460.594C138.745 461.571 131.066 457.314 127.679 450.05L40.6881 263.498C37.301 256.234 38.9763 247.616 44.8378 242.15L195.378 101.769C201.239 96.303 209.954 95.233 216.964 99.1186Z" stroke="url(#paint91_linear_697_16646)" stroke-width="3"/>
<path opacity="0.939394" d="M217.704 100.241L395.519 202.903C402.46 206.91 406.031 214.931 404.365 222.771L361.675 423.607C360.009 431.447 353.484 437.322 345.514 438.159L141.315 459.622C133.344 460.459 125.741 456.069 122.481 448.748L38.9682 261.175C35.7083 253.854 37.5338 245.265 43.4898 239.903L196.075 102.514C202.031 97.1516 210.763 96.2338 217.704 100.241Z" stroke="url(#paint92_linear_697_16646)" stroke-width="3"/>
<path opacity="0.949495" d="M218.43 101.424L393.986 206.908C400.856 211.036 404.286 219.118 402.483 226.928L356.411 426.488C354.608 434.297 347.982 440.057 339.998 440.756L135.968 458.606C127.984 459.305 120.458 454.782 117.326 447.405L37.3008 258.877C34.1692 251.499 36.1443 242.944 42.193 237.686L196.765 103.319C202.813 98.0612 211.56 97.296 218.43 101.424Z" stroke="url(#paint93_linear_697_16646)" stroke-width="3"/>
<path opacity="0.959596" d="M219.145 102.664L392.398 210.924C399.194 215.171 402.484 223.312 400.545 231.089L351.121 429.315C349.182 437.092 342.456 442.736 334.461 443.295L130.664 457.546C122.668 458.105 115.222 453.452 112.22 446.021L35.6898 256.602C32.6874 249.171 34.8115 240.651 40.9511 235.5L197.45 104.181C203.59 99.0295 212.349 98.417 219.145 102.664Z" stroke="url(#paint94_linear_697_16646)" stroke-width="3"/>
<path opacity="0.969697" d="M219.843 103.964L390.748 214.951C397.47 219.316 400.617 227.513 398.542 235.255L345.8 432.092C343.725 439.834 336.902 445.359 328.898 445.779L125.396 456.444C117.393 456.863 110.029 452.081 107.157 444.599L34.1282 254.353C31.256 246.871 33.5284 238.39 39.757 233.346L198.125 105.102C204.353 100.058 213.121 99.5988 219.843 103.964Z" stroke="url(#paint95_linear_697_16646)" stroke-width="3"/>
<path opacity="0.979798" d="M220.527 105.321L389.043 218.986C395.688 223.468 398.691 231.719 396.481 239.423L340.453 434.816C338.244 442.52 331.325 447.926 323.316 448.205L120.172 455.299C112.162 455.579 104.883 450.669 102.142 443.138L32.6207 252.129C29.8795 244.598 32.2996 236.158 38.6153 231.223L198.792 106.08C205.108 101.145 213.882 100.839 220.527 105.321Z" stroke="url(#paint96_linear_697_16646)" stroke-width="3"/>
<path opacity="0.989899" d="M221.193 106.737L387.279 223.031C393.844 227.628 396.703 235.93 394.36 243.594L335.08 437.488C332.737 445.153 325.725 450.437 317.712 450.577L114.989 454.115C106.976 454.255 99.7836 449.219 97.1743 441.641L31.1643 249.934C28.5549 242.356 31.122 233.96 37.5228 229.136L199.449 107.116C205.85 102.293 214.628 102.14 221.193 106.737Z" stroke="url(#paint97_linear_697_16646)" stroke-width="3"/>
<path d="M221.843 108.21L385.458 227.083C391.942 231.794 394.655 240.144 392.179 247.767L329.683 440.107C327.207 447.73 320.104 452.891 312.089 452.891H109.85C101.835 452.891 94.7317 447.73 92.2551 440.108L29.7597 247.767C27.283 240.144 29.9962 231.794 36.4802 227.083L200.095 108.21C206.579 103.499 215.359 103.499 221.843 108.21Z" stroke="url(#paint98_linear_697_16646)" stroke-width="3"/>
<defs>
<linearGradient id="paint0_linear_697_16646" x1="488.012" y1="347.891" x2="448.347" y2="65.6554" gradientUnits="userSpaceOnUse">
<stop id="primaryColor" stop-color="#FE8C3A"/>
<stop offset="1" id="secondaryColor" stop-color="#C8F7FA"/>
</linearGradient>
<linearGradient id="paint1_linear_697_16646" x1="482.94" y1="348.839" x2="448.27" y2="66.4702" gradientUnits="userSpaceOnUse">
<stop id="primaryColor" stop-color="#FE8C3A"/>
<stop offset="1" id="secondaryColor" stop-color="#C8F7FA"/>
</linearGradient>
<linearGradient id="paint2_linear_697_16646" x1="477.87" y1="349.744" x2="448.187" y2="67.3304" gradientUnits="userSpaceOnUse">
<stop id="primaryColor" stop-color="#FE8C3A"/>
<stop offset="1" id="secondaryColor" stop-color="#C8F7FA"/>
</linearGradient>
<linearGradient id="paint3_linear_697_16646" x1="472.806" y1="350.606" x2="448.102" y2="68.2361" gradientUnits="userSpaceOnUse">
<stop id="primaryColor" stop-color="#FE8C3A"/>
<stop offset="1" id="secondaryColor" stop-color="#C8F7FA"/>
</linearGradient>
<linearGradient id="paint4_linear_697_16646" x1="467.743" y1="351.426" x2="448.007" y2="69.1861" gradientUnits="userSpaceOnUse">
<stop id="primaryColor" stop-color="#FE8C3A"/>
<stop offset="1" id="secondaryColor" stop-color="#C8F7FA"/>
</linearGradient>
<linearGradient id="paint5_linear_697_16646" x1="462.689" y1="352.201" x2="447.909" y2="70.1797" gradientUnits="userSpaceOnUse">
<stop id="primaryColor" stop-color="#FE8C3A"/>
<stop offset="1" id="secondaryColor" stop-color="#C8F7FA"/>
</linearGradient>
<linearGradient id="paint6_linear_697_16646" x1="457.64" y1="352.935" x2="447.802" y2="71.2177" gradientUnits="userSpaceOnUse">
<stop id="primaryColor" stop-color="#FE8C3A"/>
<stop offset="1" id="secondaryColor" stop-color="#C8F7FA"/>
</linearGradient>
<linearGradient id="paint7_linear_697_16646" x1="452.599" y1="353.626" x2="447.689" y2="72.3006" gradientUnits="userSpaceOnUse">
<stop id="primaryColor" stop-color="#FE8C3A"/>
<stop offset="1" id="secondaryColor" stop-color="#C8F7FA"/>
</linearGradient>
<linearGradient id="paint8_linear_697_16646" x1="447.567" y1="354.275" x2="447.567" y2="73.4267" gradientUnits="userSpaceOnUse">
<stop id="primaryColor" stop-color="#FE8C3A"/>
<stop offset="1" id="secondaryColor" stop-color="#C8F7FA"/>
</linearGradient>
<linearGradient id="paint9_linear_697_16646" x1="442.542" y1="354.882" x2="447.434" y2="74.5959" gradientUnits="userSpaceOnUse">
<stop id="primaryColor" stop-color="#FE8C3A"/>
<stop offset="1" id="secondaryColor" stop-color="#C8F7FA"/>
</linearGradient>
<linearGradient id="paint10_linear_697_16646" x1="437.528" y1="355.447" x2="447.293" y2="75.8095" gradientUnits="userSpaceOnUse">
<stop id="primaryColor" stop-color="#FE8C3A"/>
<stop offset="1" id="secondaryColor" stop-color="#C8F7FA"/>
</linearGradient>
<linearGradient id="paint11_linear_697_16646" x1="432.522" y1="355.97" x2="447.139" y2="77.065" gradientUnits="userSpaceOnUse">
<stop id="primaryColor" stop-color="#FE8C3A"/>
<stop offset="1" id="secondaryColor" stop-color="#C8F7FA"/>
</linearGradient>
<linearGradient id="paint12_linear_697_16646" x1="427.528" y1="356.453" x2="446.974" y2="78.3642" gradientUnits="userSpaceOnUse">
<stop id="primaryColor" stop-color="#FE8C3A"/>
<stop offset="1" id="secondaryColor" stop-color="#C8F7FA"/>
</linearGradient>
<linearGradient id="paint13_linear_697_16646" x1="422.545" y1="356.895" x2="446.796" y2="79.7057" gradientUnits="userSpaceOnUse">
<stop id="primaryColor" stop-color="#FE8C3A"/>
<stop offset="1" id="secondaryColor" stop-color="#C8F7FA"/>
</linearGradient>
<linearGradient id="paint14_linear_697_16646" x1="417.579" y1="357.295" x2="446.609" y2="81.0887" gradientUnits="userSpaceOnUse">
<stop id="primaryColor" stop-color="#FE8C3A"/>
<stop offset="1" id="secondaryColor" stop-color="#C8F7FA"/>
</linearGradient>
<linearGradient id="paint15_linear_697_16646" x1="412.621" y1="357.656" x2="446.404" y2="82.5143" gradientUnits="userSpaceOnUse">
<stop id="primaryColor" stop-color="#FE8C3A"/>
<stop offset="1" id="secondaryColor" stop-color="#C8F7FA"/>
</linearGradient>
<linearGradient id="paint16_linear_697_16646" x1="407.678" y1="357.976" x2="446.185" y2="83.9814" gradientUnits="userSpaceOnUse">
<stop id="primaryColor" stop-color="#FE8C3A"/>
<stop offset="1" id="secondaryColor" stop-color="#C8F7FA"/>
</linearGradient>
<linearGradient id="paint17_linear_697_16646" x1="402.75" y1="358.257" x2="445.953" y2="85.4896" gradientUnits="userSpaceOnUse">
<stop id="primaryColor" stop-color="#FE8C3A"/>
<stop offset="1" id="secondaryColor" stop-color="#C8F7FA"/>
</linearGradient>
<linearGradient id="paint18_linear_697_16646" x1="397.836" y1="358.498" x2="445.702" y2="87.0386" gradientUnits="userSpaceOnUse">
<stop id="primaryColor" stop-color="#FE8C3A"/>
<stop offset="1" id="secondaryColor" stop-color="#C8F7FA"/>
</linearGradient>
<linearGradient id="paint19_linear_697_16646" x1="392.938" y1="358.699" x2="445.435" y2="88.6268" gradientUnits="userSpaceOnUse">
<stop id="primaryColor" stop-color="#FE8C3A"/>
<stop offset="1" id="secondaryColor" stop-color="#C8F7FA"/>
</linearGradient>
<linearGradient id="paint20_linear_697_16646" x1="388.057" y1="358.864" x2="445.151" y2="90.2571" gradientUnits="userSpaceOnUse">
<stop id="primaryColor" stop-color="#FE8C3A"/>
<stop offset="1" id="secondaryColor" stop-color="#C8F7FA"/>
</linearGradient>
<linearGradient id="paint21_linear_697_16646" x1="383.194" y1="358.988" x2="444.85" y2="91.9254" gradientUnits="userSpaceOnUse">
<stop id="primaryColor" stop-color="#FE8C3A"/>
<stop offset="1" id="secondaryColor" stop-color="#C8F7FA"/>
</linearGradient>
<linearGradient id="paint22_linear_697_16646" x1="378.347" y1="359.075" x2="444.529" y2="93.6343" gradientUnits="userSpaceOnUse">
<stop id="primaryColor" stop-color="#FE8C3A"/>
<stop offset="1" id="secondaryColor" stop-color="#C8F7FA"/>
</linearGradient>
<linearGradient id="paint23_linear_697_16646" x1="373.519" y1="359.125" x2="444.189" y2="95.3819" gradientUnits="userSpaceOnUse">
<stop id="primaryColor" stop-color="#FE8C3A"/>
<stop offset="1" id="secondaryColor" stop-color="#C8F7FA"/>
</linearGradient>
<linearGradient id="paint24_linear_697_16646" x1="368.711" y1="359.137" x2="443.829" y2="97.1673" gradientUnits="userSpaceOnUse">
<stop id="primaryColor" stop-color="#FE8C3A"/>
<stop offset="1" id="secondaryColor" stop-color="#C8F7FA"/>
</linearGradient>
<linearGradient id="paint25_linear_697_16646" x1="363.922" y1="359.112" x2="443.449" y2="98.9906" gradientUnits="userSpaceOnUse">
<stop id="primaryColor" stop-color="#FE8C3A"/>
<stop offset="1" id="secondaryColor" stop-color="#C8F7FA"/>
</linearGradient>
<linearGradient id="paint26_linear_697_16646" x1="359.153" y1="359.052" x2="443.047" y2="100.852" gradientUnits="userSpaceOnUse">
<stop id="primaryColor" stop-color="#FE8C3A"/>
<stop offset="1" id="secondaryColor" stop-color="#C8F7FA"/>
</linearGradient>
<linearGradient id="paint27_linear_697_16646" x1="354.404" y1="358.955" x2="442.622" y2="102.751" gradientUnits="userSpaceOnUse">
<stop id="primaryColor" stop-color="#FE8C3A"/>
<stop offset="1" id="secondaryColor" stop-color="#C8F7FA"/>
</linearGradient>
<linearGradient id="paint28_linear_697_16646" x1="349.679" y1="358.823" x2="442.177" y2="104.686" gradientUnits="userSpaceOnUse">
<stop id="primaryColor" stop-color="#FE8C3A"/>
<stop offset="1" id="secondaryColor" stop-color="#C8F7FA"/>
</linearGradient>
<linearGradient id="paint29_linear_697_16646" x1="344.972" y1="358.655" x2="441.705" y2="106.657" gradientUnits="userSpaceOnUse">
<stop id="primaryColor" stop-color="#FE8C3A"/>
<stop offset="1" id="secondaryColor" stop-color="#C8F7FA"/>
</linearGradient>
<linearGradient id="paint30_linear_697_16646" x1="340.291" y1="358.454" x2="441.213" y2="108.665" gradientUnits="userSpaceOnUse">
<stop id="primaryColor" stop-color="#FE8C3A"/>
<stop offset="1" id="secondaryColor" stop-color="#C8F7FA"/>
</linearGradient>
<linearGradient id="paint31_linear_697_16646" x1="335.631" y1="358.218" x2="440.694" y2="110.707" gradientUnits="userSpaceOnUse">
<stop id="primaryColor" stop-color="#FE8C3A"/>
<stop offset="1" id="secondaryColor" stop-color="#C8F7FA"/>
</linearGradient>
<linearGradient id="paint32_linear_697_16646" x1="330.999" y1="357.949" x2="440.153" y2="112.784" gradientUnits="userSpaceOnUse">
<stop id="primaryColor" stop-color="#FE8C3A"/>
<stop offset="1" id="secondaryColor" stop-color="#C8F7FA"/>
</linearGradient>
<linearGradient id="paint33_linear_697_16646" x1="326.388" y1="357.646" x2="439.584" y2="114.895" gradientUnits="userSpaceOnUse">
<stop id="primaryColor" stop-color="#FE8C3A"/>
<stop offset="1" id="secondaryColor" stop-color="#C8F7FA"/>
</linearGradient>
<linearGradient id="paint34_linear_697_16646" x1="321.802" y1="357.311" x2="438.991" y2="117.04" gradientUnits="userSpaceOnUse">
<stop id="primaryColor" stop-color="#FE8C3A"/>
<stop offset="1" id="secondaryColor" stop-color="#C8F7FA"/>
</linearGradient>
<linearGradient id="paint35_linear_697_16646" x1="317.241" y1="356.944" x2="438.368" y2="119.218" gradientUnits="userSpaceOnUse">
<stop id="primaryColor" stop-color="#FE8C3A"/>
<stop offset="1" id="secondaryColor" stop-color="#C8F7FA"/>
</linearGradient>
<linearGradient id="paint36_linear_697_16646" x1="312.707" y1="356.546" x2="437.721" y2="121.429" gradientUnits="userSpaceOnUse">
<stop id="primaryColor" stop-color="#FE8C3A"/>
<stop offset="1" id="secondaryColor" stop-color="#C8F7FA"/>
</linearGradient>
<linearGradient id="paint37_linear_697_16646" x1="308.201" y1="356.115" x2="437.047" y2="123.671" gradientUnits="userSpaceOnUse">
<stop id="primaryColor" stop-color="#FE8C3A"/>
<stop offset="1" id="secondaryColor" stop-color="#C8F7FA"/>
</linearGradient>
<linearGradient id="paint38_linear_697_16646" x1="303.719" y1="355.655" x2="436.342" y2="125.946" gradientUnits="userSpaceOnUse">
<stop id="primaryColor" stop-color="#FE8C3A"/>
<stop offset="1" id="secondaryColor" stop-color="#C8F7FA"/>
</linearGradient>
<linearGradient id="paint39_linear_697_16646" x1="299.265" y1="355.164" x2="435.608" y2="128.25" gradientUnits="userSpaceOnUse">
<stop id="primaryColor" stop-color="#FE8C3A"/>
<stop offset="1" id="secondaryColor" stop-color="#C8F7FA"/>
</linearGradient>
<linearGradient id="paint40_linear_697_16646" x1="294.84" y1="354.645" x2="434.848" y2="130.586" gradientUnits="userSpaceOnUse">
<stop id="primaryColor" stop-color="#FE8C3A"/>
<stop offset="1" id="secondaryColor" stop-color="#C8F7FA"/>
</linearGradient>
<linearGradient id="paint41_linear_697_16646" x1="290.442" y1="354.096" x2="434.056" y2="132.951" gradientUnits="userSpaceOnUse">
<stop id="primaryColor" stop-color="#FE8C3A"/>
<stop offset="1" id="secondaryColor" stop-color="#C8F7FA"/>
</linearGradient>
<linearGradient id="paint42_linear_697_16646" x1="286.073" y1="353.519" x2="433.233" y2="135.345" gradientUnits="userSpaceOnUse">
<stop id="primaryColor" stop-color="#FE8C3A"/>
<stop offset="1" id="secondaryColor" stop-color="#C8F7FA"/>
</linearGradient>
<linearGradient id="paint43_linear_697_16646" x1="281.734" y1="352.915" x2="432.382" y2="137.768" gradientUnits="userSpaceOnUse">
<stop id="primaryColor" stop-color="#FE8C3A"/>
<stop offset="1" id="secondaryColor" stop-color="#C8F7FA"/>
</linearGradient>
<linearGradient id="paint44_linear_697_16646" x1="277.425" y1="352.284" x2="431.498" y2="140.22" gradientUnits="userSpaceOnUse">
<stop id="primaryColor" stop-color="#FE8C3A"/>
<stop offset="1" id="secondaryColor" stop-color="#C8F7FA"/>
</linearGradient>
<linearGradient id="paint45_linear_697_16646" x1="273.145" y1="351.625" x2="430.583" y2="142.698" gradientUnits="userSpaceOnUse">
<stop id="primaryColor" stop-color="#FE8C3A"/>
<stop offset="1" id="secondaryColor" stop-color="#C8F7FA"/>
</linearGradient>
<linearGradient id="paint46_linear_697_16646" x1="268.896" y1="350.941" x2="429.636" y2="145.203" gradientUnits="userSpaceOnUse">
<stop id="primaryColor" stop-color="#FE8C3A"/>
<stop offset="1" id="secondaryColor" stop-color="#C8F7FA"/>
</linearGradient>
<linearGradient id="paint47_linear_697_16646" x1="264.679" y1="350.231" x2="428.658" y2="147.734" gradientUnits="userSpaceOnUse">
<stop id="primaryColor" stop-color="#FE8C3A"/>
<stop offset="1" id="secondaryColor" stop-color="#C8F7FA"/>
</linearGradient>
<linearGradient id="paint48_linear_697_16646" x1="260.493" y1="349.496" x2="427.646" y2="150.29" gradientUnits="userSpaceOnUse">
<stop id="primaryColor" stop-color="#FE8C3A"/>
<stop offset="1" id="secondaryColor" stop-color="#C8F7FA"/>
</linearGradient>
<linearGradient id="paint49_linear_697_16646" x1="256.338" y1="348.738" x2="426.602" y2="152.872" gradientUnits="userSpaceOnUse">
<stop id="primaryColor" stop-color="#FE8C3A"/>
<stop offset="1" id="secondaryColor" stop-color="#C8F7FA"/>
</linearGradient>
<linearGradient id="paint50_linear_697_16646" x1="252.215" y1="347.956" x2="425.523" y2="155.478" gradientUnits="userSpaceOnUse">
<stop id="primaryColor" stop-color="#FE8C3A"/>
<stop offset="1" id="secondaryColor" stop-color="#C8F7FA"/>
</linearGradient>
<linearGradient id="paint51_linear_697_16646" x1="248.125" y1="347.151" x2="424.412" y2="158.107" gradientUnits="userSpaceOnUse">
<stop id="primaryColor" stop-color="#FE8C3A"/>
<stop offset="1" id="secondaryColor" stop-color="#C8F7FA"/>
</linearGradient>
<linearGradient id="paint52_linear_697_16646" x1="244.068" y1="346.324" x2="423.265" y2="160.759" gradientUnits="userSpaceOnUse">
<stop id="primaryColor" stop-color="#FE8C3A"/>
<stop offset="1" id="secondaryColor" stop-color="#C8F7FA"/>
</linearGradient>
<linearGradient id="paint53_linear_697_16646" x1="240.043" y1="345.475" x2="422.083" y2="163.434" gradientUnits="userSpaceOnUse">
<stop id="primaryColor" stop-color="#FE8C3A"/>
<stop offset="1" id="secondaryColor" stop-color="#C8F7FA"/>
</linearGradient>
<linearGradient id="paint54_linear_697_16646" x1="236.052" y1="344.604" x2="420.868" y2="166.13" gradientUnits="userSpaceOnUse">
<stop id="primaryColor" stop-color="#FE8C3A"/>
<stop offset="1" id="secondaryColor" stop-color="#C8F7FA"/>
</linearGradient>
<linearGradient id="paint55_linear_697_16646" x1="232.094" y1="343.714" x2="419.616" y2="168.847" gradientUnits="userSpaceOnUse">
<stop id="primaryColor" stop-color="#FE8C3A"/>
<stop offset="1" id="secondaryColor" stop-color="#C8F7FA"/>
</linearGradient>
<linearGradient id="paint56_linear_697_16646" x1="228.172" y1="342.804" x2="418.331" y2="171.584" gradientUnits="userSpaceOnUse">
<stop id="primaryColor" stop-color="#FE8C3A"/>
<stop offset="1" id="secondaryColor" stop-color="#C8F7FA"/>
</linearGradient>
<linearGradient id="paint57_linear_697_16646" x1="224.283" y1="341.875" x2="417.009" y2="174.341" gradientUnits="userSpaceOnUse">
<stop id="primaryColor" stop-color="#FE8C3A"/>
<stop offset="1" id="secondaryColor" stop-color="#C8F7FA"/>
</linearGradient>
<linearGradient id="paint58_linear_697_16646" x1="220.427" y1="340.927" x2="415.649" y2="177.116" gradientUnits="userSpaceOnUse">
<stop id="primaryColor" stop-color="#FE8C3A"/>
<stop offset="1" id="secondaryColor" stop-color="#C8F7FA"/>
</linearGradient>
<linearGradient id="paint59_linear_697_16646" x1="216.609" y1="339.962" x2="414.255" y2="179.91" gradientUnits="userSpaceOnUse">
<stop id="primaryColor" stop-color="#FE8C3A"/>
<stop offset="1" id="secondaryColor" stop-color="#C8F7FA"/>
</linearGradient>
<linearGradient id="paint60_linear_697_16646" x1="212.824" y1="338.979" x2="412.824" y2="182.722" gradientUnits="userSpaceOnUse">
<stop id="primaryColor" stop-color="#FE8C3A"/>
<stop offset="1" id="secondaryColor" stop-color="#C8F7FA"/>
</linearGradient>
<linearGradient id="paint61_linear_697_16646" x1="209.076" y1="337.98" x2="411.357" y2="185.55" gradientUnits="userSpaceOnUse">
<stop id="primaryColor" stop-color="#FE8C3A"/>
<stop offset="1" id="secondaryColor" stop-color="#C8F7FA"/>
</linearGradient>
<linearGradient id="paint62_linear_697_16646" x1="205.362" y1="336.966" x2="409.852" y2="188.395" gradientUnits="userSpaceOnUse">
<stop id="primaryColor" stop-color="#FE8C3A"/>
<stop offset="1" id="secondaryColor" stop-color="#C8F7FA"/>
</linearGradient>
<linearGradient id="paint63_linear_697_16646" x1="201.683" y1="335.936" x2="408.309" y2="191.255" gradientUnits="userSpaceOnUse">
<stop id="primaryColor" stop-color="#FE8C3A"/>
<stop offset="1" id="secondaryColor" stop-color="#C8F7FA"/>
</linearGradient>
<linearGradient id="paint64_linear_697_16646" x1="198.041" y1="334.892" x2="406.73" y2="194.13" gradientUnits="userSpaceOnUse">
<stop id="primaryColor" stop-color="#FE8C3A"/>
<stop offset="1" id="secondaryColor" stop-color="#C8F7FA"/>
</linearGradient>
<linearGradient id="paint65_linear_697_16646" x1="194.436" y1="333.833" x2="405.113" y2="197.018" gradientUnits="userSpaceOnUse">
<stop id="primaryColor" stop-color="#FE8C3A"/>
<stop offset="1" id="secondaryColor" stop-color="#C8F7FA"/>
</linearGradient>
<linearGradient id="paint66_linear_697_16646" x1="190.867" y1="332.762" x2="403.458" y2="199.92" gradientUnits="userSpaceOnUse">
<stop id="primaryColor" stop-color="#FE8C3A"/>
<stop offset="1" id="secondaryColor" stop-color="#C8F7FA"/>
</linearGradient>
<linearGradient id="paint67_linear_697_16646" x1="187.333" y1="331.678" x2="401.765" y2="202.835" gradientUnits="userSpaceOnUse">
<stop id="primaryColor" stop-color="#FE8C3A"/>
<stop offset="1" id="secondaryColor" stop-color="#C8F7FA"/>
</linearGradient>
<linearGradient id="paint68_linear_697_16646" x1="183.838" y1="330.583" x2="400.035" y2="205.761" gradientUnits="userSpaceOnUse">
<stop id="primaryColor" stop-color="#FE8C3A"/>
<stop offset="1" id="secondaryColor" stop-color="#C8F7FA"/>
</linearGradient>
<linearGradient id="paint69_linear_697_16646" x1="180.377" y1="329.477" x2="398.265" y2="208.7" gradientUnits="userSpaceOnUse">
<stop id="primaryColor" stop-color="#FE8C3A"/>
<stop offset="1" id="secondaryColor" stop-color="#C8F7FA"/>
</linearGradient>
<linearGradient id="paint70_linear_697_16646" x1="176.954" y1="328.359" x2="396.457" y2="211.647" gradientUnits="userSpaceOnUse">
<stop id="primaryColor" stop-color="#FE8C3A"/>
<stop offset="1" id="secondaryColor" stop-color="#C8F7FA"/>
</linearGradient>
<linearGradient id="paint71_linear_697_16646" x1="173.567" y1="327.233" x2="394.611" y2="214.606" gradientUnits="userSpaceOnUse">
<stop id="primaryColor" stop-color="#FE8C3A"/>
<stop offset="1" id="secondaryColor" stop-color="#C8F7FA"/>
</linearGradient>
<linearGradient id="paint72_linear_697_16646" x1="170.219" y1="326.097" x2="392.727" y2="217.573" gradientUnits="userSpaceOnUse">
<stop id="primaryColor" stop-color="#FE8C3A"/>
<stop offset="1" id="secondaryColor" stop-color="#C8F7FA"/>
</linearGradient>
<linearGradient id="paint73_linear_697_16646" x1="166.907" y1="324.954" x2="390.804" y2="220.549" gradientUnits="userSpaceOnUse">
<stop id="primaryColor" stop-color="#FE8C3A"/>
<stop offset="1" id="secondaryColor" stop-color="#C8F7FA"/>
</linearGradient>
<linearGradient id="paint74_linear_697_16646" x1="163.633" y1="323.802" x2="388.843" y2="223.532" gradientUnits="userSpaceOnUse">
<stop id="primaryColor" stop-color="#FE8C3A"/>
<stop offset="1" id="secondaryColor" stop-color="#C8F7FA"/>
</linearGradient>
<linearGradient id="paint75_linear_697_16646" x1="160.396" y1="322.643" x2="386.843" y2="226.522" gradientUnits="userSpaceOnUse">
<stop id="primaryColor" stop-color="#FE8C3A"/>
<stop offset="1" id="secondaryColor" stop-color="#C8F7FA"/>
</linearGradient>
<linearGradient id="paint76_linear_697_16646" x1="157.195" y1="321.479" x2="384.803" y2="229.519" gradientUnits="userSpaceOnUse">
<stop id="primaryColor" stop-color="#FE8C3A"/>
<stop offset="1" id="secondaryColor" stop-color="#C8F7FA"/>
</linearGradient>
<linearGradient id="paint77_linear_697_16646" x1="154.033" y1="320.309" x2="382.725" y2="232.522" gradientUnits="userSpaceOnUse">
<stop id="primaryColor" stop-color="#FE8C3A"/>
<stop offset="1" id="secondaryColor" stop-color="#C8F7FA"/>
</linearGradient>
<linearGradient id="paint78_linear_697_16646" x1="150.905" y1="319.133" x2="380.606" y2="235.528" gradientUnits="userSpaceOnUse">
<stop id="primaryColor" stop-color="#FE8C3A"/>
<stop offset="1" id="secondaryColor" stop-color="#C8F7FA"/>
</linearGradient>
<linearGradient id="paint79_linear_697_16646" x1="147.819" y1="317.953" x2="378.451" y2="238.54" gradientUnits="userSpaceOnUse">
<stop id="primaryColor" stop-color="#FE8C3A"/>
<stop offset="1" id="secondaryColor" stop-color="#C8F7FA"/>
</linearGradient>
<linearGradient id="paint80_linear_697_16646" x1="144.768" y1="316.77" x2="376.257" y2="241.554" gradientUnits="userSpaceOnUse">
<stop id="primaryColor" stop-color="#FE8C3A"/>
<stop offset="1" id="secondaryColor" stop-color="#C8F7FA"/>
</linearGradient>
<linearGradient id="paint81_linear_697_16646" x1="141.755" y1="315.584" x2="374.024" y2="244.572" gradientUnits="userSpaceOnUse">
<stop id="primaryColor" stop-color="#FE8C3A"/>
<stop offset="1" id="secondaryColor" stop-color="#C8F7FA"/>
</linearGradient>
<linearGradient id="paint82_linear_697_16646" x1="138.779" y1="314.395" x2="371.752" y2="247.591" gradientUnits="userSpaceOnUse">
<stop id="primaryColor" stop-color="#FE8C3A"/>
<stop offset="1" id="secondaryColor" stop-color="#C8F7FA"/>
</linearGradient>
<linearGradient id="paint83_linear_697_16646" x1="135.84" y1="313.205" x2="369.441" y2="250.612" gradientUnits="userSpaceOnUse">
<stop id="primaryColor" stop-color="#FE8C3A"/>
<stop offset="1" id="secondaryColor" stop-color="#C8F7FA"/>
</linearGradient>
<linearGradient id="paint84_linear_697_16646" x1="132.937" y1="312.014" x2="367.091" y2="253.633" gradientUnits="userSpaceOnUse">
<stop id="primaryColor" stop-color="#FE8C3A"/>
<stop offset="1" id="secondaryColor" stop-color="#C8F7FA"/>
</linearGradient>
<linearGradient id="paint85_linear_697_16646" x1="130.074" y1="310.823" x2="364.704" y2="256.654" gradientUnits="userSpaceOnUse">
<stop id="primaryColor" stop-color="#FE8C3A"/>
<stop offset="1" id="secondaryColor" stop-color="#C8F7FA"/>
</linearGradient>
<linearGradient id="paint86_linear_697_16646" x1="127.247" y1="309.633" x2="362.278" y2="259.675" gradientUnits="userSpaceOnUse">
<stop id="primaryColor" stop-color="#FE8C3A"/>
<stop offset="1" id="secondaryColor" stop-color="#C8F7FA"/>
</linearGradient>
<linearGradient id="paint87_linear_697_16646" x1="124.455" y1="308.443" x2="359.811" y2="262.694" gradientUnits="userSpaceOnUse">
<stop id="primaryColor" stop-color="#FE8C3A"/>
<stop offset="1" id="secondaryColor" stop-color="#C8F7FA"/>
</linearGradient>
<linearGradient id="paint88_linear_697_16646" x1="121.704" y1="307.255" x2="357.31" y2="265.711" gradientUnits="userSpaceOnUse">
<stop id="primaryColor" stop-color="#FE8C3A"/>
<stop offset="1" id="secondaryColor" stop-color="#C8F7FA"/>
</linearGradient>
<linearGradient id="paint89_linear_697_16646" x1="118.987" y1="306.071" x2="354.769" y2="268.726" gradientUnits="userSpaceOnUse">
<stop id="primaryColor" stop-color="#FE8C3A"/>
<stop offset="1" id="secondaryColor" stop-color="#C8F7FA"/>
</linearGradient>
<linearGradient id="paint90_linear_697_16646" x1="116.306" y1="304.888" x2="352.189" y2="271.736" gradientUnits="userSpaceOnUse">
<stop id="primaryColor" stop-color="#FE8C3A"/>
<stop offset="1" id="secondaryColor" stop-color="#C8F7FA"/>
</linearGradient>
<linearGradient id="paint91_linear_697_16646" x1="113.662" y1="303.709" x2="349.571" y2="274.743" gradientUnits="userSpaceOnUse">
<stop id="primaryColor" stop-color="#FE8C3A"/>
<stop offset="1" id="secondaryColor" stop-color="#C8F7FA"/>
</linearGradient>
<linearGradient id="paint92_linear_697_16646" x1="111.055" y1="302.535" x2="346.917" y2="277.745" gradientUnits="userSpaceOnUse">
<stop id="primaryColor" stop-color="#FE8C3A"/>
<stop offset="1" id="secondaryColor" stop-color="#C8F7FA"/>
</linearGradient>
<linearGradient id="paint93_linear_697_16646" x1="108.483" y1="301.367" x2="344.223" y2="280.743" gradientUnits="userSpaceOnUse">
<stop id="primaryColor" stop-color="#FE8C3A"/>
<stop offset="1" id="secondaryColor" stop-color="#C8F7FA"/>
</linearGradient>
<linearGradient id="paint94_linear_697_16646" x1="105.95" y1="300.203" x2="341.495" y2="283.732" gradientUnits="userSpaceOnUse">
<stop id="primaryColor" stop-color="#FE8C3A"/>
<stop offset="1" id="secondaryColor" stop-color="#C8F7FA"/>
</linearGradient>
<linearGradient id="paint95_linear_697_16646" x1="103.449" y1="299.047" x2="338.726" y2="286.716" gradientUnits="userSpaceOnUse">
<stop id="primaryColor" stop-color="#FE8C3A"/>
<stop offset="1" id="secondaryColor" stop-color="#C8F7FA"/>
</linearGradient>
<linearGradient id="paint96_linear_697_16646" x1="100.985" y1="297.895" x2="335.923" y2="289.691" gradientUnits="userSpaceOnUse">
<stop id="primaryColor" stop-color="#FE8C3A"/>
<stop offset="1" id="secondaryColor" stop-color="#C8F7FA"/>
</linearGradient>
<linearGradient id="paint97_linear_697_16646" x1="98.5566" y1="296.753" x2="333.081" y2="292.66" gradientUnits="userSpaceOnUse">
<stop id="primaryColor" stop-color="#FE8C3A"/>
<stop offset="1" id="secondaryColor" stop-color="#C8F7FA"/>
</linearGradient>
<linearGradient id="paint98_linear_697_16646" x1="96.1639" y1="295.619" x2="330.204" y2="295.619" gradientUnits="userSpaceOnUse">
<stop id="primaryColor" stop-color="#FE8C3A"/>
<stop offset="1" id="secondaryColor" stop-color="#C8F7FA"/>
</linearGradient>
</defs>
</svg>
