<svg width="797" height="515" viewBox="0 0 797 515" fill="none" xmlns="http://www.w3.org/2000/svg">
<path fill-rule="evenodd" clip-rule="evenodd" d="M236.044 242.875C236.044 242.875 172.638 235.753 148.086 281.578C139.823 296.997 78.5839 439.985 72.0921 496.336C72.0921 496.336 57.3449 501 55.2966 508.57H142.17C143.091 508.57 143.922 508.017 144.276 507.167C150.615 492.001 206.242 358.909 206.242 358.909C206.242 358.909 213.394 479.553 214.855 504.203C215.001 506.656 217.033 508.57 219.49 508.57C235.958 508.57 293.321 508.57 293.321 508.57C293.321 508.57 291.285 500.618 276.388 496.336C276.388 496.336 284.443 308.663 262.079 261.674L236.044 242.875Z" fill="url(#paint0_linear_112_1047)"/>
<path fill-rule="evenodd" clip-rule="evenodd" d="M193.926 388.375L201.768 309.259C201.821 308.71 202.289 308.295 202.842 308.31C203.392 308.324 203.839 308.763 203.864 309.317L206.099 359.251L193.926 388.375Z" fill="#0F2751"/>
<path fill-rule="evenodd" clip-rule="evenodd" d="M277.798 424.027C277.798 425.226 277.794 426.415 277.791 427.597H210.313L210.102 424.027H277.798ZM91.144 424.027H179.025L177.533 427.597H89.9456L89.9646 427.54C90.3434 426.405 90.7244 425.273 91.1072 424.137L91.144 424.027Z" fill="#0F2751"/>
<path d="M187.428 132.987C200.316 132.987 210.763 122.54 210.763 109.652C210.763 96.7646 200.316 86.3173 187.428 86.3173C174.541 86.3173 164.093 96.7646 164.093 109.652C164.093 122.54 174.541 132.987 187.428 132.987Z" fill="#E86135"/>
<path fill-rule="evenodd" clip-rule="evenodd" d="M185.706 86.3802C186.884 91.1362 188.588 103.13 179.722 113.728C178.782 112.206 177.081 111.188 175.141 111.188C172.184 111.188 169.784 113.551 169.784 116.461C169.784 119.372 172.184 121.735 175.141 121.735C175.653 121.735 176.148 121.664 176.616 121.532C176.683 123.37 176.208 125.94 173.954 128.7C167.991 124.472 164.095 117.513 164.095 109.652C164.095 97.3527 173.631 87.2633 185.706 86.3802Z" fill="black"/>
<path fill-rule="evenodd" clip-rule="evenodd" d="M168.251 121.459C167.587 121.848 165.917 121.79 165.157 121.942C162.664 122.442 160.186 123.021 157.719 123.631C150.087 125.517 142.565 127.786 135.446 131.157C130.266 133.61 124.843 136.714 122.392 142.149C118.83 150.049 125.161 157.14 133.392 156.398C141.33 155.682 147.56 149.931 152.849 144.523C159.037 138.195 166.103 131.374 170.848 123.822" fill="black"/>
<path fill-rule="evenodd" clip-rule="evenodd" d="M141.015 173.908C137.065 178.116 102.321 216.101 76.2151 245.406C67.4565 255.318 66.6631 269.951 74.2986 280.753C74.2975 280.757 74.2979 280.757 74.2979 280.757C81.0043 290.245 93.1427 294.205 104.154 290.498C116.085 286.477 132.38 277.193 151.343 256.393C160.976 245.826 168.634 236.178 174.953 230.272C174.953 230.272 202.675 239.19 216.933 223.904C216.933 223.904 251.742 268.38 285.429 286.11C298.752 293.037 315.167 288.388 322.877 275.501C326.465 269.552 327.972 262.388 323.934 254.611C306.251 220.546 278.484 194.771 236.044 153.966C227.806 146.043 213.401 134.727 185.502 141.185C174.991 143.618 162.178 151.36 141.015 173.908Z" fill="#FFCD80"/>
<path fill-rule="evenodd" clip-rule="evenodd" d="M202.089 201.91C202.089 201.91 203.003 201.674 204.082 201.772C204.996 201.854 206.078 202.177 206.635 203.328C207.381 204.875 206.253 206.152 204.531 207.457C201.043 210.105 194.897 212.42 189.455 214.636C188.723 214.933 188.373 215.767 188.67 216.497C188.966 217.227 189.802 217.579 190.53 217.281C196.219 214.967 202.614 212.499 206.26 209.733C209.302 207.425 210.527 204.824 209.206 202.086C208.127 199.853 206.113 199.087 204.339 198.926C202.728 198.781 201.361 199.148 201.361 199.148C200.596 199.349 200.143 200.132 200.343 200.894C200.546 201.656 201.328 202.111 202.089 201.91Z" fill="#111C37"/>
<path fill-rule="evenodd" clip-rule="evenodd" d="M213.151 196.073C213.151 196.073 214.851 194.425 217.165 193.11C218.611 192.289 220.304 191.575 221.964 191.584C222.643 191.585 223.282 191.88 223.721 192.391C224.16 192.902 224.353 193.579 224.25 194.244C223.971 195.848 223.207 198.025 221.236 200.103C218.526 202.961 211.666 211.592 189.82 214.358C189.038 214.457 188.484 215.173 188.584 215.955C188.684 216.737 189.398 217.291 190.18 217.192C213.237 214.272 220.447 205.087 223.311 202.069C225.774 199.473 226.714 196.747 227.071 194.707C227.303 193.189 226.871 191.675 225.892 190.532C224.91 189.388 223.482 188.729 221.975 188.727C219.833 188.716 217.622 189.565 215.755 190.625C213.102 192.132 211.159 194.025 211.159 194.025C210.595 194.574 210.58 195.479 211.13 196.045C211.68 196.609 212.584 196.622 213.151 196.073Z" fill="#111C37"/>
<path fill-rule="evenodd" clip-rule="evenodd" d="M216.865 205.433C216.865 205.433 213.205 214.775 209.591 218.386C209.034 218.943 209.034 219.848 209.591 220.406C210.148 220.963 211.055 220.963 211.612 220.406C215.505 216.515 219.522 206.486 219.522 206.486C219.811 205.753 219.454 204.922 218.718 204.631C217.986 204.341 217.154 204.7 216.865 205.433Z" fill="#111C37"/>
<path fill-rule="evenodd" clip-rule="evenodd" d="M205.863 211.596V214.958C205.863 215.746 206.503 216.386 207.292 216.386C208.077 216.386 208.72 215.746 208.72 214.958V211.596C208.72 210.808 208.077 210.168 207.292 210.168C206.503 210.168 205.863 210.808 205.863 211.596Z" fill="#111C37"/>
<path fill-rule="evenodd" clip-rule="evenodd" d="M216.08 157.619C216.08 157.619 213.794 158.566 212.72 161.171C212.059 162.77 211.816 165.042 213.066 168.164C214.508 171.761 218.219 182.408 213.177 190.603C212.762 191.275 212.973 192.155 213.641 192.568C214.316 192.982 215.194 192.772 215.608 192.101C221.229 182.97 217.322 171.109 215.715 167.101C214.851 164.937 214.901 163.37 215.358 162.262C215.962 160.806 217.201 160.246 217.201 160.246C217.926 159.936 218.265 159.096 217.954 158.371C217.644 157.646 216.805 157.309 216.08 157.619Z" fill="#111C37"/>
<path fill-rule="evenodd" clip-rule="evenodd" d="M161.549 244.848C158.411 248.459 155.021 252.358 151.343 256.393C132.38 277.193 116.085 286.477 104.154 290.498C93.1427 294.205 81.0043 290.245 74.2979 280.757C74.2979 280.757 74.2975 280.757 74.2986 280.753C66.6631 269.951 67.4565 255.318 76.2151 245.406C102.321 216.101 137.065 178.116 141.015 173.908C162.178 151.36 174.991 143.618 185.502 141.185C213.401 134.727 227.806 146.043 236.044 153.966C278.484 194.771 306.251 220.546 323.934 254.611C327.972 262.388 326.465 269.552 322.877 275.501C316.649 285.91 304.74 290.945 293.371 288.845L283.711 285.185C272.078 278.757 260.38 269.291 250.092 259.707C244.236 253.622 240.222 248.987 240.222 248.987L257.287 206.846L229.802 187.357C228.645 179.384 228.188 174.288 225.721 169.005C225.05 167.559 224.225 166.1 223.193 164.564C218.397 157.412 215.376 161.669 215.376 161.669C213.148 158.918 211.08 157.651 209.702 157.069C208.974 156.78 208.156 156.831 207.47 157.209C206.788 157.586 206.31 158.251 206.167 159.02C205.835 160.911 206.992 163.042 207.617 164.02C207.809 164.317 208.031 164.594 208.277 164.849C221.821 178.851 214.333 194.568 214.333 194.568C207.642 202.805 195.694 202.609 195.694 202.609C186.956 203.312 181.46 200.618 178.344 198.162C173.709 194.52 167.58 193.39 161.952 195.141C148.214 199.519 133.392 212.56 133.392 212.56L161.549 244.848Z" fill="url(#paint1_linear_112_1047)"/>
<path fill-rule="evenodd" clip-rule="evenodd" d="M174.992 230.284L188.995 214.624C188.995 214.624 205.867 222.327 211.213 216.301L217.994 225.233C217.297 224.373 216.933 223.904 216.933 223.904C202.989 238.855 176.161 230.651 174.992 230.284Z" fill="#102852"/>
<path fill-rule="evenodd" clip-rule="evenodd" d="M136.533 209.966C134.556 211.536 133.392 212.56 133.392 212.56L135.696 215.202L93.8252 249.912C93.0664 250.54 91.9401 250.433 91.3109 249.676C90.6821 248.916 90.7875 247.791 91.5463 247.162L136.093 210.234C136.23 210.121 136.378 210.032 136.533 209.966ZM255.23 205.387C255.605 205.411 255.98 205.553 256.287 205.819L297.063 241.153C297.806 241.799 297.888 242.927 297.241 243.672C296.595 244.417 295.467 244.497 294.724 243.852L255.92 210.226L257.287 206.846L255.23 205.387ZM140.595 206.872C140.805 203.434 141.401 196.707 143.019 190.821C143.193 190.279 143.704 189.916 144.274 189.929C144.844 189.943 145.336 190.331 145.484 190.881C146.362 194.138 147.565 198.622 148.376 201.643C145.503 203.399 142.847 205.226 140.595 206.872ZM239.012 193.888L240.926 184.776C240.997 184.435 241.272 184.174 241.615 184.117C241.958 184.061 242.3 184.221 242.475 184.521C243.557 186.911 245.186 191.514 245.975 198.826L239.012 193.888Z" fill="#0F2751"/>
<path fill-rule="evenodd" clip-rule="evenodd" d="M105.707 454.589C103.551 454.2 101.914 452.311 101.914 450.044V440.802C101.914 438.253 103.985 436.182 106.535 436.182H158.435C160.986 436.182 163.056 438.253 163.056 440.802V450.044C163.056 452.311 161.419 454.2 159.263 454.589C161.419 454.982 163.056 456.871 163.056 459.139V468.38C163.056 470.648 161.419 472.533 159.263 472.926C161.419 473.315 163.056 475.204 163.056 477.471V486.713C163.056 488.98 161.419 490.869 159.263 491.259C161.419 491.651 163.056 493.537 163.056 495.804V505.046C163.056 507.595 160.986 509.666 158.435 509.666H106.535C103.985 509.666 101.914 507.595 101.914 505.046V495.804C101.914 493.537 103.551 491.651 105.707 491.259C103.551 490.869 101.914 488.98 101.914 486.713V477.471C101.914 475.204 103.551 473.315 105.707 472.926C103.551 472.533 101.914 470.648 101.914 468.38V459.139C101.914 456.871 103.551 454.982 105.707 454.589Z" fill="#FFCD80"/>
<path fill-rule="evenodd" clip-rule="evenodd" d="M150.805 436.182V450.969H162.791C162.849 450.969 162.906 450.972 162.962 450.976C162.602 452.733 161.246 454.125 159.512 454.539H159.42V454.561C159.368 454.572 159.316 454.582 159.263 454.589C159.316 454.6 159.368 454.611 159.42 454.622V469.298H162.791C162.849 469.298 162.906 469.301 162.962 469.305C162.605 471.058 161.255 472.451 159.526 472.869H155.708V487.631H162.791C162.849 487.631 162.906 487.631 162.963 487.638C162.608 489.384 161.263 490.776 159.541 491.201H150.07V509.666H146.499V491.201H143.12V509.666H139.549V491.201H115.833V509.666H112.262V491.201H105.43C103.705 490.776 102.359 489.38 102.006 487.631H124.443V472.869H105.444C103.713 472.451 102.361 471.055 102.006 469.298H107.15V454.539H105.459C103.722 454.125 102.364 452.726 102.007 450.969H117.004V436.182H120.575V450.969H139.982V436.182H143.553V450.969H147.234V436.182H150.805ZM128.014 472.869V487.631H130.713V472.869H128.014ZM134.284 472.869V487.631H152.137V472.869H134.284ZM110.721 454.539V469.298H137.343V454.539H110.721ZM140.914 454.539V469.298H155.849V454.539H140.914Z" fill="#FDA425"/>
<path fill-rule="evenodd" clip-rule="evenodd" d="M645.196 197.75C642.753 196.544 641.071 194.027 641.071 191.12V176.341C641.071 172.262 644.381 168.951 648.459 168.951H760.677C764.755 168.951 768.065 172.262 768.065 176.341V191.12C768.065 194.027 766.383 196.544 763.937 197.75C766.383 198.956 768.065 201.474 768.065 204.381V219.16C768.065 221.716 766.765 223.971 764.79 225.298C766.765 226.625 768.065 228.879 768.065 231.435V246.215C768.065 248.772 766.765 251.025 764.79 252.353C766.765 253.678 768.065 255.935 768.065 258.488V273.268C768.065 275.824 766.765 278.078 764.79 279.406C766.765 280.734 768.065 282.988 768.065 285.544V300.324C768.065 302.877 766.765 305.134 764.79 306.462C766.765 307.787 768.065 310.044 768.065 312.597V327.377C768.065 329.934 766.765 332.187 764.79 333.515C766.765 334.844 768.065 337.097 768.065 339.654V354.433C768.065 356.986 766.765 359.243 764.79 360.568C766.765 361.896 768.065 364.15 768.065 366.706V381.486C768.065 384.043 766.765 386.296 764.79 387.624C766.765 388.953 768.065 391.206 768.065 393.763V408.542C768.065 411.096 766.765 413.352 764.79 414.677C766.765 416.006 768.065 418.259 768.065 420.816V435.595C768.065 438.152 766.765 440.405 764.79 441.734C766.765 443.058 768.065 445.315 768.065 447.872V462.648C768.065 465.205 766.765 467.462 764.79 468.786C766.765 470.115 768.065 472.368 768.065 474.925V489.704C768.065 493.782 764.755 497.093 760.677 497.093H648.459C644.381 497.093 641.071 493.782 641.071 489.704V474.925C641.071 472.368 642.371 470.115 644.346 468.786C642.371 467.462 641.071 465.205 641.071 462.648V447.872C641.071 445.315 642.371 443.058 644.346 441.734C642.371 440.405 641.071 438.152 641.071 435.595V420.816C641.071 418.259 642.371 416.006 644.346 414.677C642.371 413.352 641.071 411.096 641.071 408.542V393.763C641.071 391.206 642.371 388.953 644.346 387.624C642.371 386.296 641.071 384.043 641.071 381.486V366.706C641.071 364.15 642.371 361.896 644.346 360.568C642.371 359.243 641.071 356.986 641.071 354.433V339.654C641.071 337.097 642.371 334.844 644.346 333.515C642.371 332.187 641.071 329.934 641.071 327.377V312.597C641.071 310.044 642.371 307.787 644.346 306.462C642.371 305.134 641.071 302.877 641.071 300.324V285.544C641.071 282.988 642.371 280.734 644.346 279.406C642.371 278.078 641.071 275.824 641.071 273.268V258.488C641.071 255.935 642.371 253.678 644.346 252.353C642.371 251.025 641.071 248.772 641.071 246.215V231.435C641.071 228.879 642.371 226.625 644.346 225.298C642.371 223.971 641.071 221.716 641.071 219.16V204.381C641.071 201.474 642.753 198.956 645.196 197.75Z" fill="#FFCD80"/>
<path fill-rule="evenodd" clip-rule="evenodd" d="M733.563 168.951V194.001H747.24C747.422 193.209 748.132 192.618 748.979 192.618C749.825 192.618 750.536 193.209 750.718 194.001H767.479C766.837 195.516 765.705 196.773 764.28 197.572H750.764V221.822H767.569C767.019 223.246 766.04 224.458 764.79 225.298C764.837 225.329 764.88 225.36 764.926 225.393H761.795V249.472C761.795 249.529 761.791 249.586 761.787 249.643H767.222C766.647 250.736 765.808 251.668 764.79 252.353C765.169 252.607 765.522 252.896 765.847 253.214H747.004V276.117H767.494C766.933 277.46 765.983 278.603 764.79 279.406C764.923 279.495 765.055 279.592 765.18 279.688H757.731V303.145H767.504C766.944 304.502 765.99 305.652 764.79 306.462C764.912 306.541 765.03 306.627 765.148 306.716H745.054V330.209H767.504C766.94 331.558 765.99 332.708 764.79 333.515C764.915 333.601 765.037 333.687 765.155 333.779H756.992V357.49H767.401C766.833 358.743 765.922 359.807 764.79 360.568C765.015 360.722 765.233 360.886 765.44 361.061H741.548V384.225H767.54C766.983 385.614 766.019 386.8 764.79 387.624C764.873 387.678 764.951 387.735 765.03 387.796H751.932V410.939H767.665C767.169 412.385 766.24 413.627 765.03 414.509H740.416V438.377H767.522C766.965 439.748 766.005 440.916 764.79 441.734C764.89 441.802 764.99 441.873 765.09 441.948H754.146V465.083H767.654C767.147 466.533 766.205 467.776 764.98 468.654H728.861V497.093H725.29V468.654H718.077V497.093H714.506V468.654H667.603V497.093H664.032V468.654H644.156C642.932 467.776 641.989 466.533 641.482 465.083H647.827V441.948H644.046C644.142 441.873 644.242 441.802 644.346 441.734C643.132 440.916 642.171 439.748 641.61 438.377H664.55V414.509H644.106C642.896 413.627 641.964 412.385 641.468 410.939H650.395V387.796H644.103C644.181 387.735 644.264 387.678 644.346 387.624C643.117 386.8 642.15 385.614 641.596 384.225H660.989V361.061H643.692C643.903 360.886 644.117 360.722 644.346 360.568C643.214 359.807 642.303 358.743 641.732 357.49H649.495V333.779H643.978C644.099 333.687 644.221 333.601 644.346 333.515C643.146 332.708 642.193 331.558 641.632 330.209H662.275V306.716H643.989C644.106 306.627 644.224 306.541 644.346 306.462C643.142 305.652 642.189 304.502 641.628 303.145H647.006V279.688H643.953C644.081 279.592 644.214 279.495 644.346 279.406C643.149 278.603 642.203 277.46 641.639 276.117H653.305V253.214H643.289C643.614 252.896 643.967 252.607 644.346 252.353C643.328 251.668 642.489 250.736 641.914 249.643H674.312V225.393H656.026C655.794 225.503 655.537 225.564 655.265 225.564C654.99 225.564 654.733 225.503 654.501 225.393H644.206C644.253 225.36 644.299 225.329 644.346 225.298C643.096 224.458 642.117 223.246 641.564 221.822H653.48V197.572H644.856C643.432 196.773 642.296 195.516 641.653 194.001H653.523C653.708 193.209 654.415 192.618 655.265 192.618C656.112 192.618 656.822 193.209 657.004 194.001H679.444V168.951H683.014V194.001H686.889V168.951H690.46V194.001H700.722C700.904 193.209 701.615 192.618 702.465 192.618C703.311 192.618 704.022 193.209 704.204 194.001H709.617C709.803 193.209 710.51 192.618 711.36 192.618C712.206 192.618 712.917 193.209 713.099 194.001H729.993V168.951H733.563ZM651.398 441.948V465.083H683.336V441.948H651.398ZM686.907 441.948V465.083H692.363V441.948H686.907ZM695.934 441.948V465.083H750.575V441.948H695.934ZM668.12 414.509V438.377H701.29V414.509H668.12ZM730.032 414.509H704.861V438.377H730.021V414.699L730.032 414.509ZM733.592 438.377H736.845V414.509H733.581C733.588 414.57 733.592 414.634 733.592 414.699V438.377ZM725.94 387.796V410.939H748.361V387.796H725.94ZM687.007 410.939H722.369V387.796H686.975C686.996 387.903 687.007 388.014 687.007 388.124V410.939ZM683.464 387.796H653.966V410.939H683.436V388.124C683.436 388.017 683.443 387.907 683.464 387.799V387.796ZM712.631 361.061V384.225H737.977V361.061H712.631ZM704.565 361.061V384.225H709.06V361.061H704.565ZM664.56 361.061V384.225H700.994V361.061H664.56ZM680.197 333.779V357.49H723.904V333.779H680.197ZM653.066 333.779V357.49H676.626V333.779H653.066ZM727.475 333.779V357.49H753.421V333.779H727.475ZM696.769 306.716V330.209H700.312V306.716H696.769ZM678.722 330.209H693.198V306.716H665.846V330.209H678.101C678.201 330.191 678.305 330.18 678.412 330.18C678.519 330.18 678.622 330.191 678.722 330.209ZM703.882 306.716V330.209H741.484V306.716H703.882ZM743.801 303.145H754.16V279.688H724.929V303.145H742.737C742.905 303.092 743.083 303.063 743.269 303.063C743.455 303.063 743.633 303.092 743.801 303.145ZM716.327 279.688V303.145H721.358V279.688H716.327ZM650.577 279.688V303.145H685.564V279.688H650.577ZM689.135 279.688V303.145H712.756V279.688H689.135ZM656.876 253.214V276.117H661.236V253.214H656.876ZM705.907 253.214V276.117H743.433V253.214H705.907ZM664.807 253.214V276.117H702.336V253.214H664.807ZM684.204 225.393H677.883V249.643H684.214C684.207 249.586 684.204 249.529 684.204 249.472V225.393ZM727.375 225.393H712.12C711.892 225.503 711.631 225.564 711.36 225.564C711.085 225.564 710.828 225.503 710.596 225.393H703.225C702.993 225.503 702.736 225.564 702.465 225.564C702.19 225.564 701.933 225.503 701.701 225.393H687.774V249.472C687.774 249.529 687.774 249.586 687.767 249.643H727.382C727.375 249.586 727.375 249.529 727.375 249.472V225.393ZM758.224 225.393H749.743C749.511 225.503 749.254 225.564 748.979 225.564C748.707 225.564 748.447 225.503 748.218 225.393H730.946V249.472C730.946 249.529 730.942 249.586 730.935 249.643H758.231C758.227 249.586 758.224 249.529 758.224 249.472V225.393ZM657.051 197.572V221.822H700.679V197.572H657.051ZM704.25 197.572V221.822H709.574V197.572H704.25ZM713.145 197.572V221.822H747.193V197.572H713.145Z" fill="#FDA425"/>
<path fill-rule="evenodd" clip-rule="evenodd" d="M455.33 361.568C453.355 360.243 452.055 357.986 452.055 355.433V340.653C452.055 336.575 455.366 333.262 459.443 333.262H571.657C575.739 333.262 579.049 336.575 579.049 340.653V355.433C579.049 357.986 577.749 360.243 575.775 361.568C577.749 362.896 579.049 365.149 579.049 367.706V382.486C579.049 385.043 577.749 387.296 575.775 388.624C577.749 389.949 579.049 392.206 579.049 394.762V409.539C579.049 412.095 577.749 414.352 575.775 415.677C577.749 417.005 579.049 419.259 579.049 421.815V436.595C579.049 439.152 577.749 441.405 575.775 442.733C577.749 444.058 579.049 446.315 579.049 448.868V463.648C579.049 466.205 577.749 468.458 575.775 469.786C577.749 471.115 579.049 473.368 579.049 475.925V490.704C579.049 494.782 575.739 498.092 571.657 498.092H459.443C455.366 498.092 452.055 494.782 452.055 490.704V475.925C452.055 473.368 453.355 471.115 455.33 469.786C453.355 468.458 452.055 466.205 452.055 463.648V448.868C452.055 446.315 453.355 444.058 455.33 442.733C453.355 441.405 452.055 439.152 452.055 436.595V421.815C452.055 419.259 453.355 417.005 455.33 415.677C453.355 414.352 452.055 412.095 452.055 409.539V394.762C452.055 392.206 453.355 389.949 455.33 388.624C453.355 387.296 452.055 385.043 452.055 382.486V367.706C452.055 365.149 453.355 362.896 455.33 361.568Z" fill="#FFCD80"/>
<path fill-rule="evenodd" clip-rule="evenodd" d="M552.678 358.533H578.367C577.796 359.768 576.892 360.818 575.775 361.568C576.017 361.732 576.25 361.911 576.475 362.103H565.88V385.225V385.228H578.521C577.967 386.617 576.999 387.799 575.775 388.624C575.857 388.681 575.942 388.738 576.025 388.799H554.878V411.767C554.878 411.87 554.871 411.97 554.853 412.067H578.603C578.071 413.527 577.092 414.774 575.832 415.638H569.315V438.759C569.315 438.859 569.304 438.959 569.29 439.055H578.628C578.114 440.509 577.16 441.751 575.925 442.626H556.467V466.155H578.61C578.085 467.615 577.114 468.858 575.86 469.725H568.44V498.092H564.869V469.725H541.834C541.834 469.758 541.837 469.786 541.837 469.815V498.092H538.266V469.815C538.266 469.786 538.266 469.758 538.266 469.725H520.655C520.426 469.833 520.176 469.89 519.912 469.89C519.644 469.89 519.395 469.833 519.166 469.725H496.288V498.092H492.717V469.725H486.475V498.092H482.904V469.725H455.241C453.987 468.858 453.016 467.615 452.491 466.155H477.13V442.626H455.176C453.944 441.751 452.987 440.509 452.473 439.055H461.543V415.638H455.273C454.009 414.774 453.03 413.527 452.498 412.067H474.42V388.799H455.076C455.162 388.738 455.244 388.681 455.33 388.624C454.102 387.799 453.137 386.617 452.58 385.228H460.39V362.103H454.63C454.851 361.911 455.083 361.732 455.33 361.568C454.209 360.818 453.309 359.768 452.734 358.533H469.149V333.262H472.72V358.533H476.376V333.262H479.947V358.533H512.742V333.262H516.313V358.533H549.108V333.262H552.678V358.533ZM480.701 442.626V466.155H518.127V442.626H480.701ZM521.698 442.626V466.155H545.826V442.626H521.698ZM549.397 442.626V466.155H552.896V442.626H549.397ZM465.114 415.638V439.055H494.002V415.638H465.114ZM532.603 415.638H497.573V439.055H532.699C532.639 438.873 532.603 438.677 532.603 438.473V415.638ZM565.744 415.638H536.174V438.473C536.174 438.677 536.142 438.873 536.077 439.055H565.766C565.751 438.959 565.744 438.859 565.744 438.759V415.638ZM477.99 388.799V412.067H505.429V388.799H477.99ZM509 388.799V412.067H513.22V388.799H509ZM551.307 388.799H516.791V412.067H533.839C534.01 412.01 534.196 411.981 534.388 411.981C534.581 411.981 534.767 412.01 534.942 412.067H551.336C551.318 411.97 551.307 411.87 551.307 411.767V388.799ZM463.961 362.103V385.228H495.406V362.103H463.961ZM498.976 362.103V385.228H527.407V362.103H498.976ZM530.978 362.103V385.228H535.756V362.103H530.978ZM562.309 362.103H539.327V385.228H562.309V385.225V362.103Z" fill="#FDA425"/>
<path fill-rule="evenodd" clip-rule="evenodd" d="M579.088 255.798H613.486C672.666 255.798 720.715 311.589 720.715 380.307C720.715 443.711 679.876 497.091 627.066 504.815C622.639 505.465 579.32 504.815 579.32 504.815C520.141 504.815 472.091 449.024 472.091 380.307C472.091 311.678 520.016 255.941 579.088 255.798Z" fill="#FDA425"/>
<path d="M579.318 504.815C638.538 504.815 686.545 449.071 686.545 380.306C686.545 311.542 638.538 255.798 579.318 255.798C520.098 255.798 472.091 311.542 472.091 380.306C472.091 449.071 520.098 504.815 579.318 504.815Z" fill="#FFCD80"/>
<path fill-rule="evenodd" clip-rule="evenodd" d="M579.732 306.321L576.029 306.115L576.114 300.59L582.573 300.95C584.103 301.035 585.318 302.341 585.295 303.866L585.151 313.209C590.801 313.778 596.211 314.989 601.375 316.836C607.974 319.194 614.179 322.593 619.984 327.028C620.642 327.525 621.052 328.281 621.121 329.088C621.182 329.895 620.897 330.676 620.326 331.23L607.681 343.487C606.727 344.408 605.225 344.478 604.121 343.649C598.395 339.355 591.958 336.574 584.811 335.302L584.331 366.437C610.916 373.576 623.534 387.068 622.878 406.172C622.562 416.551 618.565 424.942 610.929 431.316C603.95 437.367 594.707 440.999 583.166 442.123L582.918 458.178C582.895 459.701 581.642 460.866 580.112 460.781L573.771 460.428L573.856 454.909L577.44 455.108L577.682 439.402C577.704 438.003 578.764 436.887 580.156 436.799C591.506 436.06 600.543 432.859 607.26 427.042C613.734 421.636 617.09 414.545 617.358 405.77C617.949 388.583 605.57 377.331 580.973 371.23C579.676 370.904 578.755 369.713 578.776 368.391L579.337 331.961C579.348 331.2 579.677 330.491 580.24 329.997C580.802 329.508 581.553 329.278 582.313 329.374C590.855 330.387 598.541 333.225 605.364 337.876L614.074 329.434C609.536 326.311 604.751 323.841 599.705 322.042C594.195 320.069 588.392 318.896 582.281 318.502C580.766 318.406 579.565 317.105 579.589 315.588L579.732 306.321ZM583.51 419.783C587.541 418.79 590.502 417.242 592.304 415.009C593.428 413.565 594.26 411.916 594.799 410.067L600.105 411.834C599.363 414.333 598.227 416.561 596.68 418.555C593.724 422.212 588.618 424.764 581.226 425.918C580.41 426.044 579.563 425.796 578.921 425.234C578.286 424.673 577.921 423.861 577.934 423.029L578.235 403.504L583.756 403.811L583.51 419.783ZM554.501 339.983C555.507 337.541 556.803 335.533 558.359 333.948C558.396 333.909 558.441 333.87 558.479 333.831C561.981 330.688 566.113 328.992 570.858 328.742C571.635 328.703 572.415 329 572.99 329.552C573.566 330.11 573.887 330.878 573.875 331.657L573.629 347.647L568.108 347.339L568.302 334.732C566.089 335.306 564.098 336.382 562.321 337.961C561.216 339.105 560.32 340.561 559.598 342.311C559.583 342.357 559.56 342.403 559.537 342.449C558.673 344.256 558.254 346.484 558.214 349.098L552.693 348.791C552.747 345.326 553.369 342.396 554.501 339.983Z" fill="#FDA31F"/>
<path fill-rule="evenodd" clip-rule="evenodd" d="M556.632 360.595C553.96 357.339 552.622 353.413 552.693 348.791L558.214 349.098C558.165 352.268 559.019 354.974 560.856 357.203L560.921 357.283C562.357 359.159 564.692 360.707 567.882 362.042L568.108 347.339L573.629 347.647L573.345 366.08C573.332 366.936 572.92 367.722 572.232 368.21C571.552 368.691 570.662 368.825 569.838 368.561C563.464 366.516 559.105 363.787 556.632 360.595Z" fill="#FDA31F"/>
<path fill-rule="evenodd" clip-rule="evenodd" d="M583.959 390.596L583.756 403.811L578.235 403.504L578.49 386.936C578.503 386.127 578.869 385.38 579.491 384.889C580.12 384.398 580.936 384.213 581.732 384.387C589.421 386.073 594.527 388.845 597.225 392.321L597.282 392.407C599.904 396.05 601.194 400.162 601.123 404.754C601.084 407.322 600.737 409.683 600.105 411.834L594.799 410.067C595.306 408.359 595.572 406.483 595.603 404.447C595.654 401.148 594.752 398.191 592.884 395.57C591.187 393.408 588.186 391.812 583.959 390.596Z" fill="#FDA31F"/>
<path fill-rule="evenodd" clip-rule="evenodd" d="M567.506 386.472C541.949 379.337 529.961 366.217 530.828 347.852C531.221 336.774 534.909 328.301 541.724 322.359C547.962 316.923 556.912 313.599 568.644 312.551L568.792 302.948C568.815 301.422 570.069 300.254 571.591 300.339L576.114 300.59L576.029 306.115L574.27 306.017L574.127 315.284C574.106 316.689 573.038 317.811 571.639 317.892C560.126 318.593 551.369 321.425 545.439 326.595C539.666 331.632 536.684 338.88 536.347 348.307C535.568 364.757 547.339 375.632 570.885 381.716C572.167 382.047 573.081 383.232 573.061 384.542L572.473 422.725C572.461 423.504 572.117 424.223 571.54 424.717C570.955 425.21 570.183 425.421 569.408 425.307C562.508 424.273 556.678 422.401 551.926 419.732C547.743 417.609 544.01 415.056 540.72 412.067L530.007 420.391C535.058 424.299 540.672 427.672 546.827 430.513C554.011 433.749 561.578 435.635 569.536 436.184C571.051 436.292 572.244 437.587 572.221 439.098L571.979 454.804L573.856 454.909L573.771 460.428L569.13 460.169C567.607 460.085 566.392 458.782 566.416 457.259L566.659 441.465C559.008 440.661 551.701 438.683 544.715 435.535C536.908 431.934 529.956 427.542 523.83 422.363C523.187 421.819 522.808 421.012 522.806 420.179C522.797 419.346 523.171 418.569 523.815 418.067L539.079 406.21C540.157 405.366 541.738 405.495 542.743 406.514C546.028 409.834 549.891 412.607 554.309 414.844L554.427 414.903C557.947 416.889 562.14 418.351 567 419.313L567.506 386.472Z" fill="#FDA31F"/>
<path fill-rule="evenodd" clip-rule="evenodd" d="M574.167 280.438C617.419 280.438 652.158 325.42 652.158 380.463C652.158 435.502 617.419 480.484 574.167 480.484C572.591 480.484 571.309 481.763 571.309 483.34C571.309 484.917 572.591 486.199 574.167 486.199C620.156 486.199 657.869 438.984 657.869 380.463C657.869 321.939 620.156 274.726 574.167 274.726C572.591 274.726 571.309 276.006 571.309 277.582C571.309 279.159 572.591 280.438 574.167 280.438Z" fill="#FDA425"/>
<path fill-rule="evenodd" clip-rule="evenodd" d="M574.167 480.484C530.913 480.484 496.176 435.502 496.176 380.463C496.176 325.42 530.913 280.438 574.167 280.438C575.744 280.438 577.023 279.159 577.023 277.582C577.023 276.006 575.744 274.726 574.167 274.726C528.178 274.726 490.463 321.939 490.463 380.463C490.463 438.984 528.178 486.199 574.167 486.199C575.744 486.199 577.023 484.917 577.023 483.34C577.023 481.763 575.744 480.484 574.167 480.484Z" fill="#FDA425"/>
<path fill-rule="evenodd" clip-rule="evenodd" d="M657.818 494.599H616.904C615.329 494.599 614.047 493.317 614.047 491.742C614.047 490.164 615.329 488.885 616.904 488.885H666.049C666.381 488.885 666.699 488.943 666.995 489.046C664.025 491.064 660.964 492.917 657.818 494.599ZM704.497 446.496C703.461 448.435 702.386 450.342 701.265 452.209H661.975C660.397 452.209 659.118 450.931 659.118 449.353C659.118 447.774 660.397 446.496 661.975 446.496H704.497ZM712.249 429.056C711.549 430.988 710.806 432.891 710.031 434.769H666.049C664.471 434.769 663.193 433.491 663.193 431.913C663.193 430.338 664.471 429.056 666.049 429.056H712.249ZM720.423 371.069C720.544 372.965 720.626 374.868 720.673 376.782H681.44C679.861 376.782 678.583 375.504 678.583 373.925C678.583 372.351 679.861 371.069 681.44 371.069H720.423ZM714.181 337.439C714.774 339.324 715.334 341.231 715.852 343.152H673.109C671.534 343.152 670.252 341.874 670.252 340.295C670.252 338.72 671.534 337.439 673.109 337.439H714.181ZM708.317 322.173C709.171 324.051 709.989 325.955 710.76 327.887H671.57C669.995 327.887 668.713 326.608 668.713 325.03C668.713 323.455 669.995 322.173 671.57 322.173H708.317ZM670.313 274.727C672.777 276.52 675.173 278.423 677.501 280.441H632.294C630.719 280.441 629.437 279.159 629.437 277.584C629.437 276.006 630.719 274.727 632.294 274.727H670.313Z" fill="#FFCD80"/>
<path fill-rule="evenodd" clip-rule="evenodd" d="M484.478 49.5175C487.006 40.8003 494.208 15.8827 499.406 4.74811L529.322 20.9777C529.322 20.9777 516.433 67.5449 513.654 80.8989L478.858 72.6246C479.915 65.3484 481.935 58.2876 484.478 49.5175Z" fill="#0F2751"/>
<path d="M500.337 59.0675C506.065 59.0675 510.708 54.2081 510.708 48.2138C510.708 42.2194 506.065 37.36 500.337 37.36C494.61 37.36 489.967 42.2194 489.967 48.2138C489.967 54.2081 494.61 59.0675 500.337 59.0675Z" fill="white"/>
<path fill-rule="evenodd" clip-rule="evenodd" d="M492.952 61.5601C494.641 56.8519 504.065 32.4312 509.878 25.092L536.956 40.3103C536.956 40.3103 522.362 79.0883 519.034 90.254L486.96 81.5279C488.346 75.4214 490.31 68.9235 492.952 61.5601Z" fill="#0F2751"/>
<path d="M511.692 70.1733C517.42 70.1733 522.063 65.3139 522.063 59.3196C522.063 53.3252 517.42 48.4659 511.692 48.4659C505.965 48.4659 501.322 53.3252 501.322 59.3196C501.322 65.3139 505.965 70.1733 511.692 70.1733Z" fill="white"/>
<path d="M578.681 63.6067C591.314 63.6067 601.555 53.3656 601.555 40.7325C601.555 28.0995 591.314 17.8583 578.681 17.8583C566.048 17.8583 555.806 28.0995 555.806 40.7325C555.806 53.3656 566.048 63.6067 578.681 63.6067Z" fill="#E86135"/>
<path fill-rule="evenodd" clip-rule="evenodd" d="M563.466 23.6594C567.512 20.0525 572.843 17.8589 578.681 17.8589C591.308 17.8589 601.556 28.1087 601.556 40.7331C601.556 45.0645 600.349 49.1167 598.257 52.5701C581.27 44.9388 583.759 26.5272 583.759 26.5272C574.421 29.5778 567.447 26.4883 563.466 23.6594Z" fill="black"/>
<path fill-rule="evenodd" clip-rule="evenodd" d="M480.661 331.457C480.661 331.457 473.973 318.517 480.661 308.822L468.788 287.961C468.788 287.961 463.018 284.265 456.465 280.066C441.65 270.571 433.151 253.791 434.262 236.233C434.347 234.895 434.501 233.668 434.733 232.595C427.92 226.167 422.292 211.739 424.363 197.933C427.245 178.705 443.217 164.135 462.629 163.029C493.866 161.257 547.476 160.046 580.435 169.498L573.021 151.043C573.021 151.043 520.28 169.902 506.921 126.593C476.644 138.819 442.928 147.756 409.591 152.592C395.654 154.621 381.902 147.864 374.993 135.59C374.979 135.599 374.979 135.599 374.979 135.599C369.133 125.218 371.001 112.204 379.528 103.884C388.101 95.6117 402.724 84.9113 427.695 72.6004C427.695 72.6004 452.709 59.3733 467.356 51.6277C473.902 48.1676 481.661 47.8662 488.453 50.8089C502.883 57.0586 526.722 67.3866 526.722 67.3866L529.507 60.3567C546.062 63.1134 562.327 68.1283 578.274 74.3344C595.211 80.9466 608.334 94.7379 614.093 111.979C628.277 154.436 655.058 235.956 658.572 256.377H668.613C674.255 256.377 679.144 260.29 680.375 265.797C681.336 270.099 682.264 274.252 682.264 274.252C682.264 274.252 688.66 281.405 690.531 287.961C691.292 290.632 687.031 293.746 682.264 288.743C680.854 287.261 667.156 276.452 661.004 275.777C656.297 275.259 652.134 274.72 648.252 274.245C636.336 272.785 625.759 265.907 619.585 255.605C615.457 248.721 611.662 242.386 611.662 242.386C611.662 242.386 598.792 263.026 563.466 259.301L568.954 330.647C568.954 330.647 561.905 328.979 559.549 317.46C559.549 317.46 519.737 312.157 497.062 302.555C497.062 302.555 488.117 311.436 480.661 331.457Z" fill="url(#paint2_linear_112_1047)"/>
<path fill-rule="evenodd" clip-rule="evenodd" d="M658.386 255.355C658.454 255.712 658.515 256.052 658.572 256.377H663.325C665.624 257.991 669.12 260.526 672.909 263.547L674.126 262.176C674.651 261.586 675.555 261.533 676.144 262.058C676.733 262.579 676.787 263.483 676.262 264.072L675.13 265.347C677.279 267.121 679.465 269.021 681.532 270.971L682.264 274.252L658.993 256.862C658.482 256.527 658.258 255.916 658.386 255.355Z" fill="#0F2751"/>
<path fill-rule="evenodd" clip-rule="evenodd" d="M522.576 310.504L542.355 254.348C542.683 253.416 543.705 252.927 544.633 253.256C545.561 253.584 546.051 254.602 545.726 255.534L526.072 311.325C524.911 311.061 523.747 310.786 522.576 310.504ZM468.788 287.961C468.788 287.961 476.444 292.078 483.032 295.485C491.381 299.809 500.126 303.851 497.062 302.555C497.062 302.555 496.209 303.405 494.809 305.165C487.299 301.801 478.654 297.266 472.027 293.653L468.788 287.961ZM432.008 229.512C437.74 202.022 459.165 186.402 484.089 177.714C519.319 165.434 561.502 167.098 574.696 168.005C576.635 168.462 579.452 169.066 581.266 169.584C581.37 169.841 582.166 170.334 582.138 170.627C582.034 171.607 583.395 172.325 582.413 172.224C582.413 172.224 527.629 168.762 485.264 181.086C458.961 188.737 440.778 207.798 434.733 232.595C433.797 231.711 432.883 230.676 432.008 229.512Z" fill="#0F2751"/>
<path fill-rule="evenodd" clip-rule="evenodd" d="M563.784 262.833C557.203 261.822 548.854 259.083 540.048 255.502C514.245 245.018 484.375 227.472 484.375 227.472C483.525 226.973 483.243 225.877 483.739 225.028C484.239 224.178 485.336 223.894 486.186 224.393C486.186 224.393 515.802 241.797 541.391 252.195C550.625 255.948 564.266 259.383 563.466 259.301L563.784 262.833Z" fill="#2E508B"/>
<path fill-rule="evenodd" clip-rule="evenodd" d="M578.399 164.425L573.021 151.043C573.021 151.043 520.28 169.903 506.921 126.593C476.644 138.819 442.928 147.756 409.591 152.592C395.654 154.621 381.902 147.864 374.993 135.59C374.979 135.599 374.979 135.599 374.979 135.599C369.133 125.218 371.001 112.204 379.528 103.884C388.101 95.6117 402.724 84.9113 427.695 72.6004C427.695 72.6004 452.709 59.3733 467.356 51.6277C473.902 48.1676 481.661 47.8662 488.453 50.8089C502.883 57.0586 526.722 67.3866 526.722 67.3866L529.507 60.3567C546.062 63.1134 562.327 68.1283 578.274 74.3344C595.211 80.9466 608.334 94.7379 614.093 111.979C622.613 137.479 635.676 177.069 645.51 209.048L604.402 221.584C595.486 202.885 586.444 184.337 578.542 164.448L578.399 164.425Z" fill="url(#paint3_linear_112_1047)"/>
<path fill-rule="evenodd" clip-rule="evenodd" d="M565.373 153.139C564.066 146.61 563.759 139.758 563.88 132.767C563.884 132.383 564.162 132.056 564.541 131.985C564.919 131.914 565.294 132.119 565.44 132.474C568.926 140.97 577.46 161.761 577.46 161.761H577.328L573.021 151.043C573.021 151.043 570.061 152.101 565.373 153.139ZM452.355 110.894L408.473 135.614C407.613 136.097 407.309 137.187 407.791 138.045C408.277 138.904 409.366 139.208 410.226 138.725L454.109 114.005C454.969 113.522 455.273 112.432 454.787 111.573C454.305 110.715 453.216 110.41 452.355 110.894ZM497.68 130.183C499.34 118.173 503.29 109.752 506.039 105.106C506.214 104.85 506.554 104.762 506.836 104.899C507.114 105.036 507.253 105.358 507.157 105.655C504.318 115.86 506.757 125.944 506.914 126.563L506.921 126.593C503.875 127.824 500.794 129.02 497.68 130.183Z" fill="#2E508B"/>
<path fill-rule="evenodd" clip-rule="evenodd" d="M429.612 71.5866L467.356 51.6277C473.902 48.1676 481.661 47.8662 488.453 50.8089L525.683 66.937C525.933 67.1034 526.161 67.2534 526.365 67.3866C532.571 71.4534 527.668 75.4742 525.933 74.9004C530.171 76.9147 530.028 80.262 529.028 81.7125C527.382 84.1053 521.49 83.2323 521.49 83.2323C523.129 83.8168 524.633 87.0152 523.362 89.3877C521.319 93.2017 515.731 90.8846 515.731 90.8846C516.745 96.2034 511.246 96.2209 504.536 94.8C499.34 93.6998 496.959 92.5357 492.538 91.4331C485.393 110.486 464.057 108.286 464.057 108.286L449.998 116.256L429.612 71.5866Z" fill="#FFCD80"/>
<path fill-rule="evenodd" clip-rule="evenodd" d="M515.752 90.9953L491.86 81.7207C491.124 81.4354 490.76 80.6069 491.045 79.8721C491.331 79.1372 492.159 78.7722 492.895 79.0575L522.462 90.5357C520.026 92.6653 515.731 90.8846 515.731 90.8846C515.738 90.9221 515.745 90.9588 515.752 90.9953ZM521.851 83.4047L494.688 72.8593C493.952 72.574 493.588 71.7459 493.873 71.011C494.159 70.2761 494.988 69.9112 495.723 70.1961L526.857 82.2834C527.143 82.3941 527.372 82.5866 527.529 82.8241C525.172 83.7778 521.49 83.2322 521.49 83.2322C521.612 83.2758 521.733 83.3336 521.851 83.4047ZM526.222 74.9525L497.944 63.9746C497.209 63.6893 496.841 62.8609 497.127 62.126C497.412 61.3911 498.241 61.0262 498.976 61.3115L529.071 72.995C528.446 74.2262 527.1 75.0046 526.222 74.9525Z" fill="#0F2751"/>
<path fill-rule="evenodd" clip-rule="evenodd" d="M440.6 485.994C438.579 484.633 437.243 482.323 437.243 479.706V464.562C437.243 460.384 440.636 456.991 444.817 456.991H559.802C563.98 456.991 567.372 460.384 567.372 464.562V479.706C567.372 482.323 566.04 484.633 564.015 485.994C566.04 487.354 567.372 489.665 567.372 492.282V507.426C567.372 511.608 563.98 515 559.802 515H444.817C440.636 515 437.243 511.608 437.243 507.426V492.282C437.243 489.665 438.579 487.354 440.6 485.994Z" fill="#FFDBA3"/>
<path fill-rule="evenodd" clip-rule="evenodd" d="M533.006 482.927H566.654C566.069 484.173 565.151 485.233 564.016 485.994C564.248 486.151 564.469 486.319 564.683 486.497H553.781V515H550.211V486.497H520.362V515H516.791V486.497H512.235V515H508.664V486.497H462.557V515H458.986V486.497H439.936C440.146 486.319 440.368 486.151 440.6 485.994C439.468 485.233 438.55 484.173 437.965 482.927H479.761V456.992H483.332V482.927H487.889V456.992H491.459V482.927H529.435V456.992H533.006V482.927Z" fill="#FDA425"/>
<path d="M183.782 151.843C184.791 146.064 192.979 146.064 193.988 151.843C194.683 155.819 199.365 157.545 202.421 154.951C206.862 151.181 213.135 156.511 210.24 161.595C208.248 165.093 210.739 169.463 214.726 169.465C220.522 169.468 221.943 177.634 216.499 179.644C212.753 181.027 211.888 185.996 214.941 188.593C219.378 192.368 215.284 199.549 209.837 197.544C206.09 196.165 202.273 199.409 202.963 203.386C203.966 209.166 196.272 212.002 193.372 206.921C191.377 203.425 186.394 203.425 184.398 206.921C181.498 212.002 173.804 209.166 174.807 203.386C175.498 199.409 171.68 196.165 167.933 197.544C162.486 199.549 158.392 192.368 162.83 188.593C165.883 185.996 165.017 181.027 161.271 179.644C155.827 177.634 157.249 169.468 163.044 169.465C167.031 169.463 169.522 165.093 167.531 161.595C164.636 156.511 170.908 151.181 175.349 154.951C178.405 157.545 183.087 155.819 183.782 151.843Z" fill="white"/>
<path d="M188.454 192.325C196.308 192.325 202.675 186.151 202.675 178.535C202.675 170.92 196.308 164.746 188.454 164.746C180.6 164.746 174.233 170.92 174.233 178.535" stroke="#40404B" stroke-width="3" stroke-linecap="round" stroke-linejoin="round"/>
<path d="M182.165 184.06H177.995L177.305 186.055H175.1L178.865 175.57H181.31L185.075 186.055H182.855L182.165 184.06ZM181.595 182.38L180.08 178L178.565 182.38H181.595ZM194.117 178.825C194.117 179.385 193.982 179.91 193.712 180.4C193.452 180.89 193.037 181.285 192.467 181.585C191.907 181.885 191.197 182.035 190.337 182.035H188.582V186.055H186.482V175.585H190.337C191.147 175.585 191.837 175.725 192.407 176.005C192.977 176.285 193.402 176.67 193.682 177.16C193.972 177.65 194.117 178.205 194.117 178.825ZM190.247 180.34C190.827 180.34 191.257 180.21 191.537 179.95C191.817 179.68 191.957 179.305 191.957 178.825C191.957 177.805 191.387 177.295 190.247 177.295H188.582V180.34H190.247ZM197.708 175.585V186.055H195.608V175.585H197.708Z" fill="#1D2028"/>
<path d="M44.0926 435.367L99.2511 328.498C67.0753 334.818 2.37896 335.048 1 285.405" stroke="#0F2751"/>
<path d="M559.48 2.71762C579.016 -1.87893 619.465 -0.0403087 624.981 44.0865" stroke="#0F2751"/>
<circle cx="643.08" cy="101.831" r="5.53297" fill="white" stroke="#40404B"/>
<path d="M795.628 209.562V350.906" stroke="#0F2751"/>
<defs>
<linearGradient id="paint0_linear_112_1047" x1="174.308" y1="375.52" x2="173.584" y2="579.625" gradientUnits="userSpaceOnUse">
<stop stop-color="#1F417A"/>
<stop offset="0.64" stop-color="#2B68CD"/>
</linearGradient>
<linearGradient id="paint1_linear_112_1047" x1="159.17" y1="488.126" x2="154.129" y2="229.37" gradientUnits="userSpaceOnUse">
<stop stop-color="#FFF0E6"/>
<stop offset="0.29133" stop-color="#3E6DE2"/>
<stop offset="1" stop-color="#0F2751"/>
</linearGradient>
<linearGradient id="paint2_linear_112_1047" x1="591.658" y1="241.908" x2="390.23" y2="63.4179" gradientUnits="userSpaceOnUse">
<stop stop-color="#3E6FF2"/>
<stop offset="0.5" stop-color="#355B9D"/>
<stop offset="1" stop-color="#0F2751"/>
</linearGradient>
<linearGradient id="paint3_linear_112_1047" x1="508.553" y1="48.7989" x2="508.553" y2="221.584" gradientUnits="userSpaceOnUse">
<stop stop-color="#0F2751"/>
<stop offset="1" stop-color="#2258B7"/>
</linearGradient>
</defs>
</svg>
