<svg width="20" height="20" viewBox="0 0 20 20" fill="none" xmlns="http://www.w3.org/2000/svg">
<path fill-rule="evenodd" clip-rule="evenodd" d="M19.3054 7.00078C19.5212 6.96411 19.7223 6.84261 19.8553 6.6465C20.1144 6.2642 20.0162 5.74311 19.6358 5.48262L10 0L0.364177 5.48262L0.267499 5.55983C-0.0310697 5.83671 -0.0908447 6.29895 0.144745 6.6465L0.221552 6.74368C0.349401 6.88297 0.516978 6.97056 0.694432 7.00075C0.899311 7.03561 1.11736 6.99397 1.30264 6.86707L1.94443 6.50899L1.94451 16.9287L1.95009 17.1158C2.04628 18.7249 3.37502 20 5.00004 20H15L15.1861 19.9944C16.7869 19.8977 18.0555 18.5621 18.0555 16.9287L18.0554 6.5101L18.6974 6.86707L18.8042 6.92926C18.9635 7.00682 19.1388 7.02909 19.3054 7.00078ZM4.85804 18.3175C4.15769 18.246 3.61116 17.6515 3.61116 16.9287L3.61108 5.582L10 2.02657L16.3888 5.582L16.3888 16.9287L16.3817 17.0714C16.3105 17.7754 15.7191 18.3247 15 18.3247H5.00004L4.85804 18.3175Z" fill="#A8CADC"/>
<rect x="7.4165" y="10.75" width="5.16667" height="8.5" rx="0.75" stroke="#A8CADC" stroke-width="1.5" stroke-linejoin="round"/>
</svg>
