<svg width="20" height="21" viewBox="0 0 20 21" fill="none" xmlns="http://www.w3.org/2000/svg">
<path fill-rule="evenodd" clip-rule="evenodd" d="M19.3054 7.50078C19.5211 7.46411 19.7223 7.34261 19.8552 7.1465C20.1143 6.7642 20.0161 6.24311 19.6358 5.98262L9.99994 0.5L0.364116 5.98262L0.267438 6.05983C-0.0311307 6.33671 -0.0909058 6.79895 0.144684 7.1465L0.221491 7.24368C0.34934 7.38297 0.516917 7.47056 0.694371 7.50075C0.89925 7.53561 1.1173 7.49397 1.30258 7.36707L1.94437 7.00899L1.94445 17.4287L1.95002 17.6158C2.04622 19.2249 3.37496 20.5 4.99998 20.5H14.9999L15.186 20.4944C16.7869 20.3977 18.0554 19.0621 18.0554 17.4287L18.0553 7.0101L18.6973 7.36707L18.8042 7.42926C18.9635 7.50682 19.1388 7.52909 19.3054 7.50078ZM4.85798 18.8175C4.15762 18.746 3.6111 18.1515 3.6111 17.4287L3.61102 6.082L9.99994 2.52657L16.3887 6.082L16.3888 17.4287L16.3816 17.5714C16.3105 18.2754 15.719 18.8247 14.9999 18.8247H4.99998L4.85798 18.8175Z" fill="white"/>
<rect x="7.41669" y="11.25" width="5.16667" height="8.5" rx="0.75" stroke="white" stroke-width="1.5" stroke-linejoin="round"/>
</svg>
