<svg width="181" height="214" viewBox="0 0 181 214" fill="none" xmlns="http://www.w3.org/2000/svg">
<path d="M150.349 118.734H146.69C146.436 118.734 146.232 118.53 146.232 118.276C146.232 118.024 146.436 117.819 146.69 117.819H150.349C150.602 117.819 150.807 118.024 150.807 118.276C150.807 118.53 150.602 118.734 150.349 118.734ZM157.668 118.734H154.009C153.755 118.734 153.551 118.53 153.551 118.276C153.551 118.024 153.755 117.819 154.009 117.819H157.668C157.921 117.819 158.126 118.024 158.126 118.276C158.126 118.53 157.921 118.734 157.668 118.734ZM159 124.722C158.746 124.722 158.542 124.518 158.542 124.264V120.605C158.542 120.352 158.746 120.147 159 120.147C159.252 120.147 159.457 120.352 159.457 120.605V124.264C159.457 124.518 159.252 124.722 159 124.722ZM159 132.041C158.746 132.041 158.542 131.837 158.542 131.583V127.924C158.542 127.671 158.746 127.466 159 127.466C159.252 127.466 159.457 127.671 159.457 127.924V131.583C159.457 131.837 159.252 132.041 159 132.041ZM159 139.36C158.746 139.36 158.542 139.156 158.542 138.902V135.243C158.542 134.99 158.746 134.785 159 134.785C159.252 134.785 159.457 134.99 159.457 135.243V138.902C159.457 139.156 159.252 139.36 159 139.36ZM159 146.679C158.746 146.679 158.542 146.475 158.542 146.221V142.562C158.542 142.309 158.746 142.104 159 142.104C159.252 142.104 159.457 142.309 159.457 142.562V146.221C159.457 146.475 159.252 146.679 159 146.679ZM159 153.998C158.746 153.998 158.542 153.794 158.542 153.54V149.881C158.542 149.628 158.746 149.423 159 149.423C159.252 149.423 159.457 149.628 159.457 149.881V153.54C159.457 153.794 159.252 153.998 159 153.998ZM139.292 159.908H135.632C135.379 159.908 135.175 159.703 135.175 159.451C135.175 159.197 135.379 158.993 135.632 158.993H139.292C139.545 158.993 139.749 159.197 139.749 159.451C139.749 159.703 139.545 159.908 139.292 159.908ZM146.611 159.908H142.952C142.698 159.908 142.494 159.703 142.494 159.451C142.494 159.197 142.698 158.993 142.952 158.993H146.611C146.864 158.993 147.069 159.197 147.069 159.451C147.069 159.703 146.864 159.908 146.611 159.908ZM153.93 159.908H150.271C150.017 159.908 149.813 159.703 149.813 159.451C149.813 159.197 150.017 158.993 150.271 158.993H153.93C154.183 158.993 154.388 159.197 154.388 159.451C154.388 159.703 154.183 159.908 153.93 159.908ZM159 159.908H157.59C157.336 159.908 157.132 159.703 157.132 159.451C157.132 159.197 157.336 158.993 157.59 158.993H158.542V157.2C158.542 156.947 158.746 156.743 159 156.743C159.252 156.743 159.457 156.947 159.457 157.2V159.451C159.457 159.703 159.252 159.908 159 159.908ZM133.955 165.549C133.702 165.549 133.498 165.345 133.498 165.092V161.432C133.498 161.18 133.702 160.975 133.955 160.975C134.208 160.975 134.413 161.18 134.413 161.432V165.092C134.413 165.345 134.208 165.549 133.955 165.549ZM133.955 172.868C133.702 172.868 133.498 172.664 133.498 172.411V168.751C133.498 168.499 133.702 168.294 133.955 168.294C134.208 168.294 134.413 168.499 134.413 168.751V172.411C134.413 172.664 134.208 172.868 133.955 172.868Z" id="secondaryColor" fill="#FE8C3A"/>
<path d="M140.748 178.284C140.495 178.284 140.291 178.08 140.291 177.827V174.167C140.291 173.915 140.495 173.71 140.748 173.71C141.001 173.71 141.206 173.915 141.206 174.167V177.827C141.206 178.08 141.001 178.284 140.748 178.284ZM140.748 170.965C140.495 170.965 140.291 170.761 140.291 170.508V166.848C140.291 166.596 140.495 166.391 140.748 166.391C141.001 166.391 141.206 166.596 141.206 166.848V170.508C141.206 170.761 141.001 170.965 140.748 170.965ZM161.675 166.274H158.016C157.763 166.274 157.559 166.07 157.559 165.817C157.559 165.565 157.763 165.36 158.016 165.36H161.675C161.928 165.36 162.133 165.565 162.133 165.817C162.133 166.07 161.928 166.274 161.675 166.274ZM154.356 166.274H150.697C150.443 166.274 150.239 166.07 150.239 165.817C150.239 165.565 150.443 165.36 150.697 165.36H154.356C154.609 165.36 154.814 165.565 154.814 165.817C154.814 166.07 154.609 166.274 154.356 166.274ZM147.037 166.274H143.378C143.124 166.274 142.92 166.07 142.92 165.817C142.92 165.565 143.124 165.36 143.378 165.36H147.037C147.29 165.36 147.495 165.565 147.495 165.817C147.495 166.07 147.29 166.274 147.037 166.274ZM164.094 165.035C163.841 165.035 163.636 164.83 163.636 164.577V160.917C163.636 160.664 163.841 160.459 164.094 160.459C164.347 160.459 164.551 160.664 164.551 160.917V164.577C164.551 164.83 164.347 165.035 164.094 165.035ZM164.094 157.715C163.841 157.715 163.636 157.511 163.636 157.257V153.598C163.636 153.345 163.841 153.14 164.094 153.14C164.347 153.14 164.551 153.345 164.551 153.598V157.257C164.551 157.511 164.347 157.715 164.094 157.715ZM164.094 150.396C163.841 150.396 163.636 150.192 163.636 149.938V146.279C163.636 146.026 163.841 145.821 164.094 145.821C164.347 145.821 164.551 146.026 164.551 146.279V149.938C164.551 150.192 164.347 150.396 164.094 150.396ZM164.094 143.077C163.841 143.077 163.636 142.873 163.636 142.619V138.96C163.636 138.707 163.841 138.502 164.094 138.502C164.347 138.502 164.551 138.707 164.551 138.96V142.619C164.551 142.873 164.347 143.077 164.094 143.077ZM164.094 135.758C163.841 135.758 163.636 135.554 163.636 135.3V131.641C163.636 131.388 163.841 131.183 164.094 131.183C164.347 131.183 164.551 131.388 164.551 131.641V135.3C164.551 135.554 164.347 135.758 164.094 135.758ZM164.094 128.439C163.841 128.439 163.636 128.235 163.636 127.981V124.322C163.636 124.069 163.841 123.864 164.094 123.864C164.347 123.864 164.551 124.069 164.551 124.322V127.981C164.551 128.235 164.347 128.439 164.094 128.439ZM164.094 121.119C163.841 121.119 163.636 120.915 163.636 120.662V117.002C163.636 116.75 163.841 116.545 164.094 116.545C164.347 116.545 164.551 116.75 164.551 117.002V120.662C164.551 120.915 164.347 121.119 164.094 121.119Z" fill="#A8CADC"/>
<path d="M97.0319 4.75281L99.0776 5.87904L99.2587 6.06108L100.374 8.11318L101.499 6.06657L101.682 5.88543L103.734 4.77113L101.688 3.6449L101.507 3.46282L100.391 1.41076L99.2669 3.45643L99.0839 3.63847L97.0319 4.75281ZM100.371 9.52393H100.37C100.202 9.52393 100.049 9.43153 99.9686 9.28515L98.5186 6.61551L95.8581 5.15169C95.7117 5.07118 95.6202 4.91657 95.6211 4.74915C95.622 4.58173 95.7135 4.42804 95.8608 4.34844L98.5295 2.89834L99.9933 0.236958C100.074 0.0905761 100.228 -2.77754e-05 100.394 -2.77754e-05H100.395C100.562 0.000887109 100.716 0.0924077 100.797 0.238789L102.247 2.90839L104.908 4.37315C105.054 4.45366 105.146 4.60828 105.145 4.77479C105.144 4.94222 105.053 5.09591 104.905 5.1755L102.237 6.6256L100.772 9.28699C100.691 9.43337 100.538 9.52393 100.371 9.52393Z" fill="#1A4C6D"/>
<path d="M159.68 69.115C159.428 69.115 159.223 68.9101 159.223 68.6575V64.3823C159.223 64.1298 159.428 63.9249 159.68 63.9249C159.933 63.9249 160.138 64.1298 160.138 64.3823V68.6575C160.138 68.9101 159.933 69.115 159.68 69.115Z" fill="#171E3C"/>
<path d="M159.68 80.0935C159.428 80.0935 159.223 79.8886 159.223 79.6361V75.3608C159.223 75.1074 159.428 74.9034 159.68 74.9034C159.933 74.9034 160.138 75.1074 160.138 75.3608V79.6361C160.138 79.8886 159.933 80.0935 159.68 80.0935Z" fill="#171E3C"/>
<path d="M167.307 72.4661H163.032C162.779 72.4661 162.574 72.262 162.574 72.0086C162.574 71.7561 162.779 71.5512 163.032 71.5512H167.307C167.559 71.5512 167.764 71.7561 167.764 72.0086C167.764 72.262 167.559 72.4661 167.307 72.4661Z" fill="#171E3C"/>
<path d="M156.328 72.4661H152.053C151.801 72.4661 151.596 72.262 151.596 72.0086C151.596 71.7561 151.801 71.5512 152.053 71.5512H156.328C156.581 71.5512 156.786 71.7561 156.786 72.0086C156.786 72.262 156.581 72.4661 156.328 72.4661Z" fill="#171E3C"/>
<path d="M154.287 77.4019L157.31 74.3791Z" fill="white"/>
<path d="M154.287 77.8591C154.171 77.8591 154.054 77.8143 153.964 77.7246C153.785 77.5462 153.785 77.2571 153.964 77.0778L156.988 74.055C157.166 73.8766 157.455 73.8766 157.634 74.055C157.813 74.2344 157.813 74.5235 157.634 74.7028L154.611 77.7246C154.521 77.8143 154.404 77.8591 154.287 77.8591Z" fill="#171E3C"/>
<path d="M162.051 69.6389L165.074 66.6161Z" fill="white"/>
<path d="M162.051 70.0967C161.934 70.0967 161.817 70.0519 161.728 69.9622C161.549 69.7838 161.549 69.4947 161.728 69.3154L164.751 66.2926C164.93 66.1142 165.22 66.1142 165.398 66.2926C165.576 66.471 165.576 66.761 165.398 66.9394L162.374 69.9622C162.286 70.0519 162.169 70.0967 162.051 70.0967Z" fill="#171E3C"/>
<path d="M154.287 66.6161L157.31 69.6389Z" fill="white"/>
<path d="M157.311 70.0967C157.193 70.0967 157.076 70.0519 156.988 69.9622L153.964 66.9394C153.785 66.761 153.785 66.471 153.964 66.2926C154.142 66.1142 154.432 66.1142 154.611 66.2926L157.634 69.3154C157.813 69.4947 157.813 69.7838 157.634 69.9622C157.545 70.0519 157.428 70.0967 157.311 70.0967Z" fill="#171E3C"/>
<path d="M162.051 74.3791L165.074 77.4019Z" fill="white"/>
<path d="M165.074 77.8591C164.958 77.8591 164.841 77.8143 164.751 77.7246L161.728 74.7028C161.549 74.5235 161.549 74.2344 161.728 74.055C161.907 73.8766 162.196 73.8766 162.374 74.055L165.398 77.0778C165.576 77.2571 165.576 77.5462 165.398 77.7246C165.308 77.8143 165.191 77.8591 165.074 77.8591Z" fill="#171E3C"/>
<path d="M149.662 22.2397C147.964 22.2397 146.584 20.8592 146.584 19.1621C146.584 17.465 147.964 16.0844 149.662 16.0844C151.359 16.0844 152.739 17.465 152.739 19.1621C152.739 20.8592 151.359 22.2397 149.662 22.2397ZM149.662 16.9993C148.469 16.9993 147.498 17.9691 147.498 19.1621C147.498 20.3551 148.469 21.3249 149.662 21.3249C150.854 21.3249 151.824 20.3551 151.824 19.1621C151.824 17.9691 150.854 16.9993 149.662 16.9993Z" id="secondaryColor" fill="#FE8C3A"/>
<path d="M177.677 187.71C175.979 187.71 174.6 186.33 174.6 184.633C174.6 182.935 175.979 181.554 177.677 181.554C179.374 181.554 180.755 182.935 180.755 184.633C180.755 186.33 179.374 187.71 177.677 187.71ZM177.677 182.469C176.484 182.469 175.514 183.44 175.514 184.633C175.514 185.825 176.484 186.795 177.677 186.795C178.87 186.795 179.84 185.825 179.84 184.633C179.84 183.44 178.87 182.469 177.677 182.469Z" fill="#1A4C6D"/>
<path d="M108.152 138.303C94.6364 142.174 80.9506 133.106 79.2471 119.151C77.9059 108.173 84.8837 97.6427 95.5156 94.5979C109.03 90.728 122.715 99.7954 124.42 113.75C125.761 124.728 118.784 135.258 108.152 138.303ZM150.883 109.31L146.869 96.6125C146.54 95.5723 145.43 94.9959 144.39 95.3243L136.19 97.9162C135.352 98.1815 134.428 97.8686 133.953 97.1294C132.18 94.3701 130.08 91.8844 127.72 89.7115C127.074 89.1159 126.923 88.1517 127.328 87.3713L131.294 79.7393C131.797 78.7714 131.42 77.5792 130.452 77.0761L118.636 70.9354C117.668 70.4322 116.475 70.8091 115.971 71.7771L112.005 79.409C111.6 80.1894 110.726 80.6203 109.866 80.4328C106.731 79.7512 103.49 79.4603 100.212 79.5957C99.3343 79.6313 98.5484 79.055 98.2831 78.2178L95.6912 70.0177C95.3628 68.9775 94.253 68.4002 93.2128 68.7296L80.5151 72.7423C79.4749 73.0716 78.8976 74.1814 79.227 75.2216L81.8188 83.4208C82.0832 84.2588 81.7704 85.1829 81.0311 85.6586C78.2718 87.4316 75.787 89.5313 73.6141 91.8908C73.0176 92.5376 72.0534 92.6886 71.273 92.2833L63.6419 88.3173C62.674 87.8141 61.481 88.191 60.9787 89.1589L54.8371 100.976C54.3348 101.944 54.7117 103.137 55.6797 103.64L63.3116 107.606C64.0911 108.011 64.522 108.886 64.3354 109.745C63.6529 112.88 63.3629 116.121 63.4974 119.4C63.534 120.277 62.9576 121.063 62.1196 121.328L53.9194 123.92C52.8792 124.248 52.3029 125.358 52.6313 126.398L56.6449 139.096C56.9733 140.136 58.0831 140.714 59.1233 140.384L67.3225 137.793C68.1605 137.528 69.0855 137.841 69.5603 138.58C71.3334 141.339 73.4339 143.824 75.7934 145.997C76.4402 146.594 76.5903 147.558 76.185 148.338L72.2189 155.969C71.7167 156.937 72.0936 158.13 73.0616 158.632L84.8782 164.774C85.8462 165.276 87.0382 164.899 87.5414 163.932L91.5075 156.3C91.9127 155.52 92.7883 155.089 93.6474 155.276C96.7818 155.958 100.023 156.248 103.301 156.114C104.179 156.077 104.965 156.654 105.23 157.492L107.822 165.692C108.151 166.732 109.261 167.308 110.301 166.98L122.999 162.966C124.039 162.638 124.615 161.528 124.287 160.488L121.695 152.289C121.43 151.451 121.743 150.526 122.482 150.051C125.241 148.278 127.727 146.177 129.9 143.819C130.495 143.171 131.46 143.021 132.24 143.426L139.872 147.392C140.84 147.895 142.032 147.518 142.535 146.55L148.676 134.733C149.179 133.765 148.802 132.573 147.834 132.07L140.202 128.104C139.422 127.698 138.991 126.823 139.178 125.964C139.86 122.829 140.151 119.588 140.016 116.31C139.98 115.433 140.556 114.646 141.393 114.381L149.594 111.79C150.635 111.46 151.211 110.35 150.883 109.31Z" fill="#A8CADC"/>
<path d="M108.365 134.819C94.8493 138.69 81.1635 129.622 79.46 115.667C78.1188 104.689 85.0966 94.1589 95.7285 91.1141C109.243 87.2442 122.928 96.3116 124.633 110.266C125.974 121.244 118.997 131.774 108.365 134.819ZM151.095 104.553L147.082 91.8552C146.752 90.815 145.643 90.2386 144.603 90.567L136.403 93.1589C135.565 93.4233 134.641 93.1113 134.166 92.3721C132.392 89.6119 130.293 87.1271 127.933 84.9542C127.286 84.3577 127.136 83.3943 127.541 82.613L131.507 74.982C132.01 74.014 131.633 72.8219 130.665 72.3187L118.849 66.1781C117.881 65.6749 116.688 66.0518 116.184 67.0197L112.218 74.6517C111.813 75.4321 110.938 75.8621 110.079 75.6754C106.944 74.9939 103.703 74.7029 100.425 74.8383C99.5472 74.874 98.7613 74.2976 98.496 73.4605L95.9042 65.2595C95.5757 64.2193 94.4659 63.6429 93.4257 63.9713L80.728 67.9849C79.6878 68.3134 79.1105 69.4231 79.4399 70.4634L82.0317 78.6635C82.2961 79.5015 81.9833 80.4255 81.244 80.9004C78.4847 82.6743 75.9999 84.774 73.8271 87.1335C73.2306 87.7803 72.2663 87.9312 71.4859 87.525L63.8548 83.5599C62.8869 83.0567 61.6939 83.4337 61.1916 84.4016L55.05 96.2183C54.5468 97.1862 54.9237 98.3783 55.8926 98.8815L63.5246 102.848C64.3041 103.254 64.735 104.128 64.5483 104.987C63.8658 108.123 63.5758 111.363 63.7103 114.641C63.7469 115.519 63.1705 116.305 62.3325 116.57L54.1324 119.162C53.0921 119.491 52.5158 120.601 52.8442 121.641L56.8578 134.339C57.1862 135.379 58.296 135.955 59.3362 135.627L67.5354 133.035C68.3734 132.771 69.2984 133.083 69.7732 133.823C71.5463 136.582 73.6468 139.067 76.0063 141.24C76.6531 141.836 76.8032 142.8 76.3979 143.581L72.4319 151.212C71.9287 152.18 72.3056 153.372 73.2745 153.875L85.0911 160.016C86.0591 160.519 87.2512 160.142 87.7544 159.174L91.7204 151.542C92.1257 150.762 93.0012 150.332 93.8603 150.518C96.9947 151.2 100.236 151.491 103.514 151.356C104.392 151.32 105.178 151.896 105.443 152.733L108.035 160.934C108.364 161.975 109.474 162.551 110.513 162.223L123.212 158.209C124.252 157.881 124.828 156.771 124.5 155.731L121.908 147.53C121.643 146.693 121.955 145.768 122.695 145.294C125.454 143.52 127.94 141.42 130.113 139.06C130.708 138.414 131.672 138.263 132.453 138.669L140.085 142.634C141.053 143.137 142.245 142.76 142.748 141.792L148.889 129.976C149.392 129.008 149.015 127.816 148.047 127.312L140.415 123.346C139.635 122.94 139.204 122.066 139.391 121.207C140.073 118.072 140.364 114.831 140.228 111.553C140.193 110.675 140.769 109.888 141.606 109.624L149.807 107.031C150.847 106.703 151.424 105.593 151.095 104.553Z" id="secondaryColor" fill="#FE8C3A"/>
<path d="M102.048 90.6823C99.9758 90.6823 97.8926 90.9695 95.8524 91.5532C85.4538 94.5321 78.6013 104.875 79.9123 115.611C80.7083 122.13 84.2892 127.938 89.7346 131.547C95.18 135.154 101.922 136.188 108.237 134.38C118.637 131.401 125.489 121.058 124.177 110.321C123.381 103.804 119.801 97.9959 114.355 94.3876C110.67 91.9448 106.387 90.6823 102.048 90.6823ZM102.041 136.166C97.5239 136.166 93.0666 134.852 89.2295 132.31C83.56 128.553 79.8328 122.507 79.0039 115.722C77.6389 104.543 84.774 93.7746 95.6008 90.675C102.171 88.7912 109.191 89.868 114.861 93.6246C120.53 97.3811 124.257 103.427 125.085 110.21C126.452 121.389 119.316 132.158 108.49 135.258C106.367 135.867 104.196 136.166 102.041 136.166ZM103.59 150.897C104.626 150.897 105.558 151.584 105.877 152.596L108.469 160.796C108.722 161.595 109.574 162.039 110.374 161.786L123.072 157.773C123.87 157.52 124.314 156.666 124.062 155.868L121.47 147.669C121.141 146.625 121.541 145.489 122.446 144.908C125.14 143.177 127.605 141.106 129.774 138.75C130.505 137.958 131.691 137.759 132.663 138.263L140.295 142.229C140.653 142.415 141.064 142.452 141.451 142.328C141.838 142.207 142.154 141.941 142.341 141.582L148.482 129.765C148.868 129.022 148.577 128.105 147.835 127.719L140.202 123.752C139.232 123.248 138.714 122.162 138.943 121.109C139.623 117.981 139.902 114.772 139.77 111.571C139.726 110.498 140.424 109.517 141.468 109.188L149.669 106.596C150.465 106.343 150.909 105.489 150.658 104.691L146.644 91.9933C146.521 91.6063 146.256 91.2907 145.897 91.1031C145.538 90.9165 145.127 90.8817 144.739 91.0025L136.539 93.5944C135.501 93.9255 134.362 93.5239 133.779 92.6191C132.048 89.9238 129.976 87.4582 127.622 85.2899C126.83 84.5608 126.629 83.3733 127.134 82.4026L131.1 74.7715C131.486 74.0286 131.195 73.111 130.453 72.7249L118.637 66.5833C117.894 66.1981 116.975 66.4882 116.588 67.2311L112.622 74.8621C112.119 75.8337 111.028 76.3515 109.981 76.1228C106.852 75.4421 103.644 75.1649 100.442 75.2948C99.3747 75.3351 98.3885 74.6416 98.0582 73.5977L95.4663 65.3976C95.2138 64.5998 94.3602 64.157 93.5615 64.4077L80.8647 68.4213C80.4777 68.5439 80.1621 68.8092 79.9746 69.1688C79.7879 69.5283 79.7522 69.9391 79.8739 70.3252L82.4658 78.5253C82.7961 79.5692 82.3944 80.7045 81.4905 81.2855C78.7971 83.0155 76.3306 85.0878 74.1623 87.4436C73.4313 88.2359 72.242 88.4362 71.2731 87.9312L63.642 83.9661C63.2843 83.7795 62.8726 83.7438 62.4856 83.8655C62.0986 83.9871 61.783 84.2525 61.5954 84.6129L55.4547 96.4296C55.2681 96.7891 55.2324 97.1999 55.355 97.5869C55.4767 97.973 55.742 98.2886 56.1016 98.4752L63.7335 102.441C64.7033 102.946 65.2221 104.033 64.9933 105.084C64.3136 108.214 64.0345 111.424 64.1672 114.623C64.2102 115.697 63.5122 116.677 62.4692 117.006L54.2681 119.598C53.4704 119.851 53.0266 120.705 53.2782 121.503L57.2918 134.201C57.5443 134.999 58.4016 135.441 59.1975 135.19L67.3967 132.6C68.4388 132.268 69.5751 132.67 70.1569 133.575C71.887 136.267 73.9583 138.733 76.3141 140.903C77.1064 141.633 77.3067 142.821 76.8017 143.791L72.8366 151.422C72.65 151.782 72.6143 152.194 72.7369 152.581C72.8586 152.967 73.1239 153.282 73.4834 153.469L85.3001 159.611C85.6597 159.798 86.0704 159.834 86.4574 159.711C86.8444 159.589 87.1592 159.323 87.3467 158.964L91.3127 151.331C91.8168 150.36 92.9092 149.844 93.9558 150.071C97.0847 150.753 100.295 151.03 103.494 150.899L103.59 150.897ZM109.918 162.771C108.885 162.771 107.924 162.108 107.597 161.073L105.005 152.872C104.8 152.221 104.192 151.773 103.532 151.813C100.255 151.948 96.9658 151.663 93.7609 150.966C93.1132 150.824 92.4389 151.148 92.1242 151.753L88.1582 159.385C87.859 159.962 87.3522 160.387 86.7337 160.583C86.1134 160.779 85.4538 160.721 84.8784 160.422L73.0617 154.281C72.4844 153.981 72.059 153.475 71.8641 152.855C71.6683 152.236 71.725 151.577 72.0251 151.001L75.9902 143.37C76.3049 142.764 76.1833 142.026 75.6938 141.576C73.2804 139.353 71.1587 136.827 69.3875 134.07C69.0298 133.512 68.3262 133.266 67.6721 133.471L59.4729 136.062C58.1948 136.469 56.8234 135.756 56.42 134.477L52.4064 121.779C52.002 120.5 52.7137 119.131 53.9927 118.726L62.1938 116.134C62.8433 115.928 63.2797 115.322 63.2523 114.66C63.1169 111.383 63.4033 108.096 64.0995 104.89C64.2413 104.242 63.9165 103.568 63.3118 103.254L55.6798 99.2877C55.1025 98.9876 54.6771 98.4817 54.4822 97.8614C54.2864 97.2429 54.3432 96.5842 54.6433 96.0078L60.7839 84.1912C61.0831 83.6139 61.59 83.1885 62.2093 82.9927C62.8287 82.7969 63.4883 82.8536 64.0638 83.1537L71.6949 87.1188C72.2996 87.4326 73.0379 87.3118 73.4899 86.8233C75.7112 84.4107 78.2363 82.2882 80.9956 80.5161C81.5528 80.1575 81.7997 79.4521 81.5939 78.8007L79.0021 70.6015C78.8063 69.9821 78.8639 69.3234 79.1631 68.747C79.4622 68.1697 79.9691 67.7452 80.5893 67.5494L93.287 63.5358C94.5624 63.1324 95.9347 63.8414 96.3391 65.1213L98.9309 73.3223C99.1359 73.9728 99.748 74.4019 100.405 74.3809C103.686 74.2455 106.97 74.5309 110.176 75.2281C110.824 75.3699 111.497 75.046 111.811 74.4412L115.778 66.8093C116.395 65.619 117.866 65.1543 119.058 65.7718L130.875 71.9125C132.064 72.531 132.529 74.003 131.911 75.1933L127.945 82.8243C127.631 83.43 127.753 84.1665 128.242 84.6175C130.653 86.8388 132.775 89.3639 134.549 92.1241C134.908 92.6822 135.614 92.9283 136.264 92.7225L144.464 90.1306C145.084 89.9348 145.743 89.9924 146.318 90.2916C146.895 90.5917 147.32 91.0976 147.516 91.717L151.529 104.416C151.934 105.695 151.223 107.063 149.943 107.468L141.743 110.06C141.093 110.265 140.657 110.872 140.684 111.533C140.82 114.812 140.534 118.1 139.836 121.304C139.695 121.953 140.019 122.625 140.624 122.94L148.257 126.906C149.446 127.525 149.911 128.997 149.293 130.187L143.153 142.004C142.853 142.58 142.347 143.005 141.727 143.201C141.106 143.396 140.448 143.34 139.873 143.04L132.241 139.074C131.634 138.759 130.897 138.882 130.448 139.371C128.226 141.783 125.7 143.906 122.941 145.678C122.382 146.036 122.137 146.742 122.342 147.393L124.934 155.592C125.339 156.871 124.627 158.241 123.347 158.644L110.65 162.658C110.407 162.735 110.161 162.771 109.918 162.771Z" fill="#171E3C"/>
<path d="M104.944 54.4793C108.95 55.2304 113.013 52.9048 114.387 49.0622C115.221 46.7293 114.996 44.1649 113.77 42.0268C112.544 39.8887 110.444 38.4002 108.008 37.9418C104 37.1889 99.9378 39.5163 98.5645 43.3588C97.7301 45.6918 97.9552 48.2562 99.1821 50.3943C100.408 52.5324 102.509 54.0209 104.944 54.4793ZM106.457 55.5351C105.899 55.5351 105.337 55.4838 104.774 55.3777C102.075 54.8708 99.7474 53.2195 98.3879 50.849C97.0293 48.4786 96.7786 45.636 97.7036 43.0505C99.2269 38.789 103.732 36.2072 108.178 37.0425C110.876 37.5502 113.204 39.2007 114.564 41.5721C115.924 43.9416 116.172 46.7842 115.249 49.3705C113.918 53.0923 110.312 55.5351 106.457 55.5351ZM96.5911 57.2422C96.8619 57.2422 97.1309 57.3319 97.3495 57.5094C98.301 58.2761 99.3504 58.922 100.467 59.4261C100.964 59.6493 101.251 60.1872 101.162 60.7325L100.633 64.0426L100.689 64.2759L100.892 64.4003L106.018 65.2209C106.101 65.2337 106.183 65.2154 106.25 65.1651L106.375 64.962L106.905 61.652C106.991 61.1067 107.432 60.6849 107.973 60.6273C109.19 60.4974 110.388 60.2119 111.534 59.7792C112.043 59.5852 112.625 59.7627 112.951 60.2101L114.916 62.9264C115.017 63.0646 115.213 63.0975 115.354 62.9959L119.557 59.9512C119.697 59.8506 119.728 59.6548 119.627 59.5148L117.66 56.7994C117.338 56.353 117.35 55.7445 117.691 55.32C118.461 54.3676 119.106 53.3183 119.61 52.2012C119.836 51.7044 120.379 51.419 120.917 51.5068L124.227 52.0365L124.459 51.9807L124.585 51.7767L125.404 46.6506C125.432 46.4813 125.315 46.3203 125.146 46.2929L121.836 45.7632C121.291 45.6763 120.869 45.2371 120.812 44.6955C120.681 43.4778 120.396 42.2802 119.963 41.1348C119.77 40.6252 119.947 40.0424 120.395 39.7185L123.11 37.7524C123.178 37.7039 123.222 37.6308 123.235 37.5484L123.179 37.3169L120.135 33.1112C120.087 33.0435 120.015 32.9996 119.932 32.9859L119.699 33.0417L116.983 35.0078C116.539 35.3317 115.928 35.3207 115.504 34.9758C114.55 34.2073 113.5 33.5623 112.386 33.0582C111.888 32.8349 111.603 32.297 111.691 31.7517L112.22 28.4426C112.247 28.2724 112.13 28.1114 111.961 28.0839L106.835 27.2633C106.669 27.2349 106.505 27.353 106.478 27.5231L105.949 30.8332C105.86 31.3794 105.42 31.8002 104.879 31.8569C103.662 31.9878 102.465 32.2732 101.319 32.7059C100.81 32.899 100.228 32.7215 99.902 32.2741L97.9369 29.5587C97.8362 29.4197 97.6405 29.3877 97.4996 29.4892L93.2948 32.533C93.1557 32.6346 93.1255 32.8304 93.2262 32.9703L95.1922 35.6857C95.5152 36.1322 95.5033 36.7415 95.1602 37.1651C94.3917 38.1175 93.7467 39.1669 93.2435 40.283C93.0194 40.7807 92.475 41.068 91.9362 40.9783L88.6261 40.4486C88.5383 40.4349 88.4605 40.455 88.3937 40.5044L88.2684 40.7075L87.4487 45.8336C87.4349 45.916 87.4551 45.9983 87.5026 46.066L87.7067 46.1913L91.0167 46.721C91.562 46.8089 91.9837 47.248 92.0414 47.7887C92.1722 49.0074 92.4567 50.2049 92.8904 51.3504C93.0825 51.8609 92.905 52.4427 92.4577 52.7666L89.7432 54.7318C89.6745 54.7812 89.6307 54.8535 89.6179 54.9367L89.6727 55.1691L92.7184 59.373C92.7659 59.4407 92.8382 59.4855 92.9215 59.4983L93.1539 59.4434L95.8692 57.4764C96.0851 57.32 96.3395 57.2422 96.5911 57.2422ZM106.069 66.1404L105.873 66.1248L100.747 65.3042C100.424 65.252 100.14 65.0773 99.9469 64.812C99.7548 64.5467 99.6779 64.2219 99.7292 63.898L100.259 60.588C100.281 60.4489 100.212 60.3144 100.091 60.2604C98.9021 59.7234 97.7868 59.0372 96.7741 58.2202C96.6725 58.137 96.5207 58.1361 96.4054 58.2175L93.69 60.1836C93.4256 60.3757 93.099 60.4553 92.7769 60.4022C92.4531 60.3501 92.1685 60.1753 91.9764 59.91L88.9317 55.7052C88.7396 55.4399 88.6627 55.1151 88.7149 54.7912C88.7661 54.4674 88.9408 54.1828 89.2071 53.9907L91.9215 52.0255C92.0359 51.9432 92.0816 51.7978 92.035 51.6724C91.5748 50.4556 91.271 49.1812 91.132 47.8866C91.1183 47.7549 91.0103 47.6469 90.8722 47.624L87.5621 47.0952C87.2382 47.0431 86.9546 46.8683 86.7625 46.603C86.5695 46.3368 86.4926 46.012 86.5457 45.6881L87.3645 40.563C87.4166 40.24 87.5914 39.9555 87.8567 39.7633C88.1229 39.5703 88.4504 39.4935 88.7707 39.5456L92.0807 40.0753C92.218 40.0955 92.3552 40.0287 92.4091 39.907C92.9444 38.7195 93.6305 37.6042 94.4484 36.5905C94.5317 36.4872 94.5326 36.3353 94.4503 36.2209L92.4851 33.5065C92.088 32.9584 92.2115 32.189 92.7596 31.7929L96.9635 28.7482C97.5124 28.3502 98.2818 28.4755 98.677 29.0217L100.644 31.738C100.726 31.8514 100.87 31.8972 100.995 31.8505C102.214 31.3894 103.488 31.0857 104.782 30.9475C104.915 30.9338 105.022 30.8268 105.045 30.6877L105.573 27.3786C105.626 27.0547 105.8 26.7711 106.066 26.578C106.331 26.3868 106.654 26.3091 106.98 26.3603L112.106 27.181C112.774 27.288 113.23 27.9184 113.124 28.5862L112.594 31.8972C112.572 32.0353 112.64 32.1707 112.762 32.2247C113.948 32.7599 115.064 33.4461 116.078 34.264C116.181 34.3491 116.333 34.35 116.446 34.2667L119.163 32.3007C119.428 32.1085 119.755 32.0298 120.076 32.0829C120.4 32.135 120.685 32.3098 120.877 32.5751L123.921 36.7799C124.113 37.0443 124.19 37.3691 124.138 37.693C124.087 38.0168 123.912 38.3005 123.647 38.4935L120.931 40.4596C120.817 40.5419 120.771 40.6865 120.818 40.8109C121.278 42.0295 121.582 43.303 121.721 44.5976C121.735 44.7303 121.843 44.8373 121.981 44.8602L125.29 45.3899C125.959 45.4969 126.415 46.1282 126.308 46.7952L125.489 51.9213C125.436 52.2451 125.262 52.5297 124.996 52.7218C124.731 52.9139 124.408 52.9935 124.082 52.9395L120.772 52.4098C120.642 52.3869 120.499 52.4555 120.443 52.5772C119.908 53.7657 119.222 54.8818 118.404 55.8946C118.32 55.998 118.32 56.1498 118.402 56.2624L120.368 58.9787C120.765 59.5267 120.642 60.2952 120.093 60.6922L115.89 63.737C115.342 64.134 114.572 64.0105 114.175 63.4625L112.209 60.7471C112.127 60.6337 111.983 60.587 111.858 60.6346C110.639 61.0948 109.366 61.3994 108.07 61.5367C107.937 61.5513 107.83 61.6574 107.809 61.7956L107.28 65.1066C107.228 65.4295 107.053 65.714 106.787 65.9062C106.575 66.0599 106.326 66.1404 106.069 66.1404Z" id="secondaryColor" fill="#FE8C3A"/>
<path d="M89.507 114.437L89.454 114.398C89.1109 114.213 88.8867 113.844 88.8867 113.447C88.8867 113.077 89.0844 112.721 89.454 112.51L95.8856 109.155C96.0567 109.063 96.2287 109.023 96.4007 109.023C97.0081 109.023 97.4693 109.538 97.4693 110.119C97.4693 110.476 97.2844 110.833 96.9285 111.03L92.2407 113.487L96.8892 116.009C97.246 116.181 97.4574 116.55 97.4574 116.947C97.4574 117.528 96.9944 118.029 96.4007 118.029C96.2287 118.029 96.0567 117.99 95.8984 117.898L89.507 114.437Z" fill="#171E3C"/>
<path d="M98.502 120.182C98.502 120.05 98.5294 119.918 98.5687 119.786L103.139 105.59C103.323 105.021 103.851 104.666 104.419 104.666C105.212 104.666 105.74 105.352 105.74 106.131C105.74 106.277 105.713 106.421 105.674 106.554L101.105 120.605C100.906 121.173 100.391 121.529 99.823 121.529C99.6913 121.529 99.5724 121.516 99.4397 121.477C98.8862 121.278 98.502 120.75 98.502 120.182Z" fill="#171E3C"/>
<path d="M107.01 111.03C106.654 110.833 106.469 110.476 106.469 110.119C106.469 109.538 106.931 109.023 107.538 109.023C107.71 109.023 107.881 109.063 108.053 109.155L114.485 112.51C114.855 112.721 115.052 113.091 115.052 113.46C115.052 113.844 114.828 114.213 114.485 114.398L114.418 114.437L108.04 117.898C107.881 117.99 107.71 118.029 107.538 118.029C106.944 118.029 106.482 117.528 106.482 116.947C106.482 116.55 106.694 116.181 107.05 116.009L111.684 113.487L107.01 111.03Z" fill="#171E3C"/>
<path d="M71.6984 107.203L71.6042 107.194C71.3572 107.143 71.198 106.901 71.2501 106.653C73.6124 95.3016 82.2736 85.9231 93.3144 82.7622C96.178 81.9416 99.1147 81.5244 102.046 81.5217C102.299 81.5217 102.503 81.7266 102.503 81.9791C102.503 82.2316 102.299 82.4365 102.046 82.4365C99.2007 82.4393 96.3472 82.8446 93.566 83.6414C82.8481 86.7109 74.4394 95.8167 72.1449 106.839C72.1001 107.055 71.9098 107.203 71.6984 107.203Z" fill="white"/>
<path d="M102.04 144.402C95.9191 144.402 89.8799 142.62 84.6788 139.175C76.9974 134.085 71.9473 125.893 70.8256 116.7C70.7954 116.449 70.9729 116.221 71.2236 116.191C71.4724 116.157 71.7039 116.338 71.7332 116.589C72.8228 125.517 77.7266 133.471 85.1847 138.412C92.6437 143.355 101.88 144.768 110.525 142.292C124.767 138.213 134.153 124.049 132.357 109.343C130.9 97.415 122.568 87.397 111.13 83.8198C110.888 83.7448 110.754 83.4877 110.829 83.2462C110.905 83.0065 111.159 82.8701 111.403 82.947C123.183 86.6303 131.764 96.9475 133.265 109.233C135.115 124.379 125.447 138.971 110.778 143.171C107.901 143.995 104.96 144.402 102.04 144.402Z" fill="white"/>
<path d="M102.05 87.57C99.6899 87.57 97.3139 87.8976 94.9901 88.5627C83.1387 91.9569 75.3283 103.744 76.8223 115.982C77.7299 123.41 81.8094 130.029 88.016 134.141C94.2216 138.253 101.908 139.43 109.103 137.37C120.955 133.977 128.764 122.189 127.27 109.952C126.362 102.524 122.283 95.9056 116.077 91.7932C111.875 89.0092 106.996 87.57 102.05 87.57ZM102.041 139.05C96.9626 139.05 91.9527 137.572 87.6372 134.713C81.2632 130.49 77.073 123.692 76.1408 116.064C74.6065 103.496 82.6282 91.3897 94.8007 87.904C102.189 85.787 110.081 86.9983 116.456 91.2204C122.83 95.4445 127.02 102.241 127.951 109.869C129.486 122.437 121.464 134.544 109.293 138.03C106.905 138.713 104.465 139.05 102.041 139.05Z" fill="white"/>
<path d="M83.4555 73.9674H83.0374C82.0154 73.9674 81.1875 73.1394 81.1875 72.1175V57.989C81.1875 56.967 82.0154 56.139 83.0374 56.139H83.4555C84.4765 56.139 85.3045 56.967 85.3045 57.989V72.1175C85.3045 73.1394 84.4765 73.9674 83.4555 73.9674Z" fill="#171E3C"/>
<path d="M83.0378 56.5963C82.2702 56.5963 81.6454 57.2212 81.6454 57.9879V72.1173C81.6454 72.8849 82.2702 73.5098 83.0378 73.5098H83.4559C84.2226 73.5098 84.8474 72.8849 84.8474 72.1173V57.9879C84.8474 57.2212 84.2226 56.5963 83.4559 56.5963H83.0378ZM83.4559 74.4247H83.0378C81.7652 74.4247 80.7305 73.389 80.7305 72.1173V57.9879C80.7305 56.7162 81.7652 55.6814 83.0378 55.6814H83.4559C84.7276 55.6814 85.7623 56.7162 85.7623 57.9879V72.1173C85.7623 73.389 84.7276 74.4247 83.4559 74.4247Z" fill="#171E3C"/>
<path d="M65.3989 95.7976H58.475C58.2225 95.7976 58.0176 95.5936 58.0176 95.3402C58.0176 95.0877 58.2225 94.8827 58.475 94.8827H65.3989C65.6523 94.8827 65.8563 95.0877 65.8563 95.3402C65.8563 95.5936 65.6523 95.7976 65.3989 95.7976Z" id="secondaryColor" fill="#FE8C3A"/>
<path d="M40.7859 191.021C40.3055 191.021 39.9149 191.412 39.9149 191.892C39.9149 192.373 40.3055 192.764 40.7859 192.764C41.2662 192.764 41.6578 192.373 41.6578 191.892C41.6578 191.412 41.2662 191.021 40.7859 191.021ZM40.7859 193.679C39.8014 193.679 39 192.878 39 191.892C39 190.908 39.8014 190.106 40.7859 190.106C41.7712 190.106 42.5726 190.908 42.5726 191.892C42.5726 192.878 41.7712 193.679 40.7859 193.679Z" fill="white"/>
<path d="M49.3922 186.299C49.3922 201.664 39.1961 213.724 39.1961 213.724C39.1961 213.724 29 201.667 29 186.299C29 179.198 33.5653 173.441 39.1961 173.441C44.8269 173.441 49.3922 179.198 49.3922 186.299Z" fill="#A8CADC"/>
<path d="M59.6973 135.219L78.0004 144.971V132.626C78.0004 130.894 77.6732 129.375 77.0399 128.169L69.134 113.128C67.4321 109.89 63.7493 109.316 59.6973 111.655V135.219Z" fill="#1A4C6D"/>
<path d="M18.3032 135.219L0 144.971V132.626C0 130.894 0.327167 129.375 0.960484 128.169L8.86643 113.128C10.5683 109.89 14.2511 109.316 18.3032 111.655V135.219Z" fill="#1A4C6D"/>
<path d="M49.1252 157.035V156.035H48.1252H30.625H29.625V157.035V160.571V160.67V161.571H29.6804C30.2121 165.86 34.5019 168.972 39.3751 168.972C44.2483 168.972 48.5381 165.86 49.0698 161.571H49.1252V160.67V160.571V157.035Z" fill="white" stroke="#407893" stroke-width="2"/>
<path d="M18.1816 137.455H17.1816V138.455V150.824V150.992V151.824H17.2235C17.5772 155.319 20.1402 158.312 23.7756 160.429C27.721 162.726 33.1058 164.115 39 164.115C44.8943 164.115 50.2791 162.726 54.2245 160.429C57.8599 158.312 60.4229 155.319 60.7765 151.824H60.8185V150.992V150.824V138.455V137.455H59.8185H59.8154H18.1816Z" fill="white" stroke="#407893" stroke-width="2"/>
<path d="M38.1914 20.8186L19.0093 47.096C18.5624 47.7071 18.125 48.3237 17.6972 48.9427L17.6967 48.9434C7.45946 63.7816 3.32357 81.9774 5.45783 99.848L5.45784 99.8481L10.3527 140.791C10.3508 140.836 10.3492 140.885 10.3492 140.925C10.3492 145.876 13.7872 150.172 18.9441 153.174C24.1258 156.191 31.2184 158.025 38.9991 158.025C46.7783 158.025 53.8709 156.191 59.0529 153.173C64.2099 150.17 67.6489 145.875 67.6489 140.925C67.6489 140.876 67.6469 140.83 67.645 140.795L72.5403 99.8481C74.6775 81.978 70.5419 63.7826 60.3022 48.9446C59.8727 48.3201 59.4348 47.7058 58.9888 47.096L39.8067 20.8186L38.9991 19.7121L38.1914 20.8186Z" fill="white" stroke="#407893" stroke-width="2"/>
<path d="M50.6682 79.3664C47.1682 61.8663 34.4441 45.4598 27.6992 36.7098L38.6643 21.0938C38.5873 20.896 38.6384 20.8193 38.8275 20.8614L38.6643 21.0938C39.2548 22.6124 47.3867 31.2709 58.5152 48.2055C70.5961 66.5894 74.3747 83.7527 70.5466 110.003C68.0085 127.406 66.9007 144.545 65.0778 150.926L54.1465 154.582C50.3844 155.84 46.4782 156.617 42.521 156.894L41.9181 156.936C45.564 138.707 54.1682 96.8666 50.6682 79.3664Z" fill="#A8CADC"/>
<path d="M21.4523 153.879L3.93555 180.04V168.226C3.93555 166.57 4.2507 164.754 4.857 162.899L12.4238 139.769C14.0536 134.79 17.5774 130.17 21.4553 127.934V153.879H21.4523Z" fill="#1A4C6D"/>
<path d="M56.5499 153.879L74.0666 180.04V168.226C74.0666 166.57 73.7515 164.754 73.1452 162.899L65.5784 139.769C63.9486 134.79 60.4248 130.17 56.5469 127.934V153.879H56.5499Z" fill="#407893"/>
</svg>
