<svg width="32" height="32" viewBox="0 0 32 32" fill="none" xmlns="http://www.w3.org/2000/svg">
<rect width="32" height="32" rx="5" fill="#8D91A3"/>
<g clip-path="url(#clip0_102_3318)">
<path d="M11.7244 13.1473H8.51237C8.36981 13.1473 8.2543 13.2629 8.2543 13.4054V23.7243C8.2543 23.8668 8.36981 23.9823 8.51237 23.9823H11.7244C11.8669 23.9823 11.9825 23.8668 11.9825 23.7243V13.4054C11.9825 13.2629 11.8669 13.1473 11.7244 13.1473Z" fill="white"/>
<path d="M10.1195 8.01758C8.95081 8.01758 8 8.96736 8 10.1348C8 11.3027 8.95081 12.2529 10.1195 12.2529C11.2873 12.2529 12.2374 11.3027 12.2374 10.1348C12.2374 8.96736 11.2873 8.01758 10.1195 8.01758Z" fill="white"/>
<path d="M19.8944 12.8909C18.6043 12.8909 17.6507 13.4454 17.0722 14.0756V13.4054C17.0722 13.2629 16.9567 13.1473 16.8142 13.1473H13.7381C13.5956 13.1473 13.48 13.2629 13.48 13.4054V23.7243C13.48 23.8668 13.5956 23.9823 13.7381 23.9823H16.9431C17.0857 23.9823 17.2012 23.8668 17.2012 23.7243V18.6188C17.2012 16.8984 17.6685 16.2282 18.8678 16.2282C20.1739 16.2282 20.2777 17.3026 20.2777 18.7073V23.7243C20.2777 23.8669 20.3932 23.9824 20.5357 23.9824H23.7419C23.8845 23.9824 24 23.8669 24 23.7243V18.0642C24 15.506 23.5122 12.8909 19.8944 12.8909Z" fill="white"/>
</g>
<defs>
<clipPath id="clip0_102_3318">
<rect width="16" height="16" fill="white" transform="translate(8 8)"/>
</clipPath>
</defs>
</svg>
