<svg width="14" height="14" viewBox="0 0 14 14" fill="none" xmlns="http://www.w3.org/2000/svg">
<path fill-rule="evenodd" clip-rule="evenodd" d="M7.87504 12.25L7.87984 12.3806C7.94665 13.2861 8.70247 14 9.62504 14H11.6667L11.7973 13.9952C12.7028 13.9284 13.4167 13.1726 13.4167 12.25V8.75L13.4119 8.6194C13.3451 7.71389 12.5893 7 11.6667 7H9.62504L9.49444 7.0048C8.58893 7.07161 7.87504 7.82743 7.87504 8.75V12.25ZM9.54548 7.87851C9.09994 7.91823 8.75004 8.29365 8.75004 8.75V12.2339L8.75356 12.3296C8.79328 12.7751 9.16869 13.125 9.62504 13.125H11.6506L11.7463 13.1215C12.1918 13.0818 12.5417 12.7063 12.5417 12.25V8.76606L12.5382 8.67044C12.4985 8.2249 12.1231 7.875 11.6667 7.875H9.64112L9.54548 7.87851ZM7.87504 4.375L7.87984 4.5056C7.94665 5.41111 8.70247 6.125 9.62504 6.125H11.6667L11.7973 6.1202C12.7028 6.05339 13.4167 5.29757 13.4167 4.375V1.75L13.4119 1.6194C13.3451 0.713893 12.5893 0 11.6667 0H9.62504L9.49444 0.00480002C8.58893 0.0716055 7.87504 0.827433 7.87504 1.75V4.375ZM9.54548 0.878515C9.09994 0.918235 8.75004 1.29365 8.75004 1.75V4.35893L8.75356 4.45456C8.79328 4.9001 9.16869 5.25 9.62504 5.25H11.6506L11.7463 5.24649C12.1918 5.20677 12.5417 4.83135 12.5417 4.375V1.76606L12.5382 1.67044C12.4985 1.2249 12.1231 0.875 11.6667 0.875H9.64112L9.54548 0.878515ZM7.00004 1.75L6.99524 1.6194C6.92844 0.713893 6.17261 0 5.25004 0H2.33337L2.20277 0.00480002C1.29727 0.0716055 0.583374 0.827433 0.583374 1.75V6.125L0.588174 6.2556C0.65498 7.16111 1.41081 7.875 2.33337 7.875H5.25004L5.38065 7.8702C6.28615 7.80339 7.00004 7.04757 7.00004 6.125V1.75ZM5.3296 6.99649C5.77514 6.95677 6.12504 6.58135 6.12504 6.125V1.76607L6.12153 1.67044C6.08181 1.2249 5.70639 0.875 5.25004 0.875H2.34945L2.25381 0.878515C1.80827 0.918235 1.45837 1.29365 1.45837 1.75V6.10893L1.46189 6.20456C1.50161 6.6501 1.87702 7 2.33337 7H5.23397L5.3296 6.99649ZM7.00004 10.5L6.99524 10.3694C6.92844 9.46389 6.17261 8.75 5.25004 8.75H2.33337L2.20277 8.7548C1.29727 8.8216 0.583374 9.57743 0.583374 10.5V12.25L0.588174 12.3806C0.65498 13.2861 1.41081 14 2.33337 14H5.25004L5.38065 13.9952C6.28615 13.9284 7.00004 13.1726 7.00004 12.25V10.5ZM5.3296 13.1215C5.77514 13.0818 6.12504 12.7063 6.12504 12.25V10.5161L6.12153 10.4204C6.08181 9.9749 5.70639 9.625 5.25004 9.625H2.34943L2.25381 9.62851C1.80827 9.66823 1.45837 10.0436 1.45837 10.5V12.2339L1.46189 12.3296C1.50161 12.7751 1.87702 13.125 2.33337 13.125H5.23398L5.3296 13.1215Z" fill="white"/>
</svg>
