<svg width="220" height="220" viewBox="0 0 220 220" fill="none" xmlns="http://www.w3.org/2000/svg">
<path d="M64.663 52.0351C42.1062 71.3657 14.1859 84.539 4.25908 106.697C-5.61743 128.856 2.54984 159.895 19.8357 179.479C37.1216 199.013 63.4758 207.082 87.9405 213.296C112.397 219.557 134.904 223.948 149.95 214.659C165.005 205.322 172.602 182.268 183.809 161.461C195.016 140.72 209.88 122.195 213.251 99.5348C216.621 76.8215 208.502 49.8691 191.311 29.5781C174.073 9.23639 147.719 -4.50315 125.97 1.3639C104.267 7.21686 87.172 32.7074 64.663 52.0351Z" fill="white"/>
<path d="M72.6124 66.6479C72.6124 41.8162 73.1027 16.8323 106.475 16.8323C136.939 16.8323 139.526 51.3336 139.681 63.7217C139.835 76.2933 143.849 83.5871 148.843 89.2126L162.373 101.262C167.651 105.963 171.278 112.235 172.72 119.154V119.154C174.538 127.882 173.913 136.942 170.915 145.338L168 153.5C151.492 168.206 110.072 177.772 99.3303 177.772C89.5645 177.772 60.7357 169.798 46 161.5L41 153L40.1982 151.396C34.9068 140.814 36.3299 128.109 43.8316 118.959L56.7096 103.252C65.1219 93.5005 72.6124 82.3968 72.6124 66.6479Z" fill="#EE8280"/>
<path d="M167 154C166.99 157.765 152 169.5 148.5 170C145.797 172.663 138.24 179.99 134.416 180H127.5L131.5 194V194C115.148 198.579 97.8522 198.579 81.5 194V194L84 180H71.1363C67.3128 179.99 63.649 178.49 60.9456 175.827C58.2423 173.165 66.0097 168.265 66 164.5L64.6374 164.37C58.9133 163.825 53.819 160.512 51 155.5V155.5L49 150.5L56.7096 135.82C67.4977 115.964 84.8741 103.076 104.474 103.076C122.128 103.076 141.633 114.406 152.5 131L159.5 141L167 154Z" fill="#A8CADC"/>
<path d="M48.2593 152.209L42.5 165.5L39.7922 171.367C39.6166 171.747 39.6968 172.197 39.9931 172.493L52.9093 185.409C52.9696 185.47 53.0373 185.522 53.1107 185.565L81.8325 202.402C81.9432 202.467 82.0653 202.51 82.1922 202.528L112.3 206.971C112.432 206.99 112.566 206.983 112.695 206.95L147.324 198.045C147.441 198.015 147.55 197.965 147.649 197.896L157.441 191.041C157.48 191.014 157.518 190.983 157.553 190.95L173.979 175.49C174.291 175.197 174.381 174.738 174.204 174.348L167.09 158.697C167.031 158.567 167 158.426 167 158.283V156C167 155.262 166.267 155.027 166.003 155.716C165.196 157.828 164.657 160.854 160.5 163.5C156.567 166.003 150.131 170.023 148 170.475C147.689 170.541 147.429 170.326 147.308 170.033L132.575 134.183C132.526 134.062 132.5 133.933 132.5 133.803V130.186C132.5 130.063 132.523 129.941 132.567 129.827L136.5 119.601C138.818 113.574 142.109 107.97 146.242 103.009L147.5 101.5L148.8 99.7667C148.93 99.5936 149 99.383 149 99.1667V98.5V98.3198C149 97.8431 148.66 97.4552 148.185 97.4117C146.984 97.3017 145.188 97.0596 145.5 95.5C145.804 93.9789 145.549 93.3254 145.263 93.0997C145.116 92.9837 144.916 93.0527 144.757 93.152L141.183 95.3859C141.062 95.4611 140.959 95.5611 140.881 95.6792L138.297 99.5547C138.111 99.8329 137.932 99.8201 137.992 99.4911C138.193 98.3815 139 95.7447 139 94.5C139 92.9565 138.069 93.7706 137.555 94.4285C137.518 94.4758 137.487 94.527 137.46 94.5806L135.992 97.5157C131.673 106.154 126.585 114.387 120.79 122.114L119.243 124.176C119.087 124.384 119.018 124.644 119.051 124.902L122.5 152C126.089 172.19 130.081 191.171 130.863 195.218C130.952 195.68 130.671 196.072 130.212 196.171C109.223 200.677 89.2889 202.044 81.7362 199.75C81.2978 199.617 81.0376 199.181 81.0911 198.726L82.0001 191L94.4348 127.334C94.4771 127.118 94.4465 126.893 94.3477 126.695L92.5001 123L88.9027 117.379C85.9736 112.802 83.465 107.97 81.4076 102.941L80.1918 99.9687C80.0713 99.674 79.8176 99.4544 79.5088 99.3772L79.2426 99.3106C78.6115 99.1528 78.0001 99.6302 78.0001 100.281V103.114C78.0001 104.11 76.6961 104.499 76.1426 103.671C73.7733 100.124 70.3161 95.2107 68.5001 94C66.1287 92.4191 67.4672 98.1927 68.4641 101.385C68.4882 101.463 68.5214 101.535 68.5636 101.604L73.9545 110.425C73.9848 110.475 74.0107 110.527 74.032 110.581L79.5001 124.5L80.9321 129.751C80.9767 129.914 80.9803 130.082 80.9393 130.246C77.7612 142.965 66.6477 163.052 65.5599 163.968C65.5194 164.002 65.4721 163.996 65.4198 163.987C54.7083 162.244 51.8696 155.957 49.9055 152.124C49.5418 151.415 48.5765 151.478 48.2593 152.209Z" fill="white"/>
<path d="M170.807 118.395C169.527 91.5545 141.812 95.5358 141.385 62.0388C141.316 56.6306 140.787 47.0094 137.675 37.8831" stroke="#40404B" stroke-linecap="round" stroke-linejoin="round"/>
<path d="M60.6965 98.8628C50.9553 110.787 39.0687 120.377 36.0749 133.164" stroke="#40404B" stroke-linecap="round" stroke-linejoin="round"/>
<path d="M128.125 22.3273C123.373 17.9815 116.93 15.1494 108.191 15.1494C74.8141 15.1494 74.3286 40.1333 74.3286 64.9651C74.3286 75.5883 70.9107 84.1158 66.1002 91.5231" stroke="#40404B" stroke-linecap="round" stroke-linejoin="round"/>
<path d="M127.159 106.922C120.573 103.503 113.428 101.627 105.945 101.627C98.4691 101.627 91.3172 103.502 84.7309 106.922M69.876 118.197C71.5183 116.489 73.2284 114.895 75 113.423" stroke="#40404B" stroke-linecap="round" stroke-linejoin="round"/>
<path d="M148.843 126.51C145.521 121.744 141.589 117.421 137.143 113.646" stroke="#40404B" stroke-linecap="round" stroke-linejoin="round"/>
<path d="M122.358 83.1694C121.377 88.7225 120.823 104.203 121.65 112.267C118.506 114.875 104.695 117.236 95.5127 113.733C96.7534 109.254 97.4154 98.5852 96.339 92.0688C102.214 89.9514 122.358 83.1694 122.358 83.1694Z" fill="white"/>
<path d="M122.478 99.761C122.451 103.962 122.567 108.033 122.875 111.06C120.985 112.63 115.223 114.11 108.937 114.276" stroke="#40404B" stroke-linecap="round" stroke-linejoin="round"/>
<path d="M96.7386 112.521C97.9792 108.042 98.6412 97.3731 97.5648 90.8568C103.449 88.7394 123.584 81.9574 123.584 81.9574C123.206 84.1038 122.89 87.7302 122.694 91.8394" stroke="#40404B" stroke-linecap="round" stroke-linejoin="round"/>
<path d="M102.62 95.9656C87.3865 95.9656 75.037 79.7514 75.037 59.7501C75.037 39.7488 87.3865 23.5345 102.62 23.5345C117.854 23.5345 130.204 39.7488 130.204 59.7501C130.204 79.7514 117.854 95.9656 102.62 95.9656Z" fill="white"/>
<path d="M81.2112 77.8071C86.1321 87.7229 94.6523 94.2755 104.337 94.2755C106.535 94.2757 108.719 93.9377 110.81 93.2736" stroke="#40404B" stroke-linecap="round" stroke-linejoin="round"/>
<path d="M129.677 72.3917C131.179 67.7589 131.936 62.9232 131.921 58.06C131.921 38.0594 119.573 21.8445 104.337 21.8445C89.1013 21.8445 76.7537 38.0594 76.7537 58.06C76.7466 61.9119 77.2176 65.7502 78.1562 69.4896" stroke="#40404B" stroke-linecap="round" stroke-linejoin="round"/>
<path d="M93.0268 65.0748C92.1849 65.2626 91.1661 63.9072 90.7512 62.0475C90.3363 60.1878 90.6825 58.5279 91.5243 58.3401C92.3662 58.1523 93.385 59.5076 93.7999 61.3674C94.2148 63.2271 93.8687 64.887 93.0268 65.0748Z" fill="#40404B"/>
<path d="M99.923 66.7539C99.2732 69.3325 98.0718 72.1911 96 73.997" stroke="#40404B" stroke-linecap="round" stroke-linejoin="round"/>
<path d="M100.58 62C100.576 62.5276 100.545 63.0546 100.485 63.579" stroke="#40404B" stroke-linecap="round" stroke-linejoin="round"/>
<path d="M101 85C99.3431 85 98 83.2091 98 81C98 78.7909 99.3431 77 101 77C102.657 77 104 78.7909 104 81C104 83.2091 102.657 85 101 85Z" stroke="#40404B" stroke-linecap="round" stroke-linejoin="round"/>
<path d="M95.3961 31.3469C95.3754 31.4747 95.3417 31.6 95.2956 31.7211C93.9324 35.7048 79.7434 60.935 73.17 65.445C72.9371 61.5 72.5472 45.2754 75.1119 40.6833C77.6765 36.0912 88.325 24 91.6668 24C95.0087 24 95.3863 31.4338 95.3863 31.4338" fill="#EE8280"/>
<path d="M81.8878 57.256C80.677 58.9214 79.3627 60.5115 77.9526 62.0171" stroke="#40404B" stroke-linecap="round" stroke-linejoin="round"/>
<path d="M98.0803 29.7684C98.0596 29.8962 98.0259 30.0215 97.9798 30.1427C97.1192 32.6536 91.1612 43.61 85.2301 52.4949" stroke="#40404B" stroke-linecap="round" stroke-linejoin="round"/>
<path d="M90.1063 23.5369C90.1063 25.9513 112.477 67.7054 123.888 73.5433C128.586 76.6265 137.633 77.7274 137.633 75.3058C137.633 72.8842 133.271 31.3643 123.986 26.6201C114.701 21.8759 101.069 16.3759 90.1063 23.5369Z" fill="#EE8280"/>
<path d="M101.655 42.2434C109.045 54.7547 118.771 69.0912 125.114 72.3361C127.181 73.693 130.097 74.666 132.715 75.1247" stroke="#40404B" stroke-linecap="round" stroke-linejoin="round"/>
<path d="M91.3322 22.3297C91.3322 22.9574 92.8327 26.2193 95.2551 30.8138" stroke="#40404B" stroke-linecap="round" stroke-linejoin="round"/>
<path d="M127.093 79.0143C123.184 79.0143 120.014 75.8936 120.014 72.044C120.014 68.1944 123.184 65.0737 127.093 65.0737C131.002 65.0737 134.171 68.1944 134.171 72.044C134.171 75.8936 131.002 79.0143 127.093 79.0143Z" fill="white"/>
<path d="M131.182 64.4604C130.087 63.9844 128.887 63.7894 127.694 63.8937C126.501 63.998 125.354 64.3981 124.361 65.0568" stroke="#40404B" stroke-linecap="round" stroke-linejoin="round"/>
<path d="M126.313 77.5246C127.523 77.8732 128.805 77.8978 130.027 77.596C131.25 77.2941 132.368 76.6767 133.268 75.8073C134.167 74.9379 134.815 73.8481 135.144 72.6501C135.473 71.4522 135.471 70.1895 135.14 68.9922" stroke="#40404B" stroke-linecap="round" stroke-linejoin="round"/>
<path d="M81.4999 194.5L95.4782 128.603C95.4927 128.534 95.5 128.465 95.5 128.395V126.846C95.5 126.622 95.4247 126.404 95.2863 126.228L90 119.5M84.5 107.5L80.57 100.131C80.5236 100.044 80.4651 99.9646 80.3943 99.8959C79.5338 99.0597 78 97.8488 78 99C78 100.2 77.6666 102.833 77.5 104M84 114L70.0446 95.0606C70.0149 95.0202 69.9825 94.9822 69.9465 94.9473C69.2595 94.2811 67.8896 93.3311 67.5 94.5C67 96 67 98.5 67.5 101M74 111L75.258 114M71 154.5C73.8333 148 79.7 134.4 80.5 132C81.3 129.6 80.8333 127.333 80.5 126.5L75.258 114M67.5 161.5L56.9999 183.5M62.5 163.5C58.5 162 50.2001 157.3 49 150.5C48.8892 149.872 57.4999 134.5 60.5 131.5M70 118L75.258 114" stroke="#40404B" stroke-linecap="round"/>
<path d="M47.5 153.5L40 170" stroke="#40404B"/>
<path d="M85 107.5C87.3333 106.167 92.8 103.4 96 103" stroke="#40404B" stroke-linecap="round"/>
<path d="M122.5 105L127.5 107M172 168.5C172 168.5 170 164 166 159C165.694 158.617 166.795 156.769 167.637 155.524C167.854 155.201 167.878 154.785 167.686 154.447C164.735 149.244 158.929 139.087 157 136M131 195L127.5 178M124.5 163.5C122.692 153.965 119.099 133.176 119.002 125.318C118.999 125.105 119.068 124.908 119.194 124.736L124.5 117.5M125.5 114L137.437 94.1056C137.479 94.0354 137.529 93.9706 137.588 93.9142C138.269 93.2676 139.383 92.5851 139 94.5C138.5 97 136.5 106.5 133 113M141 95.5C142 94.5 144.2 92.5 145 92.5C146 92.5 147 94.5 146 97C145.885 97.2868 145.742 97.6251 145.577 98M142 105.5C142.857 103.787 144.594 100.239 145.577 98M145.577 98C147.051 97.3333 149.8 96.5 149 98.5C148 101 142 107.5 142 108.5M140 112L133.039 129.403C133.013 129.468 132.98 129.528 132.946 129.588C132.621 130.161 132.243 131.606 133 133.5C133.8 135.5 138.667 148.667 141 155M142 158.5C143.534 161.567 145.686 165.94 147.873 170.5M155.5 187C154.489 183.714 151.629 178.33 147.873 170.5M147.873 170.5C150.582 170 157.2 167.6 162 162" stroke="#40404B" stroke-linecap="round"/>
<path d="M201 103C201 155.467 158.691 198 106.5 198C54.3091 198 12 155.467 12 103C12 75.599 23.5397 50.9075 42 33.5689M106.5 8C129.515 8 150.609 16.2712 167 30.0181" stroke="#40404B"/>
</svg>
