<svg width="32" height="32" viewBox="0 0 32 32" fill="none" xmlns="http://www.w3.org/2000/svg">
<g clip-path="url(#clip0_7024_408)">
<path fill-rule="evenodd" clip-rule="evenodd" d="M16 0C24.8128 0 32 7.18717 32 16C32 24.8128 24.8128 32 16 32C7.18717 32 0 24.8128 0 16C0 7.18717 7.18717 0 16 0Z" fill="#F0F1FB"/>
<path fill-rule="evenodd" clip-rule="evenodd" d="M16 5.5C13.5179 5.5 11.5 7.54482 11.5 10C11.5 12.5069 13.4931 14.5 16 14.5C18.5069 14.5 20.5 12.5069 20.5 10C20.5 7.54482 18.4821 5.5 16 5.5ZM16 6.5C17.9268 6.5 19.5 8.09416 19.5 10C19.5 11.9546 17.9546 13.5 16 13.5C14.0454 13.5 12.5 11.9546 12.5 10C12.5 8.09416 14.0732 6.5 16 6.5ZM16 15.5C20.6865 15.5 24.5 19.3643 24.5 24C24.5 24.2761 24.2761 24.5 24 24.5C23.7239 24.5 23.5 24.2761 23.5 24C23.5 19.9136 20.1313 16.5 16 16.5C11.8687 16.5 8.5 19.9136 8.5 24C8.5 24.2761 8.27614 24.5 8 24.5C7.72386 24.5 7.5 24.2761 7.5 24C7.5 19.3643 11.3135 15.5 16 15.5Z" fill="#5567D5"/>
</g>
<defs>
<clipPath id="clip0_7024_408">
<rect width="32" height="32" fill="white"/>
</clipPath>
</defs>
</svg>
