<svg xmlns="http://www.w3.org/2000/svg" xmlns:xlink="http://www.w3.org/1999/xlink" width="15.414" height="15.414" viewBox="0 0 15.414 15.414">
<defs>
  <clipPath id="clip-path">
    <path id="Combined_Shape" data-name="Combined Shape" d="M13.707,15.121,11.19,12.6A7.007,7.007,0,1,1,12.6,11.19l2.516,2.517a1,1,0,1,1-1.414,1.414ZM2.154,7A4.846,4.846,0,1,0,7,2.154,4.852,4.852,0,0,0,2.154,7Z" transform="translate(1 1)"/>
  </clipPath>
</defs>
<g id="Group_1" data-name="Group 1" transform="translate(-1 -1)">
  <path id="Combined_Shape-2" fill="#A6B3FF" fill-rule="nonzero" data-name="Combined Shape" d="M13.707,15.121,11.19,12.6A7.007,7.007,0,1,1,12.6,11.19l2.516,2.517a1,1,0,1,1-1.414,1.414ZM2.154,7A4.846,4.846,0,1,0,7,2.154,4.852,4.852,0,0,0,2.154,7Z" transform="translate(1 1)"/>
  <g id="Mask_Group_1" data-name="Mask Group 1" clip-path="url(#clip-path)">
    <rect id="Color" width="18" height="18" fill="#a6b3ff"/>
  </g>
</g>
</svg>
