<svg width="20" height="20" viewBox="0 0 20 20" fill="none" xmlns="http://www.w3.org/2000/svg">
  <path fill-rule="evenodd" clip-rule="evenodd" d="M8.257 1.5a.75.75 0 0 0-.735.602l-.38 1.898a7.02 7.02 0 0 0-1.44.838L3.89 4.22a.75.75 0 0 0-.898.344L1.492 6.936a.75.75 0 0 0 .153.944l1.447 1.226a7.17 7.17 0 0 0 0 1.788L1.645 12.12a.75.75 0 0 0-.153.944l1.5 2.372a.75.75 0 0 0 .898.344l1.812-.618c.453.327.937.604 1.44.838l.38 1.898a.75.75 0 0 0 .735.602h3a.75.75 0 0 0 .735-.602l.38-1.898a7.02 7.02 0 0 0 1.44-.838l1.812.618a.75.75 0 0 0 .898-.344l1.5-2.372a.75.75 0 0 0-.153-.944l-1.447-1.226a7.17 7.17 0 0 0 0-1.788l1.447-1.226a.75.75 0 0 0 .153-.944l-1.5-2.372a.75.75 0 0 0-.898-.344l-1.812.618a7.02 7.02 0 0 0-1.44-.838l-.38-1.898A.75.75 0 0 0 11.257 1.5h-3zm1.5 5.75a2.75 2.75 0 1 0 0 5.5 2.75 2.75 0 0 0 0-5.5z" fill="#A8CADC"/>
</svg>
