<svg width="22" height="22" viewBox="0 0 22 22" fill="none" xmlns="http://www.w3.org/2000/svg">
  <!-- Subscription receipt/document with zigzag bottom -->
  <path fill-rule="evenodd" clip-rule="evenodd" d="M4 1C3.44772 1 3 1.44772 3 2V19.5C3 19.776 3.14458 20.0312 3.38037 20.1727C3.61617 20.3142 3.90889 20.3216 4.15139 20.192L5.75 19.339L7.34861 20.192C7.5761 20.3133 7.84879 20.3133 8.07628 20.192L9.625 19.3646L11.1737 20.192C11.4012 20.3133 11.6739 20.3133 11.9014 20.192L13.5 19.339L15.0986 20.192C15.3261 20.3133 15.5988 20.3133 15.8263 20.192L17.375 19.3646L18.8486 20.192C19.0911 20.3216 19.3838 20.3142 19.6196 20.1727C19.8554 20.0312 20 19.776 20 19.5V2C20 1.44772 19.5523 1 19 1H4ZM6.5 6C6.22386 6 6 6.22386 6 6.5C6 6.77614 6.22386 7 6.5 7H16.5C16.7761 7 17 6.77614 17 6.5C17 6.22386 16.7761 6 16.5 6H6.5ZM6 9.5C6 9.22386 6.22386 9 6.5 9H16.5C16.7761 9 17 9.22386 17 9.5C17 9.77614 16.7761 10 16.5 10H6.5C6.22386 10 6 9.77614 6 9.5ZM6.5 12C6.22386 12 6 12.2239 6 12.5C6 12.7761 6.22386 13 6.5 13H16.5C16.7761 13 17 12.7761 17 12.5C17 12.2239 16.7761 12 16.5 12H6.5ZM6 15.5C6 15.2239 6.22386 15 6.5 15H12.5C12.7761 15 13 15.2239 13 15.5C13 15.7761 12.7761 16 12.5 16H6.5C6.22386 16 6 15.7761 6 15.5Z" fill="#A8CADC"/>
</svg>
