<?xml version="1.0" encoding="UTF-8"?>
<svg width="20px" height="20px" viewBox="0 0 20 20" version="1.1" xmlns="http://www.w3.org/2000/svg" xmlns:xlink="http://www.w3.org/1999/xlink">
    <title>6885B80E-ED4B-400C-A331-7BC954B33B8B</title>
    <defs>
        <linearGradient x1="50%" y1="0%" x2="50%" y2="100%" id="linearGradient-1">
            <stop stop-color="#53C08A" offset="0%"></stop>
            <stop stop-color="#36B475" offset="100%"></stop>
        </linearGradient>
        <circle id="path-2" cx="9" cy="9" r="9"></circle>
        <filter x="-11.1%" y="-5.6%" width="122.2%" height="122.2%" filterUnits="objectBoundingBox" id="filter-3">
            <feOffset dx="0" dy="1" in="SourceAlpha" result="shadowOffsetOuter1"></feOffset>
            <feGaussianBlur stdDeviation="0.5" in="shadowOffsetOuter1" result="shadowBlurOuter1"></feGaussianBlur>
            <feColorMatrix values="0 0 0 0 0   0 0 0 0 0   0 0 0 0 0  0 0 0 0.1 0" type="matrix" in="shadowBlurOuter1"></feColorMatrix>
        </filter>
    </defs>
    <g id="Home" stroke="none" stroke-width="1" fill="none" fill-rule="evenodd">
        <g id="new-integration-started" transform="translate(-1356.000000, -386.000000)">
            <g id="Icon/Alerts/Success" transform="translate(1357.000000, 386.000000)">
                <g id="Oval" fill-rule="nonzero">
                    <use fill="black" fill-opacity="1" filter="url(#filter-3)" xlink:href="#path-2"></use>
                    <use fill="url(#linearGradient-1)" xlink:href="#path-2"></use>
                </g>
                <path d="M5.5,10.7928932 C4.94771525,10.7928932 4.5,10.345178 4.5,9.79289322 L4.5,6.20710678 C4.5,5.65482203 4.94771525,5.20710678 5.5,5.20710678 C6.05228475,5.20710678 6.5,5.65482203 6.5,6.20710678 L6.5,8.79210678 L12.5,8.79289322 C13.0522847,8.79289322 13.5,9.24060847 13.5,9.79289322 C13.5,10.345178 13.0522847,10.7928932 12.5,10.7928932 L5.5,10.7928932 Z" id="Combined-Shape" fill="#FFFFFF" transform="translate(9.000000, 8.000000) rotate(-45.000000) translate(-9.000000, -8.000000) "></path>
            </g>
        </g>
    </g>
</svg>
