<svg width="185" height="141" viewBox="0 0 185 141" fill="none" xmlns="http://www.w3.org/2000/svg">
<path d="M47.7778 119.333L74.6111 92.5L47.7778 65.6667M101.444 119.333H137.222M54.9333 173H130.067C145.095 173 152.608 173 158.349 170.075C163.398 167.503 167.503 163.398 170.075 158.349C173 152.608 173 145.095 173 130.067V54.9333C173 39.9052 173 32.3912 170.075 26.6513C167.503 21.6022 163.398 17.4973 158.349 14.9247C152.608 12 145.095 12 130.067 12H54.9333C39.9052 12 32.3912 12 26.6513 14.9247C21.6022 17.4973 17.4973 21.6022 14.9247 26.6513C12 32.3912 12 39.9052 12 54.9333V130.067C12 145.095 12 152.608 14.9247 158.349C17.4973 163.398 21.6022 167.503 26.6513 170.075C32.3912 173 39.9052 173 54.9333 173Z" stroke="#C8CBE8" stroke-opacity="0.15" stroke-width="24" stroke-linecap="round" stroke-linejoin="round"/>
</svg>
