<svg width="14" height="14" viewBox="0 0 14 14" fill="none" xmlns="http://www.w3.org/2000/svg">
<path fill-rule="evenodd" clip-rule="evenodd" d="M8.45306 0H5.54694H3.51264C3.27189 0 3.07673 0.195875 3.07673 0.4375C3.07673 0.679125 3.27189 0.875 3.51264 0.875H4.66667V4.92295L0.942713 9.10636C-1.07112 11.1275 0.355156 14 3.20315 14H6.70939H7.29061H10.7968C13.6448 14 15.0711 11.1275 13.0573 9.10636L9.33333 4.92295V0.875H10.4874C10.7281 0.875 10.9233 0.679125 10.9233 0.4375C10.9233 0.195875 10.7281 0 10.4874 0H8.45306ZM8.46149 5.10417V0.875H5.53851V5.10417V5.28539L5.41083 5.41353L2.38545 8.89583H11.6145L8.58917 5.41353L8.46149 5.28539V5.10417ZM12.4853 9.77083H1.51473C0.116067 11.2465 1.15322 13.125 3.20315 13.125H6.70939H7.29061H10.7968C12.8468 13.125 13.8839 11.2465 12.4853 9.77083Z" fill="white"/>
</svg>
