<svg width="207" height="49" viewBox="0 0 207 49" fill="none" xmlns="http://www.w3.org/2000/svg">
<circle cx="9.3578" cy="36.8687" r="9.3578" fill="#5DC7B1"/>
<rect x="11.627" y="8.4967" width="18.7156" height="44.9174" rx="9.3578" transform="rotate(-27 11.627 8.4967)" fill="#5952AD"/>
<path d="M66.4056 30.2593V19.0593H71.4936C72.7096 19.0593 73.7816 19.2939 74.7096 19.7633C75.6376 20.2219 76.363 20.8673 76.8856 21.6993C77.4083 22.5313 77.6696 23.5179 77.6696 24.6593C77.6696 25.7899 77.4083 26.7766 76.8856 27.6193C76.363 28.4513 75.6376 29.1019 74.7096 29.5713C73.7816 30.0299 72.7096 30.2593 71.4936 30.2593H66.4056ZM68.9976 28.1313H71.3656C72.1123 28.1313 72.7576 27.9926 73.3016 27.7153C73.8563 27.4273 74.283 27.0219 74.5816 26.4993C74.891 25.9766 75.0456 25.3633 75.0456 24.6593C75.0456 23.9446 74.891 23.3313 74.5816 22.8193C74.283 22.2966 73.8563 21.8966 73.3016 21.6193C72.7576 21.3313 72.1123 21.1873 71.3656 21.1873H68.9976V28.1313ZM83.7204 30.3873C82.7391 30.3873 81.8751 30.1953 81.1284 29.8113C80.3924 29.4273 79.8217 28.9046 79.4164 28.2433C79.0111 27.5713 78.8084 26.8086 78.8084 25.9553C78.8084 25.0913 79.0057 24.3286 79.4004 23.6673C79.8057 22.9953 80.3551 22.4726 81.0484 22.0993C81.7417 21.7153 82.5257 21.5233 83.4004 21.5233C84.2431 21.5233 85.0004 21.7046 85.6724 22.0673C86.3551 22.4193 86.8937 22.9313 87.2884 23.6033C87.6831 24.2646 87.8804 25.0593 87.8804 25.9873C87.8804 26.0833 87.8751 26.1953 87.8644 26.3233C87.8537 26.4406 87.8431 26.5526 87.8324 26.6593H80.8404V25.2033H86.5204L85.5604 25.6353C85.5604 25.1873 85.4697 24.7979 85.2884 24.4673C85.1071 24.1366 84.8564 23.8806 84.5364 23.6993C84.2164 23.5073 83.8431 23.4113 83.4164 23.4113C82.9897 23.4113 82.6111 23.5073 82.2804 23.6993C81.9604 23.8806 81.7097 24.1419 81.5284 24.4833C81.3471 24.8139 81.2564 25.2086 81.2564 25.6673V26.0513C81.2564 26.5206 81.3577 26.9366 81.5604 27.2993C81.7737 27.6513 82.0671 27.9233 82.4404 28.1153C82.8244 28.2966 83.2724 28.3873 83.7844 28.3873C84.2431 28.3873 84.6431 28.3179 84.9844 28.1793C85.3364 28.0406 85.6564 27.8326 85.9444 27.5553L87.2724 28.9953C86.8777 29.4433 86.3817 29.7899 85.7844 30.0353C85.1871 30.2699 84.4991 30.3873 83.7204 30.3873ZM91.7219 30.2593L88.1059 21.6513H90.6819L93.6899 29.0593H92.4099L95.5299 21.6513H97.9299L94.2979 30.2593H91.7219ZM102.986 30.3873C102.005 30.3873 101.141 30.1953 100.394 29.8113C99.658 29.4273 99.0873 28.9046 98.682 28.2433C98.2767 27.5713 98.074 26.8086 98.074 25.9553C98.074 25.0913 98.2713 24.3286 98.666 23.6673C99.0713 22.9953 99.6207 22.4726 100.314 22.0993C101.007 21.7153 101.791 21.5233 102.666 21.5233C103.509 21.5233 104.266 21.7046 104.938 22.0673C105.621 22.4193 106.159 22.9313 106.554 23.6033C106.949 24.2646 107.146 25.0593 107.146 25.9873C107.146 26.0833 107.141 26.1953 107.13 26.3233C107.119 26.4406 107.109 26.5526 107.098 26.6593H100.106V25.2033H105.786L104.826 25.6353C104.826 25.1873 104.735 24.7979 104.554 24.4673C104.373 24.1366 104.122 23.8806 103.802 23.6993C103.482 23.5073 103.109 23.4113 102.682 23.4113C102.255 23.4113 101.877 23.5073 101.546 23.6993C101.226 23.8806 100.975 24.1419 100.794 24.4833C100.613 24.8139 100.522 25.2086 100.522 25.6673V26.0513C100.522 26.5206 100.623 26.9366 100.826 27.2993C101.039 27.6513 101.333 27.9233 101.706 28.1153C102.09 28.2966 102.538 28.3873 103.05 28.3873C103.509 28.3873 103.909 28.3179 104.25 28.1793C104.602 28.0406 104.922 27.8326 105.21 27.5553L106.538 28.9953C106.143 29.4433 105.647 29.7899 105.05 30.0353C104.453 30.2699 103.765 30.3873 102.986 30.3873ZM108.808 30.2593V18.3873H111.304V30.2593H108.808ZM117.716 30.3873C116.799 30.3873 115.983 30.1953 115.268 29.8113C114.564 29.4273 114.004 28.9046 113.588 28.2433C113.183 27.5713 112.98 26.8086 112.98 25.9553C112.98 25.0913 113.183 24.3286 113.588 23.6673C114.004 22.9953 114.564 22.4726 115.268 22.0993C115.983 21.7153 116.799 21.5233 117.716 21.5233C118.623 21.5233 119.434 21.7153 120.148 22.0993C120.863 22.4726 121.423 22.9899 121.828 23.6513C122.234 24.3126 122.436 25.0806 122.436 25.9553C122.436 26.8086 122.234 27.5713 121.828 28.2433C121.423 28.9046 120.863 29.4273 120.148 29.8113C119.434 30.1953 118.623 30.3873 117.716 30.3873ZM117.716 28.3393C118.132 28.3393 118.506 28.2433 118.836 28.0513C119.167 27.8593 119.428 27.5873 119.62 27.2353C119.812 26.8726 119.908 26.4459 119.908 25.9553C119.908 25.4539 119.812 25.0273 119.62 24.6753C119.428 24.3233 119.167 24.0513 118.836 23.8593C118.506 23.6673 118.132 23.5713 117.716 23.5713C117.3 23.5713 116.927 23.6673 116.596 23.8593C116.266 24.0513 115.999 24.3233 115.796 24.6753C115.604 25.0273 115.508 25.4539 115.508 25.9553C115.508 26.4459 115.604 26.8726 115.796 27.2353C115.999 27.5873 116.266 27.8593 116.596 28.0513C116.927 28.2433 117.3 28.3393 117.716 28.3393ZM129.193 30.3873C128.467 30.3873 127.833 30.2273 127.289 29.9073C126.745 29.5873 126.318 29.1019 126.009 28.4513C125.71 27.7899 125.561 26.9579 125.561 25.9553C125.561 24.9419 125.705 24.1099 125.993 23.4593C126.281 22.8086 126.697 22.3233 127.241 22.0033C127.785 21.6833 128.435 21.5233 129.193 21.5233C130.003 21.5233 130.729 21.7099 131.369 22.0833C132.019 22.4459 132.531 22.9579 132.905 23.6193C133.289 24.2806 133.481 25.0593 133.481 25.9553C133.481 26.8619 133.289 27.6459 132.905 28.3073C132.531 28.9686 132.019 29.4806 131.369 29.8433C130.729 30.2059 130.003 30.3873 129.193 30.3873ZM124.105 33.3633V21.6513H126.489V23.4113L126.441 25.9713L126.601 28.5153V33.3633H124.105ZM128.761 28.3393C129.177 28.3393 129.545 28.2433 129.865 28.0513C130.195 27.8593 130.457 27.5873 130.649 27.2353C130.851 26.8726 130.953 26.4459 130.953 25.9553C130.953 25.4539 130.851 25.0273 130.649 24.6753C130.457 24.3233 130.195 24.0513 129.865 23.8593C129.545 23.6673 129.177 23.5713 128.761 23.5713C128.345 23.5713 127.971 23.6673 127.641 23.8593C127.31 24.0513 127.049 24.3233 126.857 24.6753C126.665 25.0273 126.569 25.4539 126.569 25.9553C126.569 26.4459 126.665 26.8726 126.857 27.2353C127.049 27.5873 127.31 27.8593 127.641 28.0513C127.971 28.2433 128.345 28.3393 128.761 28.3393ZM139.424 30.3873C138.442 30.3873 137.578 30.1953 136.832 29.8113C136.096 29.4273 135.525 28.9046 135.12 28.2433C134.714 27.5713 134.512 26.8086 134.512 25.9553C134.512 25.0913 134.709 24.3286 135.104 23.6673C135.509 22.9953 136.058 22.4726 136.752 22.0993C137.445 21.7153 138.229 21.5233 139.104 21.5233C139.946 21.5233 140.704 21.7046 141.376 22.0673C142.058 22.4193 142.597 22.9313 142.992 23.6033C143.386 24.2646 143.584 25.0593 143.584 25.9873C143.584 26.0833 143.578 26.1953 143.568 26.3233C143.557 26.4406 143.546 26.5526 143.536 26.6593H136.544V25.2033H142.224L141.264 25.6353C141.264 25.1873 141.173 24.7979 140.992 24.4673C140.81 24.1366 140.56 23.8806 140.24 23.6993C139.92 23.5073 139.546 23.4113 139.12 23.4113C138.693 23.4113 138.314 23.5073 137.984 23.6993C137.664 23.8806 137.413 24.1419 137.232 24.4833C137.05 24.8139 136.96 25.2086 136.96 25.6673V26.0513C136.96 26.5206 137.061 26.9366 137.264 27.2993C137.477 27.6513 137.77 27.9233 138.144 28.1153C138.528 28.2966 138.976 28.3873 139.488 28.3873C139.946 28.3873 140.346 28.3179 140.688 28.1793C141.04 28.0406 141.36 27.8326 141.648 27.5553L142.976 28.9953C142.581 29.4433 142.085 29.7899 141.488 30.0353C140.89 30.2699 140.202 30.3873 139.424 30.3873ZM145.245 30.2593V21.6513H147.629V24.0833L147.293 23.3793C147.549 22.7713 147.96 22.3126 148.525 22.0033C149.091 21.6833 149.779 21.5233 150.589 21.5233V23.8273C150.483 23.8166 150.387 23.8113 150.301 23.8113C150.216 23.8006 150.125 23.7953 150.029 23.7953C149.347 23.7953 148.792 23.9926 148.365 24.3873C147.949 24.7713 147.741 25.3739 147.741 26.1953V30.2593H145.245ZM156.843 30.2593V19.0593H161.691C162.694 19.0593 163.558 19.2246 164.283 19.5553C165.008 19.8753 165.568 20.3393 165.963 20.9473C166.358 21.5553 166.555 22.2806 166.555 23.1233C166.555 23.9553 166.358 24.6753 165.963 25.2833C165.568 25.8913 165.008 26.3606 164.283 26.6913C163.558 27.0113 162.694 27.1713 161.691 27.1713H158.283L159.435 26.0033V30.2593H156.843ZM159.435 26.2913L158.283 25.0593H161.547C162.347 25.0593 162.944 24.8886 163.339 24.5473C163.734 24.2059 163.931 23.7313 163.931 23.1233C163.931 22.5046 163.734 22.0246 163.339 21.6833C162.944 21.3419 162.347 21.1713 161.547 21.1713H158.283L159.435 19.9393V26.2913ZM172.31 30.3873C171.393 30.3873 170.577 30.1953 169.862 29.8113C169.158 29.4273 168.598 28.9046 168.182 28.2433C167.777 27.5713 167.574 26.8086 167.574 25.9553C167.574 25.0913 167.777 24.3286 168.182 23.6673C168.598 22.9953 169.158 22.4726 169.862 22.0993C170.577 21.7153 171.393 21.5233 172.31 21.5233C173.217 21.5233 174.027 21.7153 174.742 22.0993C175.457 22.4726 176.017 22.9899 176.422 23.6513C176.827 24.3126 177.03 25.0806 177.03 25.9553C177.03 26.8086 176.827 27.5713 176.422 28.2433C176.017 28.9046 175.457 29.4273 174.742 29.8113C174.027 30.1953 173.217 30.3873 172.31 30.3873ZM172.31 28.3393C172.726 28.3393 173.099 28.2433 173.43 28.0513C173.761 27.8593 174.022 27.5873 174.214 27.2353C174.406 26.8726 174.502 26.4459 174.502 25.9553C174.502 25.4539 174.406 25.0273 174.214 24.6753C174.022 24.3233 173.761 24.0513 173.43 23.8593C173.099 23.6673 172.726 23.5713 172.31 23.5713C171.894 23.5713 171.521 23.6673 171.19 23.8593C170.859 24.0513 170.593 24.3233 170.39 24.6753C170.198 25.0273 170.102 25.4539 170.102 25.9553C170.102 26.4459 170.198 26.8726 170.39 27.2353C170.593 27.5873 170.859 27.8593 171.19 28.0513C171.521 28.2433 171.894 28.3393 172.31 28.3393ZM178.698 30.2593V21.6513H181.082V24.0833L180.746 23.3793C181.002 22.7713 181.413 22.3126 181.978 22.0033C182.544 21.6833 183.232 21.5233 184.042 21.5233V23.8273C183.936 23.8166 183.84 23.8113 183.754 23.8113C183.669 23.8006 183.578 23.7953 183.482 23.7953C182.8 23.7953 182.245 23.9926 181.818 24.3873C181.402 24.7713 181.194 25.3739 181.194 26.1953V30.2593H178.698ZM189.343 30.3873C188.33 30.3873 187.541 30.1313 186.975 29.6193C186.41 29.0966 186.127 28.3233 186.127 27.2993V19.7473H188.623V27.2673C188.623 27.6299 188.719 27.9126 188.911 28.1153C189.103 28.3073 189.365 28.4033 189.695 28.4033C190.09 28.4033 190.426 28.2966 190.703 28.0833L191.375 29.8433C191.119 30.0246 190.81 30.1633 190.447 30.2593C190.095 30.3446 189.727 30.3873 189.343 30.3873ZM184.799 23.7633V21.8433H190.767V23.7633H184.799ZM198.057 30.2593V28.5793L197.897 28.2113V25.2033C197.897 24.6699 197.731 24.2539 197.401 23.9553C197.081 23.6566 196.585 23.5073 195.913 23.5073C195.454 23.5073 195.001 23.5819 194.553 23.7313C194.115 23.8699 193.742 24.0619 193.433 24.3073L192.537 22.5633C193.006 22.2326 193.571 21.9766 194.233 21.7953C194.894 21.6139 195.566 21.5233 196.249 21.5233C197.561 21.5233 198.579 21.8326 199.305 22.4513C200.03 23.0699 200.393 24.0353 200.393 25.3473V30.2593H198.057ZM195.433 30.3873C194.761 30.3873 194.185 30.2753 193.705 30.0513C193.225 29.8166 192.857 29.5019 192.601 29.1073C192.345 28.7126 192.217 28.2699 192.217 27.7793C192.217 27.2673 192.339 26.8193 192.585 26.4353C192.841 26.0513 193.241 25.7526 193.785 25.5393C194.329 25.3153 195.038 25.2033 195.913 25.2033H198.201V26.6593H196.185C195.598 26.6593 195.193 26.7553 194.969 26.9473C194.755 27.1393 194.649 27.3793 194.649 27.6673C194.649 27.9873 194.771 28.2433 195.017 28.4353C195.273 28.6166 195.619 28.7073 196.057 28.7073C196.473 28.7073 196.846 28.6113 197.177 28.4193C197.507 28.2166 197.747 27.9233 197.897 27.5393L198.281 28.6913C198.099 29.2459 197.769 29.6673 197.289 29.9553C196.809 30.2433 196.19 30.3873 195.433 30.3873ZM202.652 30.2593V18.3873H205.148V30.2593H202.652Z" fill="#1D2028"/>
</svg>
