<svg width="60" height="60" viewBox="0 0 60 60" fill="none" xmlns="http://www.w3.org/2000/svg">
<rect width="60" height="60" rx="30" fill="url(#paint0_linear_1977_6021)"/>
<path fill-rule="evenodd" clip-rule="evenodd" d="M29 31V19H28C27.706 19 27.4142 19.0098 27.125 19.029C20.3533 19.479 15 25.1143 15 32C15 39.1797 20.8203 45 28 45C34.8857 45 40.521 39.6467 40.971 32.875C40.9902 32.5858 41 32.2941 41 32V31H29ZM27 33V21.046L26.6864 21.0776C26.1533 21.1411 25.6319 21.2426 25.125 21.3795C20.4442 22.6436 17 26.9196 17 32C17 38.0751 21.9249 43 28 43C33.0804 43 37.3565 39.5558 38.6205 34.875C38.7574 34.3681 38.8589 33.8467 38.9224 33.3136L38.952 33H27ZM32.875 15.029C39.3575 15.4598 44.5402 20.6425 44.971 27.125C44.9902 27.4142 45 27.706 45 28V29H31V15H32C32.2941 15 32.5858 15.0098 32.875 15.029ZM42.952 27L42.9224 26.6864C42.8589 26.1533 42.7574 25.6319 42.6205 25.125C41.6039 21.3606 38.6394 18.3961 34.875 17.3795C34.3681 17.2426 33.8467 17.1411 33.3136 17.0776L33 17.046V27H42.952Z" fill="white"/>
<defs>
<linearGradient id="paint0_linear_1977_6021" x1="30" y1="-5.51343e-07" x2="11.5" y2="60" gradientUnits="userSpaceOnUse">
<stop stop-color="#49A18E"/>
<stop offset="1" stop-color="#5DC7B1"/>
</linearGradient>
</defs>
</svg>
