<svg width="322" height="354" viewBox="0 0 322 354" fill="none" xmlns="http://www.w3.org/2000/svg">
<path d="M1.33333 213.664V212.331H2.66667C3.036 212.331 3.33333 212.032 3.33333 211.664C3.33333 211.296 3.036 210.997 2.66667 210.997H0.666667C0.492 210.997 0.319996 211.068 0.195996 211.192C0.0719961 211.316 0 211.488 0 211.664V213.664C0 214.032 0.298667 214.331 0.666667 214.331C1.036 214.331 1.33333 214.032 1.33333 213.664Z" fill="#1D2A30"/>
<path d="M6.47087 212.331H10.2762C10.6442 212.331 10.9429 212.032 10.9429 211.664C10.9429 211.296 10.6442 210.997 10.2762 210.997H6.47087C6.10287 210.997 5.8042 211.296 5.8042 211.664C5.8042 212.032 6.10287 212.331 6.47087 212.331ZM14.0802 212.331H17.8842C18.2522 212.331 18.5509 212.032 18.5509 211.664C18.5509 211.296 18.2522 210.997 17.8842 210.997H14.0802C13.7109 210.997 13.4135 211.296 13.4135 211.664C13.4135 212.032 13.7109 212.331 14.0802 212.331ZM21.6882 212.331H25.4922C25.8602 212.331 26.1589 212.032 26.1589 211.664C26.1589 211.296 25.8602 210.997 25.4922 210.997H21.6882C21.3202 210.997 21.0215 211.296 21.0215 211.664C21.0215 212.032 21.3202 212.331 21.6882 212.331ZM29.2962 212.331H33.1002C33.4682 212.331 33.7669 212.032 33.7669 211.664C33.7669 211.296 33.4682 210.997 33.1002 210.997H29.2962C28.9282 210.997 28.6295 211.296 28.6295 211.664C28.6295 212.032 28.9282 212.331 29.2962 212.331ZM36.9042 212.331H40.7082C41.0762 212.331 41.3749 212.032 41.3749 211.664C41.3749 211.296 41.0762 210.997 40.7082 210.997H36.9042C36.5362 210.997 36.2375 211.296 36.2375 211.664C36.2375 212.032 36.5362 212.331 36.9042 212.331ZM44.5122 212.331H48.3162C48.6842 212.331 48.9829 212.032 48.9829 211.664C48.9829 211.296 48.6842 210.997 48.3162 210.997H44.5122C44.1442 210.997 43.8455 211.296 43.8455 211.664C43.8455 212.032 44.1442 212.331 44.5122 212.331ZM52.1202 212.331H55.9255C56.2935 212.331 56.5922 212.032 56.5922 211.664C56.5922 211.296 56.2935 210.997 55.9255 210.997H52.1202C51.7522 210.997 51.4535 211.296 51.4535 211.664C51.4535 212.032 51.7522 212.331 52.1202 212.331ZM59.7295 212.331H63.5335C63.9015 212.331 64.2002 212.032 64.2002 211.664C64.2002 211.296 63.9015 210.997 63.5335 210.997H59.7295C59.3602 210.997 59.0629 211.296 59.0629 211.664C59.0629 212.032 59.3602 212.331 59.7295 212.331ZM67.3375 212.331H71.1415C71.5095 212.331 71.8082 212.032 71.8082 211.664C71.8082 211.296 71.5095 210.997 71.1415 210.997H67.3375C66.9695 210.997 66.6709 211.296 66.6709 211.664C66.6709 212.032 66.9695 212.331 67.3375 212.331Z" fill="#1D2A30"/>
<path d="M74.9455 212.331H76.9455C77.1215 212.331 77.2921 212.259 77.4161 212.135C77.5415 212.011 77.6121 211.839 77.6121 211.664V209.664C77.6121 209.296 77.3135 208.997 76.9455 208.997C76.5775 208.997 76.2788 209.296 76.2788 209.664V210.997H74.9455C74.5775 210.997 74.2788 211.296 74.2788 211.664C74.2788 212.032 74.5775 212.331 74.9455 212.331Z" fill="#1D2A30"/>
<path d="M77.6121 205.693V201.723C77.6121 201.353 77.3135 201.056 76.9455 201.056C76.5775 201.056 76.2788 201.353 76.2788 201.723V205.693C76.2788 206.061 76.5775 206.36 76.9455 206.36C77.3135 206.36 77.6121 206.061 77.6121 205.693ZM77.6121 197.752V193.78C77.6121 193.412 77.3135 193.113 76.9455 193.113C76.5775 193.113 76.2788 193.412 76.2788 193.78V197.752C76.2788 198.12 76.5775 198.419 76.9455 198.419C77.3135 198.419 77.6121 198.12 77.6121 197.752ZM77.6121 189.809V185.839C77.6121 185.471 77.3135 185.172 76.9455 185.172C76.5775 185.172 76.2788 185.471 76.2788 185.839V189.809C76.2788 190.177 76.5775 190.476 76.9455 190.476C77.3135 190.476 77.6121 190.177 77.6121 189.809ZM77.6121 181.868V177.897C77.6121 177.529 77.3135 177.231 76.9455 177.231C76.5775 177.231 76.2788 177.529 76.2788 177.897V181.868C76.2788 182.236 76.5775 182.535 76.9455 182.535C77.3135 182.535 77.6121 182.236 77.6121 181.868ZM77.6121 173.927V169.956C77.6121 169.588 77.3135 169.289 76.9455 169.289C76.5775 169.289 76.2788 169.588 76.2788 169.956V173.927C76.2788 174.295 76.5775 174.593 76.9455 174.593C77.3135 174.593 77.6121 174.295 77.6121 173.927ZM77.6121 165.985V162.015C77.6121 161.647 77.3135 161.348 76.9455 161.348C76.5775 161.348 76.2788 161.647 76.2788 162.015V165.985C76.2788 166.353 76.5775 166.652 76.9455 166.652C77.3135 166.652 77.6121 166.353 77.6121 165.985Z" fill="#1D2A30"/>
<path d="M77.6121 158.044V156.044C77.6121 155.675 77.3135 155.377 76.9455 155.377C76.5775 155.377 76.2788 155.675 76.2788 156.044V158.044C76.2788 158.412 76.5775 158.711 76.9455 158.711C77.3135 158.711 77.6121 158.412 77.6121 158.044Z" fill="#1D2A30"/>
<path d="M83.5933 157.99L76.9454 146.475L70.2974 157.99H83.5933Z" fill="#1D2A30"/>
<path d="M321.759 213.664V211.664C321.759 211.488 321.687 211.316 321.563 211.192C321.439 211.068 321.267 210.997 321.092 210.997H319.092C318.723 210.997 318.425 211.296 318.425 211.664C318.425 212.032 318.723 212.331 319.092 212.331H320.425V213.664C320.425 214.032 320.723 214.331 321.092 214.331C321.46 214.331 321.759 214.032 321.759 213.664Z" fill="#1D2A30"/>
<path d="M315.212 210.997H311.331C310.963 210.997 310.664 211.296 310.664 211.664C310.664 212.032 310.963 212.331 311.331 212.331H315.212C315.58 212.331 315.879 212.032 315.879 211.664C315.879 211.296 315.58 210.997 315.212 210.997ZM307.451 210.997H303.571C303.203 210.997 302.904 211.296 302.904 211.664C302.904 212.032 303.203 212.331 303.571 212.331H307.451C307.82 212.331 308.117 212.032 308.117 211.664C308.117 211.296 307.82 210.997 307.451 210.997ZM299.691 210.997H295.811C295.443 210.997 295.144 211.296 295.144 211.664C295.144 212.032 295.443 212.331 295.811 212.331H299.691C300.059 212.331 300.357 212.032 300.357 211.664C300.357 211.296 300.059 210.997 299.691 210.997ZM291.931 210.997H288.051C287.683 210.997 287.384 211.296 287.384 211.664C287.384 212.032 287.683 212.331 288.051 212.331H291.931C292.299 212.331 292.597 212.032 292.597 211.664C292.597 211.296 292.299 210.997 291.931 210.997ZM284.171 210.997H280.291C279.923 210.997 279.624 211.296 279.624 211.664C279.624 212.032 279.923 212.331 280.291 212.331H284.171C284.539 212.331 284.837 212.032 284.837 211.664C284.837 211.296 284.539 210.997 284.171 210.997ZM276.411 210.997H272.531C272.161 210.997 271.864 211.296 271.864 211.664C271.864 212.032 272.161 212.331 272.531 212.331H276.411C276.779 212.331 277.077 212.032 277.077 211.664C277.077 211.296 276.779 210.997 276.411 210.997ZM268.651 210.997H264.769C264.401 210.997 264.103 211.296 264.103 211.664C264.103 212.032 264.401 212.331 264.769 212.331H268.651C269.019 212.331 269.317 212.032 269.317 211.664C269.317 211.296 269.019 210.997 268.651 210.997ZM260.889 210.997H257.009C256.641 210.997 256.343 211.296 256.343 211.664C256.343 212.032 256.641 212.331 257.009 212.331H260.889C261.259 212.331 261.556 212.032 261.556 211.664C261.556 211.296 261.259 210.997 260.889 210.997ZM253.129 210.997H249.249C248.881 210.997 248.583 211.296 248.583 211.664C248.583 212.032 248.881 212.331 249.249 212.331H253.129C253.497 212.331 253.796 212.032 253.796 211.664C253.796 211.296 253.497 210.997 253.129 210.997ZM245.369 210.997H241.489C241.121 210.997 240.823 211.296 240.823 211.664C240.823 212.032 241.121 212.331 241.489 212.331H245.369C245.737 212.331 246.036 212.032 246.036 211.664C246.036 211.296 245.737 210.997 245.369 210.997Z" fill="#1D2A30"/>
<path d="M320.912 301H317.031C316.663 301 316.364 301.299 316.364 301.667C316.364 302.035 316.663 302.333 317.031 302.333H320.912C321.28 302.333 321.579 302.035 321.579 301.667C321.579 301.299 321.28 301 320.912 301ZM313.151 301H309.271C308.903 301 308.604 301.299 308.604 301.667C308.604 302.035 308.903 302.333 309.271 302.333H313.151C313.52 302.333 313.818 302.035 313.818 301.667C313.818 301.299 313.52 301 313.151 301ZM305.391 301H301.511C301.143 301 300.844 301.299 300.844 301.667C300.844 302.035 301.143 302.333 301.511 302.333H305.391C305.759 302.333 306.058 302.035 306.058 301.667C306.058 301.299 305.759 301 305.391 301ZM297.631 301H293.751C293.383 301 293.084 301.299 293.084 301.667C293.084 302.035 293.383 302.333 293.751 302.333H297.631C297.999 302.333 298.298 302.035 298.298 301.667C298.298 301.299 297.999 301 297.631 301ZM289.871 301H285.991C285.623 301 285.324 301.299 285.324 301.667C285.324 302.035 285.623 302.333 285.991 302.333H289.871C290.239 302.333 290.538 302.035 290.538 301.667C290.538 301.299 290.239 301 289.871 301ZM282.111 301H278.231C277.862 301 277.564 301.299 277.564 301.667C277.564 302.035 277.862 302.333 278.231 302.333H282.111C282.479 302.333 282.778 302.035 282.778 301.667C282.778 301.299 282.479 301 282.111 301ZM274.351 301H270.47C270.102 301 269.803 301.299 269.803 301.667C269.803 302.035 270.102 302.333 270.47 302.333H274.351C274.719 302.333 275.018 302.035 275.018 301.667C275.018 301.299 274.719 301 274.351 301ZM266.59 301H262.71C262.342 301 262.043 301.299 262.043 301.667C262.043 302.035 262.342 302.333 262.71 302.333H266.59C266.959 302.333 267.256 302.035 267.256 301.667C267.256 301.299 266.959 301 266.59 301ZM258.83 301H254.95C254.582 301 254.283 301.299 254.283 301.667C254.283 302.035 254.582 302.333 254.95 302.333H258.83C259.198 302.333 259.496 302.035 259.496 301.667C259.496 301.299 259.198 301 258.83 301ZM251.07 301H247.19C246.822 301 246.523 301.299 246.523 301.667C246.523 302.035 246.822 302.333 247.19 302.333H251.07C251.438 302.333 251.736 302.035 251.736 301.667C251.736 301.299 251.438 301 251.07 301Z" fill="#1D2A30"/>
<path d="M74.6623 301H70.7809C70.4129 301 70.1143 301.299 70.1143 301.667C70.1143 302.035 70.4129 302.333 70.7809 302.333H74.6623C75.0303 302.333 75.3289 302.035 75.3289 301.667C75.3289 301.299 75.0303 301 74.6623 301ZM66.9009 301H63.0209C62.6529 301 62.3543 301.299 62.3543 301.667C62.3543 302.035 62.6529 302.333 63.0209 302.333H66.9009C67.2703 302.333 67.5676 302.035 67.5676 301.667C67.5676 301.299 67.2703 301 66.9009 301ZM59.1409 301H55.2609C54.8929 301 54.5943 301.299 54.5943 301.667C54.5943 302.035 54.8929 302.333 55.2609 302.333H59.1409C59.5089 302.333 59.8076 302.035 59.8076 301.667C59.8076 301.299 59.5089 301 59.1409 301ZM51.3809 301H47.5009C47.1329 301 46.8343 301.299 46.8343 301.667C46.8343 302.035 47.1329 302.333 47.5009 302.333H51.3809C51.7489 302.333 52.0476 302.035 52.0476 301.667C52.0476 301.299 51.7489 301 51.3809 301ZM43.6209 301H39.7409C39.3729 301 39.0743 301.299 39.0743 301.667C39.0743 302.035 39.3729 302.333 39.7409 302.333H43.6209C43.9889 302.333 44.2876 302.035 44.2876 301.667C44.2876 301.299 43.9889 301 43.6209 301ZM35.8609 301H31.9809C31.6116 301 31.3143 301.299 31.3143 301.667C31.3143 302.035 31.6116 302.333 31.9809 302.333H35.8609C36.2289 302.333 36.5276 302.035 36.5276 301.667C36.5276 301.299 36.2289 301 35.8609 301ZM28.1009 301H24.2196C23.8516 301 23.5529 301.299 23.5529 301.667C23.5529 302.035 23.8516 302.333 24.2196 302.333H28.1009C28.4689 302.333 28.7676 302.035 28.7676 301.667C28.7676 301.299 28.4689 301 28.1009 301ZM20.3396 301H16.4596C16.0916 301 15.7929 301.299 15.7929 301.667C15.7929 302.035 16.0916 302.333 16.4596 302.333H20.3396C20.7089 302.333 21.0063 302.035 21.0063 301.667C21.0063 301.299 20.7089 301 20.3396 301ZM12.5796 301H8.69961C8.33161 301 8.03294 301.299 8.03294 301.667C8.03294 302.035 8.33161 302.333 8.69961 302.333H12.5796C12.9476 302.333 13.2463 302.035 13.2463 301.667C13.2463 301.299 12.9476 301 12.5796 301ZM4.8196 301H0.939616C0.571616 301 0.272949 301.299 0.272949 301.667C0.272949 302.035 0.571616 302.333 0.939616 302.333H4.8196C5.1876 302.333 5.48626 302.035 5.48626 301.667C5.48626 301.299 5.1876 301 4.8196 301Z" fill="#1D2A30"/>
<path d="M167.662 301H163.781C163.413 301 163.114 301.299 163.114 301.667C163.114 302.035 163.413 302.333 163.781 302.333H167.662C168.03 302.333 168.329 302.035 168.329 301.667C168.329 301.299 168.03 301 167.662 301ZM159.901 301H156.021C155.653 301 155.354 301.299 155.354 301.667C155.354 302.035 155.653 302.333 156.021 302.333H159.901C160.27 302.333 160.568 302.035 160.568 301.667C160.568 301.299 160.27 301 159.901 301ZM152.141 301H148.261C147.893 301 147.594 301.299 147.594 301.667C147.594 302.035 147.893 302.333 148.261 302.333H152.141C152.509 302.333 152.808 302.035 152.808 301.667C152.808 301.299 152.509 301 152.141 301ZM144.381 301H140.501C140.133 301 139.834 301.299 139.834 301.667C139.834 302.035 140.133 302.333 140.501 302.333H144.381C144.749 302.333 145.048 302.035 145.048 301.667C145.048 301.299 144.749 301 144.381 301ZM136.621 301H132.741C132.373 301 132.074 301.299 132.074 301.667C132.074 302.035 132.373 302.333 132.741 302.333H136.621C136.989 302.333 137.288 302.035 137.288 301.667C137.288 301.299 136.989 301 136.621 301ZM128.861 301H124.981C124.612 301 124.314 301.299 124.314 301.667C124.314 302.035 124.612 302.333 124.981 302.333H128.861C129.229 302.333 129.528 302.035 129.528 301.667C129.528 301.299 129.229 301 128.861 301ZM121.101 301H117.22C116.852 301 116.553 301.299 116.553 301.667C116.553 302.035 116.852 302.333 117.22 302.333H121.101C121.469 302.333 121.768 302.035 121.768 301.667C121.768 301.299 121.469 301 121.101 301ZM113.34 301H109.46C109.092 301 108.793 301.299 108.793 301.667C108.793 302.035 109.092 302.333 109.46 302.333H113.34C113.709 302.333 114.006 302.035 114.006 301.667C114.006 301.299 113.709 301 113.34 301ZM105.58 301H101.7C101.332 301 101.033 301.299 101.033 301.667C101.033 302.035 101.332 302.333 101.7 302.333H105.58C105.948 302.333 106.246 302.035 106.246 301.667C106.246 301.299 105.948 301 105.58 301ZM97.8196 301H93.9396C93.5716 301 93.2729 301.299 93.2729 301.667C93.2729 302.035 93.5716 302.333 93.9396 302.333H97.8196C98.1876 302.333 98.4863 302.035 98.4863 301.667C98.4863 301.299 98.1876 301 97.8196 301Z" fill="#1D2A30"/>
<path d="M255.662 301H251.781C251.413 301 251.114 301.299 251.114 301.667C251.114 302.035 251.413 302.333 251.781 302.333H255.662C256.03 302.333 256.329 302.035 256.329 301.667C256.329 301.299 256.03 301 255.662 301ZM247.901 301H244.021C243.653 301 243.354 301.299 243.354 301.667C243.354 302.035 243.653 302.333 244.021 302.333H247.901C248.27 302.333 248.568 302.035 248.568 301.667C248.568 301.299 248.27 301 247.901 301ZM240.141 301H236.261C235.893 301 235.594 301.299 235.594 301.667C235.594 302.035 235.893 302.333 236.261 302.333H240.141C240.509 302.333 240.808 302.035 240.808 301.667C240.808 301.299 240.509 301 240.141 301ZM232.381 301H228.501C228.133 301 227.834 301.299 227.834 301.667C227.834 302.035 228.133 302.333 228.501 302.333H232.381C232.749 302.333 233.048 302.035 233.048 301.667C233.048 301.299 232.749 301 232.381 301ZM224.621 301H220.741C220.373 301 220.074 301.299 220.074 301.667C220.074 302.035 220.373 302.333 220.741 302.333H224.621C224.989 302.333 225.288 302.035 225.288 301.667C225.288 301.299 224.989 301 224.621 301ZM216.861 301H212.981C212.612 301 212.314 301.299 212.314 301.667C212.314 302.035 212.612 302.333 212.981 302.333H216.861C217.229 302.333 217.528 302.035 217.528 301.667C217.528 301.299 217.229 301 216.861 301ZM209.101 301H205.22C204.852 301 204.553 301.299 204.553 301.667C204.553 302.035 204.852 302.333 205.22 302.333H209.101C209.469 302.333 209.768 302.035 209.768 301.667C209.768 301.299 209.469 301 209.101 301ZM201.34 301H197.46C197.092 301 196.793 301.299 196.793 301.667C196.793 302.035 197.092 302.333 197.46 302.333H201.34C201.709 302.333 202.006 302.035 202.006 301.667C202.006 301.299 201.709 301 201.34 301ZM193.58 301H189.7C189.332 301 189.033 301.299 189.033 301.667C189.033 302.035 189.332 302.333 189.7 302.333H193.58C193.948 302.333 194.246 302.035 194.246 301.667C194.246 301.299 193.948 301 193.58 301ZM185.82 301H181.94C181.572 301 181.273 301.299 181.273 301.667C181.273 302.035 181.572 302.333 181.94 302.333H185.82C186.188 302.333 186.486 302.035 186.486 301.667C186.486 301.299 186.188 301 185.82 301Z" fill="#1D2A30"/>
<path d="M237.61 210.997H236.276V209.664C236.276 209.296 235.978 208.997 235.61 208.997C235.242 208.997 234.943 209.296 234.943 209.664V211.664C234.943 211.839 235.014 212.011 235.138 212.135C235.262 212.259 235.434 212.331 235.61 212.331H237.61C237.978 212.331 238.276 212.032 238.276 211.664C238.276 211.296 237.978 210.997 237.61 210.997Z" fill="#1D2A30"/>
<path d="M236.276 205.747V201.828C236.276 201.46 235.978 201.161 235.61 201.161C235.242 201.161 234.943 201.46 234.943 201.828V205.747C234.943 206.115 235.242 206.413 235.61 206.413C235.978 206.413 236.276 206.115 236.276 205.747ZM236.276 197.911V193.993C236.276 193.625 235.978 193.327 235.61 193.327C235.242 193.327 234.943 193.625 234.943 193.993V197.911C234.943 198.279 235.242 198.577 235.61 198.577C235.978 198.577 236.276 198.279 236.276 197.911ZM236.276 190.076V186.159C236.276 185.789 235.978 185.492 235.61 185.492C235.242 185.492 234.943 185.789 234.943 186.159V190.076C234.943 190.444 235.242 190.743 235.61 190.743C235.978 190.743 236.276 190.444 236.276 190.076ZM236.276 182.24V178.323C236.276 177.955 235.978 177.656 235.61 177.656C235.242 177.656 234.943 177.955 234.943 178.323V182.24C234.943 182.609 235.242 182.907 235.61 182.907C235.978 182.907 236.276 182.609 236.276 182.24ZM236.276 174.405V170.488C236.276 170.12 235.978 169.821 235.61 169.821C235.242 169.821 234.943 170.12 234.943 170.488V174.405C234.943 174.773 235.242 175.072 235.61 175.072C235.978 175.072 236.276 174.773 236.276 174.405ZM236.276 166.571V162.652C236.276 162.284 235.978 161.985 235.61 161.985C235.242 161.985 234.943 162.284 234.943 162.652V166.571C234.943 166.939 235.242 167.237 235.61 167.237C235.978 167.237 236.276 166.939 236.276 166.571Z" fill="#1D2A30"/>
<path d="M236.276 158.735V156.735C236.276 156.367 235.978 156.068 235.61 156.068C235.242 156.068 234.943 156.367 234.943 156.735V158.735C234.943 159.103 235.242 159.401 235.61 159.401C235.978 159.401 236.276 159.103 236.276 158.735Z" fill="#1D2A30"/>
<path d="M242.257 158.68L235.609 147.167L228.961 158.68H242.257Z" fill="#1D2A30"/>
<path d="M159.846 261.747V257.769C159.846 257.401 159.547 257.103 159.179 257.103C158.811 257.103 158.512 257.401 158.512 257.769V261.747C158.512 262.115 158.811 262.413 159.179 262.413C159.547 262.413 159.846 262.115 159.846 261.747ZM159.846 253.792V249.815C159.846 249.447 159.547 249.148 159.179 249.148C158.811 249.148 158.512 249.447 158.512 249.815V253.792C158.512 254.16 158.811 254.459 159.179 254.459C159.547 254.459 159.846 254.16 159.846 253.792ZM159.846 245.837V241.86C159.846 241.492 159.547 241.193 159.179 241.193C158.811 241.193 158.512 241.492 158.512 241.86V245.837C158.512 246.205 158.811 246.504 159.179 246.504C159.547 246.504 159.846 246.205 159.846 245.837ZM159.846 237.883V233.907C159.846 233.537 159.547 233.24 159.179 233.24C158.811 233.24 158.512 233.537 158.512 233.907V237.883C158.512 238.252 158.811 238.549 159.179 238.549C159.547 238.549 159.846 238.252 159.846 237.883ZM159.846 229.929V225.952C159.846 225.584 159.547 225.285 159.179 225.285C158.811 225.285 158.512 225.584 158.512 225.952V229.929C158.512 230.297 158.811 230.596 159.179 230.596C159.547 230.596 159.846 230.297 159.846 229.929ZM159.846 221.975V217.997C159.846 217.629 159.547 217.331 159.179 217.331C158.811 217.331 158.512 217.629 158.512 217.997V221.975C158.512 222.343 158.811 222.641 159.179 222.641C159.547 222.641 159.846 222.343 159.846 221.975ZM159.846 214.02V210.043C159.846 209.675 159.547 209.376 159.179 209.376C158.811 209.376 158.512 209.675 158.512 210.043V214.02C158.512 214.388 158.811 214.687 159.179 214.687C159.547 214.687 159.846 214.388 159.846 214.02ZM159.846 206.065V202.089C159.846 201.72 159.547 201.423 159.179 201.423C158.811 201.423 158.512 201.72 158.512 202.089V206.065C158.512 206.435 158.811 206.732 159.179 206.732C159.547 206.732 159.846 206.435 159.846 206.065ZM159.846 198.112V194.135C159.846 193.767 159.547 193.468 159.179 193.468C158.811 193.468 158.512 193.767 158.512 194.135V198.112C158.512 198.48 158.811 198.779 159.179 198.779C159.547 198.779 159.846 198.48 159.846 198.112ZM159.846 190.157V186.18C159.846 185.812 159.547 185.513 159.179 185.513C158.811 185.513 158.512 185.812 158.512 186.18V190.157C158.512 190.525 158.811 190.824 159.179 190.824C159.547 190.824 159.846 190.525 159.846 190.157ZM159.846 182.203V178.225C159.846 177.857 159.547 177.559 159.179 177.559C158.811 177.559 158.512 177.857 158.512 178.225V182.203C158.512 182.571 158.811 182.869 159.179 182.869C159.547 182.869 159.846 182.571 159.846 182.203ZM159.846 174.249V170.272C159.846 169.904 159.547 169.605 159.179 169.605C158.811 169.605 158.512 169.904 158.512 170.272V174.249C158.512 174.617 158.811 174.916 159.179 174.916C159.547 174.916 159.846 174.617 159.846 174.249ZM159.846 166.295V162.317C159.846 161.949 159.547 161.651 159.179 161.651C158.811 161.651 158.512 161.949 158.512 162.317V166.295C158.512 166.663 158.811 166.961 159.179 166.961C159.547 166.961 159.846 166.663 159.846 166.295Z" fill="#1D2A30"/>
<path d="M1.60628 301.187V297.209C1.60628 296.841 1.30762 296.543 0.939616 296.543C0.571616 296.543 0.272949 296.841 0.272949 297.209V301.187C0.272949 301.555 0.571616 301.853 0.939616 301.853C1.30762 301.853 1.60628 301.555 1.60628 301.187ZM1.60628 293.232V289.256C1.60628 288.887 1.30762 288.589 0.939616 288.589C0.571616 288.589 0.272949 288.887 0.272949 289.256V293.232C0.272949 293.601 0.571616 293.899 0.939616 293.899C1.30762 293.899 1.60628 293.601 1.60628 293.232ZM1.60628 285.279V281.301C1.60628 280.933 1.30762 280.635 0.939616 280.635C0.571616 280.635 0.272949 280.933 0.272949 281.301V285.279C0.272949 285.647 0.571616 285.945 0.939616 285.945C1.30762 285.945 1.60628 285.647 1.60628 285.279ZM1.60628 277.324V273.347C1.60628 272.979 1.30762 272.68 0.939616 272.68C0.571616 272.68 0.272949 272.979 0.272949 273.347V277.324C0.272949 277.692 0.571616 277.991 0.939616 277.991C1.30762 277.991 1.60628 277.692 1.60628 277.324ZM1.60628 269.369V265.392C1.60628 265.024 1.30762 264.725 0.939616 264.725C0.571616 264.725 0.272949 265.024 0.272949 265.392V269.369C0.272949 269.737 0.571616 270.036 0.939616 270.036C1.30762 270.036 1.60628 269.737 1.60628 269.369ZM1.60628 261.415V257.439C1.60628 257.069 1.30762 256.772 0.939616 256.772C0.571616 256.772 0.272949 257.069 0.272949 257.439V261.415C0.272949 261.784 0.571616 262.081 0.939616 262.081C1.30762 262.081 1.60628 261.784 1.60628 261.415ZM1.60628 253.461V249.484C1.60628 249.116 1.30762 248.817 0.939616 248.817C0.571616 248.817 0.272949 249.116 0.272949 249.484V253.461C0.272949 253.829 0.571616 254.128 0.939616 254.128C1.30762 254.128 1.60628 253.829 1.60628 253.461ZM1.60628 245.507V241.529C1.60628 241.161 1.30762 240.863 0.939616 240.863C0.571616 240.863 0.272949 241.161 0.272949 241.529V245.507C0.272949 245.875 0.571616 246.173 0.939616 246.173C1.30762 246.173 1.60628 245.875 1.60628 245.507ZM1.60628 237.552V233.575C1.60628 233.207 1.30762 232.908 0.939616 232.908C0.571616 232.908 0.272949 233.207 0.272949 233.575V237.552C0.272949 237.92 0.571616 238.219 0.939616 238.219C1.30762 238.219 1.60628 237.92 1.60628 237.552ZM1.60628 229.599V225.621C1.60628 225.253 1.30762 224.955 0.939616 224.955C0.571616 224.955 0.272949 225.253 0.272949 225.621V229.599C0.272949 229.967 0.571616 230.265 0.939616 230.265C1.30762 230.265 1.60628 229.967 1.60628 229.599ZM1.60628 221.644V217.667C1.60628 217.299 1.30762 217 0.939616 217C0.571616 217 0.272949 217.299 0.272949 217.667V221.644C0.272949 222.012 0.571616 222.311 0.939616 222.311C1.30762 222.311 1.60628 222.012 1.60628 221.644Z" fill="#1D2A30"/>
<path d="M321.606 301.636V297.209C321.606 296.841 321.308 296.543 320.94 296.543C320.572 296.543 320.273 296.841 320.273 297.209V301.636C320.273 302.004 320.572 302.302 320.94 302.302C321.308 302.302 321.606 302.004 321.606 301.636ZM321.606 293.232V289.256C321.606 288.887 321.308 288.589 320.94 288.589C320.572 288.589 320.273 288.887 320.273 289.256V293.232C320.273 293.601 320.572 293.898 320.94 293.898C321.308 293.898 321.606 293.601 321.606 293.232ZM321.606 285.278V281.301C321.606 280.933 321.308 280.634 320.94 280.634C320.572 280.634 320.273 280.933 320.273 281.301V285.278C320.273 285.646 320.572 285.945 320.94 285.945C321.308 285.945 321.606 285.646 321.606 285.278ZM321.606 277.324V273.347C321.606 272.979 321.308 272.68 320.94 272.68C320.572 272.68 320.273 272.979 320.273 273.347V277.324C320.273 277.692 320.572 277.991 320.94 277.991C321.308 277.991 321.606 277.692 321.606 277.324ZM321.606 269.369V265.392C321.606 265.024 321.308 264.725 320.94 264.725C320.572 264.725 320.273 265.024 320.273 265.392V269.369C320.273 269.737 320.572 270.036 320.94 270.036C321.308 270.036 321.606 269.737 321.606 269.369ZM321.606 261.415V257.439C321.606 257.069 321.308 256.772 320.94 256.772C320.572 256.772 320.273 257.069 320.273 257.439V261.415C320.273 261.784 320.572 262.081 320.94 262.081C321.308 262.081 321.606 261.784 321.606 261.415ZM321.606 253.461V249.484C321.606 249.116 321.308 248.817 320.94 248.817C320.572 248.817 320.273 249.116 320.273 249.484V253.461C320.273 253.829 320.572 254.128 320.94 254.128C321.308 254.128 321.606 253.829 321.606 253.461ZM321.606 245.506V241.529C321.606 241.161 321.308 240.862 320.94 240.862C320.572 240.862 320.273 241.161 320.273 241.529V245.506C320.273 245.874 320.572 246.173 320.94 246.173C321.308 246.173 321.606 245.874 321.606 245.506ZM321.606 237.552V233.574C321.606 233.206 321.308 232.908 320.94 232.908C320.572 232.908 320.273 233.206 320.273 233.574V237.552C320.273 237.92 320.572 238.218 320.94 238.218C321.308 238.218 321.606 237.92 321.606 237.552ZM321.606 229.598V225.621C321.606 225.253 321.308 224.955 320.94 224.955C320.572 224.955 320.273 225.253 320.273 225.621V229.598C320.273 229.966 320.572 230.265 320.94 230.265C321.308 230.265 321.606 229.966 321.606 229.598ZM321.606 221.644V217.666C321.606 217.298 321.308 217 320.94 217C320.572 217 320.273 217.298 320.273 217.666V221.644C320.273 222.012 320.572 222.31 320.94 222.31C321.308 222.31 321.606 222.012 321.606 221.644Z" fill="#1D2A30"/>
<path d="M159.846 158.34V156.34C159.846 155.972 159.547 155.674 159.179 155.674C158.811 155.674 158.512 155.972 158.512 156.34V158.34C158.512 158.708 158.811 159.007 159.179 159.007C159.547 159.007 159.846 158.708 159.846 158.34Z" fill="#1D2A30"/>
<path d="M165.828 158.285L159.179 146.772L152.531 158.285H165.828Z" fill="#1D2A30"/>
<path d="M292.307 111.061C292.307 92.8253 277.524 78.0413 259.288 78.0413C254.126 78.0413 249.242 79.228 244.89 81.34C237.815 66.7293 222.847 56.6533 205.526 56.6533C202.727 56.6533 199.995 56.9267 197.343 57.4293C195.008 30.848 172.703 9.99599 145.516 9.99599C117.591 9.99599 94.8082 31.9907 93.5362 59.6013C88.6388 57.7053 83.3215 56.6533 77.7548 56.6533C53.6122 56.6533 34.0415 76.224 34.0415 100.367C34.0415 122.536 50.5482 140.839 71.9402 143.684V144.081H260.735V144.044C278.299 143.287 292.307 128.812 292.307 111.061Z" fill="#5952AD"/>
<path d="M292.307 111.061H292.974C292.974 92.4561 277.892 77.3747 259.288 77.3747C254.023 77.3747 249.038 78.5854 244.599 80.7401L244.89 81.3401L245.49 81.0494C238.308 66.2174 223.111 55.9867 205.526 55.9867C202.684 55.9867 199.91 56.2641 197.219 56.7747L197.343 57.4294L198.007 57.3707C195.643 30.4467 173.052 9.32941 145.516 9.32941C117.232 9.32941 94.159 31.6054 92.8697 59.5707L93.5363 59.6014L93.7777 58.98C88.807 57.0547 83.4057 55.9867 77.755 55.9867C53.2443 55.9867 33.375 75.8561 33.375 100.367C33.3763 122.875 50.1323 141.456 71.8523 144.345L71.9403 143.684H71.2737V144.081C71.2737 144.256 71.3443 144.428 71.4697 144.552C71.5937 144.676 71.7643 144.748 71.9403 144.748H260.735C260.91 144.748 261.082 144.676 261.206 144.552C261.33 144.428 261.402 144.256 261.402 144.081V144.044H260.735L260.763 144.711C278.684 143.936 292.974 129.171 292.974 111.061H292.307H291.64C291.642 128.453 277.915 142.636 260.706 143.379C260.35 143.393 260.068 143.688 260.068 144.044V144.081H260.735V143.415H71.9403V144.081H72.607V143.684C72.607 143.351 72.359 143.068 72.0283 143.024C50.9657 140.221 34.707 122.199 34.7083 100.367C34.7083 88.4774 39.5257 77.7201 47.3163 69.9281C55.1083 62.1374 65.8657 57.3201 77.755 57.3201C83.2377 57.3201 88.4723 58.3547 93.295 60.2227C93.495 60.3001 93.7203 60.2761 93.9003 60.1601C94.079 60.0427 94.1923 59.8454 94.2017 59.6321C95.4577 32.3774 117.95 10.6614 145.516 10.6627C172.355 10.6614 194.375 31.2481 196.679 57.4881C196.695 57.6747 196.79 57.8467 196.94 57.9601C197.09 58.0747 197.282 58.1201 197.467 58.0841C200.08 57.5894 202.771 57.3201 205.526 57.3201C222.584 57.3201 237.322 67.2427 244.29 81.6307C244.367 81.7907 244.503 81.9107 244.671 81.9694C244.839 82.0281 245.02 82.0174 245.18 81.9401C249.444 79.8707 254.228 78.7081 259.288 78.7081C268.224 78.7081 276.308 82.3281 282.164 88.1841C288.02 94.0414 291.64 102.125 291.64 111.061H292.307Z" fill="#464686"/>
<path d="M291.479 104.428C291.479 86.192 276.695 71.408 258.459 71.408C253.296 71.408 248.412 72.5947 244.06 74.7067C236.986 60.096 222.019 50.02 204.696 50.02C201.898 50.02 199.166 50.2934 196.514 50.796C194.179 24.2147 171.875 3.36269 144.687 3.36269C116.762 3.36269 93.9791 25.3587 92.7071 52.9694C87.8111 51.072 82.4924 50.02 76.9257 50.02C52.7844 50.02 33.2124 69.592 33.2124 93.7334C33.2124 115.904 49.7191 134.207 71.1111 137.052V137.448H259.906V137.412C277.47 136.653 291.479 122.179 291.479 104.428Z" fill="#5DC7B1"/>
<path d="M291.479 104.428H292.145C292.144 85.8241 277.063 70.7428 258.459 70.7414C253.195 70.7414 248.209 71.9521 243.769 74.1081L244.06 74.7068L244.66 74.4161C237.479 59.5841 222.281 49.3548 204.696 49.3534C201.855 49.3534 199.08 49.6321 196.389 50.1414L196.513 50.7961L197.177 50.7388C194.813 23.8134 172.223 2.69743 144.687 2.69611C116.404 2.69743 93.3294 24.9721 92.0414 52.9388L92.7067 52.9694L92.9481 52.3467C87.9774 50.4214 82.5761 49.3534 76.9254 49.3534C52.4147 49.3534 32.5454 69.2228 32.5454 93.7334C32.5467 116.243 49.3027 134.823 71.0227 137.712L71.1107 137.052H70.4441V137.448C70.4441 137.624 70.5161 137.795 70.6401 137.92C70.7641 138.044 70.9361 138.115 71.1107 138.115H259.905C260.081 138.115 260.252 138.044 260.377 137.92C260.501 137.795 260.572 137.624 260.572 137.448V137.412H259.905L259.935 138.077C277.855 137.304 292.144 122.539 292.145 104.428H291.479H290.812C290.812 121.82 277.085 136.003 259.876 136.745C259.521 136.761 259.239 137.056 259.239 137.412V137.448H259.905V136.781H71.1107V137.448H71.7774V137.052C71.7774 136.717 71.5294 136.435 71.1987 136.391C50.1361 133.589 33.8774 115.565 33.8787 93.7334C33.8787 81.8454 38.6961 71.0868 46.4867 63.2961C54.2787 55.5041 65.0361 50.6868 76.9254 50.6868C82.4081 50.6868 87.6441 51.7214 92.4654 53.5908C92.6654 53.6681 92.8921 53.6441 93.0707 53.5268C93.2494 53.4108 93.3627 53.2134 93.3734 53.0001C94.6281 25.7441 117.12 4.02811 144.687 4.02943C171.525 4.02811 193.545 24.6161 195.849 50.8548C195.865 51.0414 195.961 51.2148 196.111 51.3281C196.26 51.4414 196.452 51.4868 196.637 51.4508C199.251 50.9561 201.941 50.6868 204.696 50.6868C221.755 50.6868 236.492 60.6094 243.46 74.9974C243.539 75.1574 243.673 75.2788 243.841 75.3374C244.011 75.3961 244.191 75.3841 244.352 75.3068C248.616 73.2374 253.399 72.0761 258.459 72.0748C267.395 72.0761 275.479 75.6961 281.336 81.5508C287.191 87.4081 290.811 95.4921 290.812 104.428H291.479Z" fill="#1D2A30"/>
<path d="M305.119 68.4722C305.119 56.9908 295.811 47.6841 284.329 47.6841C281.08 47.6841 278.004 48.4308 275.264 49.7601C270.811 40.5615 261.387 34.2175 250.481 34.2175C248.72 34.2175 246.999 34.3895 245.329 34.7068C243.86 17.9708 229.817 4.84283 212.7 4.84283C195.119 4.84283 180.775 18.6908 179.973 36.0748C176.891 34.8801 173.543 34.2175 170.039 34.2175C154.839 34.2175 142.516 46.5402 142.516 61.7402C142.516 75.6975 152.909 87.2201 166.377 89.0121V89.2615H285.24V89.2388C296.299 88.7615 305.119 79.6482 305.119 68.4722Z" fill="#1D2A30"/>
<path d="M305.119 68.472H305.786C305.784 56.6227 296.179 47.0173 284.33 47.0173C280.978 47.0173 277.802 47.788 274.974 49.16L275.264 49.76L275.864 49.4693C271.304 40.0493 261.651 33.552 250.482 33.5507C248.676 33.5507 246.914 33.728 245.206 34.0507L245.33 34.7067L245.994 34.648C244.494 17.5693 230.166 4.17733 212.7 4.17599C194.76 4.17599 180.126 18.3053 179.308 36.0427L179.974 36.0746L180.215 35.452C177.058 34.2293 173.627 33.5507 170.039 33.5507C154.471 33.552 141.851 46.1707 141.85 61.74C141.851 76.036 152.494 87.8373 166.29 89.672L166.378 89.012H165.711V89.2613C165.711 89.4373 165.782 89.608 165.907 89.7333C166.031 89.8573 166.202 89.928 166.378 89.928H285.24C285.416 89.928 285.588 89.8573 285.712 89.732C285.836 89.608 285.907 89.4373 285.907 89.2613V89.2387H285.24L285.27 89.904C296.684 89.4107 305.784 80.0067 305.786 68.472H305.119H304.452C304.452 79.2893 295.914 88.1107 285.212 88.572C284.856 88.588 284.574 88.8827 284.574 89.2387V89.2613H285.24V88.5946H166.378V89.2613H167.044V89.012C167.044 88.6773 166.796 88.3946 166.466 88.3506C153.326 86.6026 143.182 75.3587 143.183 61.74C143.184 54.3213 146.188 47.612 151.05 42.7507C155.911 37.8893 162.62 34.884 170.039 34.884C173.459 34.884 176.724 35.5307 179.734 36.696C179.932 36.7733 180.159 36.7493 180.338 36.632C180.518 36.516 180.63 36.3186 180.64 36.1053C181.424 19.076 195.476 5.508 212.7 5.50933C229.468 5.508 243.227 18.372 244.666 34.7653C244.682 34.952 244.778 35.124 244.927 35.2373C245.078 35.3507 245.268 35.396 245.454 35.3613C247.084 35.0519 248.763 34.884 250.482 34.884C261.123 34.884 270.318 41.0746 274.664 50.0506C274.743 50.2106 274.878 50.332 275.046 50.3906C275.215 50.448 275.395 50.4373 275.556 50.36C278.208 49.0733 281.182 48.3506 284.33 48.3506C289.888 48.3506 294.915 50.6013 298.558 54.244C302.2 57.888 304.451 62.9133 304.452 68.472H305.119Z" fill="#1D2A30"/>
<path d="M304.596 64.2961C304.596 52.8148 295.289 43.5081 283.807 43.5081C280.557 43.5081 277.483 44.2548 274.743 45.5841C270.288 36.3868 260.865 30.0414 249.959 30.0414C248.197 30.0414 246.477 30.2148 244.807 30.5308C243.337 13.7948 229.295 0.666763 212.177 0.666763C194.596 0.666763 180.253 14.5148 179.452 31.8988C176.369 30.7041 173.021 30.0414 169.516 30.0414C154.316 30.0414 141.995 42.3641 141.995 57.5641C141.995 71.5215 152.388 83.0441 165.856 84.8361V85.0854H284.719V85.0628C295.776 84.5855 304.596 75.4721 304.596 64.2961Z" fill="white"/>
<path d="M304.596 64.296H305.263C305.263 52.4466 295.657 42.8413 283.807 42.8413C280.455 42.8413 277.279 43.612 274.452 44.984L274.743 45.584L275.343 45.2933C270.781 35.8733 261.128 29.3759 249.959 29.3746C248.153 29.3746 246.392 29.5519 244.683 29.8746L244.807 30.5306L245.471 30.4719C243.972 13.3933 229.644 0.00127411 212.177 -6.10352e-05C194.239 -6.10352e-05 179.604 14.1293 178.785 31.8666L179.452 31.8986L179.693 31.276C176.536 30.0533 173.105 29.3746 169.516 29.3746C153.948 29.3759 141.328 41.9946 141.328 57.564C141.329 71.86 151.971 83.6613 165.768 85.496L165.856 84.836H165.189V85.0853C165.189 85.2613 165.26 85.432 165.384 85.5573C165.508 85.6813 165.68 85.752 165.856 85.752H284.719C284.893 85.752 285.065 85.6813 285.189 85.5573C285.313 85.432 285.385 85.2613 285.385 85.0853V85.0626H284.719L284.747 85.728C296.161 85.236 305.261 75.8306 305.263 64.296H304.596H303.929C303.931 75.1133 295.392 83.9346 284.689 84.396C284.333 84.412 284.052 84.7066 284.052 85.0626V85.0853H284.719V84.4186H165.856V85.0853H166.523V84.836C166.523 84.5013 166.275 84.2186 165.943 84.1746C152.804 82.4266 142.66 71.1826 142.661 57.564C142.661 50.1453 145.667 43.4359 150.527 38.5746C155.389 33.7133 162.099 30.7093 169.516 30.7079C172.937 30.7079 176.203 31.3547 179.211 32.52C179.411 32.5973 179.636 32.5733 179.816 32.456C179.995 32.34 180.108 32.1426 180.117 31.9293C180.903 14.9 194.955 1.33194 212.177 1.33327C228.945 1.33194 242.704 14.196 244.143 30.588C244.16 30.776 244.255 30.9479 244.405 31.0613C244.555 31.1759 244.747 31.22 244.931 31.1853C246.563 30.876 248.241 30.7079 249.959 30.7079C260.601 30.7079 269.795 36.8986 274.143 45.8746C274.22 46.0346 274.356 46.156 274.524 46.2146C274.692 46.2719 274.873 46.2613 275.033 46.184C277.685 44.8973 280.66 44.1746 283.807 44.1746C289.367 44.1746 294.392 46.4253 298.036 50.068C301.679 53.712 303.929 58.7373 303.929 64.296H304.596Z" fill="#1D2A30"/>
<path d="M153.775 105.745H145.775V113.415H153.775V105.745Z" fill="#1D2A30"/>
<path d="M153.775 105.745V105.079H145.775C145.599 105.079 145.428 105.149 145.303 105.273C145.179 105.397 145.108 105.569 145.108 105.745V113.415C145.108 113.591 145.179 113.763 145.303 113.887C145.428 114.011 145.599 114.081 145.775 114.081H153.775C153.951 114.081 154.122 114.011 154.247 113.887C154.371 113.763 154.442 113.591 154.442 113.415V105.745C154.442 105.569 154.371 105.397 154.247 105.273C154.122 105.149 153.951 105.079 153.775 105.079V105.745H153.108V112.748H146.442V106.412H153.775V105.745Z" fill="#1D2A30"/>
<path d="M142.698 105.745H134.698V113.415H142.698V105.745Z" fill="#1D2A30"/>
<path d="M142.697 105.745V105.079H134.697C134.523 105.079 134.351 105.149 134.227 105.273C134.103 105.397 134.031 105.569 134.031 105.745V113.415C134.031 113.591 134.103 113.763 134.227 113.887C134.351 114.011 134.523 114.081 134.697 114.081H142.697C142.873 114.081 143.045 114.011 143.169 113.887C143.293 113.763 143.364 113.591 143.364 113.415V105.745C143.364 105.569 143.293 105.397 143.169 105.273C143.045 105.149 142.873 105.079 142.697 105.079V105.745H142.031V112.748H135.364V106.412H142.697V105.745Z" fill="#1D2A30"/>
<path d="M164.852 105.745H156.852V113.415H164.852V105.745Z" fill="#1D2A30"/>
<path d="M164.852 105.745V105.079H156.852C156.676 105.079 156.504 105.149 156.38 105.273C156.256 105.397 156.186 105.569 156.186 105.745V113.415C156.186 113.591 156.256 113.763 156.38 113.887C156.504 114.011 156.676 114.081 156.852 114.081H164.852C165.027 114.081 165.199 114.011 165.323 113.887C165.447 113.763 165.519 113.591 165.519 113.415V105.745C165.519 105.569 165.447 105.397 165.323 105.273C165.199 105.149 165.027 105.079 164.852 105.079V105.745H164.186V112.748H157.519V106.412H164.852V105.745Z" fill="#1D2A30"/>
<path d="M131.622 105.745H123.622V113.415H131.622V105.745Z" fill="#1D2A30"/>
<path d="M131.622 105.745V105.079H123.622C123.446 105.079 123.274 105.149 123.15 105.273C123.026 105.397 122.955 105.569 122.955 105.745V113.415C122.955 113.591 123.026 113.763 123.15 113.887C123.274 114.011 123.446 114.081 123.622 114.081H131.622C131.796 114.081 131.968 114.011 132.092 113.887C132.216 113.763 132.288 113.591 132.288 113.415V105.745C132.288 105.569 132.216 105.397 132.092 105.273C131.968 105.149 131.796 105.079 131.622 105.079V105.745H130.955V112.748H124.288V106.412H131.622V105.745Z" fill="#1D2A30"/>
<path d="M120.544 105.745H112.544V113.415H120.544V105.745Z" fill="#1D2A30"/>
<path d="M120.544 105.745V105.079H112.544C112.369 105.079 112.197 105.149 112.073 105.273C111.949 105.397 111.877 105.569 111.877 105.745V113.415C111.877 113.591 111.949 113.763 112.073 113.887C112.197 114.011 112.369 114.081 112.544 114.081H120.544C120.72 114.081 120.892 114.011 121.016 113.887C121.14 113.763 121.211 113.591 121.211 113.415V105.745C121.211 105.569 121.14 105.397 121.016 105.273C120.892 105.149 120.72 105.079 120.544 105.079V105.745H119.877V112.748H113.211V106.412H120.544V105.745Z" fill="#1D2A30"/>
<path d="M101.468 113.415H109.467V105.745H101.468V113.415Z" fill="#1D2A30"/>
<path d="M101.468 113.415V114.081H109.467C109.643 114.081 109.815 114.011 109.939 113.887C110.063 113.763 110.133 113.591 110.133 113.415V105.745C110.133 105.569 110.063 105.397 109.939 105.273C109.815 105.149 109.643 105.079 109.467 105.079H101.468C101.292 105.079 101.12 105.149 100.996 105.273C100.872 105.397 100.801 105.569 100.801 105.745V113.415C100.801 113.591 100.872 113.763 100.996 113.887C101.12 114.011 101.292 114.081 101.468 114.081V113.415H102.135V106.412H108.8V112.748H101.468V113.415Z" fill="#1D2A30"/>
<path d="M175.928 105.745H167.928V113.415H175.928V105.745Z" fill="#1D2A30"/>
<path d="M175.928 105.745V105.079H167.928C167.754 105.079 167.582 105.149 167.458 105.273C167.334 105.397 167.262 105.569 167.262 105.745V113.415C167.262 113.591 167.334 113.763 167.458 113.887C167.582 114.011 167.754 114.081 167.928 114.081H175.928C176.104 114.081 176.276 114.011 176.4 113.887C176.524 113.763 176.595 113.591 176.595 113.415V105.745C176.595 105.569 176.524 105.397 176.4 105.273C176.276 105.149 176.104 105.079 175.928 105.079V105.745H175.262V112.748H168.595V106.412H175.928V105.745Z" fill="#1D2A30"/>
<path d="M187.005 105.745H179.005V113.415H187.005V105.745Z" fill="#1D2A30"/>
<path d="M187.006 105.745V105.079H179.006C178.83 105.079 178.658 105.149 178.534 105.273C178.41 105.397 178.339 105.569 178.339 105.745V113.415C178.339 113.591 178.41 113.763 178.534 113.887C178.658 114.011 178.83 114.081 179.006 114.081H187.006C187.18 114.081 187.352 114.011 187.476 113.887C187.6 113.763 187.672 113.591 187.672 113.415V105.745C187.672 105.569 187.6 105.397 187.476 105.273C187.352 105.149 187.18 105.079 187.006 105.079V105.745H186.339V112.748H179.672V106.412H187.006V105.745Z" fill="#1D2A30"/>
<path d="M98.3908 105.745H90.6548V113.415H98.3908V105.745Z" fill="#1D2A30"/>
<path d="M98.391 105.745V105.079H90.6549C90.4789 105.079 90.307 105.149 90.183 105.273C90.059 105.397 89.9883 105.569 89.9883 105.745V113.415C89.9883 113.591 90.059 113.763 90.183 113.887C90.307 114.011 90.4789 114.081 90.6549 114.081H98.391C98.567 114.081 98.7376 114.011 98.8616 113.887C98.987 113.763 99.0576 113.591 99.0576 113.415V105.745C99.0576 105.569 98.987 105.397 98.8616 105.273C98.7376 105.149 98.567 105.079 98.391 105.079V105.745H97.7243V112.748H91.3216V106.412H98.391V105.745Z" fill="#1D2A30"/>
<path d="M231.312 105.745H223.312V113.415H231.312V105.745Z" fill="white"/>
<path d="M231.312 105.745V105.079H223.312C223.138 105.079 222.966 105.149 222.842 105.273C222.718 105.397 222.646 105.569 222.646 105.745V113.415C222.646 113.591 222.718 113.763 222.842 113.887C222.966 114.011 223.138 114.081 223.312 114.081H231.312C231.488 114.081 231.66 114.011 231.784 113.887C231.908 113.763 231.979 113.591 231.979 113.415V105.745C231.979 105.569 231.908 105.397 231.784 105.273C231.66 105.149 231.488 105.079 231.312 105.079V105.745H230.646V112.748H223.979V106.412H231.312V105.745Z" fill="#1D2A30"/>
<path d="M234.39 105.745V113.415H241.159V105.745H234.39Z" fill="white"/>
<path d="M234.39 105.745H233.723V113.415C233.723 113.591 233.794 113.763 233.918 113.887C234.043 114.011 234.214 114.081 234.39 114.081H241.159C241.335 114.081 241.506 114.011 241.63 113.887C241.755 113.763 241.826 113.591 241.826 113.415V105.745C241.826 105.569 241.755 105.397 241.63 105.273C241.506 105.149 241.335 105.079 241.159 105.079H234.39C234.214 105.079 234.043 105.149 233.918 105.273C233.794 105.397 233.723 105.569 233.723 105.745H234.39V106.412H240.492V112.748H235.056V105.745H234.39Z" fill="#1D2A30"/>
<path d="M198.082 105.745H190.082V113.415H198.082V105.745Z" fill="white"/>
<path d="M198.082 105.745V105.079H190.082C189.907 105.079 189.735 105.149 189.611 105.273C189.487 105.397 189.415 105.569 189.415 105.745V113.415C189.415 113.591 189.487 113.763 189.611 113.887C189.735 114.011 189.907 114.081 190.082 114.081H198.082C198.258 114.081 198.43 114.011 198.554 113.887C198.678 113.763 198.748 113.591 198.748 113.415V105.745C198.748 105.569 198.678 105.397 198.554 105.273C198.43 105.149 198.258 105.079 198.082 105.079V105.745H197.415V112.748H190.748V106.412H198.082V105.745Z" fill="#1D2A30"/>
<path d="M209.159 105.745H201.159V113.415H209.159V105.745Z" fill="white"/>
<path d="M209.159 105.745V105.079H201.159C200.983 105.079 200.812 105.149 200.688 105.273C200.563 105.397 200.492 105.569 200.492 105.745V113.415C200.492 113.591 200.563 113.763 200.688 113.887C200.812 114.011 200.983 114.081 201.159 114.081H209.159C209.335 114.081 209.507 114.011 209.631 113.887C209.755 113.763 209.826 113.591 209.826 113.415V105.745C209.826 105.569 209.755 105.397 209.631 105.273C209.507 105.149 209.335 105.079 209.159 105.079V105.745H208.492V112.748H201.826V106.412H209.159V105.745Z" fill="#1D2A30"/>
<path d="M220.236 105.745H212.236V113.415H220.236V105.745Z" fill="white"/>
<path d="M220.236 105.745V105.079H212.236C212.06 105.079 211.888 105.149 211.764 105.273C211.64 105.397 211.569 105.569 211.569 105.745V113.415C211.569 113.591 211.64 113.763 211.764 113.887C211.888 114.011 212.06 114.081 212.236 114.081H220.236C220.411 114.081 220.583 114.011 220.707 113.887C220.831 113.763 220.903 113.591 220.903 113.415V105.745C220.903 105.569 220.831 105.397 220.707 105.273C220.583 105.149 220.411 105.079 220.236 105.079V105.745H219.569V112.748H212.903V106.412H220.236V105.745Z" fill="#1D2A30"/>
<path d="M96.5815 237.225H55.1255V184.389L63.6041 177.529H96.5815V237.225Z" fill="white"/>
<path d="M96.5817 237.225V236.559H55.7923V184.708L63.8403 178.196H95.915V237.225H96.5817H97.2483V177.529C97.2483 177.353 97.1763 177.181 97.0523 177.057C96.9283 176.933 96.7563 176.863 96.5817 176.863H63.6043C63.4523 176.863 63.3017 176.916 63.1843 177.011L54.707 183.871C54.551 183.997 54.459 184.189 54.459 184.389V237.225C54.459 237.4 54.531 237.572 54.655 237.696C54.779 237.82 54.951 237.892 55.1257 237.892H96.5817C96.7563 237.892 96.9283 237.82 97.0523 237.696C97.1763 237.572 97.2483 237.4 97.2483 237.225H96.5817Z" fill="#1D2A30"/>
<path d="M63.2057 193.773H88.2057C88.5737 193.773 88.8724 193.475 88.8724 193.107C88.8724 192.739 88.5737 192.44 88.2057 192.44H63.2057C62.8377 192.44 62.5391 192.739 62.5391 193.107C62.5391 193.475 62.8377 193.773 63.2057 193.773Z" fill="#1D2A30"/>
<path d="M63.2057 202.504H88.2057C88.5737 202.504 88.8724 202.205 88.8724 201.837C88.8724 201.468 88.5737 201.171 88.2057 201.171H63.2057C62.8377 201.171 62.5391 201.468 62.5391 201.837C62.5391 202.205 62.8377 202.504 63.2057 202.504Z" fill="#1D2A30"/>
<path d="M63.2057 211.233H88.2057C88.5737 211.233 88.8724 210.935 88.8724 210.567C88.8724 210.199 88.5737 209.9 88.2057 209.9H63.2057C62.8377 209.9 62.5391 210.199 62.5391 210.567C62.5391 210.935 62.8377 211.233 63.2057 211.233Z" fill="#1D2A30"/>
<path d="M63.2057 219.964H88.2057C88.5737 219.964 88.8724 219.665 88.8724 219.297C88.8724 218.929 88.5737 218.631 88.2057 218.631H63.2057C62.8377 218.631 62.5391 218.929 62.5391 219.297C62.5391 219.665 62.8377 219.964 63.2057 219.964Z" fill="#1D2A30"/>
<path d="M55.1255 184.389H63.3735V177.529L55.1255 184.389Z" fill="white"/>
<path d="M55.1254 184.389V185.056H63.3734C63.5481 185.056 63.7201 184.985 63.8441 184.861C63.9681 184.736 64.0401 184.565 64.0401 184.389V177.529C64.0401 177.269 63.8908 177.036 63.6561 176.925C63.4214 176.816 63.1455 176.851 62.9468 177.016L54.6988 183.877C54.4841 184.056 54.4041 184.353 54.4988 184.616C54.5935 184.879 54.8454 185.056 55.1254 185.056V184.389L55.5521 184.901L62.7068 178.951V183.723H55.1254V184.389Z" fill="#1D2A30"/>
<path d="M177.396 236.996H135.94V184.16L144.419 177.3H177.396V236.996Z" fill="white"/>
<path d="M177.396 236.996V236.33H136.606V184.479L144.654 177.967H176.729V236.996H177.396H178.062V177.3C178.062 177.124 177.992 176.952 177.868 176.828C177.742 176.704 177.572 176.634 177.396 176.634H144.418C144.266 176.634 144.117 176.687 143.998 176.781L135.521 183.642C135.365 183.768 135.273 183.96 135.273 184.16V236.996C135.273 237.171 135.345 237.343 135.469 237.467C135.593 237.591 135.765 237.663 135.94 237.663H177.396C177.572 237.663 177.742 237.591 177.868 237.467C177.992 237.343 178.062 237.171 178.062 236.996H177.396Z" fill="#1D2A30"/>
<path d="M144.02 193.544H169.02C169.388 193.544 169.686 193.245 169.686 192.877C169.686 192.509 169.388 192.211 169.02 192.211H144.02C143.652 192.211 143.353 192.509 143.353 192.877C143.353 193.245 143.652 193.544 144.02 193.544Z" fill="#1D2A30"/>
<path d="M144.02 202.275H169.02C169.388 202.275 169.686 201.976 169.686 201.608C169.686 201.239 169.388 200.941 169.02 200.941H144.02C143.652 200.941 143.353 201.239 143.353 201.608C143.353 201.976 143.652 202.275 144.02 202.275Z" fill="#1D2A30"/>
<path d="M144.02 211.004H169.02C169.388 211.004 169.686 210.705 169.686 210.337C169.686 209.969 169.388 209.671 169.02 209.671H144.02C143.652 209.671 143.353 209.969 143.353 210.337C143.353 210.705 143.652 211.004 144.02 211.004Z" fill="#1D2A30"/>
<path d="M144.02 219.735H169.02C169.388 219.735 169.686 219.436 169.686 219.068C169.686 218.7 169.388 218.401 169.02 218.401H144.02C143.652 218.401 143.353 218.7 143.353 219.068C143.353 219.436 143.652 219.735 144.02 219.735Z" fill="#1D2A30"/>
<path d="M137.439 226.16H145.687V219.3L137.439 226.16Z" fill="white"/>
<path d="M135.94 184.16V184.827H144.188C144.363 184.827 144.535 184.756 144.659 184.632C144.783 184.508 144.855 184.336 144.855 184.16V177.3C144.855 177.04 144.705 176.807 144.471 176.696C144.236 176.587 143.96 176.621 143.761 176.788L135.515 183.648C135.299 183.827 135.219 184.124 135.313 184.387C135.409 184.649 135.661 184.827 135.94 184.827V184.16L136.367 184.672L143.521 178.721V183.493H135.94V184.16Z" fill="#1D2A30"/>
<path d="M256.395 237.363H214.939V184.527L223.418 177.667H256.395V237.363Z" fill="white"/>
<path d="M256.396 237.363V236.696H215.606V184.846L223.654 178.334H255.729V237.363H256.396H257.062V177.667C257.062 177.491 256.99 177.32 256.866 177.196C256.742 177.072 256.57 177 256.396 177H223.418C223.266 177 223.116 177.054 222.998 177.148L214.521 184.01C214.365 184.135 214.273 184.327 214.273 184.527V237.363C214.273 237.539 214.345 237.71 214.469 237.835C214.593 237.959 214.765 238.03 214.94 238.03H256.396C256.57 238.03 256.742 237.959 256.866 237.835C256.99 237.71 257.062 237.539 257.062 237.363H256.396Z" fill="#1D2A30"/>
<path d="M223.019 193.911H248.019C248.387 193.911 248.686 193.612 248.686 193.244C248.686 192.876 248.387 192.578 248.019 192.578H223.019C222.651 192.578 222.353 192.876 222.353 193.244C222.353 193.612 222.651 193.911 223.019 193.911Z" fill="#1D2A30"/>
<path d="M223.019 202.642H248.019C248.387 202.642 248.686 202.343 248.686 201.975C248.686 201.607 248.387 201.308 248.019 201.308H223.019C222.651 201.308 222.353 201.607 222.353 201.975C222.353 202.343 222.651 202.642 223.019 202.642Z" fill="#1D2A30"/>
<path d="M223.019 211.371H248.019C248.387 211.371 248.686 211.074 248.686 210.704C248.686 210.336 248.387 210.038 248.019 210.038H223.019C222.651 210.038 222.353 210.336 222.353 210.704C222.353 211.074 222.651 211.371 223.019 211.371Z" fill="#1D2A30"/>
<path d="M223.019 220.102H248.019C248.387 220.102 248.686 219.803 248.686 219.435C248.686 219.067 248.387 218.768 248.019 218.768H223.019C222.651 218.768 222.353 219.067 222.353 219.435C222.353 219.803 222.651 220.102 223.019 220.102Z" fill="#1D2A30"/>
<path d="M214.939 184.527H223.187V177.667L214.939 184.527Z" fill="white"/>
<path d="M214.939 184.527V185.194H223.187C223.362 185.194 223.534 185.123 223.658 184.999C223.782 184.875 223.854 184.703 223.854 184.527V177.667C223.854 177.408 223.705 177.174 223.47 177.063C223.235 176.954 222.959 176.988 222.761 177.155L214.513 184.015C214.298 184.194 214.218 184.491 214.313 184.754C214.407 185.018 214.659 185.194 214.939 185.194V184.527L215.366 185.04L222.521 179.088V183.86H214.939V184.527Z" fill="#1D2A30"/>
<path d="M95.2729 340H24.2729V256H95.2729V340Z" fill="#5952AD"/>
<path d="M285.273 340H214.273V256H285.273V340Z" fill="#5952AD"/>
<path d="M190.273 340H119.273V256H190.273V340Z" fill="#5952AD"/>
<path d="M95.6025 353.457V352.914H24.6138V257.086H94.9321V353.457H95.6025H96.2729V256.543C96.2729 256.401 96.2005 256.261 96.0759 256.16C95.9512 256.059 95.7782 256 95.6025 256H23.9434C23.7677 256 23.5948 256.059 23.4701 256.16C23.3454 256.261 23.2729 256.401 23.2729 256.543V353.457C23.2729 353.6 23.3454 353.74 23.4701 353.841C23.5948 353.942 23.7677 354 23.9434 354H95.6025C95.7782 354 95.9512 353.942 96.0759 353.841C96.2005 353.74 96.2729 353.6 96.2729 353.457H95.6025Z" fill="#1D2A30"/>
<path d="M285.603 353.457V352.914H214.614V257.086H284.932V353.457H285.603H286.273V256.543C286.273 256.401 286.201 256.261 286.076 256.16C285.951 256.059 285.778 256 285.603 256H213.943C213.768 256 213.595 256.059 213.47 256.16C213.345 256.261 213.273 256.401 213.273 256.543V353.457C213.273 353.6 213.345 353.74 213.47 353.841C213.595 353.942 213.768 354 213.943 354H285.603C285.778 354 285.951 353.942 286.076 353.841C286.201 353.74 286.273 353.6 286.273 353.457H285.603Z" fill="#1D2A30"/>
<path d="M190.603 353.457V352.914H119.614V257.086H189.932V353.457H190.603H191.273V256.543C191.273 256.401 191.201 256.261 191.076 256.16C190.951 256.059 190.778 256 190.603 256H118.943C118.768 256 118.595 256.059 118.47 256.16C118.345 256.261 118.273 256.401 118.273 256.543V353.457C118.273 353.6 118.345 353.74 118.47 353.841C118.595 353.942 118.768 354 118.943 354H190.603C190.778 354 190.951 353.942 191.076 353.841C191.201 353.74 191.273 353.6 191.273 353.457H190.603Z" fill="#1D2A30"/>
<path d="M90.4631 271.076H29.6484V264.256H90.4631V271.076Z" fill="#5DC7B1"/>
<path d="M280.463 271.076H219.648V264.256H280.463V271.076Z" fill="#5DC7B1"/>
<path d="M185.463 271.076H124.648V264.256H185.463V271.076Z" fill="#5DC7B1"/>
<path d="M90.4628 271.076V270.409H30.3148V264.923H89.7961V271.076H90.4628H91.1294V264.256C91.1294 264.08 91.0588 263.909 90.9348 263.785C90.8108 263.66 90.6388 263.589 90.4628 263.589H29.6481C29.4721 263.589 29.3001 263.66 29.1761 263.785C29.0521 263.909 28.9814 264.08 28.9814 264.256V271.076C28.9814 271.252 29.0521 271.424 29.1761 271.548C29.3001 271.672 29.4721 271.743 29.6481 271.743H90.4628C90.6388 271.743 90.8108 271.672 90.9348 271.548C91.0588 271.424 91.1294 271.252 91.1294 271.076H90.4628Z" fill="#1D2A30"/>
<path d="M280.463 271.076V270.409H220.315V264.923H279.796V271.076H280.463H281.129V264.256C281.129 264.08 281.059 263.909 280.935 263.785C280.811 263.66 280.639 263.589 280.463 263.589H219.648C219.472 263.589 219.3 263.66 219.176 263.785C219.052 263.909 218.981 264.08 218.981 264.256V271.076C218.981 271.252 219.052 271.424 219.176 271.548C219.3 271.672 219.472 271.743 219.648 271.743H280.463C280.639 271.743 280.811 271.672 280.935 271.548C281.059 271.424 281.129 271.252 281.129 271.076H280.463Z" fill="#1D2A30"/>
<path d="M185.463 271.076V270.409H125.315V264.923H184.796V271.076H185.463H186.129V264.256C186.129 264.08 186.059 263.909 185.935 263.785C185.811 263.66 185.639 263.589 185.463 263.589H124.648C124.472 263.589 124.3 263.66 124.176 263.785C124.052 263.909 123.981 264.08 123.981 264.256V271.076C123.981 271.252 124.052 271.424 124.176 271.548C124.3 271.672 124.472 271.743 124.648 271.743H185.463C185.639 271.743 185.811 271.672 185.935 271.548C186.059 271.424 186.129 271.252 186.129 271.076H185.463Z" fill="#1D2A30"/>
<path d="M77.0671 260.746C77.0671 261.519 76.4404 262.146 75.6671 262.146C74.8938 262.146 74.2671 261.519 74.2671 260.746C74.2671 259.972 74.8938 259.346 75.6671 259.346C76.4404 259.346 77.0671 259.972 77.0671 260.746Z" fill="white"/>
<path d="M267.067 260.746C267.067 261.519 266.44 262.146 265.667 262.146C264.894 262.146 264.267 261.519 264.267 260.746C264.267 259.972 264.894 259.346 265.667 259.346C266.44 259.346 267.067 259.972 267.067 260.746Z" fill="white"/>
<path d="M172.067 260.746C172.067 261.519 171.44 262.146 170.667 262.146C169.894 262.146 169.267 261.519 169.267 260.746C169.267 259.972 169.894 259.346 170.667 259.346C171.44 259.346 172.067 259.972 172.067 260.746Z" fill="white"/>
<path d="M82.9802 260.746C82.9802 261.519 82.3535 262.146 81.5802 262.146C80.8068 262.146 80.1802 261.519 80.1802 260.746C80.1802 259.972 80.8068 259.346 81.5802 259.346C82.3535 259.346 82.9802 259.972 82.9802 260.746Z" fill="white"/>
<path d="M272.98 260.746C272.98 261.519 272.354 262.146 271.58 262.146C270.807 262.146 270.18 261.519 270.18 260.746C270.18 259.972 270.807 259.346 271.58 259.346C272.354 259.346 272.98 259.972 272.98 260.746Z" fill="white"/>
<path d="M177.98 260.746C177.98 261.519 177.354 262.146 176.58 262.146C175.807 262.146 175.18 261.519 175.18 260.746C175.18 259.972 175.807 259.346 176.58 259.346C177.354 259.346 177.98 259.972 177.98 260.746Z" fill="white"/>
<path d="M88.8933 260.746C88.8933 261.519 88.2666 262.146 87.4933 262.146C86.7199 262.146 86.0933 261.519 86.0933 260.746C86.0933 259.972 86.7199 259.346 87.4933 259.346C88.2666 259.346 88.8933 259.972 88.8933 260.746Z" fill="white"/>
<path d="M278.893 260.746C278.893 261.519 278.267 262.146 277.493 262.146C276.72 262.146 276.093 261.519 276.093 260.746C276.093 259.972 276.72 259.346 277.493 259.346C278.267 259.346 278.893 259.972 278.893 260.746Z" fill="white"/>
<path d="M183.893 260.746C183.893 261.519 183.267 262.146 182.493 262.146C181.72 262.146 181.093 261.519 181.093 260.746C181.093 259.972 181.72 259.346 182.493 259.346C183.267 259.346 183.893 259.972 183.893 260.746Z" fill="white"/>
<path d="M34.4298 276.151C34.4298 276.924 33.8031 277.552 33.0284 277.552C32.2551 277.552 31.6284 276.924 31.6284 276.151C31.6284 275.377 32.2551 274.751 33.0284 274.751C33.8031 274.751 34.4298 275.377 34.4298 276.151Z" fill="white"/>
<path d="M224.43 276.151C224.43 276.924 223.803 277.552 223.028 277.552C222.255 277.552 221.628 276.924 221.628 276.151C221.628 275.377 222.255 274.751 223.028 274.751C223.803 274.751 224.43 275.377 224.43 276.151Z" fill="white"/>
<path d="M129.43 276.151C129.43 276.924 128.803 277.552 128.028 277.552C127.255 277.552 126.628 276.924 126.628 276.151C126.628 275.377 127.255 274.751 128.028 274.751C128.803 274.751 129.43 275.377 129.43 276.151Z" fill="white"/>
<path d="M40.3428 276.151C40.3428 276.924 39.7162 277.552 38.9415 277.552C38.1682 277.552 37.5415 276.924 37.5415 276.151C37.5415 275.377 38.1682 274.751 38.9415 274.751C39.7162 274.751 40.3428 275.377 40.3428 276.151Z" fill="white"/>
<path d="M230.343 276.151C230.343 276.924 229.716 277.552 228.942 277.552C228.168 277.552 227.542 276.924 227.542 276.151C227.542 275.377 228.168 274.751 228.942 274.751C229.716 274.751 230.343 275.377 230.343 276.151Z" fill="white"/>
<path d="M135.343 276.151C135.343 276.924 134.716 277.552 133.942 277.552C133.168 277.552 132.542 276.924 132.542 276.151C132.542 275.377 133.168 274.751 133.942 274.751C134.716 274.751 135.343 275.377 135.343 276.151Z" fill="white"/>
<path d="M46.2564 276.151C46.2564 276.924 45.6297 277.552 44.8551 277.552C44.0817 277.552 43.4551 276.924 43.4551 276.151C43.4551 275.377 44.0817 274.751 44.8551 274.751C45.6297 274.751 46.2564 275.377 46.2564 276.151Z" fill="white"/>
<path d="M236.256 276.151C236.256 276.924 235.63 277.552 234.855 277.552C234.082 277.552 233.455 276.924 233.455 276.151C233.455 275.377 234.082 274.751 234.855 274.751C235.63 274.751 236.256 275.377 236.256 276.151Z" fill="white"/>
<path d="M141.256 276.151C141.256 276.924 140.63 277.552 139.855 277.552C139.082 277.552 138.455 276.924 138.455 276.151C138.455 275.377 139.082 274.751 139.855 274.751C140.63 274.751 141.256 275.377 141.256 276.151Z" fill="white"/>
<path d="M90.4631 286.483H29.6484V279.661H90.4631V286.483Z" fill="#5DC7B1"/>
<path d="M280.463 286.483H219.648V279.661H280.463V286.483Z" fill="#5DC7B1"/>
<path d="M185.463 286.483H124.648V279.661H185.463V286.483Z" fill="#5DC7B1"/>
<path d="M90.4628 286.483V285.816H30.3148V280.328H89.7961V286.483H90.4628H91.1294V279.661C91.1294 279.487 91.0588 279.315 90.9348 279.191C90.8108 279.067 90.6388 278.995 90.4628 278.995H29.6481C29.4721 278.995 29.3001 279.067 29.1761 279.191C29.0521 279.315 28.9814 279.487 28.9814 279.661V286.483C28.9814 286.657 29.0521 286.829 29.1761 286.953C29.3001 287.077 29.4721 287.149 29.6481 287.149H90.4628C90.6388 287.149 90.8108 287.077 90.9348 286.953C91.0588 286.829 91.1294 286.657 91.1294 286.483H90.4628Z" fill="#1D2A30"/>
<path d="M280.463 286.483V285.816H220.315V280.328H279.796V286.483H280.463H281.129V279.661C281.129 279.487 281.059 279.315 280.935 279.191C280.811 279.067 280.639 278.995 280.463 278.995H219.648C219.472 278.995 219.3 279.067 219.176 279.191C219.052 279.315 218.981 279.487 218.981 279.661V286.483C218.981 286.657 219.052 286.829 219.176 286.953C219.3 287.077 219.472 287.149 219.648 287.149H280.463C280.639 287.149 280.811 287.077 280.935 286.953C281.059 286.829 281.129 286.657 281.129 286.483H280.463Z" fill="#1D2A30"/>
<path d="M185.463 286.483V285.816H125.315V280.328H184.796V286.483H185.463H186.129V279.661C186.129 279.487 186.059 279.315 185.935 279.191C185.811 279.067 185.639 278.995 185.463 278.995H124.648C124.472 278.995 124.3 279.067 124.176 279.191C124.052 279.315 123.981 279.487 123.981 279.661V286.483C123.981 286.657 124.052 286.829 124.176 286.953C124.3 287.077 124.472 287.149 124.648 287.149H185.463C185.639 287.149 185.811 287.077 185.935 286.953C186.059 286.829 186.129 286.657 186.129 286.483H185.463Z" fill="#1D2A30"/>
<path d="M77.0671 276.151C77.0671 276.924 76.4404 277.552 75.6671 277.552C74.8938 277.552 74.2671 276.924 74.2671 276.151C74.2671 275.377 74.8938 274.751 75.6671 274.751C76.4404 274.751 77.0671 275.377 77.0671 276.151Z" fill="white"/>
<path d="M267.067 276.151C267.067 276.924 266.44 277.552 265.667 277.552C264.894 277.552 264.267 276.924 264.267 276.151C264.267 275.377 264.894 274.751 265.667 274.751C266.44 274.751 267.067 275.377 267.067 276.151Z" fill="white"/>
<path d="M172.067 276.151C172.067 276.924 171.44 277.552 170.667 277.552C169.894 277.552 169.267 276.924 169.267 276.151C169.267 275.377 169.894 274.751 170.667 274.751C171.44 274.751 172.067 275.377 172.067 276.151Z" fill="white"/>
<path d="M82.9802 276.151C82.9802 276.924 82.3535 277.552 81.5802 277.552C80.8068 277.552 80.1802 276.924 80.1802 276.151C80.1802 275.377 80.8068 274.751 81.5802 274.751C82.3535 274.751 82.9802 275.377 82.9802 276.151Z" fill="white"/>
<path d="M272.98 276.151C272.98 276.924 272.354 277.552 271.58 277.552C270.807 277.552 270.18 276.924 270.18 276.151C270.18 275.377 270.807 274.751 271.58 274.751C272.354 274.751 272.98 275.377 272.98 276.151Z" fill="white"/>
<path d="M177.98 276.151C177.98 276.924 177.354 277.552 176.58 277.552C175.807 277.552 175.18 276.924 175.18 276.151C175.18 275.377 175.807 274.751 176.58 274.751C177.354 274.751 177.98 275.377 177.98 276.151Z" fill="white"/>
<path d="M88.8933 276.151C88.8933 276.924 88.2666 277.552 87.4933 277.552C86.7199 277.552 86.0933 276.924 86.0933 276.151C86.0933 275.377 86.7199 274.751 87.4933 274.751C88.2666 274.751 88.8933 275.377 88.8933 276.151Z" fill="white"/>
<path d="M278.893 276.151C278.893 276.924 278.267 277.552 277.493 277.552C276.72 277.552 276.093 276.924 276.093 276.151C276.093 275.377 276.72 274.751 277.493 274.751C278.267 274.751 278.893 275.377 278.893 276.151Z" fill="white"/>
<path d="M183.893 276.151C183.893 276.924 183.267 277.552 182.493 277.552C181.72 277.552 181.093 276.924 181.093 276.151C181.093 275.377 181.72 274.751 182.493 274.751C183.267 274.751 183.893 275.377 183.893 276.151Z" fill="white"/>
<path d="M34.4298 291.558C34.4298 292.331 33.8031 292.958 33.0284 292.958C32.2551 292.958 31.6284 292.331 31.6284 291.558C31.6284 290.783 32.2551 290.156 33.0284 290.156C33.8031 290.156 34.4298 290.783 34.4298 291.558Z" fill="white"/>
<path d="M224.43 291.558C224.43 292.331 223.803 292.958 223.028 292.958C222.255 292.958 221.628 292.331 221.628 291.558C221.628 290.783 222.255 290.156 223.028 290.156C223.803 290.156 224.43 290.783 224.43 291.558Z" fill="white"/>
<path d="M129.43 291.558C129.43 292.331 128.803 292.958 128.028 292.958C127.255 292.958 126.628 292.331 126.628 291.558C126.628 290.783 127.255 290.156 128.028 290.156C128.803 290.156 129.43 290.783 129.43 291.558Z" fill="white"/>
<path d="M40.3428 291.558C40.3428 292.331 39.7162 292.958 38.9415 292.958C38.1682 292.958 37.5415 292.331 37.5415 291.558C37.5415 290.783 38.1682 290.156 38.9415 290.156C39.7162 290.156 40.3428 290.783 40.3428 291.558Z" fill="white"/>
<path d="M230.343 291.558C230.343 292.331 229.716 292.958 228.942 292.958C228.168 292.958 227.542 292.331 227.542 291.558C227.542 290.783 228.168 290.156 228.942 290.156C229.716 290.156 230.343 290.783 230.343 291.558Z" fill="white"/>
<path d="M135.343 291.558C135.343 292.331 134.716 292.958 133.942 292.958C133.168 292.958 132.542 292.331 132.542 291.558C132.542 290.783 133.168 290.156 133.942 290.156C134.716 290.156 135.343 290.783 135.343 291.558Z" fill="white"/>
<path d="M46.2564 291.558C46.2564 292.331 45.6297 292.958 44.8551 292.958C44.0817 292.958 43.4551 292.331 43.4551 291.558C43.4551 290.783 44.0817 290.156 44.8551 290.156C45.6297 290.156 46.2564 290.783 46.2564 291.558Z" fill="white"/>
<path d="M236.256 291.558C236.256 292.331 235.63 292.958 234.855 292.958C234.082 292.958 233.455 292.331 233.455 291.558C233.455 290.783 234.082 290.156 234.855 290.156C235.63 290.156 236.256 290.783 236.256 291.558Z" fill="white"/>
<path d="M141.256 291.558C141.256 292.331 140.63 292.958 139.855 292.958C139.082 292.958 138.455 292.331 138.455 291.558C138.455 290.783 139.082 290.156 139.855 290.156C140.63 290.156 141.256 290.783 141.256 291.558Z" fill="white"/>
<path d="M90.4631 301.888H29.6484V295.068H90.4631V301.888Z" fill="#5DC7B1"/>
<path d="M280.463 301.888H219.648V295.068H280.463V301.888Z" fill="#5DC7B1"/>
<path d="M185.463 301.888H124.648V295.068H185.463V301.888Z" fill="#5DC7B1"/>
<path d="M90.4628 301.888V301.221H30.3148V295.735H89.7961V301.888H90.4628H91.1294V295.068C91.1294 294.892 91.0588 294.72 90.9348 294.596C90.8108 294.472 90.6388 294.401 90.4628 294.401H29.6481C29.4721 294.401 29.3001 294.472 29.1761 294.596C29.0521 294.72 28.9814 294.892 28.9814 295.068V301.888C28.9814 302.064 29.0521 302.235 29.1761 302.36C29.3001 302.484 29.4721 302.555 29.6481 302.555H90.4628C90.6388 302.555 90.8108 302.484 90.9348 302.36C91.0588 302.235 91.1294 302.064 91.1294 301.888H90.4628Z" fill="#1D2A30"/>
<path d="M280.463 301.888V301.221H220.315V295.735H279.796V301.888H280.463H281.129V295.068C281.129 294.892 281.059 294.72 280.935 294.596C280.811 294.472 280.639 294.401 280.463 294.401H219.648C219.472 294.401 219.3 294.472 219.176 294.596C219.052 294.72 218.981 294.892 218.981 295.068V301.888C218.981 302.064 219.052 302.235 219.176 302.36C219.3 302.484 219.472 302.555 219.648 302.555H280.463C280.639 302.555 280.811 302.484 280.935 302.36C281.059 302.235 281.129 302.064 281.129 301.888H280.463Z" fill="#1D2A30"/>
<path d="M185.463 301.888V301.221H125.315V295.735H184.796V301.888H185.463H186.129V295.068C186.129 294.892 186.059 294.72 185.935 294.596C185.811 294.472 185.639 294.401 185.463 294.401H124.648C124.472 294.401 124.3 294.472 124.176 294.596C124.052 294.72 123.981 294.892 123.981 295.068V301.888C123.981 302.064 124.052 302.235 124.176 302.36C124.3 302.484 124.472 302.555 124.648 302.555H185.463C185.639 302.555 185.811 302.484 185.935 302.36C186.059 302.235 186.129 302.064 186.129 301.888H185.463Z" fill="#1D2A30"/>
<path d="M77.0671 291.558C77.0671 292.331 76.4404 292.958 75.6671 292.958C74.8938 292.958 74.2671 292.331 74.2671 291.558C74.2671 290.783 74.8938 290.156 75.6671 290.156C76.4404 290.156 77.0671 290.783 77.0671 291.558Z" fill="white"/>
<path d="M267.067 291.558C267.067 292.331 266.44 292.958 265.667 292.958C264.894 292.958 264.267 292.331 264.267 291.558C264.267 290.783 264.894 290.156 265.667 290.156C266.44 290.156 267.067 290.783 267.067 291.558Z" fill="white"/>
<path d="M172.067 291.558C172.067 292.331 171.44 292.958 170.667 292.958C169.894 292.958 169.267 292.331 169.267 291.558C169.267 290.783 169.894 290.156 170.667 290.156C171.44 290.156 172.067 290.783 172.067 291.558Z" fill="white"/>
<path d="M82.9802 291.558C82.9802 292.331 82.3535 292.958 81.5802 292.958C80.8068 292.958 80.1802 292.331 80.1802 291.558C80.1802 290.783 80.8068 290.156 81.5802 290.156C82.3535 290.156 82.9802 290.783 82.9802 291.558Z" fill="white"/>
<path d="M272.98 291.558C272.98 292.331 272.354 292.958 271.58 292.958C270.807 292.958 270.18 292.331 270.18 291.558C270.18 290.783 270.807 290.156 271.58 290.156C272.354 290.156 272.98 290.783 272.98 291.558Z" fill="white"/>
<path d="M177.98 291.558C177.98 292.331 177.354 292.958 176.58 292.958C175.807 292.958 175.18 292.331 175.18 291.558C175.18 290.783 175.807 290.156 176.58 290.156C177.354 290.156 177.98 290.783 177.98 291.558Z" fill="white"/>
<path d="M88.8933 291.558C88.8933 292.331 88.2666 292.958 87.4933 292.958C86.7199 292.958 86.0933 292.331 86.0933 291.558C86.0933 290.783 86.7199 290.156 87.4933 290.156C88.2666 290.156 88.8933 290.783 88.8933 291.558Z" fill="white"/>
<path d="M278.893 291.558C278.893 292.331 278.267 292.958 277.493 292.958C276.72 292.958 276.093 292.331 276.093 291.558C276.093 290.783 276.72 290.156 277.493 290.156C278.267 290.156 278.893 290.783 278.893 291.558Z" fill="white"/>
<path d="M183.893 291.558C183.893 292.331 183.267 292.958 182.493 292.958C181.72 292.958 181.093 292.331 181.093 291.558C181.093 290.783 181.72 290.156 182.493 290.156C183.267 290.156 183.893 290.783 183.893 291.558Z" fill="white"/>
<path d="M34.4298 306.963C34.4298 307.736 33.8031 308.363 33.0284 308.363C32.2551 308.363 31.6284 307.736 31.6284 306.963C31.6284 306.189 32.2551 305.563 33.0284 305.563C33.8031 305.563 34.4298 306.189 34.4298 306.963Z" fill="white"/>
<path d="M224.43 306.963C224.43 307.736 223.803 308.363 223.028 308.363C222.255 308.363 221.628 307.736 221.628 306.963C221.628 306.189 222.255 305.563 223.028 305.563C223.803 305.563 224.43 306.189 224.43 306.963Z" fill="white"/>
<path d="M129.43 306.963C129.43 307.736 128.803 308.363 128.028 308.363C127.255 308.363 126.628 307.736 126.628 306.963C126.628 306.189 127.255 305.563 128.028 305.563C128.803 305.563 129.43 306.189 129.43 306.963Z" fill="white"/>
<path d="M40.3428 306.963C40.3428 307.736 39.7162 308.363 38.9415 308.363C38.1682 308.363 37.5415 307.736 37.5415 306.963C37.5415 306.189 38.1682 305.563 38.9415 305.563C39.7162 305.563 40.3428 306.189 40.3428 306.963Z" fill="white"/>
<path d="M230.343 306.963C230.343 307.736 229.716 308.363 228.942 308.363C228.168 308.363 227.542 307.736 227.542 306.963C227.542 306.189 228.168 305.563 228.942 305.563C229.716 305.563 230.343 306.189 230.343 306.963Z" fill="white"/>
<path d="M135.343 306.963C135.343 307.736 134.716 308.363 133.942 308.363C133.168 308.363 132.542 307.736 132.542 306.963C132.542 306.189 133.168 305.563 133.942 305.563C134.716 305.563 135.343 306.189 135.343 306.963Z" fill="white"/>
<path d="M46.2564 306.963C46.2564 307.736 45.6297 308.363 44.8551 308.363C44.0817 308.363 43.4551 307.736 43.4551 306.963C43.4551 306.189 44.0817 305.563 44.8551 305.563C45.6297 305.563 46.2564 306.189 46.2564 306.963Z" fill="white"/>
<path d="M236.256 306.963C236.256 307.736 235.63 308.363 234.855 308.363C234.082 308.363 233.455 307.736 233.455 306.963C233.455 306.189 234.082 305.563 234.855 305.563C235.63 305.563 236.256 306.189 236.256 306.963Z" fill="white"/>
<path d="M141.256 306.963C141.256 307.736 140.63 308.363 139.855 308.363C139.082 308.363 138.455 307.736 138.455 306.963C138.455 306.189 139.082 305.563 139.855 305.563C140.63 305.563 141.256 306.189 141.256 306.963Z" fill="white"/>
<path d="M90.4631 317.293H29.6484V310.473H90.4631V317.293Z" fill="#5DC7B1"/>
<path d="M280.463 317.293H219.648V310.473H280.463V317.293Z" fill="#5DC7B1"/>
<path d="M185.463 317.293H124.648V310.473H185.463V317.293Z" fill="#5DC7B1"/>
<path d="M90.4628 317.293V316.627H30.3148V311.14H89.7961V317.293H90.4628H91.1294V310.473C91.1294 310.297 91.0588 310.127 90.9348 310.001C90.8108 309.877 90.6388 309.807 90.4628 309.807H29.6481C29.4721 309.807 29.3001 309.877 29.1761 310.001C29.0521 310.127 28.9814 310.297 28.9814 310.473V317.293C28.9814 317.469 29.0521 317.641 29.1761 317.765C29.3001 317.889 29.4721 317.96 29.6481 317.96H90.4628C90.6388 317.96 90.8108 317.889 90.9348 317.765C91.0588 317.641 91.1294 317.469 91.1294 317.293H90.4628Z" fill="#1D2A30"/>
<path d="M280.463 317.293V316.627H220.315V311.14H279.796V317.293H280.463H281.129V310.473C281.129 310.297 281.059 310.127 280.935 310.001C280.811 309.877 280.639 309.807 280.463 309.807H219.648C219.472 309.807 219.3 309.877 219.176 310.001C219.052 310.127 218.981 310.297 218.981 310.473V317.293C218.981 317.469 219.052 317.641 219.176 317.765C219.3 317.889 219.472 317.96 219.648 317.96H280.463C280.639 317.96 280.811 317.889 280.935 317.765C281.059 317.641 281.129 317.469 281.129 317.293H280.463Z" fill="#1D2A30"/>
<path d="M185.463 317.293V316.627H125.315V311.14H184.796V317.293H185.463H186.129V310.473C186.129 310.297 186.059 310.127 185.935 310.001C185.811 309.877 185.639 309.807 185.463 309.807H124.648C124.472 309.807 124.3 309.877 124.176 310.001C124.052 310.127 123.981 310.297 123.981 310.473V317.293C123.981 317.469 124.052 317.641 124.176 317.765C124.3 317.889 124.472 317.96 124.648 317.96H185.463C185.639 317.96 185.811 317.889 185.935 317.765C186.059 317.641 186.129 317.469 186.129 317.293H185.463Z" fill="#1D2A30"/>
<path d="M77.0671 306.963C77.0671 307.736 76.4404 308.363 75.6671 308.363C74.8938 308.363 74.2671 307.736 74.2671 306.963C74.2671 306.189 74.8938 305.563 75.6671 305.563C76.4404 305.563 77.0671 306.189 77.0671 306.963Z" fill="white"/>
<path d="M267.067 306.963C267.067 307.736 266.44 308.363 265.667 308.363C264.894 308.363 264.267 307.736 264.267 306.963C264.267 306.189 264.894 305.563 265.667 305.563C266.44 305.563 267.067 306.189 267.067 306.963Z" fill="white"/>
<path d="M172.067 306.963C172.067 307.736 171.44 308.363 170.667 308.363C169.894 308.363 169.267 307.736 169.267 306.963C169.267 306.189 169.894 305.563 170.667 305.563C171.44 305.563 172.067 306.189 172.067 306.963Z" fill="white"/>
<path d="M82.9802 306.963C82.9802 307.736 82.3535 308.363 81.5802 308.363C80.8068 308.363 80.1802 307.736 80.1802 306.963C80.1802 306.189 80.8068 305.563 81.5802 305.563C82.3535 305.563 82.9802 306.189 82.9802 306.963Z" fill="white"/>
<path d="M272.98 306.963C272.98 307.736 272.354 308.363 271.58 308.363C270.807 308.363 270.18 307.736 270.18 306.963C270.18 306.189 270.807 305.563 271.58 305.563C272.354 305.563 272.98 306.189 272.98 306.963Z" fill="white"/>
<path d="M177.98 306.963C177.98 307.736 177.354 308.363 176.58 308.363C175.807 308.363 175.18 307.736 175.18 306.963C175.18 306.189 175.807 305.563 176.58 305.563C177.354 305.563 177.98 306.189 177.98 306.963Z" fill="white"/>
<path d="M88.8933 306.963C88.8933 307.736 88.2666 308.363 87.4933 308.363C86.7199 308.363 86.0933 307.736 86.0933 306.963C86.0933 306.189 86.7199 305.563 87.4933 305.563C88.2666 305.563 88.8933 306.189 88.8933 306.963Z" fill="white"/>
<path d="M278.893 306.963C278.893 307.736 278.267 308.363 277.493 308.363C276.72 308.363 276.093 307.736 276.093 306.963C276.093 306.189 276.72 305.563 277.493 305.563C278.267 305.563 278.893 306.189 278.893 306.963Z" fill="white"/>
<path d="M183.893 306.963C183.893 307.736 183.267 308.363 182.493 308.363C181.72 308.363 181.093 307.736 181.093 306.963C181.093 306.189 181.72 305.563 182.493 305.563C183.267 305.563 183.893 306.189 183.893 306.963Z" fill="white"/>
<path d="M34.4298 322.368C34.4298 323.142 33.8031 323.77 33.0284 323.77C32.2551 323.77 31.6284 323.142 31.6284 322.368C31.6284 321.595 32.2551 320.968 33.0284 320.968C33.8031 320.968 34.4298 321.595 34.4298 322.368Z" fill="white"/>
<path d="M224.43 322.368C224.43 323.142 223.803 323.77 223.028 323.77C222.255 323.77 221.628 323.142 221.628 322.368C221.628 321.595 222.255 320.968 223.028 320.968C223.803 320.968 224.43 321.595 224.43 322.368Z" fill="white"/>
<path d="M129.43 322.368C129.43 323.142 128.803 323.77 128.028 323.77C127.255 323.77 126.628 323.142 126.628 322.368C126.628 321.595 127.255 320.968 128.028 320.968C128.803 320.968 129.43 321.595 129.43 322.368Z" fill="white"/>
<path d="M40.3428 322.368C40.3428 323.142 39.7162 323.77 38.9415 323.77C38.1682 323.77 37.5415 323.142 37.5415 322.368C37.5415 321.595 38.1682 320.968 38.9415 320.968C39.7162 320.968 40.3428 321.595 40.3428 322.368Z" fill="white"/>
<path d="M230.343 322.368C230.343 323.142 229.716 323.77 228.942 323.77C228.168 323.77 227.542 323.142 227.542 322.368C227.542 321.595 228.168 320.968 228.942 320.968C229.716 320.968 230.343 321.595 230.343 322.368Z" fill="white"/>
<path d="M135.343 322.368C135.343 323.142 134.716 323.77 133.942 323.77C133.168 323.77 132.542 323.142 132.542 322.368C132.542 321.595 133.168 320.968 133.942 320.968C134.716 320.968 135.343 321.595 135.343 322.368Z" fill="white"/>
<path d="M46.2564 322.368C46.2564 323.142 45.6297 323.77 44.8551 323.77C44.0817 323.77 43.4551 323.142 43.4551 322.368C43.4551 321.595 44.0817 320.968 44.8551 320.968C45.6297 320.968 46.2564 321.595 46.2564 322.368Z" fill="white"/>
<path d="M236.256 322.368C236.256 323.142 235.63 323.77 234.855 323.77C234.082 323.77 233.455 323.142 233.455 322.368C233.455 321.595 234.082 320.968 234.855 320.968C235.63 320.968 236.256 321.595 236.256 322.368Z" fill="white"/>
<path d="M141.256 322.368C141.256 323.142 140.63 323.77 139.855 323.77C139.082 323.77 138.455 323.142 138.455 322.368C138.455 321.595 139.082 320.968 139.855 320.968C140.63 320.968 141.256 321.595 141.256 322.368Z" fill="white"/>
<path d="M90.4631 332.7H29.6484V325.879H90.4631V332.7Z" fill="#5DC7B1"/>
<path d="M280.463 332.7H219.648V325.879H280.463V332.7Z" fill="#5DC7B1"/>
<path d="M185.463 332.7H124.648V325.879H185.463V332.7Z" fill="#5DC7B1"/>
<path d="M90.4628 332.7V332.033H30.3148V326.545H89.7961V332.7H90.4628H91.1294V325.879C91.1294 325.704 91.0588 325.532 90.9348 325.408C90.8108 325.284 90.6388 325.212 90.4628 325.212H29.6481C29.4721 325.212 29.3001 325.284 29.1761 325.408C29.0521 325.532 28.9814 325.704 28.9814 325.879V332.7C28.9814 332.875 29.0521 333.047 29.1761 333.171C29.3001 333.295 29.4721 333.367 29.6481 333.367H90.4628C90.6388 333.367 90.8108 333.295 90.9348 333.171C91.0588 333.047 91.1294 332.875 91.1294 332.7H90.4628Z" fill="#1D2A30"/>
<path d="M280.463 332.7V332.033H220.315V326.545H279.796V332.7H280.463H281.129V325.879C281.129 325.704 281.059 325.532 280.935 325.408C280.811 325.284 280.639 325.212 280.463 325.212H219.648C219.472 325.212 219.3 325.284 219.176 325.408C219.052 325.532 218.981 325.704 218.981 325.879V332.7C218.981 332.875 219.052 333.047 219.176 333.171C219.3 333.295 219.472 333.367 219.648 333.367H280.463C280.639 333.367 280.811 333.295 280.935 333.171C281.059 333.047 281.129 332.875 281.129 332.7H280.463Z" fill="#1D2A30"/>
<path d="M185.463 332.7V332.033H125.315V326.545H184.796V332.7H185.463H186.129V325.879C186.129 325.704 186.059 325.532 185.935 325.408C185.811 325.284 185.639 325.212 185.463 325.212H124.648C124.472 325.212 124.3 325.284 124.176 325.408C124.052 325.532 123.981 325.704 123.981 325.879V332.7C123.981 332.875 124.052 333.047 124.176 333.171C124.3 333.295 124.472 333.367 124.648 333.367H185.463C185.639 333.367 185.811 333.295 185.935 333.171C186.059 333.047 186.129 332.875 186.129 332.7H185.463Z" fill="#1D2A30"/>
<path d="M77.0671 322.368C77.0671 323.142 76.4404 323.77 75.6671 323.77C74.8938 323.77 74.2671 323.142 74.2671 322.368C74.2671 321.595 74.8938 320.968 75.6671 320.968C76.4404 320.968 77.0671 321.595 77.0671 322.368Z" fill="white"/>
<path d="M267.067 322.368C267.067 323.142 266.44 323.77 265.667 323.77C264.894 323.77 264.267 323.142 264.267 322.368C264.267 321.595 264.894 320.968 265.667 320.968C266.44 320.968 267.067 321.595 267.067 322.368Z" fill="white"/>
<path d="M172.067 322.368C172.067 323.142 171.44 323.77 170.667 323.77C169.894 323.77 169.267 323.142 169.267 322.368C169.267 321.595 169.894 320.968 170.667 320.968C171.44 320.968 172.067 321.595 172.067 322.368Z" fill="white"/>
<path d="M82.9802 322.368C82.9802 323.142 82.3535 323.77 81.5802 323.77C80.8068 323.77 80.1802 323.142 80.1802 322.368C80.1802 321.595 80.8068 320.968 81.5802 320.968C82.3535 320.968 82.9802 321.595 82.9802 322.368Z" fill="white"/>
<path d="M272.98 322.368C272.98 323.142 272.354 323.77 271.58 323.77C270.807 323.77 270.18 323.142 270.18 322.368C270.18 321.595 270.807 320.968 271.58 320.968C272.354 320.968 272.98 321.595 272.98 322.368Z" fill="white"/>
<path d="M177.98 322.368C177.98 323.142 177.354 323.77 176.58 323.77C175.807 323.77 175.18 323.142 175.18 322.368C175.18 321.595 175.807 320.968 176.58 320.968C177.354 320.968 177.98 321.595 177.98 322.368Z" fill="white"/>
<path d="M88.8933 322.368C88.8933 323.142 88.2666 323.77 87.4933 323.77C86.7199 323.77 86.0933 323.142 86.0933 322.368C86.0933 321.595 86.7199 320.968 87.4933 320.968C88.2666 320.968 88.8933 321.595 88.8933 322.368Z" fill="white"/>
<path d="M278.893 322.368C278.893 323.142 278.267 323.77 277.493 323.77C276.72 323.77 276.093 323.142 276.093 322.368C276.093 321.595 276.72 320.968 277.493 320.968C278.267 320.968 278.893 321.595 278.893 322.368Z" fill="white"/>
<path d="M183.893 322.368C183.893 323.142 183.267 323.77 182.493 323.77C181.72 323.77 181.093 323.142 181.093 322.368C181.093 321.595 181.72 320.968 182.493 320.968C183.267 320.968 183.893 321.595 183.893 322.368Z" fill="white"/>
<path d="M34.4294 347.585H33.7628C33.7614 347.991 33.4334 348.319 33.0281 348.319C32.6241 348.319 32.2961 347.991 32.2948 347.585C32.2961 347.18 32.6241 346.852 33.0281 346.852C33.4334 346.852 33.7614 347.18 33.7628 347.585H34.4294H35.0961C35.0961 346.444 34.1708 345.519 33.0281 345.519C31.8868 345.519 30.9614 346.444 30.9614 347.585C30.9614 348.728 31.8868 349.652 33.0281 349.652C34.1708 349.652 35.0961 348.728 35.0961 347.585H34.4294Z" fill="#1D2A30"/>
<path d="M224.429 347.585H223.763C223.761 347.991 223.433 348.319 223.028 348.319C222.624 348.319 222.296 347.991 222.295 347.585C222.296 347.18 222.624 346.852 223.028 346.852C223.433 346.852 223.761 347.18 223.763 347.585H224.429H225.096C225.096 346.444 224.171 345.519 223.028 345.519C221.887 345.519 220.961 346.444 220.961 347.585C220.961 348.728 221.887 349.652 223.028 349.652C224.171 349.652 225.096 348.728 225.096 347.585H224.429Z" fill="#1D2A30"/>
<path d="M129.429 347.585H128.763C128.761 347.991 128.433 348.319 128.028 348.319C127.624 348.319 127.296 347.991 127.295 347.585C127.296 347.18 127.624 346.852 128.028 346.852C128.433 346.852 128.761 347.18 128.763 347.585H129.429H130.096C130.096 346.444 129.171 345.519 128.028 345.519C126.887 345.519 125.961 346.444 125.961 347.585C125.961 348.728 126.887 349.652 128.028 349.652C129.171 349.652 130.096 348.728 130.096 347.585H129.429Z" fill="#1D2A30"/>
<path d="M40.343 347.585H39.6763C39.675 347.991 39.347 348.319 38.9417 348.319C38.5377 348.319 38.2097 347.991 38.2083 347.585C38.2097 347.18 38.5377 346.852 38.9417 346.852C39.347 346.852 39.675 347.18 39.6763 347.585H40.343H41.0097C41.0083 346.444 40.0843 345.519 38.9417 345.519C37.8003 345.519 36.875 346.444 36.875 347.585C36.875 348.728 37.8003 349.652 38.9417 349.652C40.0843 349.652 41.0083 348.728 41.0097 347.585H40.343Z" fill="#1D2A30"/>
<path d="M230.343 347.585H229.676C229.675 347.991 229.347 348.319 228.942 348.319C228.538 348.319 228.21 347.991 228.208 347.585C228.21 347.18 228.538 346.852 228.942 346.852C229.347 346.852 229.675 347.18 229.676 347.585H230.343H231.01C231.008 346.444 230.084 345.519 228.942 345.519C227.8 345.519 226.875 346.444 226.875 347.585C226.875 348.728 227.8 349.652 228.942 349.652C230.084 349.652 231.008 348.728 231.01 347.585H230.343Z" fill="#1D2A30"/>
<path d="M135.343 347.585H134.676C134.675 347.991 134.347 348.319 133.942 348.319C133.538 348.319 133.21 347.991 133.208 347.585C133.21 347.18 133.538 346.852 133.942 346.852C134.347 346.852 134.675 347.18 134.676 347.585H135.343H136.01C136.008 346.444 135.084 345.519 133.942 345.519C132.8 345.519 131.875 346.444 131.875 347.585C131.875 348.728 132.8 349.652 133.942 349.652C135.084 349.652 136.008 348.728 136.01 347.585H135.343Z" fill="#1D2A30"/>
<path d="M46.2561 347.585H45.5894C45.5881 347.991 45.2601 348.319 44.8548 348.319C44.4508 348.319 44.1228 347.991 44.1214 347.585C44.1228 347.18 44.4508 346.852 44.8548 346.852C45.2601 346.852 45.5881 347.18 45.5894 347.585H46.2561H46.9228C46.9214 346.444 45.9974 345.519 44.8548 345.519C43.7134 345.519 42.7881 346.444 42.7881 347.585C42.7881 348.728 43.7134 349.652 44.8548 349.652C45.9974 349.652 46.9214 348.728 46.9228 347.585H46.2561Z" fill="#1D2A30"/>
<path d="M236.256 347.585H235.589C235.588 347.991 235.26 348.319 234.855 348.319C234.451 348.319 234.123 347.991 234.121 347.585C234.123 347.18 234.451 346.852 234.855 346.852C235.26 346.852 235.588 347.18 235.589 347.585H236.256H236.923C236.921 346.444 235.997 345.519 234.855 345.519C233.713 345.519 232.788 346.444 232.788 347.585C232.788 348.728 233.713 349.652 234.855 349.652C235.997 349.652 236.921 348.728 236.923 347.585H236.256Z" fill="#1D2A30"/>
<path d="M141.256 347.585H140.589C140.588 347.991 140.26 348.319 139.855 348.319C139.451 348.319 139.123 347.991 139.121 347.585C139.123 347.18 139.451 346.852 139.855 346.852C140.26 346.852 140.588 347.18 140.589 347.585H141.256H141.923C141.921 346.444 140.997 345.519 139.855 345.519C138.713 345.519 137.788 346.444 137.788 347.585C137.788 348.728 138.713 349.652 139.855 349.652C140.997 349.652 141.921 348.728 141.923 347.585H141.256Z" fill="#1D2A30"/>
</svg>
