<svg width="60" height="60" viewBox="0 0 60 60" fill="none" xmlns="http://www.w3.org/2000/svg">
<rect width="60" height="60" rx="30" fill="url(#paint0_linear_1977_5991)"/>
<path fill-rule="evenodd" clip-rule="evenodd" d="M15 19.924C15 18.5853 16.0933 17.5 17.4419 17.5H42.5581C43.9067 17.5 45 18.5853 45 19.924V25.4645C45 26.8033 43.9067 27.8885 42.5581 27.8885H17.4419C16.0933 27.8885 15 26.8033 15 25.4645V19.924ZM17.4419 19.5777C17.2492 19.5777 17.093 19.7327 17.093 19.924V25.4645C17.093 25.6558 17.2492 25.8108 17.4419 25.8108H42.5581C42.7508 25.8108 42.907 25.6558 42.907 25.4645V19.924C42.907 19.7327 42.7508 19.5777 42.5581 19.5777H17.4419Z" fill="white"/>
<path d="M24.7674 32.9138C24.7674 32.3401 25.2359 31.875 25.8139 31.875H34.186C34.764 31.875 35.2325 32.3401 35.2325 32.9138C35.2325 33.4876 34.764 33.9527 34.186 33.9527H25.8139C25.2359 33.9527 24.7674 33.4876 24.7674 32.9138Z" fill="white"/>
<path d="M19.8837 30.0388C19.8837 29.4651 19.4152 29 18.8372 29C18.2592 29 17.7907 29.4651 17.7907 30.0388V41.1199C17.7907 42.4587 18.8839 43.5439 20.2325 43.5439H39.7674C41.116 43.5439 42.2093 42.4587 42.2093 41.1199V30.0388C42.2093 29.4651 41.7407 29 41.1628 29C40.5848 29 40.1163 29.4651 40.1163 30.0388V41.1199C40.1163 41.3112 39.9601 41.4662 39.7674 41.4662H20.2325C20.0399 41.4662 19.8837 41.3112 19.8837 41.1199V30.0388Z" fill="white"/>
<defs>
<linearGradient id="paint0_linear_1977_5991" x1="30" y1="-5.51343e-07" x2="11.5" y2="60" gradientUnits="userSpaceOnUse">
<stop stop-color="#49A18E"/>
<stop offset="1" stop-color="#5DC7B1"/>
</linearGradient>
</defs>
</svg>
