<svg width="60" height="60" viewBox="0 0 60 60" fill="none" xmlns="http://www.w3.org/2000/svg">
<rect width="60" height="60" rx="30" fill="url(#paint0_linear_1977_6001)"/>
<path fill-rule="evenodd" clip-rule="evenodd" d="M15.8931 43.6792L15.9108 43.6998C16.5163 44.401 17.3773 44.8755 18.349 44.9788L18.375 44.9815C18.4778 44.9917 18.5819 44.9977 18.687 44.9995L18.75 45H35.6162H35.625C40.8027 45 45 40.8027 45 35.625C45 32.0654 43.0161 28.9691 40.0937 27.3815C39.8599 27.2545 39.6202 27.1372 39.375 27.0301V18.75C39.375 18.6899 39.3736 18.6301 39.3708 18.5706C39.33 17.7041 38.9954 16.9149 38.4642 16.3002C37.8587 15.599 36.9978 15.1245 36.0261 15.0212L36 15.0185C35.8972 15.0083 35.7931 15.0023 35.688 15.0005L35.625 15H18.75C17.8136 15 16.9573 15.3432 16.3002 15.9108C15.599 16.5163 15.1245 17.3772 15.0212 18.3489L15.0185 18.375C15.0083 18.4778 15.0023 18.5819 15.0005 18.687L15 18.75V41.2518C15.0004 42.1782 15.3364 43.0255 15.8931 43.6792ZM29.9991 43.125H18.75L18.5313 43.1124C17.5988 43.0041 16.875 42.2116 16.875 41.25L16.8751 18.7487L16.8876 18.5313C16.9959 17.5988 17.7884 16.875 18.75 16.875L35.6263 16.8751L35.8437 16.8876C36.7762 16.9959 37.5 17.7884 37.5 18.75V26.4375C36.8942 26.3146 36.2671 26.25 35.625 26.25C30.4473 26.25 26.25 30.4473 26.25 35.625C26.25 37.7355 26.9474 39.6831 28.1243 41.25C28.2106 41.3649 28.2994 41.4777 28.3908 41.5884C28.5344 41.7624 28.6842 41.9312 28.8398 42.0943C28.9947 42.2567 29.1554 42.4136 29.3215 42.5645L29.3286 42.5711C29.5433 42.7658 29.767 42.9506 29.9991 43.125ZM35.625 28.125C35.6895 28.125 35.7538 28.1258 35.8179 28.1274C39.2352 28.2137 42.0845 30.5857 42.8943 33.7718C43.045 34.3647 43.125 34.9856 43.125 35.625C43.125 39.7671 39.7671 43.125 35.625 43.125C33.641 43.125 31.837 42.3547 30.4957 41.0968C30.3933 41.0007 30.2935 40.9018 30.1966 40.8002C28.9131 39.4543 28.125 37.6317 28.125 35.625C28.125 31.4829 31.4829 28.125 35.625 28.125ZM29.0625 22.5H21.5625C21.0447 22.5 20.625 22.9197 20.625 23.4375C20.625 23.9553 21.0447 24.375 21.5625 24.375H29.0625C29.5803 24.375 30 23.9553 30 23.4375C30 22.9197 29.5803 22.5 29.0625 22.5ZM23.4375 28.125H21.5625C21.0447 28.125 20.625 28.5447 20.625 29.0625C20.625 29.5803 21.0447 30 21.5625 30H23.4375C23.9553 30 24.375 29.5803 24.375 29.0625C24.375 28.5447 23.9553 28.125 23.4375 28.125ZM20.625 34.6875C20.625 34.1697 21.0447 33.75 21.5625 33.75H23.4375C23.9553 33.75 24.375 34.1697 24.375 34.6875C24.375 35.2053 23.9553 35.625 23.4375 35.625H21.5625C21.0447 35.625 20.625 35.2053 20.625 34.6875ZM36.5625 31.875C36.5625 31.3572 36.1428 30.9375 35.625 30.9375C35.1072 30.9375 34.6875 31.3572 34.6875 31.875V37.1117L33.4754 35.8996C33.2015 35.6257 32.8002 35.5567 32.4622 35.6926C32.3484 35.7384 32.2418 35.8074 32.1496 35.8996C31.8827 36.1665 31.8104 36.5542 31.9326 36.8866C31.978 37.0102 32.0504 37.1262 32.1496 37.2254L35.625 40.7008L39.1004 37.2254C39.4665 36.8593 39.4665 36.2657 39.1004 35.8996C38.7343 35.5335 38.1407 35.5335 37.7746 35.8996L36.5625 37.1117V31.875Z" fill="white"/>
<defs>
<linearGradient id="paint0_linear_1977_6001" x1="30" y1="-5.51343e-07" x2="11.5" y2="60" gradientUnits="userSpaceOnUse">
<stop stop-color="#49A18E"/>
<stop offset="1" stop-color="#5DC7B1"/>
</linearGradient>
</defs>
</svg>
