<svg width="153" height="159" viewBox="0 0 153 159" fill="none" xmlns="http://www.w3.org/2000/svg">
<path d="M92.3334 14.1562V47.2006C92.3334 51.681 92.3334 53.9212 93.2054 55.6325C93.9726 57.1378 95.1958 58.3616 96.7014 59.1286C98.4126 60.0006 100.653 60.0006 105.133 60.0006H138.177M52.3334 124L68.3334 140L104.333 104M92.3334 12H50.7334C37.2921 12 30.5715 12 25.4376 14.6158C20.9217 16.9168 17.2502 20.5883 14.9492 25.1042C12.3334 30.2381 12.3334 36.9587 12.3334 50.4V133.6C12.3334 147.042 12.3334 153.762 14.9492 158.896C17.2502 163.412 20.9217 167.083 25.4376 169.384C30.5715 172 37.2921 172 50.7334 172H101.933C115.375 172 122.095 172 127.229 169.384C131.745 167.083 135.417 163.412 137.717 158.896C140.333 153.762 140.333 147.042 140.333 133.6V60L92.3334 12Z" stroke="#C8CBE8" stroke-opacity="0.15" stroke-width="24" stroke-linecap="round" stroke-linejoin="round"/>
</svg>
