<svg width="179" height="156" viewBox="0 0 179 156" fill="none" xmlns="http://www.w3.org/2000/svg">
<path d="M154.711 53.6701L85.7182 92M85.7182 92L16.7248 53.6701M85.7182 92V169.11M101.952 164.15L92.025 169.664C89.723 170.944 88.5721 171.582 87.3537 171.833C86.2742 172.056 85.1622 172.056 84.0835 171.833C82.8643 171.582 81.7133 170.944 79.4114 169.664L19.3465 136.295C16.9155 134.945 15.6997 134.269 14.8146 133.308C14.0316 132.459 13.4389 131.452 13.0764 130.355C12.6666 129.114 12.6666 127.724 12.6666 124.942V59.0573C12.6666 56.2761 12.6666 54.8855 13.0764 53.6453C13.4389 52.5481 14.0316 51.5409 14.8146 50.6912C15.6997 49.7306 16.9154 49.0553 19.3465 47.7047L79.4114 14.3354C81.7133 13.0565 82.8643 12.4171 84.0835 12.1664C85.1622 11.9445 86.2742 11.9445 87.3537 12.1664C88.5721 12.4171 89.723 13.0565 92.025 14.3354L152.09 47.7047C154.521 49.0553 155.736 49.7306 156.622 50.6912C157.404 51.5409 157.998 52.5481 158.36 53.6453C158.77 54.8855 158.77 56.2761 158.77 59.0573V96.0585M49.1924 31.1236L122.244 71.7078M118.186 140.701L134.419 156.935L166.887 124.467" stroke="#C8CBE8" stroke-opacity="0.15" stroke-width="24" stroke-linecap="round" stroke-linejoin="round"/>
</svg>
