<svg width="184" height="138" viewBox="0 0 184 138" fill="none" xmlns="http://www.w3.org/2000/svg">
<path d="M172 83H12M84 170H146.4C155.361 170 159.842 170 163.264 168.256C166.274 166.722 168.722 164.274 170.256 161.264C172 157.842 172 153.361 172 144.4V53.6C172 44.6392 172 40.1587 170.256 36.7362C168.722 33.7256 166.274 31.2779 163.264 29.7439C159.842 28 155.361 28 146.4 28H132M84 170L100 186M84 170L100 154M52 170H37.6C28.6391 170 24.1587 170 20.7362 168.256C17.7255 166.722 15.2778 164.274 13.7439 161.264C12 157.842 12 153.361 12 144.4V53.6C12 44.6392 12 40.1587 13.7439 36.7362C15.2778 33.7255 17.7256 31.2778 20.7362 29.7439C24.1587 28 28.6392 28 37.6 28H100M100 28L84 44M100 28L84 12" stroke="#C8CBE8" stroke-opacity="0.15" stroke-width="24" stroke-linecap="round" stroke-linejoin="round"/>
</svg>
